<svg width="1024" height="1024" viewBox="0 0 1024 1024" fill="none" xmlns="http://www.w3.org/2000/svg">
<g clip-path="url(#clip0_1309_1197)">
<rect width="1024" height="1024" fill="black"/>
<path opacity="0.7" d="M-311.082 289.051C-311.082 289.051 659.605 623.529 511.5 289.051C363.395 -45.4272 1334.08 289.051 1334.08 289.051V1464.16H-311.082L-311.082 289.051Z" fill="url(#paint0_linear_1309_1197)"/>
<path d="M191 244C185.89 242.77 182.15 237.66 177.94 234.56C175.38 232.68 170.61 231.33 168.46 229.02C166.72 227.14 167.27 225.36 167 225C167.33 223.12 169.95 225.55 170.49 226.01C177.48 231.91 184.32 237.89 191 244Z" fill="#0F0938"/>
<path d="M242 178C238.79 174.24 234.81 170.8 233 166C235.83 169.49 241.28 172.98 242 178Z" fill="#0F0938"/>
<path d="M878 403C882.54 401.99 886.58 399.8 892 401.01C889.04 406.17 887.48 409.22 888.11 415.39C888.41 418.31 890.76 422.76 890.78 424.68C890.82 427.62 886.31 436.75 886.97 440.46C887.22 441.85 890.74 449.45 891.53 451.97C892.32 454.49 893.32 462.34 894.48 464.04C895.12 464.98 897.06 464.73 897.67 465.3C898.88 466.45 899.19 468.75 900.27 469.71C901.53 470.83 904.02 470.26 903.99 471.98C898 475.19 878.38 474.27 874.55 479.05C870.28 484.38 874.33 494.45 872.78 501.28C871.96 504.92 868.5 504.74 867.98 507.48C867.56 509.69 867.7 517.06 868.06 519.43C869.22 527.06 875.53 526.03 877.91 530.67C879.17 533.13 877.55 534.62 878.1 536.31C878.58 537.78 881 538.17 881.91 539.59C884.2 543.19 881.24 546.82 887.75 548.75C890.26 549.49 907.09 551.11 906.98 553.5C901.39 555.77 904.38 559.04 903.58 562.04C902.12 567.49 901.33 571.15 900.99 577.5C900.45 587.65 900.85 596.37 901.9 607.61C902.04 609.11 901.04 610.63 901.22 612.27C901.57 615.55 905.98 621.76 905.89 622.31C905.78 623 902.21 629.52 900.56 628.08L864.05 621.03C859.84 638.02 856.09 655.33 850.49 671.97C848.93 676.6 844.92 681.13 844.96 686.55C844.99 690.82 848.21 689.59 850.97 691.54C853.48 693.31 855.74 696.02 858.01 698L844.27 689.75C840.82 686.29 848.29 673.74 849.72 669.22C852.51 660.43 855.29 651.1 857.72 642.22C858.79 638.29 860.9 623.08 862.48 620.99C863.62 619.48 865.79 619.95 867.38 620.09C877.6 621.02 889.59 625.77 900 627C898.94 624.83 900 622.71 899.76 620.78C898.48 610.66 896 598.03 897.05 587.56C897.23 585.74 898.81 584.39 898.88 582.56C899.06 577.81 896.97 569.64 897.25 564.75C897.37 562.56 901.68 552.64 901.02 552.01C894.86 550.97 885.54 551.09 881.46 546.06C878.6 542.53 880.31 539.77 873.02 541C875.73 536.46 870.78 535.78 870.15 533.29C869.71 531.56 870.94 530 870.75 528.65C870.52 527.1 866.91 522.89 866.28 519.26C865.87 516.87 865.62 505.55 866.02 503.5C866.55 500.77 869.23 501.15 869.87 499.35C871.8 493.9 868.76 486.5 870.59 481.06C873.72 471.78 895.26 477.63 896.07 468.43C896.24 466.52 893.9 466.91 892.78 464.78C889.75 459.02 889.79 449.86 886.5 444.04C885.55 442.36 882.96 442.2 882.97 441.46C882.99 440.2 884.65 438.38 884.97 436.45C886.02 430.17 885.26 425.52 885.13 419.62C885.03 415.2 887.71 411.12 883.05 406.51L886.03 403.03H878.04L878 403Z" fill="#0F0938"/>
<path d="M76.0097 462C74.6497 460.38 77.8197 455.46 79.9897 455C80.7797 456.43 77.6797 463.99 76.0097 462Z" fill="#0F0938"/>
<path d="M825 481C826.22 488.56 819.61 485.51 818.03 486.47C813.05 489.48 816.7 503.99 816.9 509.35C813.56 512.59 809.75 511.84 811 518C808.53 516.32 805.15 518.06 803.62 517.78C802.3 517.54 801.36 515.24 800.53 515.22C800.05 515.22 797.23 517.68 795.25 517.86C792.95 518.06 792.12 516.15 790.54 516.06C788.79 515.96 787 517.78 784.88 517.52C783.13 517.31 779.94 514.39 779.05 515.02C778.85 515.16 777.03 519.25 777.03 519.5C776.99 521.89 781.3 524.79 781.85 526.74C782.27 528.23 781.01 533.3 782.02 534C782.77 534.52 785.99 532.92 787.51 533C795.03 533.38 805.01 535.2 812.57 534.88C815.58 534.75 817.24 530.75 819.89 535.63C821.37 538.35 820.3 541.45 823.98 542.6C826.97 543.53 829 541.54 831.28 542.14C834.66 543.03 844.01 548.4 848.76 549.74C852.79 550.88 861.79 550.78 864 553C845.02 554.57 826.91 560.44 808.21 563.71C770.6 570.29 732.3 572.96 694.46 577.61C693.51 578.3 686.2 571.97 689 577C688.52 578.9 687.62 578.89 687 577C687.69 573.71 684.58 576.12 683.69 573.76C683.31 572.76 683.9 566.27 684.02 564.5C685.35 544.79 689.58 524.99 691.94 505.42C727.05 501.19 762.56 497.83 797.22 490.7C807.58 488.57 816.12 486.96 825.01 480.99L825 481Z" fill="#0F0938"/>
<path d="M837 469C837.62 473.91 836.96 474.79 832 475C833.54 473.36 835.7 470.81 837 469Z" fill="#595958"/>
<path d="M838 457C837.28 458.63 835.2 457.77 834 458C835.27 451.84 837.58 456.87 838 457Z" fill="#595958"/>
<path d="M851 571C845.93 576.01 843.11 579.63 835.98 582.48C828.85 585.33 796.26 591.69 789 591C788.19 590.92 785.87 589.05 784 590C792.67 588.6 801.61 587.39 810.23 585.73C822.2 583.42 837.4 581.2 846 572C844.88 569.4 846.76 568.38 849 570L851 571Z" fill="#0F0938"/>
<path d="M313.001 724C310.641 727.68 309.261 733.16 312.011 736.99C313.671 737.4 312.511 735.61 313.461 735.21C316.621 733.9 327.311 734.07 330.551 735.19C331.011 735.35 331.261 738.15 331.991 736.99C332.231 736.6 331.591 735.1 332.421 735.09C333.641 735.08 343.381 736.52 344.281 736.99C348.191 739.03 341.571 749.16 348.461 749.06C353.411 748.98 358.721 747.44 363.551 746.96C365.591 746.76 367.101 747.99 369.781 747.37C376.141 745.91 380.161 736.28 382.641 735.26C385.471 734.1 399.661 736.78 404.221 734.76C408.261 732.98 413.021 725.24 417.051 722.56C420.651 720.17 424.041 721.1 427.521 719.02L430.501 724.99L433.991 719.01L434.991 722C433.881 718.14 444.751 721.68 444.021 725C445.611 725.34 445.311 722.11 446.501 722.02C446.671 722.01 448.271 723.37 449.501 723.58C458.961 725.18 464.141 725.09 473.521 727.74C474.701 728.07 478.521 728.37 480.011 728.33C482.031 728.28 480.741 729.6 481.021 730.99C483.001 731.43 481.351 727.51 482.501 728C484.011 728.64 486.261 730.77 486.501 730.83C487.721 731.13 495.041 730.65 496.391 731.01C497.251 731.24 497.041 732.3 497.011 732.98C498.461 733.31 497.961 732.35 498.011 730.99C499.961 730.63 498.041 733.35 499.991 732.99C500.391 728.2 500.931 732.75 501.081 732.88C501.231 733.01 503.351 731.94 504.541 731.95C507.151 731.95 512.451 733.29 514.511 733.01C522.751 731.9 520.601 732.49 528.471 733.04C545.101 734.21 559.201 728.24 573.471 725.48C575.511 725.09 577.451 725.72 579.131 725.43C580.141 725.26 581.621 723.69 582.001 723.99C582.341 724.26 581.231 726.42 583.001 725.98C583.061 721.45 590.881 724.32 593.571 723.63C594.811 723.31 594.521 721.55 595.511 721.15C597.021 720.54 603.001 723.41 602.021 720C603.951 719.5 602.021 722.2 603.991 721.99C604.231 719.07 609.671 717.56 612.391 718.04C620.631 719.48 621.891 722.7 627.531 727.02C628.421 727.7 629.651 727.11 629.811 727.26C631.191 728.53 631.791 732.17 631.011 734C633.651 732.16 632.331 734.82 634.431 735.08C638.101 735.55 660.111 733 661.001 733.99C661.201 734.21 660.621 737.22 661.531 739C661.721 739.37 666.961 744.27 667.991 744.01L666.001 745.99C668.611 745.97 670.481 747.87 672.881 748.46C675.281 749.05 679.651 746.92 679.011 749.99H679.981C678.771 747.21 686.831 747.75 686.491 750.01C686.331 746.94 693.721 748.6 694.521 747.1C696.231 743.87 692.521 738.62 696.641 736.11L729.991 734.99C728.391 732.56 730.221 729.43 729.831 727.69C729.651 726.87 727.761 725.06 726.991 723.99L777.941 730.01L778.001 732.98C779.881 733.28 777.951 730.56 780.401 731.04C782.651 731.47 783.391 732.76 783.001 734.98L784.981 731.99C785.191 734.26 784.731 736.75 784.991 738.99C785.011 738.93 785.901 739.22 786.021 738.39C786.241 736.88 785.001 733.1 786.981 732.99C786.331 734.9 788.101 738.11 787.831 739.39C787.451 741.16 785.401 742.54 784.991 738.99C782.971 744.1 782.161 741.18 779.211 742.31C767.761 746.71 762.761 747.57 749.991 748.99C748.111 751.21 744.101 752.22 741.991 749.99C739.701 750.21 737.291 749.79 734.991 749.99L716.741 753.53C570.211 765.32 417.721 762.66 274.761 747.95L261.981 742.99C258.341 740.99 256.901 741.5 253.981 737.99C252.431 735.25 253.221 733.37 255.691 731.56C257.111 730.52 265.291 728.64 267.581 728.19C281.231 725.54 295.091 723.64 309.071 722.53L312.971 723.99L313.001 724Z" fill="black"/>
<path d="M337 578C336.46 582.54 335.38 587.98 335 592C335.15 591.06 334.23 590.51 334 590C332.47 586.6 333.26 579.34 335 576L337 578Z" fill="#0F0938"/>
<path d="M832 566C834.26 563.16 848.05 558.81 850.34 559.98C853.94 561.82 844.99 572.3 842 571C842.26 571.95 842.36 573.05 841.67 573.59C835.96 578.06 828.84 580.25 821.87 581.94C796.34 587.11 769.85 590.66 744 594C727.99 597.18 711.77 598.99 695.32 599.44L696 601C691.64 605.31 692.04 595 694.64 594.14L769 585L769.6 583.85C787.34 582.25 804.65 578.73 821.55 573.3L823.01 574L824.38 573.73C826.17 575.55 826.71 574.97 826.01 572L825.4 570.78L832.01 566H832Z" fill="#F4F3F1"/>
<path d="M827.001 563L828.631 565.3C825.261 567.96 822.381 570.2 820.001 572C819.801 572.68 819.551 573.33 819.131 573.85C816.631 576.99 783.661 582.38 777.261 583.36C774.331 583.8 770.481 584.22 768.001 583L767.531 581.77C775.551 579.73 761.111 585.17 760.001 581C753.141 583.07 752.331 576.75 757.001 574C780.071 571.09 803.671 566.15 827.001 563Z" fill="#C3C1BC"/>
<path d="M757.001 574L756.001 580.99H760.001L755.981 583.6C735.061 587.46 713.861 591.14 693.001 590C692.811 585.98 691.461 581.01 695.721 580.27C715.411 576.84 737.161 576.5 757.001 574Z" fill="#F4F3F1"/>
<path d="M842 571C845.53 568.78 846.86 569.11 846 572C846.29 572.73 846.47 573.37 846.23 573.68C842.38 578.57 835.53 580.97 829.82 582.84C815.91 587.38 798.62 589.06 784 590C769.44 592.35 754.58 594.36 740 596C740.44 594.88 741.78 594.21 744 594C759.92 588.98 780.86 587.85 798.25 584.75C811.97 582.3 832.02 580.52 842 571Z" fill="#F4F3F1"/>
<path d="M832 566C830.35 567.57 827.67 570.74 826 572C826.67 574.92 825.41 575.73 823 574C811.56 580.86 791.09 580.92 777.99 584.01L779.01 585.99C775.66 584.6 772.16 585.42 769 585C768.59 584.94 767.2 583.49 766 584C766.19 583.96 767.3 583.27 768 583C785.19 579.3 803.94 579.45 820 572C823.11 569.57 826.32 567.16 829.64 564.77L832 566Z" fill="#0F0938"/>
<path d="M827 563C829.61 562.65 833.73 560.18 833 564C832.58 564.42 832.42 565.6 832 566C828.03 567.37 824.2 570.05 820 572C817.78 571.15 821.03 569.93 821.56 569.62C824.15 568.12 826.87 566.88 827 563Z" fill="#F4F3F1"/>
<path d="M826 572L828.98 574.5C826.55 577.74 824.93 577.68 823 574C824.01 573.4 825.06 572.71 826 572Z" fill="#F4F3F1"/>
<path d="M210.001 352L216.041 351.62C254.321 357.1 292.701 361.98 331.161 366.24C330.851 353.34 339.741 337.18 353.441 348.89C352.061 337.72 352.621 326.96 355.121 316.61C357.151 314.65 382.871 312.18 383.211 319.15C385.041 337.19 385.131 355.28 383.491 373.42C473.831 379.09 564.521 378.83 655.021 374.47L655.651 319.54C658.891 312.43 691.401 310.8 686.191 325.85L684.581 351.05C689.981 350.38 694.031 350.84 693.721 357.41L693.901 372.04C730.941 370.33 767.751 367.04 804.321 362.17L808.011 363.01C823.071 360.94 838.061 358.38 853.011 356.01C857.441 355.31 863.081 354.01 867.221 353.66C868.081 353.59 869.701 352.74 870.021 354.54C870.271 355.93 860.881 368.17 859.011 370.02C858.821 370.2 855.941 372.28 855.011 373.02C855.291 373.97 846.961 381.27 842.731 383.32C838.731 385.25 788.041 393.95 783.841 394.56C753.481 398.99 722.541 401.15 691.961 402.57C688.731 422.01 686.261 441.49 684.551 461.02C692.971 459.53 696.081 464.5 693.871 475.92C737.501 472.48 780.851 466.73 823.911 458.66L829.011 459.02C830.141 456.44 831.991 456.06 834.011 458.02C834.641 456.2 836.631 456.12 838.011 457.02C838.921 453.29 845.661 455.01 845.681 458.62C845.681 459.82 839.591 470.4 837.011 469.02C836.671 472.2 835.131 474.14 832.011 475.02C833.661 477.89 827.591 483.51 825.011 481.02C824.951 481.58 824.841 482.12 824.571 482.55C823.001 485.01 810.331 489.95 806.471 490.79C769.531 498.74 731.021 503.57 693.071 506.74C690.051 528.96 687.551 550.98 685.561 572.81C688.511 573.55 689.001 574.94 687.011 577.03L684.861 578.91L672.981 579.38C674.211 587.29 674.291 595.36 673.431 603.56C672.301 614.35 670.831 625.85 668.001 636.04C668.111 661.79 669.421 687.96 671.001 713.88L670.001 717.04C670.131 721.24 668.831 722.29 666.091 720.2C665.571 721.9 664.401 733.45 665.481 734.33C669.101 735.56 671.611 738.8 673.001 744.05L689.471 742.76C689.491 736.43 688.991 729.8 687.951 722.87L688.991 722.06C684.851 715.96 685.721 710.15 686.991 703.06C685.291 702.13 685.741 698.04 685.961 696.29C684.931 692.09 683.661 684.15 684.991 679.06C682.551 675.45 682.401 672.87 684.561 671.34L683.991 667.06L683.301 665.47C683.931 648.17 685.821 631.03 688.991 614.06L689.481 609.31C687.521 599.09 688.071 587.53 688.991 577.06C684.031 573.02 690.831 572.43 694.181 575.72C747.471 571.27 801.231 564.08 852.821 552.44C856.581 552.17 860.311 552.38 863.991 553.06C867.021 551.78 867.091 553.43 866.621 556.26C866.221 558.61 855.811 569.73 853.441 571.46L850.991 571.06C848.991 572.43 848.601 572.68 848.991 570.06L848.831 567.46L855.791 559.29C847.931 559.9 840.321 561.49 832.981 564.07L831.261 563.46C831.781 564.63 827.421 565.32 826.981 563.07L823.281 564.93C802.761 569.02 781.861 573.14 761.011 574.89L756.981 574.07L754.641 575.7C734.711 577.81 714.861 580.14 695.101 582.71L694.691 583.83C695.201 586.7 694.621 588.79 692.971 590.08C715.051 590.3 738.541 587.84 763.431 582.69L765.971 584.08C767.621 583.52 769.69 583.08 768.971 585.08L768.291 587.11L695.551 596.04C693.231 597.99 691.51 602.42 695.971 601.09L696.561 599.78C711.281 598.27 725.751 597.04 739.971 596.09C754.32 592.67 769.241 589.34 783.971 590.09C785.641 589.76 788.781 589.34 788.971 591.09C789.021 591.88 788.941 593.11 788.391 593.22C758.471 599.3 727.961 603.17 697.731 606.31L695.021 607.28L689.281 652.79C703.311 652.17 712.681 656.82 713.481 672.77L717.161 694.61C718.971 704.61 720.891 714.34 727.851 721.9L726.981 724.1C733.681 725.32 732.451 733.25 729.371 737.11L697.301 738.01L696.601 739.67C698.531 748.58 693.541 752.12 681.631 750.27C681.071 751.31 674.221 751 672.421 750.49C666.601 748.86 659.921 741.92 658.771 735.86L638.381 737.16C632.741 737.99 629.131 735.41 628.901 729.66C627.771 728.64 619.41 722.91 617.73 721.9C612.671 718.88 607.781 719.79 603.811 723.59C599.461 722.76 595.901 723.5 593.111 725.8C588.561 724.7 585.471 725.21 583.841 727.34L573.72 727.56C550.77 734.82 527.961 736.52 504.541 734.04C501.451 734.76 497.041 735.4 494.911 732.98C490.751 733.61 487.121 733.14 484.011 731.55C481.591 732.93 480.111 732.99 478.831 730.41C468.23 728.63 457.601 726.87 446.941 725.14L444.981 726.72C441.211 723.42 437.661 721.98 434.321 722.42C432.201 727.51 428.551 727.32 426.761 722.15C419.381 722.79 413.271 726.82 408.451 734.23C405.751 737.02 402.301 737.7 398.571 737.61L383.711 737.1C378.351 746.25 371.651 750.22 363.621 749.02L351.431 750.81C342.561 751.88 342.48 746.98 343.581 739.96C343.431 737.42 333.331 736.94 331.291 738.61C326.831 735.52 317.421 735.17 312.891 738.66C307.071 739.47 306.811 724.79 312.961 724.08C311.721 722.56 312.84 720.53 316.331 717.98C321.37 703.98 324.671 689.28 326.251 673.88C328.011 660.91 336.921 650.04 350.211 652.24C346.941 638.22 345.061 624.18 344.551 610.11C342.991 609.82 341.381 609.53 339.961 610.08C337.861 610.83 335.931 609.04 336.961 607.08C328.841 609.9 330.941 594.64 333.961 591.08C333.091 590.8 333.101 590.46 333.961 590.08C334.681 589.3 335.011 589.97 334.961 592.08L336.821 593.68C335.831 601.58 336.731 603.01 344.781 602.2C344.121 595.77 344.851 590.06 346.951 585.08C344.931 584.18 344.581 581.72 345.891 577.7C342.451 577.55 339.801 576.68 337.951 575.08L336.951 578.08C334.921 580.33 334.601 578.53 334.951 576.08C333.081 575.57 335.851 571.98 335.771 572.19C332.631 577.76 332.101 584.15 332.431 590.44L330.941 592.08C332.161 594.8 332.311 598.03 331.401 601.76C332.731 607.43 332.241 612.54 329.941 617.08C331.641 617.65 333.111 621.82 332.011 621.4C331.291 621.12 335.011 615.79 336.941 617.08C341.071 619.84 336.501 624.51 333.031 626.53C320.641 633.75 316.531 613.04 317.411 604.82L220.101 588.32C211.131 587.32 202.751 584.91 194.951 581.08L192.351 582.56C184.861 581.76 162.711 576.81 157.331 572.32C151.111 567.14 151.031 551.18 157.951 547.08C154.031 540 172.911 536.63 174.951 543.08L180.031 542.57C225.281 555.2 273.771 562.69 320.781 567.1C322.101 561.64 323.811 556.25 325.911 550.94C343.201 541.81 347.571 555.8 347.091 570.03C347.781 570.65 352.521 571.16 352.721 570.21L349.301 526.67C333.871 533.44 333.221 517.43 334.961 506.63C291.831 502.16 248.811 493.51 206.281 484.75C191.381 481.68 194.211 453.26 208.071 451.97C249.981 460.68 293.391 469.34 337.541 472.72C337.831 472.74 338.841 470.1 339.021 469.37C340.201 459.68 342.481 453.22 353.671 455.23L350.401 421.08C336.331 432.95 329.801 417.4 330.171 404.55L328.911 401.95C292.351 398.1 184.941 378.07 184.941 378.07C176.631 375.72 177.531 370.15 177.901 362.53C178.221 355.94 178.151 348.82 185.941 348.07C190.291 347.65 204.281 351.15 209.941 352.07L210.001 352Z" fill="#0F0938"/>
<path d="M380.002 641L381.992 645.99L383.012 607.99C390.742 608.77 398.632 610.56 406.452 610.94C480.362 614.52 547.772 614.93 621.542 611.03C632.802 610.44 644.362 609.01 655.462 607.96C657.832 607.86 657.732 654.38 655.392 655.04C633.902 653.84 612.022 657.07 590.862 654.36C585.502 653.67 580.172 651.39 574.532 650.95C538.112 648.07 498.202 653.28 461.452 650.95C450.742 654.75 446.382 655.09 435.532 654.95C417.552 654.72 399.542 655.16 381.562 655.05L379.992 650.99C378.842 648.24 379.022 643.86 379.992 640.99L380.002 641Z" fill="#150C54"/>
<path d="M668.002 486C668.112 488.3 668.312 491.86 668.002 494L660.822 496.01C570.762 504.2 478.482 503.94 389.742 498.34C385.542 498.34 382.632 497.22 381.002 495C378.282 494.46 378.202 490.52 381.002 490C382.182 488.89 381.832 487.16 383.002 486C474.002 492.33 569.052 492.84 661.732 485.1L668.002 486Z" fill="#F4F3F1"/>
<path d="M657.001 499C660.631 498.77 664.371 499.16 668.011 499C667.961 500.66 668.091 502.35 668.011 504.01C573.741 515.24 476.841 514.16 381.011 505.01C380.731 503.96 381.201 502.22 381.011 501.01C382.631 499 388.961 500.31 390.511 502.01C394.361 500.28 403.461 500.36 407.511 502.01C410.231 500.5 418.291 501.57 421.011 503.01C495.131 505.36 569.431 507.12 642.931 498.92L657.011 499.01L657.001 499Z" fill="#F4F3F1"/>
<path d="M692.002 483C691.872 482.47 692.042 482.07 692.562 482C731.902 477.02 772.282 471.64 811.412 466.16C812.352 467.69 811.542 469.63 808.992 472C809.082 474.1 803.912 476.8 801.992 476C768.542 484.2 732.002 489.12 696.662 492.02C695.142 492.14 693.582 491.66 691.992 491C692.112 488.4 691.712 485.51 691.992 483H692.002Z" fill="#F4F3F1"/>
<path d="M820.002 464L822.072 464.48C833.262 460.78 838.712 461.33 828.792 472.45C819.522 482.84 804.022 486.4 790.552 488.78C759.472 494.28 728.052 498.64 697.002 501.99C695.902 503.77 692.892 502.83 691.002 502.99C690.752 500.58 691.902 498.36 692.002 495.99C706.442 493.2 721.122 491.23 736.042 490.07C753.312 488.02 771.932 485.5 788.592 481.08C800.822 477.84 811.682 474 819.002 463.99C819.252 464.14 819.822 463.83 820.002 463.99V464Z" fill="#F4F3F1"/>
<path d="M668.003 494C667.243 499.22 655.403 496.37 651.003 498C579.453 505.78 501.583 507.37 428.003 502C422.173 501.96 416.353 501.67 410.543 501.13L410.503 500C410.363 500.58 410.213 501.04 410.033 501.05C404.393 501.34 396.803 501.31 391.163 501C390.923 500.99 390.713 500.55 390.503 500C388.153 501.34 376.313 500.58 381.003 496C380.143 495.76 380.173 495.42 381.003 495C386.803 496.78 392.983 497.08 399.073 497.52C412.733 498.51 426.783 498.98 440.563 499.54C516.283 502.61 592.663 501.27 668.003 494Z" fill="#F4F4F2"/>
<path d="M668.002 504C667.972 504.66 668.052 505.34 668.002 506C650.812 506.12 633.632 508.82 616.482 509.99C538.302 515.32 461.532 513.72 383.492 506.99C382.162 506.88 381.342 506.31 380.992 505C433.542 507.33 485.722 511.76 538.552 511.03C577.612 510.49 627.202 508.88 665.312 502.85C667.082 502.57 666.282 500.95 667.992 504H668.002Z" fill="#F5F5F3"/>
<path d="M383.002 486C384.672 484.34 390.762 484.84 393.542 484.96C423.472 486.27 453.462 489.31 483.422 490.01C534.882 491.2 586.182 488.68 637.482 485.99C641.682 485.77 666.462 482.85 668.002 484C668.052 484.66 667.962 485.33 668.002 486C616.312 488.66 565.302 492.28 513.462 492.03C473.482 491.84 432.952 489.9 393.062 487.51C390.002 487.33 385.592 487.44 383.002 486Z" fill="#F4F4F2"/>
<path d="M651.001 498C652.121 498.1 654.831 500 657.001 499C622.861 501.12 588.031 505.12 553.561 506.03C509.291 507.2 465.031 505.3 421.001 503C419.811 500.37 425.771 501.54 428.001 502C450.721 501.43 473.811 503.72 496.441 504.03C533.871 504.54 571.241 503.06 608.541 501.04C620.901 500.37 639.421 496.92 651.001 498Z" fill="#0F0938"/>
<path d="M820.002 464C826.452 461.56 834.252 460.06 840.992 459.49C832.932 471.71 825.262 480.84 810.752 485.25C787.852 492.22 720.152 502.98 696.992 501.99C695.122 501.91 691.172 503.19 692.002 499.99C693.042 500.23 693.772 500.71 694.922 500.56C729.092 496.01 766.612 493.02 800.122 485.37C815.152 481.94 823.962 477.39 832.992 464.48C829.452 462.37 823.322 465.86 820.422 465.92C819.542 465.94 820.212 464.17 819.992 463.98L820.002 464Z" fill="#F5F5F3"/>
<path d="M819.003 464C817.653 467.27 814.693 470.26 811.913 472.41C798.683 482.65 763.623 487.24 746.333 489.83C728.313 492.53 710.083 493.75 692.003 496C692.033 495.34 691.983 494.67 692.003 494L695.123 492.28C730.983 489.01 767.633 484.57 802.003 476C804.993 474.73 806.403 473.8 809.003 472C810.773 469.01 813.123 465.52 817.003 464C817.433 463.96 817.513 463.09 819.003 464Z" fill="#0F0938"/>
<path d="M817.002 464C815.692 468.16 812.272 469.74 809.002 472C803.182 471.64 813.812 469.79 809.522 467.03L692.002 483C692.062 482.43 691.712 481.56 692.122 481.14C711.042 478.31 730.332 477.31 749.362 474.85C771.412 472 795.492 465.9 817.002 463.99V464Z" fill="#F4F3F1"/>
<path d="M802.001 476C798.421 477.52 794.801 478.57 791.011 479.51C758.951 487.48 724.751 489.94 692.001 494C692.031 493 691.951 492 692.001 491C723.991 488.92 755.821 485 787.131 478.39C791.351 477.5 795.581 476.57 799.691 475.19C801.381 474.62 802.251 472.51 802.001 476Z" fill="#F4F3F1"/>
<path d="M211.002 456.01C208.122 463.88 206.852 471.62 208.002 480C196.972 481.67 199.802 464.26 202.702 458.26C204.072 455.42 208.352 456.05 211.012 456.01H211.002Z" fill="#F62249"/>
<path d="M340.012 477.01C340.212 477.29 338.422 482.01 338.152 483.68C337.602 487 337.032 501.25 336.552 502.04C335.882 503.15 332.752 503.44 332.042 502.96C330.642 502.02 332.732 478.28 333.902 476.58C334.822 475.25 339.822 476.76 340.012 477.02V477.01Z" fill="#F62249"/>
<path d="M294.982 494.99C294.502 495.39 293.592 495.22 292.932 494.38C291.722 492.83 288.652 484.67 288.972 482.68C289.062 482.1 296.072 475.55 296.992 474C296.862 477.14 301.042 483.22 300.982 485.53C300.972 486.09 295.412 494.64 294.982 494.99Z" fill="#F62249"/>
<path d="M247.012 487C243.822 477.95 242.162 473.2 250.992 467C255.482 476.29 255.632 480.41 247.012 487Z" fill="#F62249"/>
<path d="M262.012 490C259.332 481.03 257.302 476.83 265.502 470.02C266.512 470.03 269.942 479.42 269.792 480.32C269.532 481.93 263.842 488.66 262.012 490Z" fill="#F62249"/>
<path d="M278.993 492C277.953 492.71 274.023 482.44 274.053 481.49C274.103 479.51 279.223 473.6 280.993 472C281.113 474.93 285.043 480.15 284.983 482.53C284.923 484.91 279.143 488.94 278.983 492H278.993Z" fill="#F62249"/>
<path d="M308.011 497C308.401 493.64 304.571 488.64 305.181 485.74C305.521 484.11 310.121 478.14 311.981 477C316.011 485.84 315.091 490.3 308.001 497H308.011Z" fill="#F62249"/>
<path d="M233.012 483C229.902 474.82 228.782 471.61 235.502 465.02C241.102 472.32 240.702 477.66 233.012 483Z" fill="#F62249"/>
<path d="M325.992 480C325.392 482.88 329.012 486.12 328.792 488.35C328.622 490.12 323.782 496.53 322.012 498C318.992 490.72 317.382 483.7 325.992 480Z" fill="#F62249"/>
<path d="M381.001 496V499C384.021 498.1 388.091 500 390.501 500H410.501C410.861 500 412.161 500.97 413.461 501.04C418.101 501.28 423.841 499.94 428.001 502C425.801 502.06 422.371 501.23 421.001 503C416.861 502.78 411.081 502 407.501 502H390.501C388.001 502 384.441 500.99 381.001 501C380.331 501 379.671 501 379.001 501C379.061 499.85 378.751 496.33 379.001 495.99C379.171 495.75 380.621 496.23 381.001 495.99V496Z" fill="#0F0938"/>
<path d="M220.992 481C215.582 474.73 216.582 467.23 222.992 462C222.952 464.87 226.002 470.01 225.762 472.36C225.482 475.09 220.782 477.55 220.992 481Z" fill="#F62249"/>
<path d="M455.002 587C456.672 586.98 458.332 587.02 460.002 587C462.862 589.16 458.372 593.95 456.242 595.9C466.072 598.28 469.182 596.53 474.902 588.01C477.912 587.38 480.942 587.37 484.002 588.01C487.642 587.88 491.352 588.01 495.002 588.01C499.302 588.34 499.322 591.23 495.082 596.7C500.472 589.17 506.442 586.94 513.002 590.01C513.242 592.14 512.192 594.27 509.862 596.42C535.272 596.54 560.652 596.73 586.002 597.01C587.152 594.47 587.892 594.47 589.002 597.01C594.082 596.28 599.232 595.86 604.452 595.75L606.202 594.36C626.762 593.59 647.272 592.82 667.712 592.05L668.992 594C668.762 595.51 655.852 596.75 653.482 596.99C613.482 601.13 572.262 601.67 531.992 602C507.602 604.54 482.442 603.47 457.992 601C445.932 602.83 432.772 603.76 420.992 600L419.922 601.03C409.082 600.9 398.442 599.89 387.992 598C386.332 597.65 384.612 597.57 383.002 596.93C382.812 596.73 383.932 594.47 383.992 594L385.982 592.86C399.622 593.86 413.342 594.23 427.142 593.95C435.472 596.49 441.842 594.93 445.402 586.71L454.992 587H455.002Z" fill="#F4F3F1"/>
<path d="M550.002 604C578.212 603.86 607.432 602.9 635.542 601.04C646.162 600.34 656.712 597.82 667.432 597.96C668.032 598.06 670.142 606.06 666.002 605C664.262 605.15 663.932 604.61 663.402 603.22C641.852 605.26 619.662 607.14 598.382 608.24C598.262 608.24 598.112 607.75 597.952 607.11C594.172 608.12 590.302 608.38 586.342 607.89C585.542 608.26 567.802 610.51 569.012 609.01C569.162 608.83 573.742 609.33 572.002 611C566.692 611.16 561.312 610.88 556.002 611C555.252 609.54 564.912 608.77 564.502 609C563.882 609.33 557.552 609.9 556.142 609.99C530.782 611.46 503.342 610.89 478.722 609.28C478.092 607.47 477.522 605.71 477.012 604.01L481.542 602.82C504.872 603.5 527.692 603.9 550.012 604.01L550.002 604Z" fill="#F4F3F1"/>
<path d="M455.002 587C453.352 587.02 446.352 586.73 445.992 587C445.842 587.11 446.882 588.62 446.722 589.35C446.362 591.02 439.312 596.61 437.472 596.97C433.482 597.76 430.082 595.99 426.482 595.92C419.202 595.78 411.792 596.32 404.422 596C397.652 595.71 390.742 594.64 383.992 593.99C384.462 590.38 384.932 586.64 384.992 582.99L454.992 586.99L455.002 587Z" fill="#F4F3F1"/>
<path d="M601.001 587C623.251 586.02 645.691 584.27 668.011 583C666.831 585.98 669.291 592.12 669.001 594L589.001 597C588.181 595.34 588.551 594.54 590.271 594.18L603.751 593.15C602.761 591.06 601.841 589.01 601.001 587Z" fill="#F4F3F1"/>
<path d="M521.002 589C532.992 590.34 546.012 590.11 558.002 589C559.672 589 561.332 589 563.002 589L575.002 588C576.002 587.96 577.002 588.05 578.002 588L578.052 590.12C572.762 593.83 574.142 595.08 582.182 593.88C584.642 593.84 586.222 594.28 586.002 596.99C559.792 599.69 532.502 598.24 506.002 598.98C507.782 595.7 509.942 592.24 513.002 589.99C512.462 589.51 512.792 589.18 514.002 588.99C516.342 589.02 518.692 588.96 521.002 588.99V589Z" fill="#F4F3F1"/>
<path d="M468.001 604C470.951 602.02 474.021 602.09 477.001 604L481.021 605.52L480.011 609H564.501L556.001 611.01C513.351 613.6 470.691 610.79 428.001 609.01C425.961 608.61 425.291 607.95 426.001 607.01L427.871 604.27C441.301 601.49 454.681 601.4 468.001 604.01V604Z" fill="#F4F3F1"/>
<path d="M388.002 599C398.642 599.73 409.372 600.41 420.182 601.03L421.002 600C433.292 600.5 445.702 600.67 458.002 601C460.902 602.07 464.342 602.57 468.322 602.52L468.002 604C453.462 604 439.512 602.01 426.002 607L425.742 607.94C411.702 606.88 397.682 605.71 383.692 604.45L382.002 603C382.002 600.19 385.602 598.98 388.002 599Z" fill="#6E6E6D"/>
<path d="M666.002 605C634.722 606.76 603.322 610.04 572.002 611L569.012 609.01C575.322 608.44 586.272 604.21 591.952 606.52C593.872 607.3 592.762 606.38 593.012 605L594.502 607.01C593.532 605.44 599.822 604.7 599.992 604.99C600.272 605.5 599.822 607.17 600.022 608L665.402 601.05L666.002 604.99V605Z" fill="#F4F4F2"/>
<path d="M601.002 587C604.212 587.44 607.272 592.92 604.902 594.91C604.132 595.55 593.432 595.67 591.422 595.96C590.142 596.14 589.202 596.98 589.002 597C588.042 597.12 586.972 596.9 586.002 597C582.722 594.49 577.122 597.24 573.912 595.52C570.912 593.91 575.462 588.65 578.002 588C585.662 587.65 593.312 587.34 601.002 587Z" fill="#AAAAA8"/>
<path d="M484.002 588C482.162 588.06 478.432 587.52 477.202 588.22C476.382 588.69 470.992 596.66 468.552 598.06C464.682 600.28 455.762 596.87 451.002 597.99L456.992 592.5L460.002 587C467.722 586.92 476.602 586.22 484.002 588Z" fill="#AAAAA8"/>
<path d="M760.002 581C760.742 580.9 773.032 579.76 771.002 581.99C769.672 581.68 768.892 582.66 768.002 583C768.192 583.67 767.532 584 766.002 584C749.362 587.7 717.862 591.03 700.492 591.99C697.992 592.13 695.482 591.96 692.992 591.99C692.942 591.33 693.032 590.66 692.992 589.99C693.992 587.95 693.962 588.59 695.452 588.4C701.292 587.63 709.652 589.17 715.922 588.51C730.732 586.96 745.602 582.87 759.992 580.99L760.002 581Z" fill="#F4F3F1"/>
<path d="M532.002 602C531.702 604.99 532.302 603.43 534.072 603.61C539.362 604.15 544.682 604.02 550.002 604C548.962 605.66 546.212 605 544.512 605.02C522.002 605.3 499.552 604.16 477.002 604C474.012 603.98 470.992 604 468.002 604C465.462 601.08 457.232 605.44 458.002 601C482.672 601.65 507.272 602.2 532.002 602Z" fill="#0F0938"/>
<path d="M833 564C839.55 557.47 851.33 558.79 859.99 556C860.45 557.74 859.26 558 858.5 559C856.33 561.85 851.51 567.85 849 570C848.5 570.43 846.37 571.93 846 572C845.49 572.1 844.56 570.68 844.1 571.12L843.5 573L842 571C842.58 570.45 850.5 561.41 850 561.01C844.24 563.16 837.76 564.01 832 566C830 564.22 830.34 563.59 833 564Z" fill="#F4F3F1"/>
<path d="M276.052 589.97C276.532 586.63 270.802 580.46 270.942 578.55C270.982 577.94 279.142 572.94 279.502 570.01C280.632 569.99 284.812 580.15 284.662 581.51C284.622 581.87 278.182 590.59 276.042 589.96L276.052 589.97Z" fill="#F62249"/>
<path d="M166.001 565C165.141 568.03 157.881 565.01 158.001 562C158.191 558.52 159.261 546.28 162.661 545.16C173.231 541.67 166.901 553.39 166.261 557.76C165.881 560.31 166.131 562.55 166.001 565Z" fill="#F62249"/>
<path d="M249.002 573C249.562 576.55 244.432 581.99 242.502 584.98C240.132 581.7 237.082 576.05 238.532 572.05C239.322 569.88 243.662 565.28 246.002 565C248.582 566.34 251.172 569.99 249.002 573Z" fill="#F62249"/>
<path d="M744.002 594C742.812 594.38 741.092 595.72 740.002 596C730.952 598.36 705.282 601.43 696.002 601C693.452 600.88 693.842 600.84 694.012 598L744.002 594Z" fill="#F4F3F1"/>
<path d="M262.991 567C262.541 570.44 267.221 575.11 266.521 578.11C266.091 579.96 261.021 585.74 259.011 586.99C259.381 583.41 254.851 578.59 254.971 575.58C254.991 575.02 256.521 575.03 256.921 574.22C258.241 571.52 258.711 567.23 262.991 566.99V567Z" fill="#F62249"/>
<path d="M213.001 558C213.721 560.39 216.131 566.46 215.831 568.29C215.571 569.91 210.851 577.63 208.941 575.38C208.011 574.28 205.191 568.6 205.191 567.3C205.191 565.88 207.081 564.27 208.001 563C205.741 560.51 210.531 555.54 213.001 558Z" fill="#F62249"/>
<path d="M196.991 555C197.391 555.41 199.141 564.79 198.831 566.27C198.521 567.75 193.491 575.11 192.001 574C189.051 564.99 188.441 563.49 194.701 556.28C195.131 555.79 195.451 553.47 196.981 555.01L196.991 555Z" fill="#F62249"/>
<path d="M229.991 563C232.901 569.16 232.241 577.48 225.021 579.99C221.161 571.81 220.981 566.83 229.991 563Z" fill="#F62249"/>
<path d="M426.002 607L428.002 609C422.292 608.76 416.682 608.3 411.002 608L399.002 607C394.732 606.98 382.012 608.69 382.002 603L426.002 607Z" fill="#F4F3F1"/>
<path d="M296.992 574C298.672 581.4 300.812 583.44 295.292 589.73C294.692 590.41 295.342 591.64 293.022 591C289.082 584.14 289.142 577.51 297.002 574H296.992Z" fill="#F62249"/>
<path d="M514.002 589C513.682 589.34 513.382 589.72 513.002 590C500.892 583.53 501.822 601.28 491.002 598.99C492.652 596.19 494.942 593.71 496.212 590.66C497.232 588.2 497.032 589.62 495.002 588C501.362 588 508.172 588.91 514.002 589Z" fill="#F4F3F1"/>
<path d="M308.991 592.99L305.041 583.49L309.991 576C313.931 584.47 314.521 585.3 308.991 592.99Z" fill="#F62249"/>
<path d="M181.991 552C181.881 557.86 185.671 565.5 178.001 567.99C176.111 562.73 176.711 557.93 179.751 553.29C180.381 552.33 179.631 551.48 181.991 552Z" fill="#F62249"/>
<path d="M421.002 600L422.502 602C411.562 602.74 398.202 599.09 388.002 599V598C397.122 599.91 411.092 599.6 421.002 600Z" fill="#0F0938"/>
<path d="M166.001 565C165.781 569.21 167.591 572.72 161.721 570.78C157.341 569.34 157.821 565.3 158.001 562L166.001 565Z" fill="#F62249"/>
<path d="M558.002 589C556.962 590.66 554.202 590 552.512 590.02C545.932 590.09 539.222 590.48 532.722 590.46C529.302 590.46 524.072 590.4 521.002 589C533.312 589.15 545.692 589.02 558.002 589Z" fill="#F4F3F1"/>
<path d="M411.002 608C407.152 607.8 402.042 608.98 399.002 607C402.782 607.02 408.022 606.15 411.002 608Z" fill="#6E6E6D"/>
<path d="M575.002 588C572.022 589.84 566.782 588.98 563.002 589C566.032 587.06 571.162 588.15 575.002 588Z" fill="#AAAAA8"/>
<path d="M661 660C657 659 651.87 661 648.5 661H600.5C599.28 661 595.35 659.21 594 659C616.09 659.79 638.07 657.26 660.03 658.5C660.65 658.8 660.71 659.53 661 660Z" fill="#F62249"/>
<path d="M661 665C661.88 685.61 659.52 706.63 662 727C661.9 727.78 661.66 728.95 661.11 729C658.53 729.22 638.81 729.11 637.8 728.53C630.63 718.93 620.79 713.03 608.86 712.07C583.46 717.21 557.86 721.95 532.06 726.3C526.78 727.05 523.21 726.74 520.36 721.85C518.87 724.77 515.91 726.97 512.49 727.04L430.63 711.93C419.32 714.15 410.13 717.74 402.92 726.82C397.87 730.51 386.32 729.23 380.3 727.93L378.99 726C379.45 718.84 377.99 709.11 377.96 701.54C377.91 689.67 379.4 676.2 378.99 665L382.56 663.23C403.94 662.28 425.24 661.35 446.16 662.79C453.68 660.56 461.29 658.71 469.01 657.23L560.65 657.67C592.86 661.15 624.87 664.33 657.54 662.01C659.8 661.98 661.15 662.44 660.98 665H661Z" fill="black"/>
<path d="M662.001 727C662.191 728.59 661.881 730.38 662.001 732.01C655.551 730.83 642.151 733.66 636.651 731.85C635.691 731.53 632.081 725.01 629.491 723.01C612.911 710.26 595.601 716.68 576.741 720.25C563.841 722.69 552.881 725.21 539.591 727.1C535.771 727.64 530.501 730.01 526.441 729.87C522.381 729.73 521.511 724.23 517.591 727.13C516.221 728.15 516.331 730.28 514.541 730.09L432.491 714.92C420.381 715.13 407.541 720.52 402.331 732.07L377.991 732.01C376.971 729.89 378.931 726.96 378.991 726.01C384.961 725.47 393.641 728.38 399.271 726.79C402.011 726.02 408.451 718.03 412.291 715.81C417.861 712.6 424.391 711.78 430.501 709.97L512.471 725.06C517.881 724.84 517.951 720.58 519.571 720.06C522.601 719.09 522.811 723.18 525.241 724.27C526.131 724.67 530.541 724.46 531.821 724.31C552.651 721.87 577.441 716.01 598.381 711.89C608.211 709.96 608.471 708.84 619.201 712.28C628.221 715.17 633.001 719.42 638.671 726.87L661.991 726.99L662.001 727Z" fill="#F62249"/>
<path d="M594 659C596.93 659.06 599.1 659.73 600.5 661L600.81 660.07L646.66 659.58C647.71 659.42 648.34 659.78 648.5 661C650.141 658.53 658.06 658.46 661 660C662.5 662.44 660.93 663.38 661 665C659.33 663.86 657.45 664.03 655.55 663.96C641.12 663.46 625.96 663.9 611.451 663.96C592.801 664.02 575.69 659.61 556.5 659.21C530.24 658.67 497.08 657.97 471.451 658.97C461.26 659.37 452.48 664.3 443.49 665C437.24 665.48 429.16 663.61 422.5 663.57C408.25 663.48 393.48 666.25 379 665.01C378.98 664.38 376.76 662.2 378.43 659.93C380.6 656.97 403.24 660.02 408.44 660.04C417.33 660.07 432.69 657.85 440.56 658.96C442.96 659.3 444.3 661.07 446.38 661.01C452.28 660.83 462.1 653.85 469.56 655.47C510.9 658.06 553.06 652.55 594 659.01V659Z" fill="#F62249"/>
<path d="M368.002 587C369.022 609.37 373.622 635.08 373.002 656L371.822 658.83C370.292 680.19 369.022 701.92 368.002 724C368.572 724.91 368.752 726.32 368.002 727C367.682 729.66 366.762 729.54 366.002 727C362.412 725.88 358.532 725.54 354.352 726L353.002 724H351.672C352.002 710.17 353.442 695.43 354.892 681.36C355.232 678.03 356.022 680.31 355.122 680.61C354.852 680.7 354.442 680.41 354.002 680L356.002 657C356.952 660.73 356.632 651.77 356.112 649.31L357.002 648L359.122 648.81C356.642 655.56 367.972 653.74 368.272 653.14C368.552 652.59 367.762 642.24 367.532 640.76C363.932 628.7 362.982 617.36 363.272 605.01C362.322 603.59 356.372 605.3 354.532 605.94L356.142 623.87L354.012 624.99C350.862 625.91 352.432 620.22 353.002 620.99C353.282 621.36 352.732 624.86 351.012 621.99C349.902 610.64 348.242 596.08 350.012 584.99L351.342 583.13C353.072 582.74 368.012 584.3 368.012 586.99L368.002 587Z" fill="#F62249"/>
<path d="M352.002 665C351.402 665.87 349.182 666.76 349.132 667.49C349.112 667.82 350.542 668.86 350.622 669.97C350.912 674.11 350.392 703.83 349.472 706.08C348.652 708.07 346.862 709.08 346.282 710.68C345.892 711.75 346.952 713.28 346.362 714.97C345.872 716.35 342.182 722.09 341.002 722.57C339.822 723.05 338.882 720.84 337.632 721.06C336.142 721.33 334.922 726.1 331.252 721.69C330.542 720.84 331.822 718.66 330.012 718.99L329.502 722L328.012 720C328.602 722.64 322.412 726.61 326.532 727.01C327.332 727.09 335.912 727.1 336.392 726.97C337.262 726.72 337.042 725.66 337.012 725.01H337.982C338.532 731.18 346.572 721.55 346.982 722C346.642 723.81 347.992 726.52 347.992 728C347.872 728.78 347.732 729.7 347.102 730.1C346.232 730.66 328.672 730 326.492 729.76L324.992 727.99C316.822 730.96 321.652 722.94 324.562 718.53C328.732 703.1 332.102 687.36 334.662 671.32C335.202 667.69 336.642 665.91 339.002 665.99C341.332 663.4 349.932 661.55 352.002 664.99V665Z" fill="#0F0938"/>
<path d="M357.003 528C356.263 518.66 355.362 509.34 354.312 500.04C360.052 494.26 365.882 498.23 364.432 506.48L370.842 541.42C370.762 547.26 371.483 551.79 373.003 555C374.393 554.8 374.393 555.8 373.003 558C375.503 563.84 375.293 572.08 373.003 578C368.123 574.29 370.513 572.58 369.893 570.47C369.673 569.71 365.583 570.09 370.003 568.51L365.992 563.01C363.902 563.19 366.062 565.99 365.492 567.94C365.092 569.33 361.503 574.59 360.003 575C359.523 574.48 359.132 573.96 359.092 573.41C357.972 558.4 357.163 542.97 357.003 528Z" fill="#0F0938"/>
<path d="M375.002 543C377.602 542.69 377.912 544.43 376.002 546C376.282 549.55 375.902 553.39 376.002 557C375.292 558.02 374.272 558.31 373.002 558C372.982 557 373.042 556 373.002 555L371.782 553.07C370.312 537.49 367.882 522.03 364.462 506.69C366.472 497.7 361.582 494.73 354.422 499.42L353.002 498.99C352.852 500.85 352.242 501.52 351.002 499.99C350.132 488.88 347.552 481.64 350.002 469.99L363.252 471.54C364.882 473.34 365.432 471.88 364.892 467.17L366.992 465.99C368.002 466.32 367.892 466.42 368.022 467.44C368.872 474.08 367.552 482.57 367.952 489.53C368.982 507.5 373.182 525.13 374.992 542.99L375.002 543Z" fill="#F62249"/>
<path d="M350.001 363C350.071 362.23 350.211 361.01 350.651 360.92C353.741 360.31 365.191 359.2 366.651 361.7C368.611 365.06 364.321 369.19 366.571 362.32C366.651 362.08 367.251 362.01 368.001 361.99C368.561 377.85 368.571 392.22 371.001 407.99L373.341 409.79C375.651 415.31 376.901 427.46 376.001 432.99C376.831 442.97 376.311 456.33 376.011 466.56C375.871 471.32 375.291 477.44 374.001 481.99C373.421 481.75 372.951 481.48 372.851 481.11C371.681 476.43 371.901 463.57 372.061 458.13C372.071 457.74 372.481 457.36 372.991 456.99C371.701 438.22 369.881 419.09 364.661 400.73C364.351 393.99 363.631 387.48 362.481 381.19C358.391 382.49 354.901 382.76 351.991 381.99C351.811 383.52 351.471 384.86 350.991 385.99L348.551 384.02C347.561 376.9 348.041 369.89 349.991 362.99L350.001 363Z" fill="#F62249"/>
<path d="M376.002 348C376.562 348.09 376.992 348.19 377.002 348.3C377.292 354.24 377.942 369.13 377.012 374.33C376.962 374.6 376.542 374.81 376.002 375C370.742 374.44 374.072 367.99 372.502 367.99L371.992 376C366.582 372.18 373.722 357.72 370.522 353.99C369.092 352.32 363.432 352.94 361.002 353C360.512 352.86 360.052 352.69 359.692 352.39C358.582 351.47 358.392 326.15 360.002 323.76C361.722 321.2 374.782 320.7 376.892 324.19C378.152 326.27 376.552 344.87 375.992 348H376.002Z" fill="#0F0938"/>
<path d="M360.001 459C360.931 452.54 361.181 446.02 360.731 439.43C359.061 435.7 355.501 415.32 356.711 412.34C358.151 408.8 363.971 405.25 366.731 410.05C370.481 425.22 372.571 440.87 373.001 457C374.201 465.28 372.221 473.76 374.001 482V483C373.631 485.63 372.881 485.48 372.001 483C371.551 474.59 371.231 466.22 370.991 458L369.011 460.99L370.991 456L367.011 459.98L365.991 453.99L364.011 455.98L363.011 452.99V462.97C362.011 462.97 361.001 463.03 360.001 462.97C358.421 462.82 358.261 459.28 360.001 458.97V459Z" fill="#0F0938"/>
<path d="M337.002 662C343.772 656.86 347.052 663.08 339.002 666C333.352 675.87 332.372 700.8 328.742 713.24C327.472 717.58 324.522 721.97 322.502 726C321.032 728.93 323.262 727.91 325.002 728C330.822 731.78 318.642 730.89 315.372 730.64C314.902 730.6 314.452 730.34 314.002 730C314.352 726.31 320.632 723.23 322.502 719C328.962 704.46 328.232 672.76 337.002 662Z" fill="#F62249"/>
<path d="M347.001 585C346.811 591.31 347.131 597.69 347.001 604C335.001 604.7 333.841 604.11 335.001 592C334.371 587.68 333.571 580.62 337.001 578C337.171 576.58 336.611 576.18 338.001 575C339.821 578.91 342.371 581.53 345.641 582.84L347.001 585Z" fill="#F62249"/>
<path d="M351.801 462.84C351.391 463.54 349.762 463.03 348.472 466.97C344.902 477.82 343.902 492.91 342.882 504.38L340.012 513.99C336.232 507.64 342.872 461.2 346.132 459.14C348.232 457.81 353.681 459.63 351.801 462.84Z" fill="#0F0938"/>
<path d="M361.001 353C360.771 353 358.761 355.66 358.011 351.49C356.421 342.57 359.171 329.42 358.001 320H379.001C379.251 329.36 378.241 338.67 378.001 348C377.681 350.66 376.761 350.54 376.001 348C374.071 343.4 376.531 327 374.921 324.6C373.781 322.91 365.131 323.82 362.941 324.44C361.421 324.87 360.791 325.42 360.351 326.94C358.601 332.93 361.421 346.23 361.011 352.99L361.001 353Z" fill="#F62249"/>
<path d="M353.002 724L354.902 725.71C354.142 729.78 353.862 733.84 354.072 737.89C362.002 740.44 365.062 737.07 363.242 727.78C363.462 726.42 364.642 726.59 366.002 727H368.002C370.922 727.31 370.672 731.24 368.002 732L367.002 745H348.002C351.682 739.85 349.042 733.45 349.492 728.46C350.962 712.43 353.802 696.21 354.002 680L356.012 678.52C355.152 691.97 353.252 705.56 352.492 719.06C352.392 720.9 353.022 723.22 353.002 724Z" fill="#F62249"/>
<path d="M346.001 351.01C340.221 360.82 341.041 371.72 339.441 382.1C338.971 385.15 336.431 399.01 334.331 389.7C332.751 382.72 334.851 369.2 336.471 361.96C337.871 355.72 337.861 349.28 346.001 351V351.01Z" fill="#0F0938"/>
<path d="M335.973 554.04C336.663 555 330.103 573.55 329.273 576.77C328.123 581.24 329.923 587.58 324.003 586C323.683 580.67 326.553 554.34 331.693 553.13C332.483 552.94 335.793 553.81 335.963 554.04H335.973Z" fill="#0F0938"/>
<path d="M374.002 483C376.322 483.41 378.542 484.38 381.002 484C379.692 486.38 380.982 488.99 381.002 490C381.022 491.58 381.182 493.5 381.002 495C380.962 495.34 381.092 495.95 381.002 496C380.742 498.73 380.072 500.4 379.002 501C378.902 502.99 379.082 505.02 379.002 507.01C377.582 506.76 372.472 507.41 372.042 506.96C371.332 506.23 372.092 502.7 372.002 502L372.412 500.7C371.462 497.19 371.322 493.29 372.002 489C371.872 487.02 372.112 484.99 372.002 483C372.642 483.07 373.382 482.89 374.002 483Z" fill="#F62249"/>
<path d="M368.002 587L350.002 585C350.282 583.25 350.752 578.29 351.942 577.44C352.922 576.75 363.732 576.67 365.502 577C369.482 577.73 367.862 583.9 368.002 587Z" fill="#F62249"/>
<path d="M369.002 722L368.002 724C366.402 722.96 366.912 720.13 366.952 718.46C367.162 709.31 368.202 699.41 368.782 690.22C369.042 686.02 369.832 686.84 369.852 686.56C370.002 685.05 368.842 676.35 369.112 675.48C369.252 675.03 373.602 674.22 368.992 674L371.002 672.51L368.992 671.02L371.002 670.51L368.992 669.02C373.732 668.75 368.942 667.93 368.982 667.51C369.072 666.52 370.302 667.48 370.772 666.53C371.962 664.14 368.082 663.63 369.002 663.03C373.152 663.46 368.172 657.7 372.992 656.02C372.372 677.01 368.142 701.93 368.992 722.02L369.002 722Z" fill="#F62249"/>
<path d="M367.003 466C366.503 468.89 367.683 485.14 367.003 485.99C366.823 486.21 365.143 486.98 365.323 485C365.633 481.72 366.223 476.38 363.543 473.91C362.293 472.76 354.303 471.8 352.623 473.04C351.173 474.11 351.553 476.03 350.013 475.99V469.99C350.243 468.84 349.813 467.24 349.993 465.98C354.293 466.83 363.473 464.84 367.003 465.98V466Z" fill="#F62249"/>
<path d="M377.971 431V403.99H380.031V482.01H377.971V432C377.101 431.72 377.111 431.38 377.971 431Z" fill="#F62249"/>
<path d="M378.002 511L379.112 510.38C379.912 522.35 379.882 534.56 379.002 547L376.002 546C375.992 545.84 375.152 544.52 375.002 543C375.762 541.05 377.702 536.25 377.642 534.49C377.582 532.62 375.862 531.12 375.562 529.14C374.602 522.82 374.172 516.31 373.012 510.01C374.372 509.32 377.692 511.09 378.012 511H378.002Z" fill="#0F0938"/>
<path d="M314.002 730C317.862 726.84 321.862 729.89 324.572 729.92C325.302 729.93 324.852 728.1 325.002 728C326.152 727.17 344.672 728.62 348.002 728C348.002 729.7 348.502 731.97 346.512 732.72L313.992 732C314.022 731.34 313.932 730.66 313.992 730.01L314.002 730Z" fill="#F62249"/>
<path d="M326.892 620.92C326.792 621.03 324.042 620.63 323.922 620.44C322.152 617.71 322.232 592.99 325.012 591C326.392 591.38 327.352 592.58 327.642 593.98C327.952 595.49 328.132 613.34 327.962 615.45C327.882 616.48 327.222 620.51 326.882 620.92H326.892Z" fill="#0F0938"/>
<path d="M350.001 360C350.031 358.67 349.961 357.32 350.001 356H368.011C368.061 357.99 367.931 360.01 368.011 362L367.001 367C364.781 366.83 367.151 363.43 364.521 362.28C363.571 361.86 352.011 362.77 350.011 363C350.081 362.01 349.991 360.99 350.011 360H350.001Z" fill="#F62249"/>
<path d="M360.001 575C359.421 575.16 357.881 575.35 357.991 574.43C358.121 564.41 356.781 554.39 355.911 544.5C355.521 540.11 356.191 539.72 355.001 535C354.761 531.86 355.091 529.53 356.001 528C356.281 527.13 356.621 527.14 357.001 528C357.631 543.81 362.191 559.15 360.001 575Z" fill="#F62249"/>
<path d="M346.011 521C343.731 511.7 346.111 502.96 346.121 493.62L347.991 486C346.821 496.96 354.741 512.4 346.011 520.99V521Z" fill="#F62249"/>
<path d="M356.002 528C356.032 530.16 356.702 533.66 355.002 535C351.952 522.82 351.962 512.37 351.002 500C351.562 499.6 352.552 499.41 353.002 499C353.672 499.45 354.212 499.93 354.342 500.5C356.282 508.9 356.662 518.97 356.002 528Z" fill="#F62249"/>
<path d="M371.002 408C372.942 404.66 370.632 403.25 376.002 403.99L377.982 431V432L376.012 433C375.362 425.18 372.212 415.8 371.012 408H371.002Z" fill="#0F0938"/>
<path d="M334.002 591C333.972 594.8 331.922 600.81 332.942 604.38C333.262 605.51 336.752 604.86 337.002 607C339.362 609.59 331.982 624.09 330.002 617C329.702 608.38 330.272 600.48 331.002 592C331.862 589.52 332.222 588.56 334.002 591Z" fill="#F62249"/>
<path d="M371.001 586C376.651 585.94 381.821 588.8 381.001 595C380.761 596.79 380.271 598.35 380.001 600C379.521 604.92 370.811 602.36 371.001 598C370.891 594.06 370.821 589.93 371.001 586Z" fill="#F62249"/>
<path d="M371.002 586C371.082 584.34 370.932 582.65 371.002 580.99C371.432 580.56 381.562 581.65 381.952 582.05C382.742 582.86 381.312 592.72 381.012 595L380.002 591C377.242 592.91 378.322 590.4 376.392 589.04C375.072 588.11 372.102 589.16 371.002 586Z" fill="#F62249"/>
<path d="M369.001 722C369.081 723.87 367.791 727.82 371.011 726.99C370.121 725.74 372.561 721.12 373.021 720.53C375.181 717.77 376.191 728.96 375.971 730.42C375.851 731.19 373.271 737.71 372.991 738C371.731 739.27 370.311 737.63 372.021 736.01H369.001C370.921 730.42 368.361 732.51 368.001 732C367.791 731.71 368.031 728.09 368.001 727C367.971 726.02 367.931 724.98 368.001 724C368.061 723.15 368.031 722.27 369.001 722Z" fill="#0F0938"/>
<path d="M354.002 625C356.712 626.93 357.992 630.46 357.852 635.61C359.352 640.88 359.072 645.01 357.002 648C357.232 652.3 356.842 656.69 356.992 660.99C355.222 661.18 356.072 658.19 356.002 657C355.902 655.21 356.202 653.39 355.942 651.59C355.682 649.79 354.342 648.3 354.052 646.45C352.782 638.5 351.792 630.11 351.002 622L352.992 621C352.402 622.7 353.762 624 354.002 625Z" fill="#F62249"/>
<path d="M322.002 578C321.502 582.8 320.512 587.7 320.012 592.51C319.512 597.32 322.212 601.2 316.013 600.01C315.753 592.92 317.242 586 318.002 579.01C318.192 576.1 320.482 575.45 322.002 578.01V578Z" fill="#F62249"/>
<path d="M338.002 575C339.182 574.01 347.642 575.64 348.012 576C348.332 576.32 347.062 583.12 347.002 585C341.902 584.89 336.922 580.37 338.002 575Z" fill="#F62249"/>
<path d="M360.002 459V463C359.212 462.96 357.992 463.51 357.972 462.33C356.592 451.24 357.472 440.17 356.002 429L357.002 428C361.262 437.44 361.812 448.68 360.002 459Z" fill="#F62249"/>
<path d="M335.002 576C335.262 580.66 334.932 585.33 334.002 590V591L331.002 592C331.972 580.72 333.502 570.8 337.012 560.01L338.582 571.54C338.392 572.87 335.692 574.68 335.002 576Z" fill="#F62249"/>
<path d="M337.002 662C342.882 654.78 340.782 659.74 343.422 660.08C346.302 660.46 350.252 660.18 352.992 659C353.122 661.57 353.452 662.89 352.002 665L339.002 666C339.132 665.78 338.792 664.97 339.252 664.27C339.922 663.25 342.762 663.45 341.992 661.01L337.002 662Z" fill="#F62249"/>
<path d="M376.002 557C376.202 564.31 375.862 571.68 376.002 579C374.162 579.5 373.992 578.75 373.012 578C372.902 571.35 373.162 564.65 373.012 558C374.362 556.13 373.752 555.32 376.012 557H376.002Z" fill="#F62249"/>
<path d="M380.002 641C379.842 644.31 380.192 647.69 380.002 651C379.892 652.89 381.112 655.69 378.012 655C379.292 645.02 378.572 635.01 379.002 625C379.392 619.74 379.732 614.41 380.002 609C381.702 609.39 380.952 612.12 381.002 613.5C381.362 622.79 380.442 631.92 380.002 641Z" fill="#F62249"/>
<path d="M340.002 610C339.972 610.63 337.562 615.98 337.002 617C335.932 618.94 334.022 621.93 332.012 623L330.012 621.01C329.962 619.68 330.052 618.34 330.012 617C332.812 618.92 331.502 617.69 332.492 616.02C333.352 614.56 336.442 606.94 337.012 607L337.882 607.87C338.152 606.59 337.532 605.69 339.002 606C338.302 607.41 340.022 609.79 340.012 610H340.002Z" fill="#72532C"/>
<path d="M380.002 565C377.912 560.23 378.452 553.43 379.002 548C379.002 547.67 379.002 547.33 379.002 547C378.812 536.85 379.122 526.65 379.022 516.49C379.002 514.8 379.662 512.04 378.002 511C378.312 510.92 378.872 508.82 379.992 509V565H380.002Z" fill="#0F0938"/>
<path d="M378.002 348C377.772 356.77 378.152 365.61 378.022 374.4C378.142 375.38 376.692 375.07 376.002 375V348H378.002Z" fill="#F62249"/>
<path d="M380.002 565C380.222 569.56 382.492 577.28 378.012 580C377.732 571.19 377.872 562.35 377.982 553.49C378.002 551.8 377.342 549.05 379.002 548C379.122 553.73 379.742 559.65 380.002 565Z" fill="#745228"/>
<path d="M371.001 598C372.331 601.92 376.441 597.03 376.011 600.99L380.001 600C379.811 601.17 380.281 604.72 380.001 605.01C379.651 605.37 372.571 604.75 370.991 605.01C370.941 602.68 371.061 600.33 370.991 598H371.001Z" fill="#F62249"/>
<path d="M375.001 608C375.351 608.51 373.081 618.71 372.711 620.22C372.471 621.22 372.411 623.23 371.011 622.99C372.081 620.42 369.111 609.5 370.061 608.06C370.531 607.35 374.661 607.5 375.001 608Z" fill="#F62249"/>
<path d="M341.001 555L342.001 572C340.801 573.57 340.181 572.02 340.001 570.53C339.621 567.3 339.231 562.77 339.021 559.49C338.891 557.44 337.991 554.22 341.001 555.01V555Z" fill="#F62249"/>
<path d="M372.002 489C372.092 490.42 372.322 497.63 372.562 498.02C374.042 500.47 376.352 497.67 376.972 502.51L372.002 502C371.442 497.78 369.672 493.26 372.002 489Z" fill="#F62249"/>
<path d="M322.002 578L318.002 579C318.162 577.54 317.722 572.29 318.002 572C318.332 571.67 321.802 571.8 322.552 572.98C322.752 573.3 322.112 576.88 321.992 578H322.002Z" fill="#F62249"/>
<path d="M379.001 625C379.561 619.91 377.741 613.52 380.001 609C379.771 613.49 380.301 618.09 380.041 622.58C379.971 623.87 379.011 624.87 379.001 625Z" fill="#F62249"/>
<path d="M354.001 625C354.811 622.27 351.871 605.78 352.431 604.94C353.411 603.47 364.461 601.06 365.051 603.65C366.091 608.18 364.991 616.71 365.531 621.9C366.191 628.2 368.591 634.33 369.511 640.47C370.171 644.9 368.921 650.55 371.001 654.99L358.011 656L357.001 648C356.641 641.23 355.531 631.5 354.001 625Z" fill="#0F0938"/>
<path d="M353.002 724H366.012C365.912 724.97 366.152 726.07 366.012 727C365.972 727.25 365.152 727.81 365.092 728.59C364.882 731.21 365.742 738.4 364.072 739.56C362.122 740.92 354.792 739.49 352.002 740C351.202 734.57 352.842 729.16 353.012 723.99L353.002 724Z" fill="#0F0938"/>
<path d="M373.002 555C370.532 555.46 370.942 554.27 370.542 552.57C369.672 548.89 370.512 544.98 369.952 541.56C368.052 529.87 365.112 518.41 362.682 506.8C361.832 502.73 364.622 499.57 359.602 499.08C354.502 498.59 355.562 500.22 355.772 503.52C355.912 505.65 353.102 506.31 357.992 506.01C358.212 508.01 355.522 506.05 356.002 507.99C359.102 507.47 357.052 510.28 357.162 512.6C357.392 517.87 356.822 523.53 357.002 528H356.002C355.862 518.27 353.682 508.68 353.002 499C353.852 498.22 354.382 496.81 355.482 496.35C355.902 496.18 364.082 496.23 364.502 496.4C368.132 497.84 365.612 501.05 365.992 504.46C367.852 521.29 372.342 538.33 373.012 555H373.002Z" fill="#0F0938"/>
<path d="M373.002 457C371.682 447.88 370.002 439.69 368.982 430.52C368.112 422.65 370.042 410.91 361.002 409.01C363.252 412.06 359.262 410.58 358.212 413.72C357.772 415.03 359.042 429.97 359.542 431.96C361.272 438.76 363.542 435.54 362.492 443.44C361.802 448.63 362.802 454.45 360.002 459C360.002 447.95 358.232 438.56 357.002 428C355.222 412.72 353.112 397.36 352.002 382C353.432 380.61 361.202 378.97 363.032 379.33C366.602 380.03 365.472 392.43 366.032 396.41C368.112 411.13 372.082 425.57 372.992 440.51V457H373.002Z" fill="#0F0938"/>
<path d="M350.001 360C352.731 360.89 352.741 362.1 350.001 363C349.491 370.26 349.301 378.78 351.001 386C351.341 386.39 351.621 386.79 351.671 387.22C352.261 392.8 353.001 400.19 353.091 405.68C353.091 406.11 352.621 406.55 352.001 407C350.431 408.61 348.051 423.54 344.531 418.97C344.061 418.36 344.231 417.38 344.001 417C344.271 412.1 345.511 407.14 347.731 402.14C345.791 401.04 344.311 400.16 343.331 398.02C341.351 393.72 343.541 384.34 345.001 380C341.981 378.37 344.461 373.28 346.031 370.73L346.951 361.26L349.001 360H350.001Z" fill="#0F0938"/>
<path d="M342.002 380C344.332 379.49 342.792 385.19 342.002 386C341.732 386.28 343.372 378.18 344.992 380C344.792 383.57 344.352 394.62 345.182 397.31C345.892 399.62 349.482 400.07 349.702 401.44C350.132 404.09 345.432 414.02 343.992 417C340.082 410.56 340.892 393.68 340.972 385.49C340.992 383.8 340.332 381.04 341.992 380H342.002Z" fill="#F62249"/>
<path d="M349.002 360C349.112 360.55 348.102 370.72 347.942 371.26C347.282 373.59 345.362 373.67 345.002 380L342.012 386C342.952 383.96 341.992 381.6 342.012 380C342.042 376.78 343.662 355.02 346.512 355.02C347.702 356.1 348.702 358.5 349.012 360H349.002Z" fill="#F62249"/>
<path d="M357.002 428C356.942 428.76 356.872 429.18 356.002 429C355.032 421.61 352.872 414.6 352.002 407C351.242 400.36 350.442 392.63 351.002 386C351.142 384.29 350.422 383.53 352.002 382C356.982 396.5 357.162 412.77 357.002 428Z" fill="#F62249"/>
<path d="M347.002 376L349.032 391.44C348.592 393.52 350.502 397.79 347.002 397V376Z" fill="#F62249"/>
<path d="M539.001 383C545.371 384.76 535.241 390.15 531.961 391.84C526.721 394.53 523.011 394.91 517.131 395.09C505.561 395.44 493.831 395.68 482.161 395.47C452.131 394.92 422.151 394.21 391.931 392.55L387.991 391.01C387.961 386.91 389.471 383.15 388.981 379C411.791 379 434.731 381.5 457.421 382.02C484.651 382.64 511.871 382 538.991 383.01L539.001 383Z" fill="#C9C9C6"/>
<path d="M595.002 382L667.992 378C667.472 381.32 669.222 387.76 667.002 390C643.062 392.16 618.582 394.04 594.602 392.77L594.812 389.71L602.902 383.93C598.852 384.71 596.222 384.07 595.012 382H595.002Z" fill="#F4F3F1"/>
<path d="M842.001 362L857.871 359.13C859.961 358.99 860.611 360.28 859.701 362.25C842.611 382.51 817.771 385.25 792.751 387.82C779.271 388.47 766.361 390.2 754.001 393.01C753.671 393.05 753.331 392.98 753.001 393.01C748.941 393.19 748.321 390.38 751.471 388.22L751.001 387.01L751.131 385.78L802.911 378.82C817.401 377.4 831.011 373.03 841.001 362.02C841.331 362 841.671 362.05 842.001 362.02V362Z" fill="#F4F3F1"/>
<path d="M515.002 399C516.912 402 512.572 403.68 510.012 404.44C482.512 405.27 453.062 404.49 424.902 403.21C423.922 403.17 422.952 402.65 422.002 401.99C418.312 400.95 415.252 401.04 412.822 402.27L388.982 401.45L388.002 396.99C388.332 395.97 388.442 396.09 389.452 395.96C396.462 395.06 403.852 396.87 410.462 397.03C445.282 397.86 480.272 397.68 515.002 398.99V399Z" fill="#F4F3F1"/>
<path d="M831.002 363C842.702 363.92 826.822 370.84 821.312 372.84C806.272 376.18 791.502 378.9 777.002 381C771.792 383.65 762.762 385.16 757.002 384C760.582 376.22 770.802 372.02 779.002 370C796.352 368.05 813.672 365.13 831.002 363Z" fill="#F4F3F1"/>
<path d="M543.002 383L560.022 382.46C562.582 383.24 561.922 385.08 559.482 386.47C553.692 389.94 547.862 393.12 542.002 396C500.432 396.02 458.912 396.11 417.432 395.01C407.772 394.75 397.832 393.14 388.002 394.01C387.972 393.01 388.012 392.01 388.002 391.01C401.382 392.07 415.042 392.67 428.442 393.04C454.892 393.78 489.012 396.33 514.442 394.4C525.412 393.57 529.132 391.7 538.122 385.59C539.712 384.51 540.892 385.71 539.002 383.01C540.332 383.06 541.672 382.95 543.002 383.01V383Z" fill="#F5F5F3"/>
<path d="M576.002 398C579.092 397.91 581.162 398.77 582.212 400.58C603.462 401.07 624.702 399.86 645.922 396.95C649.092 396.74 665.002 395.71 665.782 396.46C667.012 397.64 666.832 398.59 666.002 400C665.212 400.71 663.632 400.9 662.552 401.01C617.092 403.15 571.512 406 526.002 405C523.562 403.62 525.252 402.02 527.452 401.04C522.822 401.82 519.012 401.14 516.002 399C517.042 397.34 519.802 398 521.492 397.98C536.922 397.79 561.792 396.2 576.002 398Z" fill="#F4F4F2"/>
<path d="M747.002 373C747.952 375.17 746.102 375.82 746.522 374.67C747.022 373.3 748.312 375.55 747.272 377.62C747.022 378.11 738.932 383.71 738.392 383.95C733.092 386.26 697.202 389.29 691.172 388.22C690.472 388.1 690.172 386.91 690.012 386C690.282 383.18 691.722 380.19 691.002 376.99C709.652 376.32 728.402 374.74 747.012 373H747.002Z" fill="#F4F3F1"/>
<path d="M595.002 382C596.822 382.01 608.972 381.62 609.012 382.5L595.002 391.99C617.812 390.78 643.342 392.49 665.662 388.14C668.372 387.61 665.712 389.58 667.002 390C665.822 391.18 662.132 391.69 660.372 391.87C634.042 394.58 601.582 395.3 575.002 395C572.602 395.53 562.842 396.86 564.772 393.09C565.262 392.13 582.672 382.84 583.742 383C583.892 383.02 581.732 384.64 584.012 382C587.662 381.9 591.362 381.98 595.012 382H595.002Z" fill="#F5F5F3"/>
<path d="M666.002 400C666.402 396.8 665.242 398.44 663.472 398.39C638.022 397.79 607.392 405.06 582.032 402.57C578.362 402.21 578.952 402.19 580.012 399C578.422 399.67 576.722 398.09 576.002 397.99L607.462 395.95C625.302 397.96 646.182 391.91 663.552 393.94C667.522 394.4 668.492 397.77 666.002 399.99V400Z" fill="#F4F3F1"/>
<path d="M779.002 370C771.032 373.75 764.122 378.92 757.002 384L756.792 385.09C735.892 387.44 714.952 389.07 694.002 390C689.922 389.76 689.502 391.2 690.002 386C692.132 386.71 694.252 387.03 696.512 387.08C703.292 387.21 730.992 385.31 735.672 383.18C738.322 381.97 740.312 379.72 742.662 378.14C745.452 376.27 746.722 378.37 745.012 374L747.002 373C757.632 372 768.392 371.19 779.002 370Z" fill="#F5F5F3"/>
<path d="M754.001 393C753.201 390.24 758.011 390.45 759.691 390.16C782.511 386.22 824.381 386.76 842.931 374.44C848.271 370.89 853.491 364.3 858.991 360.5C854.201 359.66 849.141 362.36 844.491 362.52C843.551 362.55 842.521 361.96 841.991 362C848.701 359.4 857.001 358.08 864.241 356.74C865.551 356.5 866.201 354.86 865.981 357.48C848.911 383.42 822.491 385.07 794.361 388.87C781.001 390.67 767.391 391.57 753.991 393H754.001Z" fill="#F4F4F2"/>
<path d="M516.001 399C522.301 399.25 528.691 398.81 534.991 399.01C533.711 401.31 529.891 402.08 527.601 403.15C526.641 403.6 526.251 404.86 525.991 405C519.961 408.26 472.991 405.18 462.561 405C445.931 404.7 429.571 404.75 412.991 404.01C406.961 400.5 418.651 401.08 421.991 402.01C447.211 402.09 474.251 404.75 499.491 403.45C505.131 403.16 511.021 403.73 514.991 399.01C515.321 399.02 515.661 399 515.991 399.01L516.001 399Z" fill="#F5F5F3"/>
<path d="M841.002 362C835.332 370.05 826.292 374.71 817.032 377.53L751.002 387C749.942 389.52 741.952 391.03 741.002 388C738.422 389.61 735.532 390.11 732.562 390.53C721.882 392.06 708.392 392.58 698.002 391C697.302 389.46 695.312 390.08 694.002 390L757.002 384C763.702 383.66 770.642 381.85 777.002 381C791.102 378.82 805.302 376.28 819.612 373.39C824.072 371.96 834.442 368.59 834.482 364.35C836.972 363.57 837.812 362.79 837.002 362C839.292 361.74 840.032 362.07 841.002 362Z" fill="#0F0938"/>
<path d="M751.001 387C759.391 387.51 747.371 390.1 753.001 393C732.051 395.2 711.091 398.02 690.001 398.99C689.351 397.47 690.921 396.42 691.001 396C691.901 394.94 693.001 394.19 694.331 393.79C710.791 394.37 726.341 392.44 741.001 388C744.171 387.78 746.921 386.75 751.001 387Z" fill="#F4F3F1"/>
<path d="M741.001 388C738.031 392 732.611 392.68 728.111 393.42C716.501 395.33 702.891 395.16 691.001 396C691.181 394.96 690.571 392.72 691.101 392.12C691.631 391.52 696.631 391.14 698.001 391C712.011 389.48 726.861 388.97 741.001 388Z" fill="#C3F4F3" fill-opacity="0.945098"/>
<path d="M189.912 376C189.912 376 182.252 374.71 182.272 364.61C182.292 357.28 183.682 350.44 192.842 352.32C192.842 352.32 187.032 365.42 189.902 375.99L189.912 376Z" fill="#F62249"/>
<path d="M386.002 383C385.812 386.73 385.282 390.3 385.002 394C384.212 397.3 372.382 397.04 371.002 394C370.552 390.57 370.312 384.41 371.002 381C373.072 378.52 384.642 379.41 386.002 383Z" fill="#F62249"/>
<path d="M283.092 387.9C281.622 387.26 277.352 381.06 277.322 378.5C277.312 376.9 285.222 367.41 285.982 368C285.892 371.6 290.302 376.33 290.002 379.44C289.852 380.98 284.952 388.71 283.082 387.9H283.092Z" fill="#F62249"/>
<path d="M837.002 362C841.632 361.24 834.862 366.66 834.472 366.97C820.042 378.49 795.032 378.58 777.002 381L774.512 380.01C794.642 375.44 817.502 377.3 834.992 364.99L831.002 363C833.032 362.75 834.972 362.23 837.002 362Z" fill="#F4F3F1"/>
<path d="M578.002 382C578.142 382.51 578.262 383.03 578.272 383.54C578.332 385.43 562.952 394.8 560.002 396C556.012 396.01 551.992 396 548.002 396L548.622 393C555.212 387.97 564.672 382.27 573.002 382C574.582 381.82 576.362 382.08 578.002 382Z" fill="#F4F3F1"/>
<path d="M573.001 382C566.781 382.7 567.631 383.84 564.401 385.86C559.001 389.23 552.981 391.93 548.001 396C546.001 396 544.001 396 542.001 396C539.941 392.98 541.591 394.6 543.151 393.69C548.751 390.43 554.211 386.89 559.991 383.98C560.261 382.34 558.641 383.05 557.511 382.99C552.691 382.74 547.801 383.2 542.991 382.99C552.551 380.7 563.171 382.61 572.991 381.99L573.001 382Z" fill="#C9C9C6"/>
<path d="M584.002 382C585.972 384.78 584.552 383.49 583.112 384.56C578.262 388.19 572.002 392.88 566.012 394.01C565.742 395.66 567.372 394.93 568.502 395C570.652 395.13 572.852 394.97 575.002 395C570.882 396.85 564.752 395.99 560.002 396C564.352 389.66 572.432 387.11 578.002 382C579.992 381.9 582.012 382.06 584.002 382Z" fill="#C3C1BC"/>
<path d="M236.011 381C236.041 378.1 231.971 374.09 232.201 371.65C232.371 369.88 237.211 363.47 238.981 362C241.401 368.78 244.861 377.65 236.011 381Z" fill="#F62249"/>
<path d="M385.002 394C384.802 396.63 385.152 399.36 385.002 402.01C374.762 401.53 372.482 405.32 370.992 394H384.992H385.002Z" fill="#F62249"/>
<path d="M269.002 367C269.192 367.28 270.192 367.42 270.762 368.7C273.922 375.85 272.602 378.61 268.982 385C262.382 382.22 261.892 375.46 266.002 370C264.912 367.43 266.682 366.32 269.002 367Z" fill="#F62249"/>
<path d="M314.992 373C317.202 381.13 319.992 386.04 312.012 391.99C311.742 388.83 307.902 384.66 308.242 381.63C308.372 380.51 313.472 371.59 314.992 373Z" fill="#F62249"/>
<path d="M223.992 360C226.602 367.67 228.922 373.23 221.502 378.98C216.152 371.94 218.042 365.74 223.992 360Z" fill="#F62249"/>
<path d="M388.001 397C389.211 398.22 388.231 399.79 390.441 400.08C395.741 400.79 403.531 400.07 409.421 400.41C413.351 400.64 418.441 400.57 422.011 402C420.491 402 413.371 401.74 413.011 402C412.841 402.13 413.121 403.57 413.011 404C404.691 403.63 396.321 403.57 388.011 403.01C388.311 401.31 387.571 398.38 388.011 397H388.001Z" fill="#F4F3F1"/>
<path d="M249.002 378C248.692 376.92 246.922 375.99 247.562 373.97C247.762 373.32 251.922 367.27 252.722 366.26C253.232 365.61 253.482 363.47 255.002 364.99C255.382 365.37 257.632 374.96 257.612 375.5C257.572 376.58 255.722 379.78 255.012 380.99C252.942 383.75 250.942 382.75 249.012 377.99L249.002 378Z" fill="#F62249"/>
<path d="M207.992 377C202.272 370.64 204.152 362.56 209.992 357C210.412 360.04 213.192 365.52 212.712 368.35C212.362 370.44 208.132 374.22 207.992 376.99V377Z" fill="#F62249"/>
<path d="M196.731 374.27C191.951 368.95 193.521 362.19 198.401 357.55C198.751 360.1 201.081 364.68 200.681 367.05C200.391 368.79 196.851 371.96 196.731 374.28V374.27Z" fill="#F62249"/>
<path d="M298.012 390C298.632 386.63 293.952 382.24 294.212 379.65C294.342 378.29 298.422 372.14 299.992 371C302.722 378.33 304.812 384.15 298.012 390Z" fill="#F62249"/>
<path d="M332.002 398C330.542 397.2 329.172 397.51 328.922 395.54C327.902 387.57 329.862 378.04 330.002 369.99C335.862 368.95 332.002 374.01 332.002 376.5V398Z" fill="#F62249"/>
<path d="M386.002 383L371.002 381C371.172 380.14 370.792 378.98 371.022 378.03C373.892 378.48 386.192 376.67 386.772 379.48C386.842 379.81 386.062 381.87 386.012 383H386.002Z" fill="#F62249"/>
<path d="M327.001 389C326.041 391.92 324.701 390.92 323.001 386C322.931 382.77 324.041 378.79 326.991 377C326.831 380.97 327.251 385.04 326.991 389H327.001Z" fill="#F62249"/>
<path d="M323.002 386C324.902 386.81 324.622 389.62 327.002 389C326.922 390.34 327.062 397.81 324.002 395.99C325.162 392.61 323.072 389.34 323.002 386Z" fill="#0F0938"/>
<path d="M712.002 714C715.142 714.77 721.522 727.18 717.962 729.35C716.962 729.96 696.932 730.8 694.562 730.54L692.002 728.99C692.162 728.48 693.362 728 693.992 727.97C694.462 726.28 692.572 727.37 692.162 726.9C691.942 726.65 692.102 720.31 693.992 721.98V721C690.782 721.29 692.912 719.78 692.642 718C691.692 711.78 690.222 704.7 689.702 697.82C688.992 688.53 690.482 672.84 688.012 664.98C691.442 660.69 700.922 662 704.262 667.17C705.492 669.08 710.702 697.09 711.162 700.96C710.582 705.08 710.862 709.42 712.012 713.98L712.002 714Z" fill="#0F0938"/>
<path d="M685.002 397L686.202 398.82C684.542 413.74 682.482 428.47 680.002 443L680.022 462.31L679.002 463C678.702 462.96 678.262 462.04 678.002 462C677.432 461.41 676.892 460.8 676.472 460.12C673.812 455.78 676.072 427.54 676.882 419.87C678.912 419.36 680.672 402.92 679.862 402.51C679.572 402.36 675.302 406.73 678.082 407.55C672.762 424.83 669.282 443.38 669.942 461.83C668.652 462.89 668.272 464.43 668.002 466.01C668.042 467.99 669.092 479.29 668.562 480.07C667.712 481.33 666.022 480.75 665.002 481.01C664.522 480.33 664.142 479.64 664.112 478.94C662.952 449.85 664.862 423.97 671.002 396.01L671.702 382.66C671.302 377.42 683.722 376.96 686.052 378.82C688.382 380.68 687.462 394.41 685.002 397.01V397Z" fill="#0F0938"/>
<path d="M687.001 577C687.651 577.06 688.521 576.85 689.001 577C692.921 578.2 690.031 582.88 689.981 585.54C689.901 589.77 690.611 594.11 690.551 598.45C690.481 603.16 690.331 609.53 689.011 614.01L688.381 613.41C688.431 615.53 687.581 622.52 687.021 627.01C686.891 628.06 686.001 628.68 685.021 629.01L683.121 627.71L684.831 606.01C684.671 605.61 676.761 604.75 676.771 605.18C676.881 612.13 674.221 625.34 672.571 632.61C672.191 634.29 671.091 635.7 670.021 637.01L668.021 636.01C669.481 621.39 671.901 605.14 672.071 590.54C672.121 585.8 670.711 581.69 671.011 577.01C676.211 577.35 681.881 576.56 687.011 577.01L687.001 577Z" fill="#F62249"/>
<path d="M689.002 501C687.692 501.94 687.032 500.61 687.002 497L685.612 498.53C682.372 497.43 678.872 497.69 675.512 499.38C670.472 524.57 668.162 551 665.992 577C665.362 577.82 665.302 580.73 663.002 581C663.242 559.3 663.892 537.54 668.852 516.36C669.052 510.26 670.502 503.81 670.992 498C672.172 497.27 672.042 499.43 672.032 499.32C671.822 495.53 672.682 472.75 673.782 471.22C674.742 469.87 684.542 470.21 686.722 470.75C686.542 468.13 687.302 466.55 688.992 466.01C690.322 467.34 689.922 467.8 690.052 469.42C690.792 478.74 689.662 491.44 688.992 501.01L689.002 501Z" fill="#F62249"/>
<path d="M677.002 353C675.052 353.09 672.392 352.58 670.672 353.16C666.252 354.65 668.672 371.76 667.932 375.93L659.002 377C659.602 370.93 657.722 363.71 660.002 358L661.002 358.83L661.022 374.97C660.992 373.72 661.312 374.06 661.992 376.01L661.052 375.7C660.502 358.64 660.822 341.75 661.992 325.01C661.882 321 676.712 321.45 678.162 322.9C679.982 324.74 678.762 348.27 678.332 352.4C678.302 352.64 677.732 352.83 677.002 353Z" fill="#0F0938"/>
<path d="M667.002 576C667.482 556.57 669.822 537.23 674.032 517.98L673.782 512.94C676.412 510.24 677.152 507.24 676.012 503.97C673.312 499.24 676.302 497.19 684.992 497.8C684.602 504.92 683.362 512.05 681.272 519.17C681.852 526.39 681.762 533.67 681.002 541.01C681.592 541.28 681.732 541.71 681.712 542.32C681.602 547.04 681.032 571.06 680.122 573.3C679.982 573.63 679.542 573.84 679.002 574C676.452 573.27 674.462 573.96 673.992 570.01L672.022 571.99L670.512 568C669.102 571.56 668.932 572.93 667.002 576Z" fill="#0F0938"/>
<path d="M668.003 466C667.603 443.44 668.893 434.43 674.553 412.49C675.233 409.85 671.963 408.49 676.993 408.99L674.013 406.5C675.673 404.37 680.893 396.08 681.993 402.53C682.233 403.96 680.523 418.68 679.993 420.3C679.703 421.18 678.743 421.11 678.013 421.01V421.99C682.753 422.36 678.283 422.93 678.153 423.09C678.033 423.23 678.863 425.05 678.743 426.19C677.533 438.18 676.703 450.05 678.003 462C677.833 461.97 677.183 462.59 676.483 462.52C672.433 462.09 670.293 460.48 668.003 466Z" fill="#0F0938"/>
<path d="M666.003 577C666.753 565.8 665.633 554.47 666.803 543.37C668.173 530.43 671.233 510.25 674.493 497.98L675.013 496.01C676.733 495.55 675.623 497.44 676.083 497.89C676.483 498.28 684.803 495.3 686.993 497.01C687.243 511.25 685.453 526.28 681.993 540.01C682.033 540.72 681.703 541.06 680.993 541.01C679.433 540.01 679.863 537.11 679.923 535.48C680.023 532.6 682.043 529.25 679.003 530C678.563 528.32 680.633 529.49 680.883 528.54C680.933 528.34 680.913 524.69 680.853 524.5C680.543 523.43 678.613 522.39 679.413 518.03C680.143 514.03 682.033 509.15 682.693 506.5C683.303 504.05 684.323 501.65 683.993 499.02C681.393 499.16 676.283 497.75 675.973 501.53C675.933 502.01 677.543 501.91 677.743 502.5C678.243 503.95 677.743 506.94 679.973 508.52C675.853 510.09 678.893 508.99 679.973 511C673.243 511.09 676.573 515.42 675.953 518.4C673.403 530.67 671.963 542.4 670.073 554.68C668.983 561.76 667.433 568.83 666.973 576.02C666.733 576.41 666.243 576.67 665.973 577.02L666.003 577Z" fill="#0F0938"/>
<path d="M671.002 368L671.832 368.37C673.272 392.06 670.332 363.01 671.942 360.86C672.672 359.89 688.022 358.88 689.002 361.99C689.322 373.13 688.892 384.02 688.002 394.99C687.222 397.77 686.222 398.43 685.002 396.99C685.212 393.86 686.852 381.66 685.072 380.43C684.022 379.7 675.392 379.89 674.532 380.95C671.632 384.54 674.622 392.35 671.002 395.99C670.522 395.85 670.192 395.19 670.002 393.99C670.632 385.55 668.692 376.13 671.002 367.99V368Z" fill="#F62249"/>
<path d="M713.002 701C712.442 704.6 712.502 708.61 713.172 713.02L712.002 714L702.472 668.03C698.952 662.76 693.122 665.3 688.002 665C687.792 664.33 685.572 663.1 686.002 661.52C686.672 658.43 705.772 657.41 707.772 667.74C709.882 678.64 710.692 690 713.012 701H713.002Z" fill="#F62249"/>
<path d="M713.002 701C714.552 708.39 714.972 715.4 719.562 721.94C721.812 725.15 732.882 732.11 724.542 733.05C721.142 733.43 693.122 734.18 691.992 733.01C691.852 732.87 691.842 729.51 691.992 729.01C700.172 727.19 708.662 728.3 716.992 728.01C718.052 722.25 713.182 719.12 711.992 714.01C711.302 711.05 712.272 706.94 710.462 704.08L712.992 701.01L713.002 701Z" fill="#F62249"/>
<path d="M661.002 320C661.802 319.13 677.182 320.63 680.002 320V347.5C680.002 348.9 678.412 350.91 680.002 352.99C679.012 353.04 678.002 352.95 677.002 352.99C676.962 347.88 679.352 327.49 677.562 324.93C676.062 322.78 665.052 324.45 662.002 324.99V375.99C659.662 376.12 660.232 376.33 660.002 374.51C659.392 369.7 660.082 363.11 660.002 357.99C659.892 350.74 659.862 343.35 660.002 335.99C660.282 330.64 660.612 325.31 661.002 319.99V320Z" fill="#F62249"/>
<path d="M673.001 744C672.781 743.85 671.721 744.23 671.281 743.75C670.011 742.37 668.561 737.98 666.781 736.31C666.531 736.08 665.141 736.73 664.471 736.1C661.071 732.91 663.941 726.51 664.041 722.53C664.261 713.7 663.781 704.82 664.011 695.99C665.671 695.88 665.261 699.32 665.401 700.56C666.021 705.84 665.081 711.64 665.001 716.99L666.961 715.99L668.001 719.97L669.991 716.98C670.281 719.65 671.571 723.3 671.991 726.98C673.701 729.96 674.381 733.82 674.051 738.57C675.341 741.13 675.961 742.37 672.991 743.98L673.001 744Z" fill="#0F0938"/>
<path d="M671.003 396C671.913 410.8 665.903 425.53 665.063 439.45C664.223 453.37 665.763 467.47 665.003 481C664.423 481.15 663.243 482.36 663.013 482C663.723 467.76 662.033 452.6 662.963 438.46C663.893 424.32 668.923 408.37 670.003 394C670.963 394.27 670.953 395.15 671.003 396Z" fill="#F62249"/>
<path d="M689.002 466V477.99C686.842 477.16 688.912 474.41 686.012 472.55C685.432 472.17 674.902 472.18 674.502 472.92C673.002 478.72 673.952 484.68 673.492 490.51C673.302 492.9 672.392 494.85 672.472 497.5C672.572 500.73 672.562 500.81 671.002 497.99C671.712 489.64 671.782 479.16 672.072 470.5C672.122 468.86 671.272 467.48 671.442 465.97C672.542 464.42 687.352 464.34 689.002 465.99V466Z" fill="#F62249"/>
<path d="M687.002 725C686.712 720.35 685.352 715.05 689.002 722L692.002 744.99C686.852 743.92 679.902 746.06 675.402 745.93C673.482 745.88 673.492 744.32 673.002 744C673.582 738.21 672.642 732.62 672.002 727C672.522 726.31 673.612 725.67 674.002 725C675.002 724.8 675.792 725.1 676.332 725.95L676.882 738.59C677.202 739.18 684.772 738.01 686.292 737.69C684.572 732.4 684.802 728.18 687.002 725.01V725Z" fill="#F62249" fill-opacity="0.894118"/>
<path d="M671.001 368C670.281 366.08 670.021 355.82 671.131 355.12L689.011 355C689.061 357.33 688.941 359.68 689.011 362.01C686.701 366.33 687.301 362.24 686.541 362.12C683.081 361.6 676.831 362.51 673.051 362.04L672.001 378L671.011 368.01L671.001 368Z" fill="#F62249"/>
<path d="M689.003 614C689.503 629.73 685.643 650.7 684.003 667C683.863 668.35 684.893 672 683.013 671.99C683.373 666.81 680.903 659.6 681.003 655L679.062 653.46C679.942 645.66 681.173 637.9 682.773 630.2L685.003 629C686.093 622.14 688.083 615.18 688.013 608.01C689.873 608.23 688.953 612.54 689.003 614Z" fill="#F62249"/>
<path d="M681.002 452C679.452 449.93 679.112 446.93 680.002 443C679.592 427.22 683.932 412.92 685.002 397L688.002 395C686.452 414.08 682.362 432.84 681.002 452Z" fill="#F62249"/>
<path d="M661.002 403C664.572 404.38 663.512 413.47 661.002 416C661.002 437.98 661.002 460.01 661.002 481.99L659.002 480.51C658.252 454.62 660.222 428.61 659.002 402.99C659.662 402.95 660.332 403.02 661.002 402.99V403Z" fill="#F62249"/>
<path d="M689.002 501C688.022 514.99 686.892 529.6 683.002 543C680.892 544.44 680.982 541.79 682.002 540C682.612 525.7 684.622 511.03 687.002 497C688.342 498.04 687.742 499.94 689.002 501Z" fill="#F62249"/>
<path d="M683.002 543C682.522 553.7 682.152 564.38 680.992 575C679.522 575.48 679.132 574.04 679.002 574C679.832 567.68 678.352 545.46 681.002 541C681.242 540.6 681.652 540.3 682.002 540C681.932 541.73 683.012 542.84 683.002 543Z" fill="#0F0938"/>
<path d="M685.003 679C686.673 684.52 687.393 697.14 687.003 703C686.903 704.51 686.933 707.61 685.013 708C683.833 706.08 685.233 699.57 684.883 698.47C684.733 698.01 680.403 697.21 685.003 696.99C685.393 695.13 683.103 696.66 682.993 695.5C682.883 694.34 685.453 695.85 684.993 694.01C679.733 692.99 683.333 690.47 683.993 688.49C684.293 687.59 682.413 688.31 682.143 687.52C681.843 686.66 683.553 683.57 683.593 682.49C683.633 681.14 681.493 678.47 683.023 676C684.063 675.72 684.793 678.26 685.013 678.99L685.003 679Z" fill="#F62249"/>
<path d="M661.002 559C660.152 565.96 660.152 573.04 661.002 580V581H659.002V553.01V508.01H660.002H661.002V559.01V559Z" fill="#F62249"/>
<path d="M661.002 607V655C659.242 655.22 660.052 652.74 660.002 651.51C659.402 637.11 659.732 622.84 659.002 608.48L661.002 607Z" fill="#F62249"/>
<path d="M661.002 403C662.662 402.92 664.352 403.04 666.012 403L663.992 418L663.012 414.51L661.012 416.01V403.01L661.002 403Z" fill="#0F0938"/>
<path d="M659.002 553L660.002 508H659.002V553Z" fill="#F62249"/>
<path d="M681.002 452C681.202 455.64 680.862 459.36 681.002 463C680.352 462.95 679.642 463.09 679.012 463C679.612 456.59 677.732 449.06 680.012 443C680.102 446.4 680.872 449.59 681.012 452H681.002Z" fill="#F62249"/>
<path d="M669.002 607.99C668.582 611.09 670.502 616.28 667.012 618C667.282 614.09 663.112 606.74 669.002 607.99Z" fill="#F62249"/>
<path d="M661.002 580C659.332 573.91 659.332 565.09 661.002 559V580Z" fill="#F62249"/>
<path d="M660.003 336C660.073 332.35 659.113 322.06 661.003 320C660.443 325.09 662.263 331.48 660.003 336Z" fill="#0F0938"/>
<path d="M670 637L671.68 640.11C671.03 644.68 670.85 649.24 671.12 653.81C675.73 652.59 679.02 652.98 681 654.99L683.02 656.08L683.4 667.55L684 666.99C686.2 670.03 684.5 675.2 685 678.99L683.91 679.47C685.07 683.77 685.23 687.88 684.38 691.77C685.1 691.97 685.87 692.4 685.92 693.03C686.19 696.51 685.95 701.81 685.78 703.58L687 703L689 722C687.49 723.38 687.07 719.42 687.1 719.61C688.35 722.2 688.32 723.99 687 725C682.76 724.87 678.43 724.87 674 725C674.05 726.78 673.84 728.09 672 727C668.14 725.57 668.49 720.25 670 717C667.02 689.74 665.28 663.18 668 636C669.5 633.48 669.76 634.53 670 637Z" fill="#F62249"/>
<path d="M669.999 637C671.159 626.15 673.519 615.06 675.239 604.22C679.079 602.59 682.999 604.31 686.999 604L684.989 629C683.809 636.4 681.129 648.23 680.989 655L668.999 656C668.619 649.6 669.309 643.31 669.989 637H669.999Z" fill="#0F0938"/>
<path d="M673.999 725C674.749 723.7 673.909 723.06 673.999 723.01C674.589 722.68 686.599 721.96 686.999 725C687.309 730.05 687.369 735.14 688.999 739.99C686.129 738.81 676.219 742.62 675.139 739.35C674.059 736.08 675.459 728.95 673.999 725Z" fill="#0F0938"/>
<path d="M144 255.01L149.97 256.49C147 262.38 145.58 259.99 144 255.01Z" fill="#0F0938"/>
<path d="M158 247.01V248.49C156.94 250.06 155.85 250.23 154.01 250V247.01H158Z" fill="#0F0938"/>
<path d="M153.99 251.01C154.61 251.63 153.53 254.99 152.5 254.98C148.63 254.98 151.41 248.42 153.99 251.01Z" fill="#0F0938"/>
<path d="M147 817C145.86 813.95 152.36 809.26 155 811C157.63 810.67 158.97 812.24 160.53 813.97C166.85 821.01 172.23 830.62 178.48 838.01C184.73 845.4 193.15 854.37 200 861.49C203.02 864.63 216.179 874.15 215.79 878.34L106 1024H0V940C29.5698 915.05 59.8099 890.821 89.4697 865.971C108.77 849.801 128.34 833.3 147 817Z" fill="white" fill-opacity="0.05"/>
<path d="M301.47 921.96C302.78 921.97 305.51 924.47 307.29 925.21C315.1 928.45 321.53 932.58 329.32 936.18C345.45 942.04 360.38 950.46 376.92 955.07C374.45 978.72 365.51 1000.98 360 1024H246C249.69 1016.55 253.01 1008.7 256.82 1001.32C268.78 978.14 281.49 951.58 295.83 930.33C297.24 928.25 298.81 921.93 301.47 921.96Z" fill="white" fill-opacity="0.05"/>
<path d="M552.29 973.15C553.92 973.62 555.43 976.12 555.79 977.71C558.1 987.88 559.93 1002.5 561 1013C562.71 1017.35 563.05 1021.02 562 1024H463L469.21 975.71L470.4 973.91C481.1 972.06 493.52 976.08 504.39 974.101L516.5 975.801L552.29 973.15Z" fill="white" fill-opacity="0.05"/>
<path d="M730.1 937.19C733.99 935.96 738.23 937.5 740.42 940.95L793.1 1024H655L646.71 971.67C646.01 967.27 648.64 963.03 652.88 961.68L730.1 937.19Z" fill="white" fill-opacity="0.05"/>
<path d="M859.011 823.5C863.461 818.12 864.201 808.93 872.951 814.57C885.501 822.67 903.271 838.99 915.491 849.02C951.791 878.829 986.891 910.18 1024.01 939V1024H917.001C917.511 1021.61 916.661 1020.74 915.541 1018.96C913.891 1016.33 910.021 1011.35 907.961 1008.78C879.201 972.89 850.66 935.03 822.98 897.53C820.06 893.57 810.02 882.94 809.23 879.229C808.231 874.56 811.111 876.149 813.671 873.649C828.801 858.909 845.451 839.86 859.011 823.5Z" fill="white" fill-opacity="0.05"/>
<path d="M98.2998 697.2C101.95 706.64 106.53 715.59 109.02 725.479C108.76 727.979 105.3 729.51 103.31 730.81C94.1896 736.75 80.7003 743.9 70.9004 749.4C47.6104 762.47 23.4698 774.26 0.00976562 787.01V667.01L0 667L83.8701 644.13L98.2998 697.2Z" fill="white" fill-opacity="0.05"/>
<path d="M1024 667.007V787C987.85 769.59 953.67 748.21 918.24 729.36C913.11 725.43 917.89 722.4 919.21 718.71C922.44 709.66 925.8 700.73 929.28 691.771L941.26 646.76L943.02 644.45L1024 667.007Z" fill="white" fill-opacity="0.05"/>
<path d="M1024.01 667.01L1024 667.007V667L1024.01 667.01Z" fill="white" fill-opacity="0.05"/>
<path d="M0 464C4.78 463.61 10.7002 463.66 15.4902 464.01C27.3901 464.87 38.88 467.32 50.6299 468.87C59.6899 470.06 70.7502 469.97 79.4502 472.05C84.63 473.29 79.8302 480 79.2402 483.74C75.8603 505.06 74.9196 526.99 73.0996 548.61C72.9699 550.15 74.26 551.58 73.5801 553.03C72.5389 554.5 50.4397 555.52 46.5098 556.01C34.9698 557.45 23.6599 559.77 12 561C8.16 561.41 3.96 561.07 0 562V464Z" fill="white" fill-opacity="0.05"/>
<path d="M1024 562L951.43 553.07C951.54 543.23 951.479 533.61 950.689 523.8C949.549 509.72 946.78 496.09 945.06 482.44C944.82 480.551 944.559 472.581 945.579 471.88C946.019 471.58 954.639 469.68 955.859 469.54C973.149 467.55 990.989 466.47 1008.49 464.99C1013.55 464.56 1018.89 463.35 1024 463V562Z" fill="white" fill-opacity="0.05"/>
<path d="M0 238C8.07996 241 17.1597 245.5 24.8896 249.61C63.7796 270.3 101.86 292.48 140.26 313.96C143.59 316.74 139.04 323.46 137.2 326.71C127.46 343.86 117.84 360.02 109.27 377.78C108.19 380.021 108.16 385.92 105.33 386.87L0 359V238Z" fill="white" fill-opacity="0.05"/>
<path d="M1023.99 358.003L919.64 386.87C917.67 386.18 916.769 380.06 915.729 377.77C910.44 366.02 908.419 353.45 902.409 342.09C898.129 333.98 890.16 330.2 885.14 321.37C884.53 320.3 883.199 317.34 883.189 316.31C883.15 312.73 901.769 304.44 905.659 302.18C944.609 279.57 984.449 258.6 1023.99 237.01V358.003Z" fill="white" fill-opacity="0.05"/>
<path d="M1023.99 358.01V358.003L1024 358L1023.99 358.01Z" fill="white" fill-opacity="0.05"/>
<path d="M108.83 1.67969C140.19 42.1396 171.7 82.7999 203.34 123.63L205.45 129.25C214.3 138.78 221.84 149.35 228.99 160C231.94 159.75 234.95 163.66 232.99 166C236.18 169.88 239.18 173.88 241.99 178C245.28 177.52 247.11 179.89 245.99 183C248.2 186.53 250.69 189.88 253.47 193.07C258.02 198.36 255.41 201.58 249.66 203.67C232.4 217.61 215.7 232.2 199.55 247.45C197.2 248.82 194.68 248.01 191.99 245C191.64 244.68 191.34 244.32 190.99 244C182.57 237.8 174.57 231.46 166.99 225C166.74 224.66 166.27 224.38 165.99 224C158.17 218.18 150.47 211.78 142.89 204.8C95.7498 168.09 48.4895 129.45 1.09961 88.8799L0 86V0H105L108.83 1.67969Z" fill="white" fill-opacity="0.05"/>
<path d="M1024 87C1021.67 87.52 1019.35 89.5303 1017.53 91.0303C956.581 141.33 894.741 191.07 834.501 242C831.711 244.36 831.591 248.6 825.451 245.05C811.031 230.99 795.991 217.53 780.221 205.01C776.321 201.91 768.451 199.72 770.421 193.96L919.001 0H1024V87Z" fill="white" fill-opacity="0.05"/>
<path d="M362.26 0.610352C365.74 11.2702 368.45 22.1 370.38 33.0898C372.71 35.9998 373.65 39.12 373.17 42.46C377.13 53.43 379.61 64.74 382 76C385.95 79.91 387.81 86.78 386 92C390.72 104.68 395.04 118.19 396.81 131.45C374.38 140.43 351.68 148.95 328.73 157.01L326 156.23C321.48 149.05 317.48 141.64 314 134L245 0H360L362.26 0.610352Z" fill="white" fill-opacity="0.05"/>
<path d="M666.005 0.0556641C666.01 0.0408344 666.015 0.025571 666.02 0.0107422H779.994L753.199 51.7402C753.049 52.9027 751.545 53.4417 751.078 53.9082L751 54.001L751.036 54.3789C751.148 56.2232 750.237 57.3835 749.431 58.9209C743.121 70.9007 736.97 82.8512 731 95.001C720.87 114.381 710.71 133.761 700.53 153.16C698.83 156.49 695.46 156.77 690.44 154.011C670.54 144.721 649.75 137.061 628.07 131.021C639.56 87.7607 651.121 44.3005 662.761 0.640625L665.011 0.000976562H666C666.002 0.0190257 666.003 0.037609 666.005 0.0556641Z" fill="white" fill-opacity="0.05"/>
<path d="M562.001 0L563.881 1.09961C563.091 6.20961 561.801 11.17 560.001 16C557.011 24.8303 556.091 60.1001 555.001 72C553.341 87.1099 551.321 101.95 548.951 116.51L547.681 117.26L475.511 116.979L474.501 115.819C470.561 77.5195 466.431 39.3793 462.131 1.39941L464.001 -0.00976562H562.001V0Z" fill="white" fill-opacity="0.05"/>
<path d="M780.02 0.0107422H779.994L780 0L780.02 0.0107422Z" fill="white" fill-opacity="0.05"/>
<path d="M546.394 672.702H496.611V674.811C496.611 675.188 496.77 675.544 497.042 675.793L501.5 679.798C502.081 680.448 502.882 680.818 503.713 680.818H507.249C507.249 680.818 507.257 683.749 507.257 685.461C507.257 687.172 507.957 689.02 507.957 689.02L507.48 689.498C506.969 688.795 504.708 686.01 503.207 686.01L497.533 685.98V693.22L507.257 693.333V707.51C508.197 706.574 509.139 705.638 510.08 704.703C511.644 703.149 513.208 701.595 514.767 700.036V686.471C514.767 684.701 514.417 683.198 514.051 681.627C514.003 681.42 513.954 681.213 513.907 681.003L513.906 681C513.904 680.992 513.902 680.984 513.9 680.977C513.893 680.951 513.888 680.931 513.906 680.902C513.996 680.766 514.586 680.63 514.737 680.705C515.814 681.23 516.959 681.427 518.146 681.447C520.381 681.485 522.622 681.485 524.857 681.447C526.045 681.427 527.19 681.231 528.268 680.705C528.334 680.673 528.482 680.679 528.636 680.709C528.837 680.747 529.048 680.824 529.1 680.902C529.108 680.915 529.111 680.926 529.111 680.937C529.112 680.951 529.109 680.963 529.105 680.977L529.102 680.988L529.1 681L529.099 681.003C529.049 681.221 528.999 681.436 528.949 681.65C528.585 683.21 528.238 684.695 528.238 686.471V700.036C529.797 701.595 531.361 703.149 532.925 704.703C533.867 705.638 534.808 706.574 535.748 707.51V693.333L545.472 693.22V685.98L539.798 686.01C538.297 686.01 536.037 688.795 535.525 689.498L535.048 689.02C535.048 689.02 535.748 687.172 535.748 685.461C535.748 683.749 535.756 680.818 535.756 680.818H539.292C540.123 680.818 540.924 680.448 541.506 679.798L545.963 675.793C546.235 675.544 546.394 675.188 546.394 674.811V672.702Z" fill="#F62249"/>
<path d="M526.19 688.88C526.19 691.472 524.09 693.573 521.499 693.573C518.907 693.573 516.807 691.472 516.807 688.88C516.807 686.288 518.907 684.187 521.499 684.187C524.09 684.187 526.19 686.288 526.19 688.88Z" fill="#E2EEEC"/>
</g>
<defs>
<linearGradient id="paint0_linear_1309_1197" x1="511.5" y1="826.894" x2="511.5" y2="342.294" gradientUnits="userSpaceOnUse">
<stop stop-color="#321CC4"/>
<stop offset="1" stop-color="#010101"/>
</linearGradient>
<clipPath id="clip0_1309_1197">
<rect width="1024" height="1024" fill="white"/>
</clipPath>
</defs>
</svg>
