<?xml version="1.0" encoding="UTF-8"?><svg id="Layer_1" xmlns="http://www.w3.org/2000/svg" width="436" height="391" viewBox="0 0 436 391"><defs><style>.cls-1{fill-rule:evenodd;}</style></defs><path class="cls-1" d="M274.25.15c.61,1.71-8.81,1.89-3.88,4.92.45,1.08,1.67-.16,2.45.87.43.07-.54-1.44.59-.75.03.02,1.06-1.34,1.94-1.85,2.55-1.19-.22,2.02.41,2.62,1.89,1.34-5,5.64-5.49,3.38-1.67,1.16.04,5.82-4.05,2.27-1.6-.93,2.73-.44,2.03-1.41-.07-.98,2.71-1.46,2.62-2.3-11.89-2.78,3.83,2.33-7.69,2.4-2.43-1.42,1.08-.89.86-2.54-.5-3.39-1.79,3.76-4.53.58-4.39-2.21-8.66-3.4-9.63,1.55-1.98,3.03,2.42-.33,1.46,4.32.28,2.61-4.04-1.06-4.86,0-.34.44-.81-1.11-.96-.12-.76,2.09-1.71-.08-2.3.78-.74,1.84.74,2.69-1.13,4.07-.81,3.96,1.85,4.9-.65,7.04-.93,1.28,4.26,1.5,2.53.2-1.01-.44,1.42-1.48.67-.63-.13,1.05,1.36,5.12-1.08,2.77-1.81-1.5-6.49,2.35-5.5-1.31.55-1.05.16-2.06-.79-2.06-1.55-1.01,3.57-3.53,2.9-4.5-1.86.75-5.31,2.97-5.52-1.71.85-1.13-3.07-1.27-1.53-2.02-1.07-1.81-2.48,2.26-3.63,2.47-5.21,1.34-1.65,4.23-.02,3.86,1.05,1.63-3.92,1.62-1.73,4.23,1.25.88-1.25,2.68-1.71,1.79-2-1.69-4.16,2.99-4.73,4.38.33,2.86,4.5-1.55,3.27,2.03-.38,1.14-1.16,1.54-1.38.7-2.28-2.47,1.13,4.78-3.94,1.26-3.53,1.35,2.06-4.06,1.19-4.49-1.56-1.75-.22.47-1.32,1.38-.28.36-3.19.32-1.98-1.06.42-.45-.83-1.11.09-1.33.79-.16-.53-2.01,1.15-1.46.67.06,1.03-.02,1.12-.25-.81-2.21-4.77,2.21-6.14,1.35-.89-1.49-1.12,1-2.04-.54-1.69-2.85-2.28-.27-3.65-.83-.63-1.13-1.26-1.05-2.12-1.93-.7-.53-3.88-3.92-1.85-.91,1.01.98.14,8.94-3.87,6.19-1.38-.12.79.99.14,1.39-1-.1-2.3.67-1.07,1.73.96.48-.72,1.93-1,2.98.08,1.77-2.03-.04-2.08,1.5-.13.66-.26.77-.91.77-1.64-.49.21-.95-.43-2.26-.28-1.94-1.14-1.53-2.57-1.61-4.47,3.39-2.69,2.51-.86,4.38-.7.58-2.67,1.6-2.81,2.42,2.88-1.45.92.18.48,1.94-.4,3.26-3.52,1.76-1.36-.49-1.64.75-2.76,1.39-2.22,3.12-.12.24-1.39,4.5-.49,3.89,2.29-2.74.55,2.8,1.75.87,1.75-1.87-1.53-1.64.9-3.32,2-2.12.84,1.31,1.85.57.81-.92.13,1.4.12,1.74,4.78-.42,2.29,1.44,2.43,4.2,4.26-8.09,8.14,1.07,7.1-3.34.44-1.28-.75-.5-.9-1.26.57-.4,3.06-1.21,2.58.78-.99,3.14,2.64.99,2,3.05-.34.85.43,4.61-.93,4.34-2.94.11-1.11,6.33.1,2.08.04-2.53,1.59,1.45,1.5-2.13,0-1.25.23-1.55,1.35-1.82,1.47-.96-.34,3.94,1.2,3.35,2.08-4.28,2.4,2.77,4.92,1.48,2.19-1.42.52,1.62.17,2.73,1.26-1.51,1.61,2,2.97.66,2.59-1.75.62,2.35,1.89,3.55-.23,1.62,4.02-1.7,1.11,2.08-2.38.99-1.88,5.04-4.36,5.07.35,1.73,1.07-.27,1.96,1.14,1.93,2.32.16-1.21,1.23.2,1.08.33,2.59,2.8.45,1.71-3.96-.82,1.15,5.64,3.11,4.99.38,1.27.85-1.07.6-2.06-.31-2,1.76.7.79-1.04.58-2.37-4.35-1.32-1.96-4.01,4.19-2.64,1.53,4.27,4.56,4.89,2.76-.41,1.39,3.58,4.16,3.79.98,1.76,5.93,9.57,1.08,8.18-6.21-1.99-7.57-1.85-12.43,1.75-.69-3.95-.5,4.8-2.06,1.06-.3-.64-.63-1.16-.74-1.16-3.15.32-1.27,3.33-3,4.29-1.71-.31.69-3.66,1.25-4.54-.16-4.21-4.06-9.67-8.49-13.29-1.48-2.19-5.74,1.43-5.07-2.79.47-1.78-1.37-4.9-3.25-3.17-5.44,1.63,6.6,5.56-4.13,7.16-.69.23-1.29,1.76-2.16,1.14-1.91-.91,1.92,5.72-1.1,4.49-1.21-.85-2.37-1.67-3.81-1.78.71.02.5-.96.73-1.27.64-.48-1.48-4.19-1.98-3.76-1.27,1.76-.85-2.69-1.48-2.5-2.02-1.41-3.37,1.89-5.39-1.07-4.68-5.98-12.94-4.78-10-11.27-3.24-6.49-2.44-4.88-8.54-2.87-3.78.29,1.35,1.25,1.31,1.71-.12,2.27,1.38,1.11,2.55,1.23,4.25-2.72-2.67,9.27-2.91,3.71-1.95.04-3.12-6.5-4.28-4.93-.38.28-2.63.96-.84,1.3,2.58.86-1.02,6.32,1.78,5.97.92-.26,1.86-.83.88-1.9,4.64-1.45-.42,4.36-2.24,5.63-2.26.62-1.86,3.8-4.15,4.09-2.11-.29.14-3.39,1.5-3.07.69-.53-3.58-.83-3.94-.81,2.96,1.44.51,1.21-1.36.31-1.7-.99-2.24,2.15-4.18.36-2.52-.03,1.33,1.42-1,1.64-4.11-.89-6.79,3.41-6,7.12-.99,2-.59.93,1.04,1.66,1.59.83-.54,2.35-1.46,2.88-.17.59-2.29-2.51-1.5-.24,2.15,3.46-1.06,1.12-.4,2.57,2.68-1.04.62-.03,2.88.89,2.53,1.21-2.16.59-1.66,1.83-3.11,2.27,1.13-2.02-3.29-.88-1.47-.07-3.62,1.57-2.08,2.19-.78.42-2.47,1.14-.28,1.04,2.46,1.24-6.88,4.49-4.77,6.31-1.11-.72-.08,2.68-.65,1.51-.53-.95-1.34-1.33-.7-2.87-.35-.66-2,.92-1.07.55.55-.54.75-.34.31.33-.65.48-2.22-.56-1.86.96.77,1.69-1.98-.97-1.81.28,1.51,1.26-1.56,1.22,1.03,1.66,1.76.25.59-2.18,1.56-2.54-.06,4.2.8.37,2.28,2.36.83-.04-1.15,1.53.22,1.64,1.03.19-.26-.66.18-.75.68,1.02,1.45.3,1.99,1.29.67.42-1.12,1.26-1.29.98-.19-.37,1.64-.89.5-.94-1.12.2-2.61-.75-2.91-.18-.85.37,0,2.65.27,1.47.54-1.42,1.15-.62,1.88.97.99.34-1.58,1.37.16,1.4.81.12.44.48-.29.37-1.57-.34.6,1.22-.77,1.06-.91-.14.06-.97-1.37-.93-.49.03-.43.52.08.51.91-.06-.6.41-.3.76.09.53,2.13-.29,2.61.26-.02.57-2.35.21-1.47.72,1.26.62,1.86-.65,2.04-1.18,1.77.25.32,3.4.25,2.15-.37-3.32-3.44,3.19-.29,2.47-1.61-1.3-.47-1.52.71-.32,1.46,1.56-.52.34-.48.56-.37.08-1.75,2.63-1.66,1.33,1.95-1.29-2.08-2.33-.61-3.1-.31-.57-1.57-1.41-1.75-.42-.81.2.89-1.68-.29-1.12-2.13,1.62,1.58.8,1.05,1.35-.42.54.42,1.04.43,1.18.79.4,1.37,2.13.13,2.25,1.22-.77-2.39-2.38-.92-2.24.35.13.36.09.06-.38-.89-1.69-.44,1.54-1.22.46.09-.79.38-1.08-.65-1.28.38.16.3-.96-.22-1.01-.37.83-1.48,5.38-.08,2.22.47-1.88.26,1,1.07.67,1.08-.15.2,1.05-.36.79-.97-.66.81,1.39.68.82-.23-.49,1.33-1.93,1.23-.45-.59.77.63,1.44-.01,1.9-.29,1.11-1.76.43-.4,1.38-2.24.12.5,3.07-1.57,2.37-1.44-.08-1.3.26-1.65-.99,2.54,1.34.86-1.91-1.16-1.15-1.51,1.23,1.45-.31.6.7-.39.62-1.89.57-2.37-.08-1.45-.78,1.51,2.3,2.33.9.19-1.05.63,2.4,1.27,1.02.96-1.14.47.84.95.96,1.11.4.24.4-.46.75-1.33,1.25-1.26-2.2-.53-.35,1.49.45-.83-1.22-1.57-.96,1.6-.41-1.35-1.05-.55.68-.38,1.55-.73-2.79-1.31-1.3-.75,1.11-1.18.1-.22-.36-3.21.16.41,1.13.25,1.29-.2.46-2.15-.45-1.2.35.29.17.31,1.76.59.94.89-2.06.49,1.36,1.63.2,1.49.97-2.29.84-2.42,1.24,3.56,2.45-.64.06-1.78-.49-.84-.67-.57,1-.84.61-.49-.48-.97.15-.7.92.57,1.51-.9-1.31-.47.31.73,1.7-1.85-.46-.69.1,1.12,0-1.18-.6-1.32-.86,3.67,1.06.83-2.82.98-.41-1.83-3.82-.3-.07-2.45-1.21-.09.29-1.61,2.23-.57,2.68.03-.97.57-.57,1.24-.84.68-1.16-.32,2.09.84,1.39,1.49.17,1.98,1.16,3.18.02,1.12,2.07,1.7-1.26,2.32-.04,2.91,3.21,6.36-1.22,9.73.74,6.12,2.13,11.62,3.11,17.69,3.12,1.2-1.11,1.34-1.36,1.73-2.98.56-2.62,2.59-1.84,1.63.14,4.62,2.54,1.27-4.74,7.14,1.46,2.13-.34.61,2.17,2.23.48.81-1.94,7.48.11,6.89-.86-.74-.67-4.33-1.07-2.43-1.8,1.06-.08,2.59-1.97,1.83-2.7-1.19,2.58-2.78,1.99-2.7-.68,2.64-.52,5.57-.49,8.57-1.22,2.47-.95,3.86-3.54,6.55-3.51,1.88.12,3.66-3.7,5.02-3.04,1.15,1.94,7.9,1.34,3.58.27-5.98,1.12,8.59-5.99,10.97-5.84,2.83.03-.72,4.2-.31,4.22,1.87,2.14-1.45,5.2-3.56,4.79-2.45-.06-.42,2.1-.02.68-.2-.53.85-.7,1.68-.27,1.3.34.06,2.68,1.73,1.68,1.84-.69-1.13-1.61.2-2.61,2.79-1.04,1.67,2.02,3.42.91.78-1.1,2.91,3.56,3.49,1.85.27-.44-.09-.58-.57-.22.2.24,2.28-3.14.23-2.86-3.18-1.94,3.56.57,1.42-2.34-3.66-4.76-3.28,1.1-5.29,2.61-1.46-5.48-1.23-2.4,1.78-4.68,2.85-2.24,8.75,2.54,4.9,4.99.77,0,5.89.6,3-1.1-.11-.79-5.44-5.84-2.18-6.23,1.85.64,6.93,4.23,7.24.75,1.78-1.99,6.63,4.3,9.14.82,1.58-1.4-1.07-2.1-.67-3.15,2.74-2.04,1.36-8.45,2.16-7.54,2.69,1.71,7.9.05,10.68-2.57,2.86,1.81,5.32-2.48,7.47-2.65,0,1.99,2.95-7.08,3.79-2.95-.9.56,1.04,2.05,2.73,2.09,5.28-1.78,4.5,8.54,9.57,10.13,5.23,2.4,9.7,3.68,13.33,7.7.98,1.94-8.33.83-8.57,1.64,1.94,4.96-4.71,3.6-4.96,1.36,1.11-.55-1.83-1.45-2.74-2.05-21.79-9.79-53.64,14.06-62.45,36.19-3.2,7.38-1.32,17.81,1.93,24.82.47,4-9.66,2.33-10.84.21-8.76-1.52-9.13-10.5-13.56-16.04-.33-1.04-1.28-1.96-2.13-2.68-4.44-4.68,3.47,6.36,3.48,9.06.3,1.46-2.77-4.22-.37,1.01,1.29,3.1-.52,4.85.95,9.33-5.72,2.59,2.78,10.02,8.31,9.58,11.49.93,17.59,8.56,22.34,17.52,2.83,3.44,10.24-.81,13.86,1.12,6.64,3.07,10.82-1.45,14.54-6.33,3.95-10.32,12-1.03,16.96,1.95,2.24,1.76,6.79-.39,8.3,2.99,1.04,2.47,3.17,2.56,4.89,4.19,1.39,1.77,3.28,5.04.19,3.19-.77-1.01-3.73-3.03-4.94-4.02.32,2.1,3.97,4.54,4.34,7.09,1.65,6.61,2.35,11.52-1.11,16.14-.78-4.88-2.28,1.35-5.04,2.24-2.99,1.16-2.72.44-4.53-.33-4.66-.78-6.82,5.9-14.54,5.14-11.72,1.11-20.57-1.57-30.68,6-10.91,4.9-11.18,1.55-12.05,14.34,3.37,7.7-13.25-.61-17.95,2.41-40.92-1.88-38.15,23.14-52.75,24.81-8.56.31-16.65.87-25.35,3.8-2.82.67-14.06,5.04-10.28,2,4.81-4.48,11.57-4.88,15.5-7.73-6.41,1.48-12.56,3.58-16.78,6.48-3.22,4.63-9.29,6.64-14.75,9.79-3.55.44-7.08,6.01-8.78,3.5-.55.48-.31-.59,0-.63.23.13-.74-.77-.05-.92.12.38.4,1.46,1.31.74,1.18-1.07-1.26-.07-.55-.8,1.06-.99-.02-1.93-.25-2.57,1.4-.09-1.35-2.04-.21-.62.35.77-1.02-.34-.79,0,.31.95,2.27,3.02.22,1.69-.49-.09.74-.54-.39-.69-.03.39-1.57,1.2-.42,1.4,2.54.86-1.49.13-1.25.79-.26.87-.72-.36-.64-.31-.93.95.46,2.05-.42,2.03-1.4-.37,1.57,1.27.17.69-.46-.12-.56-.05-.5.29-.33,1.81-.41-1.87-1.3-.67.42-.08,1.06,1.87.67,1.67-.78-.12-.7-.39-.89-.9-.36.01-.45,1.45.16,1.09,1.22.06-1.88.23-.94.39.06.34-.86,1.11-.81,1.8-1.92.71-1.58-3.41-1.55-.18.12.81-.77,5.79,1.35,1.65-.09,1.73,1.4-.27.98-.8.82-.17,2.94-2.06,4.03-2.05-12.92,10.85-10.17,10.5,2.36,1.22,4.4-2.19-5.64,4.59-6.76,5.68,2.63-1.67,1.1,1.08-.52.92-9.08,10.72,1.24.68,5.89-2.83,2.84-2.45,1.82,1.71,4.73-.98,1.23-1.58-1.18.36-.95-.53.12-.64,1.88-1.13,2.31-1.41,1.79-.5,3.84-3.42,5.44-3.34,3.43.32.92.26.25,2.13,3.08.45-7.84,3.6-8.4,5.95,1.88.13,4.59-1.88,6.17-2.58,2.09-.96,2.98.18.66.87-1.38,1.19-5.96,2.11-5.84,3.23.86.23-.84,2.61.51,1.27.83-1.24,7.77-3.29,10.91-5.01,11.58-3.48,24.26-5.92,35.96-8.4,6.73-2.16-5.47,6.64-5.96,7.96,2.99-1.58,3.45-.7,5.21,2.12.4,1.59,3.66-.52,2.6,1.23-1.29,1.63-3.45-2.38-4.82-1.17-2.71.55-3.59,1.3-6.37,1.09-6.29,1.59-12.69,2-18.48,5-1.66,1.34-1.48-1.8-2.89.53,1.67-1.2.21,1.74.16,1.4-2.03-.22-3.72.65-1.15-1.77-1.82-1.61-3.99,2.5-5.45,2.47-.35-.77-3.63,1.88-1.68.89.97-.96-.28,1.47-.92.99-.94-2.11-1.96,2.35.54,1.27,2.53,1.52,5.08-2.87,4.23.63-.34.14.01,1.18-.48.53-2.16-1.47.56.74-.77,2.11.62,1.01,2.5-.66,2.46-1.43,1.26.45,8.87-3.33,6.44-.96,1.08.24.26.98-.74.79-2.27-.13-2.04,2.29-3.39,1.21.28-.28-1.12-.59-.88.95-.09,1.38-.16,1.43-.97.68-1.21-1.27-.3,1.45-.84,1.37-1.13.01-.36-1.55-.58-2-.33.87-1.6,2.75-2.72,2.89-1.51-.4,1.88-2.56.33-3.25-1.57.1-1.71-1.63-2.89.96-.54.53-.28,1.39.54,1.23.63-.13.74-.08.62.23-.4.64-2.13,0-2.11.83-.12.67-1.6-.24-1.8.58-.57,1-.9-.64-1.42.16-.03-.52-3.76,2.13-3.24.84.03-.76-.72-.22-.94-.24-.03,1.37-2.11,2.43-3.35,1.77-1.51.22-4.38-2.48-5.83-1.12.07.82.89-.92.65.26.95.41-.45.68-.96.38-1.04-3.36-3.42,1.9-4.5.93,2.46-1.48-.38-1.03-.66.42.34-1.02-2.31.36-2.71-.39,4.42-1.42-1.49-1.15-1.66.05-.5-.84-.42.22-.81.38-.19-.12-.73-.58-1.41-.14-.41.72,3.03.37,2.07,1.02-4.53,2.61,1.77.33,2.56.67,2.58.95-3.28,1.89-2.97,2.55-3.72.05,1.98,1.18-2.8,1.74-1.16.86,4.12.71.28,1.43-2.04.9-8.28.45-5.99,2.16,1.67,1.42-2.17-1.42-2.24-.53-.91,1.63,2.07.39-.18,1.53-2.23,2.01.11-.32-2,1.23-1.19-.1-2.22,1.45.25.43,1.68-1.72,7.71-1.14,6.08-3.06,2.73,1.82,4.34.3,8.79-.36.45.76,4.24-1.66,2.72-.12-.86.23-1.8,1.49-.43,1,1.76-.28,5.84-.81,1.25-1.5,2.45-.33,7.33-2.49,2.39-1.86-3.89-.37,3.09-1.6,3.93-1.51.45-.01.45,2.37-.39,2.37-2.24.17.96.83-.36.72-.63.04-.67.12-.31.78,1.15,1.34,4.52-1.24,4.54-1.56,1.12.11-.15,1.64,1.35.73,3.92-1.17,3.38-4.65,5.65-.53,3.55-.57,1.8-2.2,3.08.12,1.72.24,1.68-2.66,3.11-1.63.5.65-1.47,1.66.8,1.51,3.11-.52.09,0,1.38-.97,1.89.55,2.23.18,3.92,1.03,1.03.93,4.42-1,6.06-.93.52-.54.52.54,1.03.5.88.49-1.49.76-1.41,1.43.26,2.47,1.68-2.37,5.73-1.18,2.98.03,3.57.42,1.8,1.2-3.22,3.59,4.65-2.37,3.99-2.45-1.19-.05,3.83-2.53,1.55-.49-3,2.7,5.71,1.78,5.69,2.09-.22.74-1.61,1.15.06,1.4,2.05,1.04,2.4-2.3,3.44-.8-4,2.98,1.29,1.27,4.2,1.57,4.33-.64-1.21,1.21.9,1.48.79.39,2.55-4.38,2.46-1.66-.09,2.09,1.9-.04,2.91.99.02,1.17,2,.31,2.7.87,1.31.1-.25.75-.54.79.06.18,1.01,1.02,1.02.55,3.64-1.27,2.52.15,4.94.46-2.79-.84,5.78-2.74,6.65-2.02-3.5-.29-6.89,7.18-.93,3.92,1.18.52-.48-1.75.94-1.33.49.14.63-1.62,1.64-1.22.83.43-1.18,1.24.02,1.78,1.03.44-1.25,1.68.35,1.75.75.17,1.4-.09.79-.31-1.48-.02,3.65-1.4,3.19-.83-5.42,2.8,2.88,1.1,2.79,2.13,1.39,2.13,8.53-.74,6.42,1.46.64,2.72,6.13-2.19,7.1.6,1.65.91-1.12,1.5,1.04,1.29,1.82.97,4.77,2.22,7.41,1.35,1.21-.14,3.68,1.18,2.72,1.68,1.27.57,5.18,1.01,4.81,2.38-1.36.99-1.17-.98-2.97-.51-1.47-.15-1.72-.06-.84-.89-1.22.28-5.99-.21-6.35-.81.3-1.45-3.71,1.07-4.2-.2-2.96-1.68.22-.27-.31-1.49-3-.57-1.07,1.76.17,2.03.87,1.68-5.96.58-6.32-.63-.69-.84,2.09-1.06,2.46-1.57.06-.53-1.38-.06-1.19-.55.62-.79,3.43-.44,3.5-1.7-.32-.53-3.52,1.17-1.25-.31-1.4-.47-4.55,1.65-5.57,2-.92,0-.76,2.42-1.18,2.88-.24.95-2.24-.39-2.75.91,1.51.24,2.86.74,5.5.86,1.17.67,3.63,3.08,4.9.53.96-.99,4.55,1.5,4.71.23-3.16.13.23-1.05.89-.12.97.55.32-1.62,1.92-.69,1.46,2.42-7.01,2.77-1.09,4.03,2.18.9,4.8-.6,6.69-.15,3.26,1.52,2.24-.96,4.48-.48,1.16.28-1.39,1.5,1.31,1.32.53-.11.58-.55.06-.55-1.36-1.08,1.76.27,1.52.97.87.99.52-.07,1.04-.08.76.35,4.33.11,4.86-.33.18-1.31,3.41,2.39,1.52.93-.5-.47-.62-.47-1.98-.14-1.9.38-.33.3.05.65-1.21.41.2,1.11,1.13.62.34-.26.65-.52.25.24-.61,1.32,1.56-.93,1.89-.36,1.21,1.16-1.77.58-1.29,1.89.16.43.13.43-1.41-.07-2.97.14-5.14-1.07-6.98-.23-.26.77-2.02,1.88-.27,2.42.21.06,0,.72.19,1.22-3.99-1.28-6.08,2.52-8.73,3.28-4.08-.57.04,2.37-5.42,3.06.6,1.81-1.02-.67-1.84.67-1.38.46-5.41,2.89-2.86,2.79,2.71-.41-1.01-.13,1-1.6,2.17-1.6,3.63,1.27,4.93,1.63,5.59-.56,6.07-2.6,9.04-5.94,1.56-2.2,3.13,1.59.56,1.59,2.42-.52,3.48,2.1,6.07,1.14,2.7.4.48-2.08-.36-1.74-.45.55-1.33.48-1.71-.12-.92-1.79,3.03-.75-.3-1.74,6.25-1.12,1.04.11,4.37,2.25,2.35,1.37,1.95-1.88,3.33-1.04.8.88,1.86.44,1.76.14,2.15-.61,1.55.4.1-.77.18-.76,1.78-.72,2.52-.9.52,4.55,3.6-1.41,7.84,2.86-.23-1.35,3.15.63,4.45.47,1.16.13,2.62-2.1,3.39-1.45,4.31,1.45,7.44-1.02,10.59,1.94,1.73,1.08-3.31-.38-.83,1.14,1.1.69,2.91.07,3.72.43-.87-2.46-1.45-.58-1.86-3.21-1.53-.91,1.06-2.08.66-.42-.43,1.24,1.71.89,2.27,1.17.56.14.55-.63.06-.62-.8.21.94-1.84-.04-1.89-2.21-.8,2.21,3.57-4.19-.86-2.1-.46-.01-2.27,1.13-1.42,1-.94-3.16-2.5-1.59-3.17,3.74-1.6,2.58,2.28,5.17,1.94.68-.26.44-.67-.28-.48-1.39.79,1.25-1.83-.69-1.57-1.96-.72-.21.05.47-.67.5-.5,1.49.41,1.27,1.15-.4.81,2.79,2.07,1.49.16-1.79-1.55.18-.08.19-2.11.89-.26-3.62.42-1.91-.92,1.11-.64-.58-.64-.6-1.24.04-1.72-.41-.58-.77-.17-.08,2.07-6.5-4.25-2.1-3.82,2.68-.97,2.43.3,2.33,1.82.85-1.81,7.14,2.02,4.91-.52.96-.12,3.41.36.99-.57-1.26-1.19,1.44.08.11-1.24-.33-4.25-.53-7.54-5.3-8.83-5.4-1.3-1.17-2.52.92-2.57-2.84-1.43,2.54-2.36,5.04-3.02,3.21-1.02-2.43-.25,3.52-2.66,2.93-2.7,5.49-6.37,7.77-4.85-.78.33,4.52-5.23,5.32-3.6.39.35.47.34.88-.06.73-.75-.07,1.3,1.36.67.71-.06-1.87-2.98-.76-2.33.56.51,4.9-.69,1.62,1.18-1.21,1.78,1.78-.39,2.36,1.04-2.2,4.09,6.08,1.86,6.6,2.5-2.61.73-1.42,1.34.48,2.21,1.34.37.61-1.53,3-1.09,1.41,0,1.93.3.94.56-1.61.9,1.46.85.87-.37-.93-2.69,6.74-.87,7.2-3.34,1.23-1.36-3.26,1.87-3.64.94-2.11-1.58-3.78,1.26-5.45.89-4.53,3.76,1.05-4.09,2.23-1.66,2.38.44,1.87-1.34,4.79-1.53,4.02-1.1.03-.9-1.63-.23-2.76.61-.82-.3-1.55-.52-1.54-1.07,4.51-1.35,3.83-3.11-.46-1.85-3.31.37-4.23-.71-1.16.64-1.42-1.34-3.59.53-.26,1.28-2.36-.67-1.45.56,1.15.41-1.5.03-.27.47,1.32.37,2.05.12,2.99-.25,2.49-.97-1.83,1.8,1.33,1.13,4.71.38-5.1,2.67-6.28.83-.73-.86.48-2.06,1.33-2.19-.99.29-4.08-1.05-3.81-.29,0,.87-3.99.59-2.21,1.11,2.14.57-3.73,1.46-3.97.36.53-.91,3.07-1.11.75-1.5.02-1.35,5.1-1.27,2.87.06.48.44,3.5-1.03,1.5-1.32-.44-.11-.42-.12.09-.15,2.57.91,9.38.46,9.18-2.44-2.57-.23-8.85,1.34-2.39-1.18.05-.94-2.5-1.2-.8-1.66.39.03,3.37-2.43.92-1.35-2.56,1.4-3.5,1.04-6.28.13.74.01,6.12-1.92,8.17-.88,2.42.48-1.45-2.03.9-1.34,1.58.2,1.44-.11.18-.57-.64-.69-7.23.28-3.93-.76,2.14-.06-.63-.1-.72-.59-8.32-1.66,9.54-5.21,9.15-.75-.56,4.51-.47,2.57.55,4.62-.51,2.73,3.2,7.78,5.12,8.97,2.45-4.58,3.25-1.23,6.43-3.22.02,3.53,4.04-1.74.83-1.35-2.34.28-.03-2.5-1.59-1.93-5.38-3.96-3.86,4.33-4.79-.03-1.05-2.18-2.19-4.55-2.61-6.53.52-1.18,1.61,1.51,2-.63.41-1.22-5.68-1.29-3.93-4.04,2.84-4.09,1.79-7.73-2.03-3.55-2.34-1.48-8.37-1.4-11.43-5.1-23.04-23.83-9.07-29.68,17.82-36.62,6.69-2.26,16.38-1.3,23.34-3.23,6.47-4.73,9.54-2.19,9.71-11.59-1.74-.64-3.03.43-4.1-.91-.19,1.15.79,5.89-2.07,6.79-5.14-2.5.65-11.6-.12-6.12-1.17,1.15,1.24.37,1.04-.03,5.63-5.34,8.57-15.11,16.3-18.69,6.11-.53,8.17-4.05,10.28-9.28,2.01-4.38,12.39-7.53,9.48-10.92-.91,1.08.17,3.18-3.69,2.53-1.88-1.16,3.39-3.24,3.13-5.46,1.85-3.53,1.94-5.87,2.12-8.7-.38-1.35-1.63-4.6,1.11-3.85,5.34-.14-1.66-3.95-2.73-2.05-1.8,4.02-3.99-2.03.51-2.49.39-2.02-3.05-2.6-2.27-6.11.03-2.02-.19-5.11-1.71-6.94,0-1.37.72-5.59-1.43-2.79-1.73,2.63-.41-3.4-1.85-2.63-4.62-2.5-3,2.85-5.34,3.88-3.05.19,1.04,1.52,1.19,3.8,2.04,7.04-2.79,12.07-4.7,18.65-3.87,10.5-11.89-7.87-16.54-11-1.76-3.67-.52-5.98-6.13-8.38-3.76-5.2-6.43-8.08-13.35-11.68-2.13-.64,4.44,3.33,2.02,3.14.45,2.71-5.89-5.45-1.94-3.91,1.45.63.1-.7-.24-.62-5.58-3.59-15.39-1.49-21.92-1.51-1.86.34-5.24-2.32-6.19-.53-.35,1.69-2.41,1.94-2.11.47,1.01-.27,1.02-.28.45-1.29-1.68-2.19-5.55,3.33-7.95,3.22-1.57,1.41-2.74-1.29-3.63.9-.16,1.47-3.37.55-3.64-.05-5.24-3.93-6.76-10.64-5.1-19.42,2.16-5.02-4.17-7.13-.9-10.22.76-3.16,13.1-7.39,7.58-10.43-5.19-5.57,12.49-2.28,15.25-.51,4.77,1.48,3.66,6.9,8.7,7.91,12.99,2.23,12.35,3.16,16.96,13.5-1.14,2.15,1.65,1.94,1.08,1.16-.41-1.31,2.51-4.66,4.96-2.34,4.78,2.39,10.92,2.98,14.73,6.31.26,1.02,4.12-4.04,4.63-2.29,5.57-1.56,2.98.72,5.8,6.17-.69.4.69,2.82,1.12,1.19,1.14-2.16.28,3.51,2.17,2.49,3.92-1.23,5.89,3.32,10.2,2.51,3.45-1.04,2.76-3.35,7.24-2.03,3.19,1.2,6.66,1.01,9.85,1.66,2.76,1.74-3.35,9.28,2.87,7.06-.52-1.78-2.37-8.76.11-5.96.7,3.64,5.44,4.5,7.76,5.9,2.29.8,1.4,3.75,2.69,4.74,0-2.61,1.61-2.16,3.75-2.68,1.77.2.71-1.5,2.01-1.61,1.48.44,2.19-.62,3.31-.08,2.15-.27,3.28,2.46,4.65,2-2.51-2.81,2.54-.83,3.52.92.92,1.01,3.48,4.01.19,2.8-3.25-1.7-1.54,4.12.73,2.66,2.89-.93,3.95-1.78,6.77.24,3,1.62,8.66.8,11.13,2.29,8.21-1.97,22.87-.12,29.47-5.23,3.26-3.08,14.91-8.51,12.28-9.28,2.27-1.46,10.3-9.09,9.89-8.49,1.12-1.14-1.53-.14-1.4-.99-.45-1.58-1.83.13-2.76.57-6.64,4.96-17.95,10.08-26.42,11.28,3.06-1.91,10.21-3.42,13.47-5.16,13.62-4.68-28.9,6.81-26.11-6.17.43-4.59-4.04-2.86-6.35-4.22-.04-2.11,2.47-.14,3.32-1.23-.34-1.51-2.62-2.24-3.4-3.14-.44-1.41-.99-3.35-2-4.49-2.03-1.33,1.31-2.54,2.34-2.42,1.73-.23-2.02-5.38-1.68-2.28.77,1.56-2.17,1.47-2.02.19.2-.13,1.67-.31.3-.44-2.11.7,2.33,4-1.61,3.34-.92-3.15.43,1.75-.79,1.73-.78.18-1.8,2.01-1.4-.06.63-.88-.2-3.28,1.41-3.58,2.7-1.41-1.29-.51-1.67.01-.78-.78,3.84-4.22,1.45-5.61-2.38-2.08-1.25,2.04-2.33,3.37.24,1.18-1.51.07-1.76,1.39-.29.77-.74.78-.74.03-1.3-2.34,5.16-2.66.8-4.92-2.01-.4,2.23-5.38-1.43-4.27-2.81,1.83-2.4-2.94-.14-.8,1.7.54.3-4.13-.06-4.3.56-1.95-6.67,2.91-6.99.3-.81-1.33-1.73.49-2.5.6-4.57,2.01-15.05-8.31-15.69-4.62,1.31,3.99-1.77-.31-3.42.44-.11,2.66,6.45,1.15,2.31,4.07-1.96.88,1.19,3.47-2.33,3.46-2.57.92-1.64-1.82-4.01-1.75,2.68.86-.57,4.26,1.86,4.62.92-.25.7,2.62-.33,1.67-.96-1.47-3.81.82-2.63-.91.51-.41.76-1.01.44-1.01-2.21,3.86-5.66,1.3-8.1,3.01-1.05,1.16-2.64-.32-3.55-1.13-.67-.27,1.95-3.76-1.22-2.64-.78,1.06-1.27-4.57-3.01-1.87-.99,1.94-3.01-.65-3.39,1.63-5.33,4.4-1.15,14.36-8.75,15.01-5.69,3.1-5.83-6.99-6.47-10.15-4.3,1.57-10.58,5.85-14.8,4.47-2.5-.88-9.58-2.28-4.79-4.92.17-3.55-11.37,6.71-10.8-2.8-2.02-3.99,4.6.04,1.64-3.85-.37,3.81-2.39.06-3.03-2.65.02-3.03-8.82-8.07-2.3-8.87,5.85-.65,11.05-4.65,14.57.22,1.85,6.95,9.76,2.8,3.38.55-2.23,1.14-2.56-2.31-2.36-3.69.99-.23,1.29,1.87,2.43,1.61,2-.94,1.69,3.15,3.16,1.7,2.51-1.07,5.65-1.26,3.49-5.24-.67-5.23,1.46-.53,3.85-.21,2.12-.51.65,1.48,2.49.44.67-.35.69-.34.54.14.44,3.9,4.95,4.46,7.76,6.73,3.81,2.38,6.87,3.07,9.27,5.16,2.5.1-2.29-.86.08-1.17,1.02,0,.96-.23-.3-1.12-1.36-2.72,6.64,1,7.57-.4-4.49-.16,1.16-2.24-2.16-2.72-.76,0-1.02-.5-.35-.68,1.08-.95-4.02-1.62-3.51-2.69-.46-2.19-.6.74-.93,1.3.14-.17-.69-2.57-.89-1.32.53,2.61-6.41-.57-2.07-.24,6-.42-6.97-1.5-1.24-1.98,3.06-.64,6.62,2.78,9.02-.06.8-1.76,1.13.89,1.15-1.93-.32-4.2,2.09-1.96,2.31-.53-.78.88,1.92-.31,1.1-.37-.62-.01-.54-.38.14-.69.61-.53,2.57.73.69.44-.3-.04-.31.01-.03.35,2,1.71,4.39,1.02,6.74,2.4,4.09,2.51,8.07,4.31,12.28,4.85.9-1.24,1.21,1.75,2.21,1.26-1.11-1.73,3.1-.41,4.13.18,4,1.01,6.74-1.42,10.57.85,3.3.5,5.04-.19,8.02-.07-7.35-3.2-1.31-3.8-2.82-4.59-8.3-4.76-8.36-.01-1.94-8.66,1.33-4.8-3.32,4.17-4.6,1.22-.77-.9-.75-.92.87-1.49,3.52-1.41-5.08.57-6-1.54-2.38-1.33-4.4-5.86-5.58-8.11.14-3.19.87-6.42-1.36-9.6-3.34-1.99-.09-8.7-3.04-8.95-1.37.95-4.72-.87-2.21-2.78,2.51-2.36-3.05.48-3.49-1.75,2.61-3.51-4.81-3.91-3.42-8.38,1.67-3.33,1.7,2.98,2.98.84,2.48-3.39-3.21-.89-1.56-3.22,1.14-.89-.19-1.31-.25-2.32.02-2.19-2.85-1.05-1.62-3.37,1.55-2.29.56-10.48-2.88-8.38-2.67,1.49.01-2.03-.57-2.68-.48-.69-1.4,2.11-1.63-.49,1.09-4.88,4.04-6.91-2.55-8.45-.31-2.73.24-2.96-1.7-4.88-3.06-2.45-.44,4.1-3.22,1.53-.32-.68-1.03.46-1.37.38-.05-.36-.05-.85-.69-.87-.92-.18.81,3.01-.24,2.73-1.35,4.36,2.32-4.48,2.43.49,1.26,1.05,1.51,2.32.04,1.44-1.48-1.48-.88,6.59-2.99,6.8-1.87-1.5,1.2-9.78-1.89-6.34-.86,1.67-1.96,2.6-4.36,1.69-2.57-1.5,1.51-1.94-.9-3.03-3.21-2.4,2.29-1.33,2.68-3.03.92,3.42,3.53-.13,1.84-1.92-.14-2.24,2.93-7.58.85-10.15-1.31-2.48-2.25-6.66-3.98-8.35-2.44-.55-3.92-3.28-4.43-5.12-2.34.39-4.13-4.36-3.3.48-.97.59-1.51,1.96-2.56,2.77-.87-.65.81-1.95-1.29-1.93-2.68-.78,1.59,3.7-1.92,3.52-3.15,2.18-1.05-1.58-1.2-2.03-.24-.46-2.54-.08-.81-.8,1.81-.97,2.24,1.76,2.62-1.25.98-.99-2.23-.2-.76-1.59.77-.52-.09-2.51,1.04-2.15.72-.62,4.52-.39,2.46-1.72-.46-2.11-4.48-2.96-3.1-4.92,1.68-.74-1.43-1.02-1.69-1.22-.42.1-2.81-3.19-2.81-3.87-1.19-.96-5.14-3.5-6.42-2.76-1.85.47-.32-2.07-2.22-1.54-7.06-1.55-4.94-2.35-11.74,1.27-1.47.94-2.07-1.85-.79-2.63-.19-.41-5.67-3.02-7.45-2.42ZM283.18,12.68c6.43,5.26-4.04,4.79-6.33,2.02,2.16,6.3-4.7,1.9-3.11,4.95.86,2.51-2.79-.49-.37-2.85-.47-1.32,3.63.35,2.27-1.45-.78-3.14,5.89-2.59,7.54-2.67ZM312.9,27.71c1.48,2.14,1.36,1.89-.97,2.05-1.32,1.35,4.96.4,2.06,3.13-.56,1.67-3.06.85-2.65,2.62,2.3,2.52-.97,5.68-.55,2.47,1.4-2.42-1.79-.48-2.33-1.17-.62-1.08.79-1.75-.33-2.95.31.16,1.37.31.23-.42-.94-1.89.88-1.09-2.04-2.8-.27-.59,3.97-2.22,3.25.3,1.09-.54.51-4.99,3.32-3.23ZM308.17,40.04c2.34,1.5-.29.5.1,2.8-1.8.28-4.88-5.25-.1-2.8ZM200.85,41.8c-1.37,1.88,1.68,3.54-.97,2.4-1.58-2.05-1.87,4.55-2.96,2.73-.23-.61-1.79.49-1.79,1.26-.44,4.6-8.21-2.39-2.87-2.9,1.56-1.3,5.08-1.39,6.62-2.88.38-1.25,2.88-3.95,1.98-.61ZM240.54,74.35c.37,2.1,1.73,4.39,4.54,2.99,1.27-.62,3.38,2.69.79,1.1-.59-.81-4.16-.48-2.12,0,4.78.79-4.35,6.25-.15,8.75,5.18,3.79,2.55-4.01,4.4-3.24.31.51.8-.25.97-1.49-.1-2.43,5.48-.1,6.65.19-2.81,3.25-10.95,6.98-12.4,6.43-2.95,5-6.07-6.28-6.72-7.89-1.22-.33-2.04-1.87-1.98,0-.6-.36-1.79-2.84-2.15-1.25-1.16,2.36-3.34-2.56-1.95-1.91,1.24,1.53-.03-2.9,1.79-1.59,1.56,3.18-2.35,3.97,3.97,1,3.36-3.42-.23.84,1.28,1.75,2.53,0,0-7.44,3.08-4.84ZM150.42,74.49c-.05,2.09-7.14,1.34-4.62,2.81,3.96,2.43,9.2-2.11,4.62-2.81ZM273.44,76.7c-1.05,3.48,3.4-.45,4.58.63.84,2.22.09,6.98-.66,2.76-4.77,3.69-4.41-5.05-5.08.86-2.8,2.18-4.05-10.14,1.16-4.24ZM128.81,76.37c-2.32.68,2.99,2.24,3.04,1.32.26.22.47,3.23-.67,2.31-2.38-.38,4.72,3.08-.27,2.83-2.35.19-.91-1.89-1.49-2.64-1.46-.05-.53-1.13-.8-1.63-1.33,1.21-4.08,5.22-5.58,6.14,1.21.32,4.42,1.13,4.7-.6-.76-1.09,3.55.48,3.9.24.91-.37,3.71-4.21,3.35-4.98-3.2-.72-.16-3.93-6.19-2.98ZM341.95,76.99c-2.79,3.4.41,7.41-3.58,5.87-1.01-1.31.21-3.55-2.71-3.78,2.74.08,4.56-3.6,6.28-2.08ZM144.92,80.71c.63-.04,1.6.36,1.7.87-.25,1.13-.93-.39-.68,2.08,1,3.49-3.63,1.28-3.59,3.15-.41,4.93-3.75-3.98,0-2.75,1.33.9-.84-3.97,2.56-3.35ZM233.52,81.41c3.58,3,1.98,6.44-1.6,2.53-1.34.45,2.5,2.49-.91,2.33-1.71-.29-2.77-1.14-3.85-1.49,2.08-.79,4.05-4.92,6.36-3.37ZM277.86,83.93c1.94,2.19,1.43,3.26-.36,3.51,2.19.14,3.24,3.19,4.13,5.62,4.36,11.58,7,19.29,14,28.13,1.02,1.89-.36.19-1.16.11-2.77.36.25-2.22-1.78-2.22-3.88.36-6.33-2.4-10.95-.56-2.52.18-5.1-.23-6-2.35.04-2.67,4.07-.75,3.51-3.38-1.45-8.59-9.95-7.04-16.69-5.43-5.16.81-4.9-4.73-5.93-8.26-2.07-4.02,6.17,0,7.63.6.25.84,5.7,5.93,3.75,2.56-1.14-1.8,1.55-4.62,2.61-6.07-4.13-4.18-2.9-7.29-2.9-11.86-.29-.84,4.22.93,2.9.99.79.92-.91,4.2,3.98,3.03,1.26-.31,1.72-1.08.79-1.33-1.04-.34,1.33-4.82,2.46-3.09ZM237.49,86.13c-1.25,1.68,2.89,2.41.25,3.49q-1.49.39-1.78-.56c-.4-1.02.96-4.36,1.53-2.93ZM277.2,91.52c-.33,2.29-.15,5.49,1.42,6.92-.22,2.25,1.53,1.67,2.76,1.63-3.43-1.74-2.91-8.07-4.18-8.56ZM136.61,92.87c2.46,1.21-.02,3.73-1.79,2.43-2.2-1.68.59-3.21,1.79-2.43ZM352.62,101.45c3.22,2.63-.92,1.08-2.2,2.13-2.31.27,1.77-3.72,2.2-2.13ZM131.5,101.43c-.16,1.05,2.52.06,1.16,1.56-.78.91.66,1.77-.58,2.38-1.96,1.2-9.13-.45-4.72-3.18.14-.64,3.01,1.01,3.72.44.52.43-.06-2.29.41-1.2ZM294.8,104.3c1.8,1.04,5.21,8.6,1.82,5.42-1.46-1.61-4.02-6.66-1.82-5.42ZM135.53,105.32c1.63-.06,1.58,1.26,3.88,1.59,3.19-.17,2.58,2.64-.84,1.46-2.03-.07-4.21-3.92-3.03-3.05ZM306.46,108.19c1.3,1.31,3.16,1.94,1.9,3.71-1.41,1.37-5-7.51-1.9-3.71ZM274.53,109.2c1.24,1.43-.44,4.92.65,6.33-1.66.61-.34-4.99-2.64-3.54-11.55-2-5.19-4.42,1.99-2.79ZM225.03,110.75c-.42.56-.62,5.63.78,4.13,2.3-1.46,3.01-5.63-.78-4.13ZM220.13,115.87c-2.83,1.37,1,1.79-.38,2.97-1.15.29-1.82,2.61-.81,2.81.97-1.33,6.04-4.75,1.19-5.77ZM164.89,120.54c-.85,5.24-4.68,8.69-9.81,8.65.51-4.09,6.68-8.53,9.81-8.65ZM217.37,128.95c-6.1,4.03-8.18,6.25-13.8,9.82-2.25-.76,12.61-11.37,13.8-9.82ZM199.69,141.94c-.18.67.3.64.79-.06,1.43-.83-1.42,2.32-1.46,2.43-.71.88-1.85,1.73-1.34,2.88-.76-1.22-2.15,2.14-2.11,1.98-.85,1.42-3.09,1.48-3.93,3.33.52.18,1.14-.84,2.07-1.44,1.76-1.73-3.36,12.14-3.69,7.45,2.16-4.31-2.46-.79,1.03-5.83-.34-.96,3.72-6.44,2.09-2.85,2.46-.32-1.32-1.87,1.69-3.87,1.24-1.48,4.12-4.59,2.65-1.36.68.25,2-4.44,2.23-2.67ZM350.65,144.76c.36,5.68-5.73,5.7-3.58,3.03,1.95-.23,1.8-4.41,3.58-3.03ZM196.71,152.26c-2.3,2.76-1.04,11.3-4.21,9.68-.55,1.41-1.54,7.28-1.92,2.6-.08-.02,1.83-1.14.67-1.34-1.1-.16,1.32-2.69.4-3-1.04,1.86-2.23,1.83-.39-.45,1.55-.32,3.99-8.63,5.46-7.49ZM195.93,165.5c-1.75,2.79,2.23,7.44-.58,9.69-3.05-1.13.56-14.58.58-9.69ZM314.36,169.72c8.34-.79,5.76,6.69.01,2.35,3.02-.76-1.64-2-.58-.79.28.28.26,1.15-.03,1.4-5.49.19-4-5.6.59-2.96ZM355.51,173.46c1.37,1.9,4.18,4.61,1.23,5.23-1.16,2.45,3.01,1.44-.35,3.68q-.31.67-.91-.06c-2.29-1.86,2.41-4.47,1.38-6.11-1.24,2.93-4.82-6.87-1.36-2.73ZM341.23,176.76c.15,1.24.65,2.16-1.48,2.51-2.45.65.35-6,1.48-2.51ZM212.11,252.58c-5.47,3.49-10.91,6.48-16.95,10.24,1.88-6.42,12.36-12.69,16.95-10.24ZM195.57,260.61c-1.07,1.43-2.66,4.4-3.7,4.73-.13-1.77,6.2-9.69,3.7-4.73ZM160.21,280.65c-1.7,3.21-9.95,3.44-11.59,5.35,1.39.73,8.26-2.02,10.2-2.94-2.52,4.23-11.3,6.82-15.76,9.14-6.72,2.97-9,2.93-2.52-3.17-7.47,4.4-.6-1.77,3.25-3.93,6.8-3.16,1.15-.01-1.21,1.42,2.55.5,9.22-5.74,11.98-4.32,2.02,2.39,3.09-3.3,5.67-1.54ZM130.06,310.74c-.65.37-9.35,5.42-5.89,2.42,1.06-1.39,5.24-3.75,5.89-2.42ZM276.43,320.21c-3.72,3.42,1.86,6.27,5,5.54,2.72-3.31-1.29-2.96-2.19-4.12-.18-1.51-1.71-1.52-2.81-1.43ZM292.03,324.57c-4.53.59-.72,5.94,2.15,3.67,2.02-1.3-.92-4.76-2.15-3.67ZM51.31,326.08c-1.16.17-2.76,1.79-2.44,2.32.42.11,1.17-2.24,1.2-1,.35,1.29.87-.89,1.86.17.93,1.98-1.73.56-1.4.97-.14.57-.62,1.88-1.12,2.16-3.1,1.59.53.94,1.07-.31.64-.35,2.43.51,2.02-1.3.44-1.62.4-1.79.18-2.11,1.23-.17-1.21-.87-1.37-.89ZM272.55,326.34c-1.69,5.31,6.53,6.19,3.08.71-.58-1.37-2.29,1.26-3.08-.71ZM276.72,326.67c6.08,11.64,8.98.98,3.6,2.29-1.78,1.07-.08-3.72-3.6-2.29ZM234.62,328.33c-2.77,2.93,6.73.22,9.6.51-.08,1.21-8.3.58-6.1,1.35,1.62.36-1.46.59.05,1.24.6.35-.67.81.63,1.17-4.07.94-4.96-2.73-9.09-2.29-1.17-1.07-.11,1.8-2.12.8-1.93-1.1,6.07-2.53,7.04-2.78ZM64.98,328.93c-1.36,3.53-2.53.43-3.36,2.27,1.39,3.87,2.23.89,2.62.93-.22.8.46.74,1-.08,1.41-1.25-2.05-.75-.68-1.73.31-.58,2.68-2.11.43-1.38ZM262.68,329.01c-1.23,3.22,17.81,10.13,10.72,4.47-1.58-.85.14-3.46-2.51-3.44-3.04.73-2.37-1.85-5.13-.66-1.12.8-1.96-1.6-3.08-.37ZM35.99,329.89c.16.26-10.29,8.56-7.88,8.48.94.2,11.72-10.01,7.88-8.48ZM288.91,331.98c-1.79.16.29,2.72.56,2.96,2.57-.23,1.82-4.15-.56-2.96ZM280.63,335.28c-.06.77-1.61.74-.65,1.3,1.76,1.21-3.57.76-1.17,1.5,6.13-2.03.92,1.73,3.93,1.6-.91-4,2.44.51,3.94-2.51-.15-2.21-1.74.02-2.92-1.23-.67.2-1-1.13-1.36-.53-1.1,1.08-.75-1.99-1.77-.13ZM288.73,337.97c.74,2.15-.76,1.87.8,2.84,3.54,2.73,1.45-4.21-.8-2.84ZM13.09,341.82c-1.18,1.94-4.98-.76-5.19,2.67-.89,1.68,7.66,6.87,8.23,2.07-1.58-1.23-1.22-5.68-3.03-4.74ZM266.56,343.11c-.91,1.44-.58,2.22-3.12,2.49,1.79-1.55-1.71-2.21-2.5-1.21-3.05-.29,1.92,2.84-2.14,1.34-2.58,3.39,2.09,1.12,2.29.47,1.56.67,1.31,2.28,4.03.45.9-1.09,2.85-.3,3.25-1.1-.02-.82-3.39.51-.75-1,2.04-.59.04-2.43-1.06-1.44ZM301.14,343.29c-.51,1.93-5.24,1.44-.02,4.35,2.87,3.27,5.67-5.72.02-4.35ZM34.27,343.6c-.89,1.77-.42.21-2.03.08-1.32,1.39-2.44-.56-3.51,2.43-.11,1.04,2.89,1.11,1.41.11-1.48-1.34,1.1-1.13.74-.15-.39-.21-.31.4.02.36.34.22-1.11,1.32.13,1.25.5-.39.54-1.7,1.62-.58.92.24-2.26,1.11-1.68,1.75.61-.23-.25,1.13.89.53.71-.31-.12-1.67.99-1.08,1.18.88.09-.7.98-.62,1.01.12.25.42.03.74,2.25-.6,1.86-.57-.02-1.18.33-.5,1.87-1.35.94-2.06-.81,0,3.11-1.79,1.22-.36.27,2.42,3.07-1.8-1.74-1.22ZM64.7,346.23c4.27,1.15-3.23,2.38-4.08,1.33-.75-1.41,3.22-2.71,4.08-1.33ZM23.94,346.28c-2.15,2.8-2.15.78-3.7.82-2.38,1.64-.25-1.47-1.82.09-.2.63-1.99.43-1.31,1.12,1.93-1.58-.05,3.16,2.5,1.33-2.12-1.82,1.2-2.31,2.75-1.47.28.85.97-.4,1.34-.46,2.12.05-1.19-.57.46-.5,1.63.17.09-1.81-.22-.94ZM2.22,347.08c-3.4.76-1.38,5.92,1.37,3.36.42-1.3.31-4.93-1.37-3.36ZM308.86,348.2c.24,1.4-.75,1.71-1,2.74-.16,1.98,3.67,3.98,4.98,2.7.44-1.18-.32-1.84-1.52-1.33-.99-.13-.06-4.58-2.47-4.1ZM6.51,349.67c.29,1.4-3.43,1.83-3.34,3.06,1.16-.76,5.32.3,4.1-1.57,1.36,1.83,4.05.25,5.02-1.38-1.56,1.24-3.67.06-5.78-.11ZM81.74,352.64c-3.15,1.66-5.41,1.61-.63,1.59-3.06,2.3-1.98,2.81,2.21.98,1.02-1.29,2.75-.25,2.58-1.35-.39-.54.33-.76-.78-.54-4.93.93-.93-.55-3.37-.67ZM95.49,354.23c-3.63-.77-6.94,3.19-7.36-.04-3.04,1.19-2.03,3.42.58,2.25,2.95-.32-2.36,1.22-2.59,1.27,2.11.04,5.52,1.65,7.34-.09.33-.7,1.95.01,2.69-.93.25.78,1.06.95,1.66,1.38,3.12-1.15,3.39,1.76,7.54.34,1.83-1.36,1.25.78,2.58.61.47-.71,3.85.3,3.71,1.14-2.24-.47-6.31-1.26-8.41.29.53-.09,2.92.41,1.13.93-1.73.2-2.2.93-.62.98,5.72-4.3,7.75,5.04,9.81-.68,2.7-.77-2.97-.72.37-2,1.39-.6-.98-.35-.75-.79.39-.47,2.37-.42,1.8-1.48-2.52.6.01-3.33-2.36-1.37-1.38,2.34-1.66-1.63-2.91-.69-1.08.49-.52,2.9-1.47,1.27-.15-1.24-.81,1.95-1.65.78-1.04-1.04,1.85-.74.48-1.32-.75-.67-.85.86-.94-.08-.63-1.08-3.67,1.84-5.6.77-.3-.3.39-.83,1.09-.83,3.16-2.3-2.64,0-1.87-.78.26-.88-.39-.16-.95.02-2.37.85-1.17-1.45-3.31-.95ZM261.37,354.42c-4.2,1,1.24,4.92,4.2,2.68.34-1.08-3.99-2.7-4.2-2.68ZM88.54,358.87c-.77.2-.44,1.38.51,1.82,2.7,1.4-3.5-.17-.94,1,5.55.8,6.58-3.15.43-2.83ZM165.37,373.65c.31-.08-4.88,5.74-1.21,3.23-1.14-.79,1.19-.76.9-.51-1.44.98,1.68.31,2,.68,1.53.53-.73-3.06.81-1.48.76,1.41,2.26-2-.21-1.11-2.29.63.76-1.52-2.29-.81ZM158.05,374.05c-2.21.65-2.59,1.18-.16,1.17.56,1.11-.99.24-1.39.81-1.2.91,1.3.22,1.98.56,1.71.24-.89,1.61-1.34,2.03-.3.62-2.54-1.22-3.01-.33-.64.83-.79.37,0,1.02-.21.17-3.95,1.57-1.31,1.36,2.72-.52,5.22-.48,6.98-.29,2.36-1.31-1.34.31.3-1.42-.11-.43,2.67.2,1.29.35,5.41,2.27,6.44-3.27-1.49-1.37-1.41-1.15,1.34.21.84-2.59,2.9-1.33-1.54-1.4-2.68-1.31ZM178.53,377.86c6.34,1.36-2.43,2.4-4.35,2.31-1.76-1.13,2.8-.91,3.03-1.54.68-.89-.85-2.09,1.32-.77ZM172.87,380.23c1.66,1.78-5.12,2.38-6.75,2.05-1.48-.68,4.89-.96,4.25-1.34-3.16-.5,1.21-1.11,2.5-.71ZM219.85,381.04c.21,1.01-.7,2.64,1.65,3.24,3.03-2.69-2.51-4.07-1.65-3.24ZM165.12,387.76c-3.79,3.4,5.47.98,5.94.23-.28-.82-3.05.4-3.91.44-1.65.56.64-1.88-2.03-.66Z"/></svg>