<?xml version="1.0" encoding="UTF-8"?><svg id="Layer_1" xmlns="http://www.w3.org/2000/svg" width="62" height="63" viewBox="0 0 62 63"><defs><style>.cls-1{fill-rule:evenodd;}</style></defs><path class="cls-1" d="M59.2.03c-11.4,4.03-19.91,12.33-27.71,21.84-2.39,2.43-16.41,27.34-11.21,14.61,1.23-2.18,2.81-5.06,4.87-7.84.7-.94.96-1.97-.15-.41-2.5,2.77-4.71,8.39-6.66,10.45-.65-.47.62-1.38.61-2.02-.46.54-.85,2.23-1.45.78-1-.85,1.02,1.36.84,1.71-5.13-6.02-5.88-7.59-8.41-13.91-.22-1.24.1-2.67.66-3.68-.82.14-1.32,1.8-1.39,2.68-.42.2-.12-1.74.07-2.2-.09-.07-.47.82-.36.34.17-.46.17-1.5-.21-.77-.13.59-.07-.33-.04-.48-.94,1.29-.88.28-1.27,1.81.23-1.89.24-1.44-.54-.04-1.03,1.13-3.06,1.14-3.27,3.42-1.03.7-1.49,1.72-1.78,2.21-.71,0,.37.16-.17.58-.47.27-.64,1.39-.77,2.05-2.31,3.28,2.65,9.98,5.07,13.55-1.26-2.16-1.11-1.7.2-.05-.49-.74-.4-1.09-.83-1.77,1,.48,2,3.41,1.75,1.59.64.52,1.45,1.98.16.48-.04,1.39,1.52,1.61,1.77,3.1.1-.1-.89-1.22-.89-.67,1.76,1.64,2.08,6.16,3.8,7.34,2.4,2.68,1.59,2.26,2.87,4.09-.34.23.26,1.17.39,1.84.19.28.04-.29.19-.13.17.18.26.56.29.13.34.16.02.48.47.44-.11-.44.4.03.64.28-.05-.57-.03-.27.31-.35.01-.06-.32-.32-.03-.18-.05.56,1.48,1.1,1.14,1.61,3.77,1.08,7.52-.23,10.91-3.4.98-.72.54-.92,1.2-2.36-.39.44,1.67-2.05,2.04-2.79,1.02-1.4-1.61,1.78-1.92,1.85,1.06-1.72,2.61-3.85,3.5-5.79-.42.13-1.41,1.51-1.96,2.26.23-.67,1.37-2.09,1.73-2.46-.51.14-1.89,2.25-1,.67,1.75-3.03-1.22,1.96-2.17,2.64.73-1.08,1.74-2.32,2.39-3.47.37-1.05-1.43,1.73-2.22,2.79-.52.35,4.11-5.89,3.24-5.77-.39.75-1.15,1.74-1.46,2.23.26.14,1.51-2.24.84-.85-.11.45-1.95,2.7-1.24,1.63.44-.61.11-.69-.14,0,.06.22-2.79,2.68-2.04,1.46,2.67-4.66,4.3-8.67,6.15-12.58,3.61-6.3-3.66,5.85-4.27,7.66-1.24.76,6.65-11.72,6.1-11.51-1.07,1.56-2.52,4.35-3.3,5.48.73-1.61,1.38-2.77,2.46-4.58-1.91,2.18-3.5,5.57-4.86,7.99.61-2.25,2.8-4.97,3.91-7.52-.35-.74-3.89,7.35-4.01,6.98.48-1.12-.59,1.03-.39.45.26-.63.89-1.73.64-1.64-.81,1.02-.92,1.89-1.27,2.42-.5.89.1-.45-.08-.39-.39-.03.7-1.82.92-2.46.53-1.42,1.73-3.3,2.1-4.29-.74.5-2.02,3.88-1.59,1.86-.03.13-.48.94-.32.38-.2-.45.64-.27.74-.75.03-.36-.34.36-.4-.05.28-.02-.05-.34.22-.31.4-.63.14-.89.83-1.38-.76,1.21.06.46.17-.39.25-.8-.59,1.01-.04-.42.28-.11,0,.18.41-.12.04.09-.45.63-.29.66,1.24-1.8,2.35-3.79,4.21-5.82.91-1.5,4.68-5.65,4.11-5.88.36-.62,1.04-1.75.05-.38-.22-.35-.94,1.74-1.32.97.19-.8,3.76-4.34,7.18-7.1,4.66-3.39,4.59-3.22,6.74-9.21.14-.47.42-1.92.15-1.74-.64.7-1.64,3-.48.45,3.37-7.34-.45-1.95-2.57,1.78.26.26.88-1.39,1.2-1.6.28.24-1.33,1.87-1.17,1.9.48-.24-.85.94-.43.35.19-.5-.18-.11-.19.09-1.61.85-1.14.43-.17-.73.84-1.16-.7.54-.96.74.21-.51,1.34-1.4,1.67-1.94,1.05-1.34-1.21,1.27-1.53,1.43.36-.49,2.21-2.41,2.11-2.37.84-1.19-1.98,1.87-2.72,2.18.25-.57,1.49-1.22,1.59-1.91,6.51-6.81,5.24-4.63,9.92-7.64.13-.32-3.05.72-.91-.02.34-.31-1.9.39-1.05.01.25-.08.28-.21.08-.13ZM59.55,1.17c-.33.04-1.63.7-.9.49-.13.09,1.68-.67.9-.49ZM54.38,3.36c-1.26.7-3.03,2.1-3.68,2.46,1.18-.92,2.46-2.01,3.68-2.46ZM52.93,4.94c-.85.65-.64.7-1.92,1.38.25-.33,2.06-1.69,1.92-1.38ZM52.64,5.81c-1.55,1.67-4.65,3.93-.86.8-1.53.94-.93.49.86-.8ZM51.37,6.34c-1.11.94-2.12,1.83-3.28,2.62,1.05-.72,3.07-2.93,2.69-2.25.23-.21,1.51-1.17.58-.37ZM52.52,6.76c-.13.36-1.02.84-1.32,1.17.3.09,2-1.43,1.32-1.17ZM54.14,7.96c-.11.29-.49,1.11-.91,1.67.06-.22,1.2-2.35.91-1.67ZM48.57,7.85c-.63,1.49-3,2.37-.09.31-1.67.92-.78.36.09-.31ZM50.7,8.31c-.4.5-2.06,1.85-2.32,1.9,1.01-.79,2.38-2.24,2.32-1.9ZM44.38,8.25c-1.93,1.8-4.37,3.33-6.68,5.72,1.98-1.97,5-3.64,6.68-5.72ZM50.66,11.02c.53.37-.58.93-.88.77.13-.15.7-.91.88-.77ZM46.09,20.02c-.19.23-.99,1.07-.3.53.23-.43.19.21.33-.21-.2-.06.49-.77-.03-.32ZM30.65,20.51c-.51.73-1.3,1.3-1.64,1.85.36-.33,1.92-1.7,1.64-1.85ZM27.19,25.39c-.37.66-1.19,1.41-1.35,2.02.29-.31,1.65-2.12,1.35-2.02ZM26.24,25.63c-.49.74-1.25,1.64-1.46,2.21.25-.11,1.69-2.13,1.46-2.21ZM40.78,25.89c-.42.96-.83,2.07-1.69,1.97.61-.69,1.13-1.74,1.69-1.97ZM24.32,28.17c-.35.41-.66.9-.84,1.39.16.09,1.02-1.57.84-1.39ZM23.24,29.69c-.23.87-1.35,2.11-1.3,2.72-.06-.17,1.7-2.5,1.3-2.72ZM21.3,32.68c-.11.28-.66.63-.32.86-.13-.09.17-.28.16-.14.02.21.21-.67-.08-.11-.11-.04.61-.93.24-.61ZM21.53,32.71c-.11,1.28-.83.74-1.23,1.74-.14.17-1.44,2.23-.86,1.63.37-.6.51-1.14.97-1.49.24-.25-.33,1.26.02.42-.07-.61,1.46-1.57,1.1-2.31ZM36.46,33.48c-.08.42-.51.48-.54.82.26.09,1.04-1.38.54-.82ZM35.8,33.86c-.16.61-1.2,2.84-1.45,2.39.15-.22.37-.18.39-.56-.27.16-.4.3-.52.24.3-.01-.43,1.31-.06,1,1.03-.82,1.8-2.6,1.65-3.07ZM18.75,36.5c-.06.12-.82,1.34-.48,1.01.08-.26.92-1.18.48-1.01ZM33.06,36.97c-.17.28-.45.51-.67.78-.07.03.62-1.25.67-.78ZM35.09,40.58c-.19.33-.59.92-.72,1.35.15.03.8-1.31.72-1.35ZM37.18,40.87c-.46,1.07-.86,1.75-1.36,2.97.42-.86,1.35-2.29,1.36-2.97ZM33.93,41.06c-.15.22-.68,1.32-.81,1.32.11-.32.64-1.39.81-1.32ZM31.09,41.7c-.56,1.31-.61-.12-.46.54.35-.26.52-1.14.46-.54ZM33.09,42.67c-.27.36-.37,1.07-.72,1.24.1-.18.7-1.78.72-1.24ZM33.89,42.65c-.88,1.65-.66,1.53-1.6,2.97,0-.62,1.23-2.72,1.6-2.97ZM30.57,43.21c-.27.41-.55,1.64-.99,2.19.13-.58.59-1.77.99-2.19ZM32.04,43.58c-.24.53-.56,1.07-.79,1.53.12-.36.5-1.37.79-1.53ZM35.74,43.94c-.15.41-.58,1.2-.76,1.66.11.09.95-1.68.76-1.66ZM30.85,44.13c-.31.42-.03,1.3-.5,1.04.04.27.44-1.48.5-1.04ZM34.6,44.99c-.52.75-.88,1.37-1.3,2.08.39-.38,1.51-1.94,1.3-2.08ZM34.71,45.32c-.2.26-.56.74-.52,1.09.08-.07.84-1.41.52-1.09ZM34.74,45.97c-.36.46-1.12,2.04-.73,1.66.14-.43.91-1.58.73-1.66ZM31.52,47.8c-.38.82-1.02,1.11-.34.38.06-.17.47-.89.34-.38ZM33.67,48.05c-.07.29-.67.76-.54,1.04.29,0,1-1.59.54-1.04ZM9.22,48.23c1.46,1.12.75,1.66,1.45,3.03-.99-.91-1.31-2.65-1.45-3.03ZM34.18,48.62c-.08.28-.74.95-.57,1.1.14-.15.83-1.25.57-1.1ZM34,50.54c-.18.31-1.39,1.7-.86,1.5.09-.26,1.31-1.9.86-1.5ZM30.77,50.96c-.14.54-.67.89-.94,1.19-.28-.09,1-1.33.94-1.19ZM31.12,50.97c0,.4-.77,1.66-.84,1.38.03-.03.76-1.35.84-1.38ZM32.52,52.94c-.26.46-1.37,1.53-1.29,1.73.34-.25,1.72-1.96,1.29-1.73ZM10.35,53.33c-.5.32-.04.45.18.4.06-.13.06-.75-.18-.4Z"/></svg>