<svg xmlns="http://www.w3.org/2000/svg" viewBox="0 0 62 63">
  <path fill-rule="evenodd" d="M59 0C48 4 39 12 31 22c-2 2-16 27-11 14l5-7v-1l-7 11 1-2c-1 0-1 2-1 0v2c-5-6-6-7-8-14l1-3-2 2v-2s0 1 0 0c0 0 0-1 0 0v-1l-2 2c1-2 1-1 0 0s-3 1-3 3l-2 3c-1 0 0 0 0 0l-1 2c-2 3 3 10 5 14-1-2-1-2 0 0l-1-2c1 0 2 3 2 1 1 1 2 2 0 1l2 3-1-1c2 2 2 7 4 8l3 4v2s0-1 0 0h2l1 1c4 2 8 0 11-3l1-2 2-3-2 2 4-6-2 2 2-2c-1 0-2 2-1 0 1-3-2 2-3 3l3-3-2 2 3-5-2 2 1-1-1 2c0-1 0-1 0 0l-2 1 6-12-4 7c-2 1 6-12 6-11l-3 5 2-4-5 8 4-8-4 7c1-1-1 1 0 0v-1l-1 2c0 1 0 0 0 0l1-3 2-4c-1 1-2 4-2 2 0 0 0 1 0 0h1-1l1-1v-1l1-1s-1 1 0 0v1l4-6 4-6c0-1 1-2 0 0h-1l7-7c5-3 5-3 7-9V7l-1 1c4-7 0-2-2 2l1-2-1 2h-1c1 0 0 0 0 0-1 1-1 1 0 0h-1l2-2-2 2 2-2-2 2 1-2c7-7 5-5 10-8h-2Zm1 1-1 1 1-1Zm-6 2-3 3 3-3Zm-1 2-2 1 2-1Zm0 1-1 1 1-1Zm-2 0-3 3 3-2V6Zm2 1-2 1 2-1Zm1 1-1 2 1-2Zm-5 0c-1 1-3 2-1 0h1Zm2 0-3 2 3-2Zm-7 0-6 6 6-6Zm7 3-1 1 1-1Zm-5 9v1-1s1 0 0 0Zm-15 1-2 1 2-1Zm-4 4-1 2 1-2Zm-1 1-1 2 1-2Zm15 0-2 2 2-2Zm-17 2-1 2 1-2Zm-1 2-1 2 1-2Zm-2 3v1-1c0 1 0 0 0 0s1-1 0 0Zm1 0-2 1-1 2 1-1c1-1 0 1 0 0l2-2Zm14 0v1-1Zm0 1s-1 3-2 2h1-1v1l2-3Zm-17 3-1 1 1-2Zm14 0-1 1 1-1Zm2 4-1 1 1-1Zm2 0-1 3 1-3Zm-3 0-1 1 1-1Zm-3 1c0 1-1 0 0 0 0 0 0-1 0 0Zm2 1-1 1 1-1Zm1 0-2 3 2-3Zm-3 0-1 2 1-2Zm1 1-1 1 1-1Zm4 0-1 2 1-2Zm-5 0-1 1 1-1Zm4 1-2 2 2-2Zm0 0-1 1 1-1Zm0 1-1 2 1-2Zm-3 2h-1 1Zm2 0-1 1 1-1ZM9 48c2 1 1 2 2 3l-2-3Zm25 1v1-1Zm0 2-1 1 1-1Zm-3 0-1 1 1-1Zm0 0-1 1 1-1Zm2 2-2 2 2-2Zm-23 0 1 1-1-1Z"/>
</svg>
