<svg xmlns="http://www.w3.org/2000/svg" viewBox="0 0 319 325">
  <path fill-rule="evenodd" d="M167 0c1 3-12 3-13 0l-3 1h-5c-1 0-7 1-3 2 0 0-2 0 0 0h-2v1c-2 0 1-3-1-2l-2 1c1 1-6 0-6 1 5 1-11 3-14 4-2 0-3 2 0 1h1l-5 1c-2 0 0 0-1 1l-3 1c-2-2-6 4-7 1l-1-1c-2 0 0 3-2 3-1 0-3 3-4 2 2 0 3-3 0-1l-1 2h-1c-1-1 0 2-1 1h-1v1h-2c-1 2-4 0-4 3 0 1-4-2-3 0h-1l-2 4c-1 1-2-1-2 1-1 2-1-1-1-1-1 0-3 0-1 1 1 2-6 3-6 5 0 0-3-1-3 1s-2 1-3 2l-1 1c-1 0-1 3-3 3h-2l-1 1c2 1 0 3-1 2l-2 2h-2s0 1 0 0v3c-5 0-7 8-10 10 0 2-3 1-4 3l-2 4s0 2-1 1c-2 0-2 6-4 3 1 3-2 4-4 7 0 3-2 3-3 5l-2 3-1 3s-1 3-1 1c0-3-3-1-2 0 3 1 0 5-1 7-1 3-1 5-4 4l1 2c0-2 2-1 0 0s0 4-2 7c-1 7-6 20-6 32-3 8-1-3-2-6H3v-2c1-1-1-3-1-1l-1 1v2s0-1 0 0c1 1 1-2 1-1l1 3c0-2-3-3-1 0 3 1 1 3 1 4v5l-1-1c-2-1-1 1-1 1 3 0 1 3 1 5s0-2-1 1c-1 1 2 1 1 2 0 0-2 0-1 1 4 0 0-9 3-11 2 2 0 7 1 8-2-2-1 2 0 2 1 2-3 2 0 3-2 3 1 7-2 9 0 2 2 6 1 9 1 8 3 14 6 23 1 7 2 12 6 21l12 23c3 0 2 2 2 4 3 1 5 5 7 8 1 5 4 1 5 4v1c-1 1 2 3 2 2 1-1 3 4 3 6 2 4 3 4 7 5 1 1 2 4 4 4 2-1 1 1 2 2v1c-4-3 0 2-2 0-4 0 4 3 4 3 3 1-3-2-1-1 2 0 4 0 3 2h1l3 1c2 3-1 1-3 0-2 0-1-2-4-1 1 3 2-1 3 1-1 2 3 1 3 3h3c2 1 3 1 3 3s3 0 3 2h-3c1 0-2-3-1 0s1 0 3 2l7 5c0 2 4 1 3 3h1l1-1 3 2h1c1-2-7-5-1-2 2 0 6 1 2 2 2 1 0 3 3 3h2c-4 1 5 2 7 4 3 1 6 1 8 3l-7-2c-16-5-31-16-39-20-1 1 7 5 6 7-3 2-1 6 3 6 2 1 5-2 7 0 2 1-1-2 1-1 0-1 3 0 2 1-2-2 0 2-2 1l1 1c2 0 0 0 0-1l2 1c-6 0 0 1 0 2s3 4 5 2c0-2 1-1 2 0l6 2h-1 2c0 2-4 2-1 3 1 0 2-3 3-2 4 0 1 3 5 1 3 1 7 3 9 1 2 0 2 4 4 3 1-3 7 3 9 2 3-1 5 0 8 2h3l3 1c-1 1-5 0 0 2 3 1 10-2 10 0-1 2 2-2 3 0h11c1-2-6-1-5-2 0 1 13-1 9 1h2c-3 0 3-3 4-3 2 0 0 2 2 1 1-1 2-1 1-2h-2c-11 0 6-2 7-2l2-1h1c2 0-3 0-2-1l2-1h-3c-2 1-8 2-12 1 4 0 18-2 4-3l5-1c-2 0-5 0 0-1 0 1 11-1 8-2l-6 1c2 0 14-3 10-3-4 2-12 1-13 3h-2v-2s-6 0-3-1h3a187 187 0 0 0 20-3c0 2 8-2 3 1h2c1 0 5-2 1-1l1-2c4-1-1 1 1 1 3 0 12-7 12-4 12-5 25-14 36-23l-7 6-13 11c1 0 5-4 4-2 2 2 7-5 10-6l-5 3 3-2c2-3 3 0 4-3l1-1c2-2 0 0 0 0 1-2 4-2 6-5-2-1-1 0 0-1 0 1 0 1 0 0l3-2c2-4 4-3 7-8l-1 2c-1-1 3-2 2-2-3 0 0-1 1-1 1-1-2 0-2-1 3-2 7-7 10-12 5-6 10-20 14-24-2 7-6 14-9 19-1 3-6 7-5 9-1 7 3 0 5-3 0-1-2 3-3 2l-1 1h1c-4 1 0-2 0-3 8-11 13-22 18-35l3-8-4 13c-3 10-11 21-14 29l10-16 4-8-4 10-19 28-5 6a169 169 0 0 0 31-47c2 5-16 34-26 44-3 6-12 12-14 15l12-10s0-2 1-1 2-3 3-4l4-3 1-1h-2l14-18 9-14c-2 2-2 0-1-3 7-8 6-21 11-30 2 0-1-1 0-1v-2c2-5 1-13 3-17v5l2-11c-1-4-2 9-2 4l2-12v-2c1 1 1-2 0 0v-1l1-2c-1 1 0-1-1-1l-1 1c-1-2 1-4 1-6-2-8-1-16-3-22l1 9-2-6c-1-34-33-84-71-106-2-1-10-5-13-9-2-2-5 3-9-1-7-4 7 3 3 0-3-3-9-4-12-5 1-2-4 0-1-1 1-1-5-4-2-2 1 1-4-2-2 0 3 3-4 1-5-1l2 1 1-1h1c-4-2-7-1-10-4-7-4 3 4-6-2-6-2-2 1-4 1-1-2-10 0-8-2 2-1-3 0-3-1 0 0-7-2-3 0-1 0-3-3-5-2Zm-7 4 2 1h-10c-4-1 6-1 8-1Zm10 1c10 1 22 2 30 6-10-2-20-5-31-6h1Zm0 9c2 0 29 4 21 5-2-2-5-1-8-2h-3l-1-1v1c-1-1-4-3-6-1l-3-1c-4 1-6-2 0-1Zm20 1c3-1 26 6 21 7l-12-5c-2 1-16-3-9-2Zm22 3c2 1 4 1 5 3l-5-3Zm-9 2c0 1 1 0 0 0 0 1 6 1 2 2-1 0-6-1-5-2 2 2 1-2 3 0Zm12 2 7 3c-4 1-5-2-8-2-1 0-2-3 1-1Zm11 5 4 2c-2 1 0 1 1 1h-1c-2 0-12-3-4-3Zm12 7c2 1 7 3 2 3-2-1 1 0 0-1-1 0-4-2-2-2Zm13 9c1 1 7 5 6 6-1-1-9-7-6-6Zm12 10c4 4 7 6 9 10-4-2-9-7-10-10 1 0-2-3 1 0Zm10 6 4 5-4-5Zm-130 1c4 1 8-1 11 2 5 3 10 5 17 5 4 1 7 2 10 1 4 3 4-2 7 0 5 0 1 3 6 3l8 4c2 3 5 0 5 2s1 0 1 0l4 1c8 6 15 13 21 20 6 2 7 7 11 12 5 6 7 13 10 21 10 23 9 50 3 76 6-9 5-24 8-35l-2 17c-2 14-5 23-10 33l-8 13c-2 4-7 7-6 9h-1l-1 1h1c0 1-1 2-1 0-8 6-15 15-25 20-1 1-7 3-5 3h2c-3 0 0 0 0-1 8-3-8 6-6 4h1c1-1 4-3 0-1 1-1 3-2 0-1 0 2-2 0-4 2-10 5-43 10-54 5-5 0 2 0 1 1-21-3-59-19-73-46-11-17-19-36-20-56 6 2 0-4 2-10-1-4-1 7-2 6 1-2-1-7 3-8l3-13c1-4 1-8 3-11-1-5 5-13 7-18 4-6 12-10 16-15 8-11 21-22 30-28 6-12 10-20 27-18Zm133 5 3 3-1-3 4 4c13 16 24 41 29 62 1 2-1 0-1 1 1 2 0 3-1 2h-2l2 1h2c1 0 0 6 1 4 1 1-1 0-2 1s1 1 1 1c-4-1-2 1-2 3-1 2 0-1-1 0v-2s-2-1-1-2l1 1c-2-3-2-1-2 1 0 7-1-5-2-6l-1-1 2 1-2-3c1-3-1-6 2-2l-2-13c1 0 1 7 3 7 1-1-2-2-1-3-2-9-6-17-9-25l-4-8s-3-1-2-2c-2-4-7-9-8-14-3-3-5-4-6-7-2 0-2-4 0-1Zm17 16c0 2 5 8 2 6l-1-3c-2 0 0 1 0 0-1 0-4-3-1-3Zm13 64 2 6c0 1-1 4 1 5-1 0-2-1-2 1-2-1-2-2-2-3-1-2 2 1 1-1l-1-1c0-1 2-2 1-3v-4Zm-42 14v10-10ZM1 162v6l1 2c2 3 0-6 1-7H2c0 2-1-5-1-1Zm313 3c1 2 0 5-1 6 0-2 1-5-1-3l1-1c1-1 0-3 1-2ZM2 171c1 2 0 4-1 2-1 0 0 3-1 2l2 2H1l1 1c2 0-1 3 0 3 1 1 0-3 1-2v5l-1-1c0 3 3 9 2 12 0-1-1-4-1-1l-1-2c0-2-2 0-1 2 1 3 2 9 3 2 1-1 1 3 3 3l1 3-6-31Zm310 2c0 2 0 12-2 9 0-1-1 4-1 1 1-5 1-3 1-1 2-1 1-8 1-9 1-2 1-2 1 0Zm-3 14c0 2-1 13-3 12l3-12Zm-2 14c0 2-2 6-2 3 0 0 0-3 2-3ZM6 203l3 6c-1 1 1 3 2 3 2 3 4 13 6 13-3-6-4-14-7-16 2-1-2-3-1-4-2 1-1-2-3-2Zm250 5c0 4-2 6-4 10 1 3 8-14 4-10Zm43 1-2 6c-2 3 1-7 2-6Zm-50 17h-1v1c-1 1-4 3-3 5l1-1s2-1 1-2c0-2 5-3 2-4l-1 1Zm31 3-5 9c0-2 2-8 5-9Zm-22 38-21 17 21-17Zm-11 0-1 1v-1c-1 1-2 1 0 1 0 1-2 0-1 1 1 0 1 0 0 0 0 0-2 0 0 0 2 1-5 2-2 1v-1l1-1v-1h2Zm-3 4c-3 0-1 0 0 0-3 2-4 3-6 2h1c-2 0 1-1 1-2h1c-1 1 1 0 1 1h-3c1 2 2 0 4 0-2-1-1-2 1-1Zm21 1c1 1-1 0-2 2-2 3 1 0 2-1-1 3 2-2 0-1Zm-214 0c1 1 7 5 2 0h-2Zm200 12-6 5c2 0 8-5 6-5Zm-26 7c-12 7-26 12-40 13 14-3 27-8 40-13Zm13 4c-1 1-1 3 1 2-2 1 1 2 1 2-1-1 0-4-2-2-1 0 2-3 0-2Zm-20 2-6 4c1 0 7-2 6-4Zm-112 9c1 0 4 4 1 3-1 0 2 0 0-1-1 0-4-2-1-2Zm-10 1c1 0 6 3 2 2-1 0-5-2-2-2Zm19 1c5 1 10 3 14 2l1 2c0 1 3 2 1 3 1 0-3 0-2-1 1 0 3 0 1-1-5-1-3 4-6 3-2-1 2 0-1-2 0-1 2 2 1 0v-2h-3c-2 0-4 0-5-2 0-2 0 0-1-1-2-1 0 1 0 2-2 0-3-4 0-3Zm-8 6c-2 3 6 3 8 4l-1-1c-1 0 1-1-1-1-3 1-5-1-6-2Zm22 3-1 2v-2h1Zm-1 4 9 2c3 1 1-2-1-2h-1c-1 0 2 1-1 1-2 0-5-2-6-1Z"/>
</svg>
