<?xml version="1.0" encoding="UTF-8"?><svg id="Layer_1" xmlns="http://www.w3.org/2000/svg" width="319" height="325" viewBox="0 0 319 325"><defs><style>.cls-1{fill-rule:evenodd;}</style></defs><path class="cls-1" d="M166.52.36c1.17,2.25-11.67,2.43-12.58.02-1.4-.7-3.22,1.13-3.43.69-1.07-.78-1.53-.1-2.11.4-.31-.25-2.25-.26-2.4-.02-.9-.23-6.59.86-2.93,1.16-.45.36-2.38.68-.37.72,2.33-.38-1.87.85-1.39.05-.2-.44-.56.22-.75.47-1.15.02,1.55-2.52-.35-1.62-.61.23-2.32-.54-1.8.43.21,1.5-6.04.74-6.83,1.23,5.71,1.01-10.85,3.28-13.6,3.92-2.01.31-2.94,2.06-.34,1.1-1.5-.75.25-.31.96-.14.28,1.35-3.79.8-4.15.76-2.09.6-.41.71-1.03,1.25-.32.03-3.65,1.73-3.7.86-1.94-1.92-5.36,4.15-7.2,1.41.21-.94.35-1.1-.87-1.39-1.44.29.66,3.38-1.21,3.34-1.43-.21-2.95,2.67-4.2,1.96,1.44.11,2.7-3.25.25-1.06-.17.72-2.27,1.64-1.59,2.09.32.19-.06.74-.44.24-1.15-.96-.56,1.3-1.47.69-.15-.24-.88-.25-.88,0,.44.11.11,2.18-.3.95-.11-1.34-.65,1.04-.92-.07-.05-.26-.15-.23-.58.17-1.69,1.74-4.45-.17-4.7,2.64.1,1.86-3.81-1.13-2.94.46.6.64-.18.63-.39.2-.1.64-1.76,3.74-2.51,3.44-.55,1.27-2.09-.43-2.24,1.12-.43,1.7-.46-.76-.86-.36-.88-.07-2.18-.05-.59.71.64,1.38-6.31,2.74-6.35,5.03.01.24-2.74-1.39-2.34.72-.08,2.27-2.61.85-3.17,2.16-.66.55-1.18,1.58-1.47.54-.76.78-.85,3.74-2.65,3.05-1.49-.42-.49.04-1.72-.06-.72.28-2.74,1.5-1.39,1.68,2.51.3-.39,2.58-.52,1.98-.65-.08-2.03.97-2.36,1.91-.13,1.17-1.09-1.53-1.98-.5-.37.33-.19,1.07.23.48,1.01-.83.53,2.97-.43,2.95-4.52.3-6.51,7.7-10.16,9.68.46,2.1-3.22,1.18-3.37,3.28-.35,1.67-2.89,2.41-2.7,4.04-.19,0,.05,1.88-.65.83-1.75-.19-1.71,6.21-4.5,2.88,1.67,2.89-1.51,4.37-3.17,7.04-.37,2.94-2.75,2.72-3.62,5.07-.2,1.21-1.62,1.96-2.21,2.81.91.71.88,2.67-.39,3.14-.52-.03-1.04,3.3-1.22.88.33-2.27-3.28-.3-1.48-.2,2.7,1.28-.66,5.23-1.57,7.27-1.27,3.08-1.14,5.23-4.02,3.82.07.34.66,3.95.9,2.07.3-2.06,1.81-.35.43.58-2.11.89.24,3.95-2.45,6.62-1.13,7.44-6.01,20.55-6.19,31.84-2.45,8.09-.55-2.77-1.35-5.44-.36-.56-1.18.18-.88-.62.83-.85-1.7-1.69-.43-2.19,1.42-.83-1.3-2.47-.95-.11,0,.8-.03.83-.51.71-1.16-.38.3,1.55-.87,1.49.05.68.77-.55.93-.05.49.97.38-1.49.62-.64.38.83,2.33,5.34.74,3.04.14-1.94-2.66-2.64-1.01.19,2.96,1.16,1.03,2.77,1.26,4.09-.27.61.09,2.83-.46,4.54-.61.69-.29-1.31-.94-1.24-1.46-.64-.42,1.41-1,1.94,2.81-.14,1.41,2.27,1.42,4.81-.29,1.54-.15-1.99-1.05.26-.72,1.48,1.8,1.66,1.26,2.6-.55.08-2.29-.56-.88,1.27,3.47-.62-.11-9.63,3.02-11.06,1.3,2.03-.82,6.86.07,7.82-1.43-1.98-.8,1.72-.04,2.23,1.17,1.45-2.03,2.04.16,2.92-1.17,2.53,1.03,6.84-1.75,8.71.3,2.3,1.6,6.43,1.14,8.93.48,7.82,3.02,14.51,5.58,23.36,1.28,6.46,2.53,12.1,5.95,20.25,4.3,7.93,9.1,17.53,12.35,23.65,3.34-.23,1.64,1.44,2.36,3.52,3.02,1.25,4.65,5.29,6.44,8.29.87,4.66,4.16.53,4.89,3.95-.45.26,1.2,1.47.39,1.37-1.13.32,1.88,2.37,1.76,1.74,1.56-.73,3.44,3.99,2.75,5.52,2.06,4.62,3.88,4.17,7.43,5.23.68,1.65,2.13,4.23,4.5,3.91,2.02-.51.79,1.3,1.66,2.07,1.29.92-.2.54-.6.93-4.01-2.43.39,1.79-1.9.57-3.17-.32,3.92,2.91,4.09,2.96,2.88.41-2.5-2.01-.42-1.66,1.33.48,3.22.47,3.09,2.52.45-.31.3-1.46.83-.44.06,1.17,2.51.59,2.63,1.43,2.59,2.8-1.2.92-2.56-.03-1.98-.58-1.61-1.96-3.89-1.13,1.05,3.06,1.15-1.4,2.12,1.28-.35,1.67,3.69.3,3.47,2.39-.16.74.38.56.46.14.08-.98,2.04-.32,2.45.18,1.64.69,3.06,1.29,3.54,3.22.07,1.45,2.62-.34,2.55,2.31-.29.86-4.33-.34-3.18-.62.87-.08-1.75-2.75-.53.02.38,3.03.53-.39,3.11,2.44,3.5,2.08,3.41,3.08,6.77,4.26-.14,2.23,4.04,1.66,3.05,3.04-.12,1.22.8-.84,1.1.02.32.6.66-.26,1.1-.16,1.18.59.91,1,2.32,1.16-1.4.72.83.71,1.72.64.28-1.89-7.85-4.85-1.42-2.68,1.64.88,5.55,1.8,2.45,2.65,1.91.71-.69,2.24,2.48,2.75.39-1.24,3.23-1.24,1.83-.4-3.97,1.11,5.65,2.79,7.07,4.04,3.09,1.41,5.86,1.81,8.41,3.17-2.75.46-4.8-1.36-7.51-2.17-16.09-4.63-30.95-15.92-38.43-19.48-1.67,1.17,6.91,4.6,5.5,6.59-3.29,2.4-.56,6.06,3.08,6.28,2.23,1,4.7-1.82,6.95-.27,2.62,1.47-.94-1.76,1.48-1.09-.45-.47,2.37.26,1.47.97-1.49-1.27.22,2.09-1.8,1.61-1.49-1.61-.23,1.08,1.14.59,1.69.2-.04-.26.2-.88.41-.26,1.52.99,1.18,1.33-5.88-.01.01.78.3,1.32.43,1.63,3.05,4.09,5.64,2.14-.8-1.66.77-1.07,1.72.32,1.32.53,4.68,1.43,6.11,1.62.86.95-1.58.12-.91.79.53.65,1.16-.27,1.55-.47.27,1.96-4.26,1.81-1.04,2.56,1.58.46,1.91-2.39,2.79-1.39,1.18.77-.05-.29.5-.5,4.14.39,1.31,3.36,4.63,1.53,3.59,1.11,7.55,3.03,9.01,1.22,1.79-.51,1.96,3.99,3.69,2.98,1.47-3.08,7.73,2.93,9.28,1.57,2.96-1.37,5.51-.07,7.82,1.94.48-1.26,2.04-.57,3.1-.19,1.1.38,2.87,1.26,3.79,1.14-1.44.82-5.08.5-.28,1.69,2.55,1.2,9.58-1.55,9.5.12-.87,1.99,1.98-1.64,3.1.42,1.48-1.21,4.48-.42,6.14-.21,3.47-.98-1.2,1.21,3.9-.03,1.3-.43,2.08.91,1.35-.34,1.27-1.15-6.03-.13-4.91-1.18-.43.29,12.82-1.61,8.39.53-.39,1.21,3.11.5,2.52-.17-3.22-.07,2.91-2.75,3.57-2.73,2.16-.28.43,1.65,2.32.54.71-.07,2.31-.86,1.39-1.64.08-.39-1.96.12-2.34.31-10.92-.55,6.27-1.72,6.78-2.54-1.34-.03,1.8-1.02,1.7-.22.53.94.52-.06,1.14-.25,2.04-.64-3.2-.17-1.35-.8.7-.11,1.28-.37,1.14-1.09-.45-.65-2.91,1.14-2.16-.4-2.74,1.56-8.78,1.82-12.55,1.59,4.46-.29,18.46-2.83,4.41-3.19.83-1.09,4.82.18,5.11-.87-1.89-.42-5.54-.05-.69-.94.25.4,10.98-1.8,8.3-2.11-.57.47-5.85.89-5.99.48,1.65.14,13.54-3.04,9.81-2.82-3.74,1.78-11.78.56-12.81,2.63-.79-.79-1.69.41-2.36.13.31-.42,1.38-.27.37-.94-.92-.17.54-.77.23-.9-.37.24-6.61-.05-3.5-.61,2.62-.18,2.4-.53,2.97-.5,6.88-.65,14.45-1.97,21.15-3.42,2.64-1.55,1.97,1.43-.59.71-.6,2.09,8.17-2.03,2.95.61-3.46.61.44.96,1.52.21,1.01-.35,5.63-1.58,1.76-1.2-1.52.06-.09-1.07.95-1.91,3.17-1.03-1.43,1.14.37.86,2.95.27,11.79-6.78,11.97-3.76,11.74-4.86,25.34-13.5,35.98-23.19,8.21-7.69-2.15,3.2-6.4,6.36-5.06,3.36-9.04,7.07-13.74,10.44,1.05.51,5.13-3.33,4.58-1.71,2.05,1.74,7.06-4.48,9.76-5.78-.3-.95-3.86,2.92-4.78,2.6.02-.67,2.42-1.47,2.69-2.07,2.59-2.73,2.94-.08,4.44-2.92-3.26,1.91-1.01.05,1.08-.89,1.49-1.6-.88.56-.88.18,1.7-2.11,4.36-1.49,6.21-5.03-1.37-.56-.75-.2.04-.77-.12.76.18.81.69.13-.14-1.33,1.78-1.32,2.17-2.31,2.61-4.05,4.5-2.57,7.66-7.54-.83-.11-.66,1.46-1.41,1.26-.57-1.18,3.36-2.12,1.87-2.12-2.31.52.46-.52,1.02-.95.76-.65-1.28.48-1.27-.41,2.61-1.84,6.05-7.59,9.56-11.98,5.17-6.61,10.3-19.81,13.9-23.97-1.94,6.36-5.93,13.91-9.03,18.69-1.2,2.62-6.37,6.72-5.04,9.37-.55,6.71,3.19-.81,4.67-3.28,0-1.15-1.72,2.73-2.7,1.99-.72-.5-1.12.3-.67.56.1-.29,1.24-.7.42,0-3.59,1.34-.08-1.19.69-2.77,7.87-11.3,12.96-21.58,17.23-34.84,1.31-2.07,2.21-6.02,3.36-8.14.14,1.37-2.82,10.47-3.79,13.59-2.92,10-10.99,20.58-13.97,28.62,3.03-5.35,6.23-8.97,9.51-15.91,1.16-1.8,2.94-6.8,4.04-7.71-.46,2.89-2.64,6.64-3.83,9.86-6.53,11.39-12.72,19.73-18.35,27.71-1.47,1.7-3.86,4.03-5.02,6.18.08.66,2.41-2.12,1.72-1.72,12.52-12.7,22.1-29.88,29.57-45.59,1.45,4.74-16.91,34.52-26.4,44.27-3.42,5.75-12.46,11.35-13.87,15.02,4.56-3,7.9-6.53,11.16-10.51.72.25.59-1.92,1.02-1.13,1.59,1.04,2.45-2.99,3.03-3.47,1.26-.84,4.83-3.13,4.15-3.13-1.07.1.69-1.06.69-1.32-.1-.22-1.37.86-1.18.15,4.64-4.47,9.8-11.86,13.65-17.55,2.59-4.99,6.55-10.65,9.21-14.67-2.64,2.86-1.89-.03-1.06-2.17,6.48-7.89,5.76-21.67,11.14-30.2,1.44-.5-1.73-.89-.71-1.14.11-.57.35-.71.46-1.73,1.61-4.82,1.36-13.75,3.18-17.65.98,1.31-.98,4.76.16,5.84.83-4.11.67-7.73,1.73-11.66-1.41-3.58-1.9,8.93-2.34,4.38-.23-5.33,1.68-7.28,2.39-11.99,1.02-.02-1.04-2.01.28-1.87.64.38.11-2.14-.08-.8-.25,1.55-.92-1.33-.47-.91.61.73,1.48-1.48.95-1.26-.7.22.03-.9-.72-1.03-.93-.49.17.67-.63.57-1.38-1.67.12-4.32.31-6.19-1.36-7.42-.61-15.26-3.25-22.2.4,2.5,1.73,7.76,1.36,9.92-.87-1.88-.61-4.94-1.45-6.92-1.44-33.84-33.59-83.55-71.19-105.66-2.65-.4-10.09-4.83-13.17-8.58-2.51-1.97-5.3,2.61-9.5-1.08-6.37-3.76,7.19,2.57,2.97-.71-2.9-2.36-8.9-3.23-11.72-4.21,1.2-2.04-3.49.15-.97-1.29.83-1.13-4.49-4.24-2.32-2.38,1.9,1.05-3.37-1.15-1.53.32,3.07,3.15-3.64,1.16-4.61-.67,1.5-.4,1.07-.06,2.06.79.63,0,.83-.39.37-.73-.84-.47,2.37.15.77-.78-3.47-1.83-6.8-.65-9.35-3.25-7.17-4.4,2.7,4.06-6.62-1.83-5.52-2.61-1.34.78-3.62.65-.75-1.71-9.85-.6-7.57-1.71,1.39-1.68-3.06-.7-3.14-.94-.51-.46-7.04-2.88-3.54-.21-1.19.21-3.06-3.36-4.33-1.88ZM160.24,4.46c3.82.06,2.59.27,1.37.56-3.95-.52-5.4-.15-10.05-.15-3.1-.47,6.55-.7,8.68-.41ZM170.07,5.05c9.88,1.03,21.65,1.79,30.42,5.81-10.16-2.2-20.18-4.59-31.12-5.42-3.58-.4-.29-.55.7-.39ZM169.96,14.06c2.29-.23,29.52,3.57,20.65,4.69-2.05-1.55-4.43-.79-7.38-1.85-1.27.14-2.19-.38-3.35-.36,1.29-.02.02-.88-.46-.56-.35.4,1.02.74-.37.68-1.13-.41-3.87-2.57-6.53-1.08.61,1.13-1.8-1.07-2.39-.78-3.68.82-6.5-1.52-.16-.73ZM190.11,14.73c2.59-.42,25.72,6.05,20.78,6.83-4.43-.34-8.33-3.52-12.17-4.38-1.85.37-15.95-3.66-8.61-2.45ZM211.86,17.77c1.65.82,4.4,1.26,5.28,2.83-1.12-.14-9.89-4.57-5.28-2.83ZM202.61,20.15c.38.61.93-.58.64.24-.7.97,5.64.75,2.1,1.74-1.2.33-6.59-.89-5.13-2.04,2.07,1.88.61-1.67,2.4.06ZM215.15,21.95c1.9,1.16,6.5,1.74,6.6,3.41-3.84.32-4.31-2.31-7.98-2.41-.88-.38-1.7-2.78,1.38-1ZM225.83,26.86c2.19,1,2.64,2.32,3.93,2.05-1.33,1.22.47.82,1.18.77-.01.45.54.91-.53.59-2.35-.47-12.07-3.2-4.58-3.41ZM238.01,34.1c1.66.77,6.53,2.79,2.16,2.84-1.8-.59.71-.34-.18-.93-.96.43-4.21-2.41-1.98-1.91ZM251.23,43.16c.86,1.28,6.98,5.18,5.82,5.5-1.1-.81-9.12-6.8-5.82-5.5ZM262.9,52.65c3.87,4.36,7.43,6.6,8.88,10.15-3.43-2.21-8.32-7.07-9.71-9.6,1.2.13-1.79-2.81.83-.54ZM273.22,59.03c.83,1,4.23,4.2,4,5.24-.94-.33-7.71-8.03-4-5.24ZM143.14,60.21c4.11.85,8.17-1.13,11.34,2.21,4.75,2.09,9.62,4.74,16.06,4.5,4.07.81,7.11,2.39,10.71,1.05,3.7,2.84,4.13-1.5,6.93-.4,5.09.47,1.29,3.86,6.03,3.4,3.15.94,5.16,2.11,8.07,3.89,1.55,2.83,4.98-.07,5.09,2.36.06,2.22.95-.4,1.04-.41,1.32.43,2.24.6,3.45,1.6,8.14,5.87,15.03,12.91,21.55,20.02,5.75,1.39,6.72,7.07,10.11,11.19,5.31,6.72,7.89,13.64,10.72,21.12,9.7,23.6,8.82,50.54,2.9,75.88,6.36-9,5.24-23.77,7.59-34.22.66,4.13-.26,11.07-1.28,16.12-2.24,14.06-5.57,23.04-10.62,33.85-3.1,3.68-4.92,8.82-8.26,12.93-1.7,3.37-6.21,6.68-5.77,8.57-.2-.32-1.81.04-.4.47-.18.89-1.63-.64-1.11.36-.04.91,1.67-.48,1.03.46-.5.86-.95,1.71-1.3.08-7.88,5.71-14.97,14.71-25.2,19.94-.77,1.28-7.04,2.92-4.65,3.31.83.82.25.09,1.38-.41-2.08.06.52-.34.82-.77,7.4-2.98-8.49,6.03-6.56,3.73.44-.21.47-.28.19-.34-.68-.6.56-.47.62.15,1.75-1.11,4.16-2.39.7-.79.75-1.2,2.29-1.67.1-.83-.35,1.41-2.59.16-4.12,1.96-9.91,4.76-43.72,9.87-54.4,4.89-5.03-.35,2.16.35,1.35,1.08-21.4-3.36-59.27-19.45-73.22-46.59-10.71-16.3-19.47-35.42-20.4-55.92,6.19,2.68.04-3.4,2.84-9.78-1.79-4.15-.98,7.62-2.69,6.24,1.17-2.48-.43-7.24,3.1-8.43,1.33-3.3,2.23-8.04,3.61-12.52.74-3.91.42-8.61,2.35-11.48-1.17-5,4.91-12.18,7.64-17.45,3.38-6.05,11.11-9.89,15.33-15.39,7.9-10.8,21.28-21.6,29.72-27.93,6.93-11.54,10.43-20.02,27.6-17.71ZM276.02,64.9c1.13.94,2.21,3.22,3.43,2.68-.26-.84-2.47-2.23-1.91-3.06,1.32.2,3.3,4.09,4.06,4.47,13.51,16.43,24.41,41.14,29.27,61.83,1.34,2.27-.67-.1-.69.96,1.1,2.05-.03,3.66-1.08,2.51,2.06-.7-2.27-.89-1.66-.41.55.45,1.18-.23,1.46.69.47.74.83.81,1.65.86,1.45-.78.02,5.19,1.24,3.74,1.14.38-1.28.13-1.3.91-1.01.51.19.81.34,1.1-3.55-1.22-1.71.69-1.92,2.54-.6,2.06-.18-.66-1.3-.08-.65.2.17-1.19-.05-1.49.09-.51-1.18-1.51-.87-1.88.66-.03,1.38,1.87,1.24.39-1.72-2.98-1.86-.57-1.49,1.33-.8,7.06-1.68-4.73-2.66-5.74-.96-.43.21-.11-.67-.91-1.3-1.41,1.32.83,1.4.76-.51-.78-.99-3.11-1.36-3.44.47-2.89-1.22-5.65,1.44-1.62-.6-3.03-1.03-8.4-2.05-12.62,1.04-.39,1.38,6.36,3.33,6.26.94-.37-1.69-1.26-.45-3-2.27-8.43-6.53-17.09-9.39-24.39-1.4-3.45-3.13-4.63-3.97-8.13-.38-.2-3-1.56-1.94-2.53-2.12-4-6.63-8.42-8.44-13.65-3.11-2.6-4.34-3.78-5.67-6.94-1.68-.1-1.56-4.25.01-1.14ZM292.82,81.16c.62,1.46,5.07,8.3,2.3,5.89-1.49-.29-.29-2.2-1.41-2.55-1.41-1-.05.09.55-.37-.86,0-3.78-3.44-1.43-2.97ZM306.38,144.93c.04,2.11,1.38,5.04,1.34,5.94.65.71-1.03,4.54.98,5.36-1.12-.1-1.74-1-1.41.44-2.03-.22-1.96-1.52-2.4-2.96-.82-1.79,2.03,1.53,1.24-.43-.65-.85-1.59-.23-1.11-1.36.23-.82,1.91-1.46.6-2.8,1.53-.92-1.01-4.01.76-4.19ZM264.32,159.01c-.61,2.79,1.13,7.75,0,10.32-.22-2.46-1.44-9.24,0-10.32ZM1.08,162.2c.97,1.88-.97,2.45.24,2.99-1.45.45-.38,1.06.06,1.98.22,1.07.54,1.68-.65.59-.49.4,1.06,1.53,1.03,2.13,2.63,3.23-.02-5.96.88-6.72.53-.89-.22-1.34-.36-.32-.43,2.5-.98-4.47-1.2-.65ZM314.05,165.23c.48,1.32,0,4.67-.63,5.48-.62-1.87.61-5.2-1.5-2.75-.21-.69.02-1.37,1.36-1.36.34-.76-.24-3.06.77-1.37ZM2.35,171.47c.45,1.79-.36,3.88-1.49,1.1-.92.14.2,3.39-.8,2.65,0,1.07,1.42.89,1.7,1.4-.05.13-1.42.41-.49.5.57-.2-.02,1.18.77.78,1.66-.22-1.32,2.97-.09,3.49,1.16.7,0-3.18.74-2.17.46,1.34.43,4.01.56,4.85-.49-.03-1.19-2.03-1.46-.6.61,2.82,3.14,8.26,2.31,11.8-.13-.89-1.44-4.01-1.08-1.42,1.71,4.99-1.41.54-1.2-2.16-.2-2.16-2.05.72-.67,2.19,1.01,3.58,2.11,8.82,2.94,1.73,1.08-.5.72,3.28,2.42,3.06.42-.08.45-.02.46.79.3,2.91,3,8.19,1.34,2.09-2.62-8.77-4.11-22.56-5.96-30.06ZM312.32,172.82c-.29,2.1-.47,12.63-1.85,9.57-.23-1.35-1.26,3.32-1.08.24.39-4.75.84-2.48.83-.94,1.56-1.05.57-7.96,1.12-8.24.24-2.26,1.04-2.79.97-.64ZM309.04,186.66c-.19,2.56-.75,13.81-3.11,12.83,1.53-2.37,1.92-12.76,3.11-12.83ZM306.54,201.29c.04,1.51-1.58,5.62-1.86,2.87.43-.65.67-3.42,1.86-2.87ZM6.47,202.71c.11,2.42,2.85,4.36,2.5,6.35-.73,1.37,1.04,2.47,1.95,2.79,1.79,3.06,3.58,13.34,5.61,12.86-2.83-5.34-3.05-13.51-6.92-15.28,2.67-1.11-1.75-3.89-.84-4.04-1.48.49-.95-2.63-2.31-2.68ZM256.08,207.68c-.55,4.62-2.03,6.68-4.33,10.8,1.28,2.68,8.26-14.77,4.33-10.8ZM298.88,208.66c-1.29,2.54-.98,5.12-2.09,6.51-1.94,2.99.91-7.48,2.09-6.51ZM248.51,225.63c1.06.61-1.44-.19-.4.58.75.39-.8.68-.53.8-.38.53-3.47,3.39-2.67,4.49.92.36.43-.97.73-1,.36,0,1.89-.84,1.69-1.26-.52-1.89,4.33-3.08,1.27-3.87-.48-.04-.48-.04-.1.27ZM279.83,229.41c-2.15,2.63-2.39,6.46-5.1,8.51.76-1.78,2.04-8.3,5.1-8.51ZM257.83,266.56c-5.91,6.52-14.42,13.16-20.76,17.52,3.86-3.94,17.27-14.03,20.76-17.52ZM246.51,266.92c.29.03-.27.8-.58.8-.66.04.76-.91-.34-.47-.91.98-1.41.56.17.85.24.41-1.65.08-.48.4.43.13.45.17.14.3-.48-.21-2.33.09-.8.31,2.35,1.03-4.5,1.5-1.61.67q.59-.14.1-.29c-.59.15,1.09-.92,1.23-1.77.85-.66-.34-.18-.45-.56.55-.27,2.01-.34,2.61-.23ZM243.78,270.69c-2.38.53-.61.29-.08.7-2.36,1.59-3.63,2.21-5.9,2.02-2.74-.49,2.15-.03,1.1-.5-2.26-.39.78-1.06,1.4-1.77.72-.88,1.61.07.45.11-.25.39,1.38.01.8.36-1.64-.3-1.23.99-2.04.83-.5-.52-1.67.07-.62.05.89,1.04,2.56-.73,3.91-.88-1.96-.91-.67-1.37.98-.94ZM264.52,271.62c1.67,1.01-.38.19-1.59,2.13-1.48,3.58.69.11,1.7-.54-.19,2.46,2.24-2.52-.11-1.59ZM50.56,271.85c1.24,1.46,6.97,5.34,2.81.29.14-.46-1.83-.7-1.02-.08,1.12,1.06-1.68-.62-1.79-.21ZM251.07,284.17c-1.22,2.26-4.34,3.15-5.61,4.78,1.1.49,7.73-5.2,5.61-4.78ZM225.24,291.09c-12.23,6.64-26.16,11.64-40.56,13.15,14.7-2.74,27.46-7.75,40.56-13.15ZM238.1,295.29c-1.33.77-1.07,2.46.44,1.5-1.51.9,1.49,2.41,1.76,1.97-1.3-.62-.29-3.41-2.29-2.17-.83.14,2-2.21.09-1.3ZM217.97,297.36c-.43.76-5.35,2.23-6.37,3.37,1.32-.21,7.79-2.23,6.37-3.37ZM105.83,306.48c1.55-.5,3.89,3.56,1.62,2.67-1.28.07,1.48-.59-.11-.77-1.51-.18-4.84-2.51-1.51-1.89ZM95.63,306.99c.97.17,6.36,3.22,2.16,1.77-1.04.34-4.92-2.18-2.16-1.77ZM115.31,308.2c4.75.39,10.17,2.49,14.09,1.37-.72.71.54,1.64.67,2.8.34.81,3.1,1.69,1.4,2.53.22.2-3.38-.09-2.16-.79.48-.33,2.24-.12.66-.72-4.87-1.59-2.79,3.14-6.25,2.91-1.64-1.4,2.37,0-.42-2.27-.03-1.06,1.32,1.56,1.12-.26.19-1-1.73-.63-.23-1.58,1.19-.77-.81-.89-1.48-.59-1.22-.56-.87,1.58-1.77.61-2.09-.02-3.92.19-4.74-2.38-.29-1.87-.16.13-1.57-.89-1.94-.59.52,1.46.04,2.17-1.8.16-2.68-4.46.62-2.91ZM106.74,314.36c-1.59,2.93,6.68,2.87,8,3.56-.34-.4-.67-1.04-1.16-1.01-1.06.28,1.18-1.24-.77-1.09-2.56.83-4.55-1.11-6.07-1.46ZM128.97,316.55c.77.57-.28,1.83-1.13,2.13-.52.49-1.14-1.4-.17-1.4-3.22-.55-.61-1.06,1.3-.73ZM127.64,320.52c-2.15.73,7.8,2.93,9.02,2.74,3.4.94,1.43-2.34-.83-1.78-.89.22.81-.85-.47-.73-1.01.2,1.25,1.52-1.1,1.09-1.95-.11-4.87-1.87-6.63-1.31Z"/></svg>