<?xml version="1.0" encoding="UTF-8"?><svg id="Layer_1" xmlns="http://www.w3.org/2000/svg" width="309" height="385" viewBox="0 0 309 385"><defs><style>.cls-1{fill-rule:evenodd;}</style></defs><path class="cls-1" d="M159.3.92c.32,7.89-3.32,13.26.46,17.97,0-2.24.93-19.71-.46-17.97ZM157.8,32.18c-.64,4.19,1.41,6.63-.77,9.93-1.66,1.6,2.87,4.84.23,7.27,3.09,3.86-1.87,8.52-.26,11.62,2.52,4.06-.23,11.5-5.75,10.82-3.99,1.23-6.54,4.55-10.99,4.44-2.1.12-2.96,1-4.8,1.61-3.57-.05-1.31,3.17-5.67,2.9-6.78.62-7.57-1.3-15.29.47-1.14.65-9.57,3.98-7.06,4.67,1.1-.62,1.35.74-.17.86-3.63,1.75-8.31,3.96-12.27,5.5-6.73,1.85,4.2.36,6.43-.14.93-.99,7.48-.02,2.65-1.04-.93.11-1.03-.42-.29-.45.3.71,2.74-2.12,2.15-.84-.54,1.45,1.16.89,1.47.39.03-.93.86,1.75-.14,1.19-1.14,1.47,6.34-3.07,7.12-3.67,2.68-.76,6.44-2.37,8.28-3.18,10.5-1.09,1.58,1.83-1.4,5.49-3.07.52-2.19,4.05-5.81,4.39-.78.54-1.22-.5-.07-.74,2.27-2.45-2.48.21-3.16.82-.73.21-6.29,2.67-3.02,2,3.93-.83-3.97,3.68-5.05,3.8-3.81,1.58-7.56,3.23-10.03,6.23-.41.64-1.6-1.3-1.28.6-.31.45-3.89,1.73-4.47,2-.49-.66-.23.22-1.06.48-2.15.61,3.13.42-.22,1.63-2.13.62-8.78,6.79-2.66,4.82.9.26-6.48,3.57-4.49,3.75,5.05-1.49-1.59,1.81-2.56,2.21-4.64,2.1-4.29,1.86-1.14-.63-6.15,2.38-13.66,8.77-5.98,4.49,3.45-1.75,6.63-2.89,9.88-3.26.02-.36-3.14-.18-.75-.47,3.54-.64,0,1.68-1.19,1.81-1.18-.03-1.97,1.63-1.84,2.42.21.83-5.09,4.02-5.73,3.77,3.31-1.87-4.17.45-.45.62,1.7,1.19-6.11,2.83-7.89,3.83-6.72,2.88.26.4,3.47-.81,9.92-1.67-.61.31-.02,1.92,17.23-3.84-29.41,9.43-19.2,8.05,8.38-.28-.9,2.57-3.79,3.86-1.44,1.64-3.99,1.41-5.75,3.27.33.29-1.64-.11-1.12.16,2.79.78-2.73,1.62-2.12,2.4,3.42-.21,4.83-1.84.95.52.59.14,4.9-.65,4.92-.14-3.5,1.23-8.6,2.77-7.81,5.18-1.5,1.41,1.84-.42,2.46-.41,3.5.57.84.39-.62,1.63-.71.9-1.19.18-1.38-.09-1.13.4.1.38-.52.88-1.23,1.11-.75-.54-1.37.24-.84.62.29.83-.01,1.76.48.41-1.26.24-.95,1.01.67-.6,8.25-6.33,4.57-2.17-1.65,1.3-4.4,3.95-4.95,5.03,2.6-1.19,6.36-3.89,8.17-3.39,3.3-.72,7.5-.07,12.52.16,2.83-.29-.88,1.19,1.81,1.61,2.34,2.59.58.03,2.33.63-3.68,7.18-12.37-1.89-18.72,4.21-4.56-.09-4.65,9.72-9.28,9.65,0,.44.84.71,1.53.49,1.06-.91-.89,3.36.73.88,1.43-2.86-.27,2.51,1.62-.5,1.89-2.74-.74,2.11,2.06-1.35.61-.63.62-.69.13-.43-2.31.24,3.56-2.61,2.94-3.28.72.37-4.09,6.64-3.89,7.56.25.34,5.65-9.14,5.51-6.65-.91,2.17-1.24,3.79-4.64,7.9-1.8,1.88-4.72,7.86-2.25,4.25.19-1.04,2.29-3.27,2.52-4.05,1.57,1.05-4.74,7.9-3.77,9.73,1.89,2.34-3.47,4.21-5.39,4.68.98,3.69-1.52,4-3.64,6.16-1.42-.93-10.36,22.33-5.04,12.82-.18-3.83,13-10.13,11.49-6.08,5.04-6.31,1.91-.56,1.91,2.25,2.4-2.85,1.19-6.6,7.01-6.05,5.05.44.75-.01.68,2.05-.25,1.35-.48-.27-.5-.5-.42.23-.61,6.93.25,2.5,1.66,3.28,3.2-5.7,3.38-3.25-2.08,6.11,3.22,41.6,2.48,31.38-2.71-3.4-2.02-37.19-1.39-29.25-1.23,1.57.61,28.78.41,10.5.35-8.05-1.02-14.16,2.65-11.84-.04.32-.11,3.91-.14,7.96.34,9.19-.83,6.53-1.44,9.75,3.07-5.01,2.6,10.93,3.72,11.75-.49-6.73-2.99-35.02-.22-28.05.39,2.14-1.27,7.66.72,7.89.28-.48,1.8-1.98,1.89-.77-.2,1.38,1.03-2.14,1.18-.87.46,2.11,2.77-5.24,2.24-.56.52,4.73-1.56,7.97.95,7.29,1.27-.73,1.12,2.42-.7,1.83.2.35,1.55.96,1.5,1.69-2.24.87-2.89-2.7-3.25-3.65-2.02,1.32-1.66-7.32-1.86-2.8.32,8.89-.11,13.56,3.36,17.63.84-2.18,1.4,5.7.15,1.52.03-.96-.55-.59-.3.9.69,3.37-1.64,1.4-1.56,3.04.1,1.12-.19,1.44-.52.57-1.86-1.98,2.19,10.4,2.49,5.46,0-1.17.75-.91,1.64.57,3.05-.81-1.13-5.25-1-7.41-.82-2.13,1.05.14.58-2.7.31-5.68,1.03,3.33,1.51,2.36.16-5.86,1-2.96,2.28,1.17.09-2.92.05-4.38,1.79-.37.73.54-.24,2.87.76,2.2-.14-.08,2.01,6.86.65,2.07,4.02,6.12,11.48,27.07,19.55,35.48-2.16-1.72-13.16-18.21-15.19-24.38-4.44-1.38,22.16,37.3,29.06,38.32,4.74,4.06-.2-.89,2.37.38-.47-.84-2.64-.83-3-2.15,1.29.37,2.07.9,3.68,2.3,5.29,5.02,1.33.25,4.79,1.63-.37-.62-2.89-2.56-.82-1.34,14.61,8.77,28.03,15.02,42.08,19.25,6.41,3.14-7.57.22-4.6,2,2.84,1.14,6.95,3.49,7.61-.78,3.42-1.65,11.81,1.24,12.73,3.84,3.37,1.61-2.18.09.23,1.15,1.54.4.69,1.58.33,2.29-1.11-.34-.81-2.4-2.31-.98-1.15,2.06,6.11.31,3.35,3.88-2.17,2.59-2.53-3.26-4.83-1.37.61.35,1.65,2.77,2.2,1.92.42-.55.37.33.08.3-.08,3.15-.89,2.92-3.37,2.05-1.19.4-1.28.61-.37.83,2.02,1.25-5.69-.88-4.36-1.36,1.01-.28-1.33-2.78-1.88-2.67,1.91,2.75-2.98.48-4.23.23.62.12,1.99,2.82,2.45,2.75,1.15,1.54,0,2.12,2.19,2.74,2.55-1.56,2.22-.42,3.88,1.05,4.28,3.29-7.03-2.3-2.91.3,1.24,1.76,7.26.2,5.57,1.74-1.99,1.12,2.28.39,2.09,1.58.3.98-.41.24.49,2.12,1.3,4.35,1.27,3.73.3,5.58-.57,4.74,2.18-.21,1.49,14.54.25,18,.99,31.13,2.22,7.56,1.65-39.81,8.2-12.22,28.46-22.79,3.91-.78,8.09-2.5,12.36-2.03.99-.33,1.59-1.17.98-1.37-3.18-.6,4.07-1.13,5.12-2.62,8.1-5.29-6.85,1.01-8.39.6-1.4,1.23-5.15-.71-7.06.49-5.5-.65-12.72-3.03-17.8-5.97-.81-1.63,6.3,1.23,6.74-2.03.41-1.83,2.31.2,2.11-1.94.62-.98,1.86-.23,2.98-.2,2.25,1.66,12.79-.29,5.35,1.65-7.76,1.32,7.76,1.49,8.2-1.88,3.1-4.51,10.78-8.5,13.91-12.58,1.9-1.5.34,3.56,2.3,1.3,2.12.37,5.34-7.98,8.43-9.35,2.65-1.53,24.16-11.41,11.48-6.7-.15,1.72-3.54.77-7.56,2.16-.28-2.12,7.9-3.42,10.56-4.8,15.75-4.55,39.55-17.83,47.81-25.68-5.48,3.74-6.02,3.14-1.31-.26,3.54-2.81,8.43-1.01,10.54-5.69,1.59-2.32,7.45-4.14,1.31-1.88-6.77,3.56-38.76,21.17-23.83,8.53-16.57,11.21.91-2.06-11.91,6.12-3.01,1.74.37-.86.08-1.05-3.09.66,2.7-1.46,1.97-1.85-5.4,1.61-7.24,1.7-12.16,2.61.53-1.44,7.78-2.35,2.25-2.11.62.4,7.76-4.35,5.74-1.11,1.7,3.04,12.6-6.53,15.6-7.44.76-1.54-1.83.69-1.84-.65-.48-.55-.24-2.83.25-1.47.02,2.49,4.59-3.24,2.41-.04,2.84-.06.21-2.04,4.61-2.92,4.43.19,9.55-4.51,13.59-6.58,6.63-2.82,9.61-6.52,13.66-9.79,5.22-2.56-1.92-1.53-3.14-.64-2.43.7-6.29,3.02-2.8-.1-3.07,1.62-5.52,1.79-8.56,3.12-3.31,2.15-1.41-.23-.68-1.37-.84.51-1.6.88-.76-.47.3-.33.41-.52.24-.43-1.66.75,2.06-2.51,1.77-2.6-2.35,2.1-3.05,1.72-5.13,2.34-3.3,1.69-2.43,1.63,1.24-2.79.7-.6,1.24-1.84.24-.78-3.5,3.02-2.85,2.22-5.47,4.48,0-.31,2.08-3,.52-2.18-2.17.72.68-1.99-1.56-.7-1.14-1.19,2.71-9.55,3.98-12.74.49-1.04.72-2.33.28-1.6-2.59,6.75-8.76,15.92-12.01,21.05-.51,1.5-1.61,3.01-1.32,1.82.21-.6,2.01-3.58.31-1.59-3.66,4.05-4.59,10.24-7.16,6.83-.82-.66,2.49-10.82.68-6.37-6.12,7.18,5.54-12.63,5.56-15.1-1.5,3.47-2.82,5.65-.76-.52-1.72,1.27-3.77,14.24-8.59,16.37,1.14-2.87,1.05-.63-.74-1.52-.63.5,1.76-1.95-.18-1.2.59-6.47,8.71-19.76,9.82-26.44.11,3.94-3.67,12.99-5.06,16.48-.51,5.08,4.84-11.6,5.86-15.44,2.24-9.29,2.49-9.2.68.25-.54,1.46.25,1.99.47.45,1.03-2.91,4.78-24.15,4.89-17.56-1.58,6.95-1.25,16.97-3.48,22.38.93.19-.58.89-.75,1.45-.61.9-.22,2.25.28.46,1.16-1.73-1.07,3.83,1.14-1.94,8.72-20.54-6.66-25.7,19.67-25.37,1.79-1.25-17.45-.1-16.74-1.3.21-1.42.91-.3-.13-1.52.23-.66-1.5,2.41-.94-1.87-.35-7.4-.32,5.36-1.05,3.93-1.18,1.27.02-8.07-.3-8.3-1.6,1.67-.24,9.9-1.74,8.23,1.26.82-2.12-26.62-1.41-16.81.55,4.83-.16,17.62-.42,11.13-.72-14.65-.36.68-1.93-8.36-.8,15.13-5.83-16.26-4.14-15.89,1.27-.91-.98-5.98-.3-7.61.97-.67,1.21,4.92,2.4,5.61-2.82-10.01-4.74-21.91-10.66-31.56-4.43-8.58-3.23-5.8-10.2-14.49-3.79-3.79-5.62-5.26-3.44-2.76,4.13,4.81,3.65,4.12,4.24,5.92-.29-1.72,1.41.64,1.51,1.14.06.5-1.17-1.04-1.33-.81-2.71-3.73-9.22-9.47-10.01-10.42-6.11-4.11,4.46,7.4,5.19,8.69-1.47-.33,3.7,6.07,3.84,7.95-1.28-.84-2.13-3.65-3.05-4.57-1.28-1.06-8.17-7.88-5.63-2.34-.05,1.07,2.73,4.21,4.11,4.01,1.28-.74-.01,1.28.68,1.52.7.22-1.77.32-.81.83,1.8-.37,4.57,6.58,4.13,7.71-.95,1.4-1.67.33-.47,2.16.74.34,1.18,1.34,2.18,2.64-2.49-2.53-6.64-5.04-9.12-9.65-.11-.76-.15-.75,1.26-.34,1.59-.12-2.1-1.45-1.49-2.43-1.19-5.69-5.93-9.13-11.94-13.06-2.1-4.55-16.01-9.88-13.09-12.39.9-3.49-1.78.31-1.86-.63-1.18-1.46.61,2.25-.37,1.09-1.52.65-6.49-3.75-8.52-4.88-5.02-2.64-13.8-4.92-18.43-7.13-1.03-1.94-.62-4.79-4.91-5.34-2.58.42.91,3.36-5.28,2.45-6.78-.76-6.34,1.18-9.17.05.29-1.9-2.43-5.65-1.42-8.11.11-.87-1.18-4.56.58-5.11,3.92-2.82-2.15,1.4-1.21-4.49,1.06-2.49,4.21,4.21,5.43-.25,1.13-.23,1.21-.2,1.21.35.19,1.1,3.19-1.25,3.09.75.59-1.69,3.69.96,5.16,0,3.04-.58,5.53,2.92,7.9-1.55,1.6.65,15.16.05,15.09,4.18-.49.59-.13.71,2.06.69,5.27.24,4.58-3.3.7-2.45-3.55-.55-7.73-5.83-12.05-7.22,5.46-1.02.88-.67-1.11-3.81-2.93-3.42-8.51-1.8-11.99-3.66-2.89-1.55-11.46.69-12.09-1.68-7.68,3.05-8.09-23.99-7.87-29.42,1.19-2.24-1.45-1.49-1.43-3.52-.78-2.25-1.04-5.98-1.32-.74ZM150.35,42.3c-1.5,1.91.28,4.5,1.64,4.32-.91-.63.51-6.24-1.64-4.32ZM184.72,48.45c-.58,3.25-1.66-.29-2.16,2.02,2.28,2.99,7.03-2.63,2.16-2.02ZM117.22,65.02c-1.24.52,2.36,3.7,4,3.54,3.19-1.97-2.22-4.36-4-3.54ZM88.94,79.27c-2.71,4.5,4.73,4.9,4.9,1.77-.94-1.41-3.88-2.48-4.9-1.77ZM156.92,84.83c-.06,1.75,1.16,4.77-.7,7.26-1.26.59.95-3.7-1.05-1.62-8.53.52,2.87-7.52,1.75-5.64ZM218.21,86.91c-.73.73.46,3.2,1.55,3.2,2.48.1-.11-4.4-1.55-3.2ZM189.46,94.75c-2.55,1.3,3.34,5.78,3.57,2.61.69-1.84-1.21-3.78-3.57-2.61ZM105.16,96.86c-4.65,1.2-13.94,3.53-16.47,6.88,1.06.67,21.05-7.69,16.47-6.88ZM194.22,98.03c-1.31.46-1.31.51.07,1.55,4.07,2.77,3.7-3.38-.07-1.55ZM224.67,98.1c-2.47,2.07,4.76,7.05,4.74,2.91,0-1.69-3.69-3.96-4.74-2.91ZM204.53,100.57c5.66,3.45,10.05,4.59,15.42,9.1-6.09-2.53-2.36-.99-2.27,1.45-.45.61-1.4,2.27.2,2.99.52,0-.85,1.26.36,1.1.05-.11,4.93,2.46,3.83,1.45-3.62-1.69.99-1.4.74-3.21-4.68-5.2,1.25-1.52,5.63,1.11-6.08-5.07-15.61-11.13-23.89-13.99ZM240.57,107.78c-.83.83.77,3.18,2.06,3.03,2.23-.39-.77-4.18-2.06-3.03ZM146.34,115.73c1.19,1.26-4.78,2.12-4.93,1.29.45-.95,3.93-2.6,4.93-1.29ZM248.82,117.35c-3.94.99,1.09,6.13,2.2,1.86,0-1.65-.67-2.45-2.2-1.86ZM154.26,119.57c-.11,4.35-24.5,4.99-24.37,8.05,36.27-13.29,20.11,5.5,21.5,30.08-15.16,3.4-28,11.9-35.92,25.05-2.84,3.22-2.37,13.3-7.51,14.51-9.01,3.93-17.44,4.01-27.07,4.67-.2-1.35.4-4.17.07-5.07-.76,2.53-.93,8.93-1.42,2,1.09-5.51,3.24-10.45,4.43-15.91-1.19.5-3.29,5.3-3.98,6.82,2.07-2.68-.13,1.61-.17,2.64-.46,1.24-.19-1.25-.65-.27-1.78,2.36-.84,10.76-4.12,9.93-3.4,1.37,1.55-13.76,2.08-17.63,1.05-3.18,3.73-4.75,5.54-7.67,1.38-2.88,3.73-8.06,6.73-8.08-.36-1.5-5.73,3.29-2.63-.06,1.03-1.19.64-1.28,2.27-3.04,2.58-3.63,3.44-3.37,5.27-3.79-.75.33.43-2.03,2.43-2.35,5.8-2.04,11.48-15.12,17.17-14.22-.58,2.11,5.16-3.16,2.71.2-2.43,3.89,3.95-3.84,5.29-5.68,1.52-3.22,7.89-5.96,9.59-8.94.2-.97,3.64-1.35,4.54-2.01-.51-.84-4.26,2.09-4.55.57.85-1.41-4.76,3.16-4.14,2.72,2.8-.59-3.44,3.29-1.05,1,.51-.88.68-1.8.49-2.06-.97.48-3.48,2.69-.48,1.15-.63,1.84-2.61,2.28-4.99,1.15-.35-1.53,1.43-.26-.13-2.71-.22,3-3.41,3.14-2.21-.19-.82-1.27,2.19-.96-.03-1.93-1.21-2.42,8.1-3.25,9.16-4.14.72.25.54-1.31.73-.43.61,1.21,6.31-2.82,6.33-1.7-.63.6,1.71.22.31,1.09-1.01.99,3.71-1.23,4.19-1.03.08,1.25,16.05-1.68,8.06-1.48-13.58,2.58,1.9-1.91,6.55-1.24ZM169.41,119.74c23.23,3.87,33.91,8.8,60.43,37.82-2.6-6.34-13.55-16.22-19.68-21.3,8.35,4.21,18.91,17.95,23.77,24.76,8.48,13.18,10.59,24.39,10.88,31.97-.1-2.37-3.76-15.76-2.58-9.13.42,4.69,4.27,20.4-2.31,18.5-5.38-.6-8.91.24-14.29-2.23-6.73-3.6-5.64,3.12-13.32-3.59.16,9.48-5.7-14.76-9.24-17.13-8.89-11.94-16.66-17.58-30.91-20.42-3.2-.48-1.83-5.09-2.35-7.19-1.06-6.77-.14-8.26-1.91-15.57-.5-4.58-1.07-5.73-1.6-10.34,9.08-1.02,20.65,4.18,30.44,9.26,24.47,12.95,40.64,37.59,42.92,65.58.39-25.59-19.27-54.36-40.88-66.12-4.83-5.19-31.38-7.93-32.58-12,21.31-.25,44.48,15.89,56.86,32.24,2.19,2.02,5.04,6.66,3.03,1.62,3.67-.11-12.19-15.55-17.13-17.75,4.99,4.53-1.52-.45-3.18-1.63,1.46-5.13-52.76-19.52-36.38-17.36ZM226.29,125.05c1.07,1-2.26,3.17-4.03,2.75-3.43-1.96,3.01-3.85,4.03-2.75ZM179.41,129c5.36,1.76,10.77,3.96,15.67,6.02-1.72-2.19-20.24-7.87-15.67-6.02ZM193.34,137.63c2.86,1.1,16.55,12.64,17.07,12.64-12.96-11.52-1.34-2.33,3.98,1.98,3.8,1.38-3.74-6.13-3.91-5.79,6.05,6.57-1.81-1.15-3.48-.91.01-1.34-10.54-8.16-3.34-2.91,9.25,7.4-16.26-9.77-10.32-5.01ZM226.47,149.42c7.5,8.34,14.78,19.68,17.83,30.81-2.29-8.62-16.52-28.57-17.83-30.81ZM111.16,151.48c-1.59,2.04,2-.81,2.35.08-1.01.66-10.95,9.39-10.17,10.29.4-.99,16.64-13.86,7.82-10.38ZM97.83,154.24c-.66,2.79-4.37,4.8-4.42,3.88.05-1.91,3.46-6.27,4.42-3.88ZM21.15,157.44c-6.43,4.49-15.12,5.22-21.06,8.74,4.88.39,16.41-6.2,23.06-7.8,1.3-1.33-1.29.33-1.62,0-.01-.63,1.79-2.14-.39-.94ZM236.58,158.53c2.67-.11,11.05,20.77,7.9,16.71-1.71-3.27,1.71,5.31-.21,1.91-1.02-2.47-3.82-9.01-7.67-15.74-2.11-3.76-2.11-4.42-.03-2.88ZM92.66,160.11c-.52,1.03-8.2,7.32-4.53,3.46-1.58-1.83.86-1.97,2.78-2.45-.02-.63,4.48-3.93,1.75-1.01ZM240.61,159.64c13.65,22.1,9.47,25.4-1.2.59,1.16-.17,6.68,11.9,7.12,12.62,2.54,2.68-7.66-14.88-5.92-13.22ZM150.38,163.55c-1.26,2.77-.11,5.29.01,6.49.25,3.83-2.28,7.97-1.74,11.69.49.36.16,1.74-.32.82-1.77.5.61,8.93-3.05,7.36-1.94-.79-2.81,1.14-4.29-.71,1.29,1.61-9.92,1.2-13.96,4.85-3.31,1.95-1.69-.59-2.86-1.68-3.04,1.28-1.34,2.5-5.86,2.89-3.92.06,4.86-17.12,6.29-17.35,4.04-4.38,9.33-9.41,13.51-10.84,1.88-2,13.9-6.72,12.27-3.51ZM175.35,163.41c3.04-.49,6.17,4.64,8.61,2.87,3.24,1.08,2.37.68,3.58,3.08,8.78,7.23,17.2,15.19,18.66,28.08-.63,2.79-19.78-2.91-23.99-2.55-1.52-2.27-4.05-2.48-4.33-5.12.94-3.47-1.77-6.38-2.71-10.2-.82-2.3-1.13-7.77-1.34-10.34-2.79-5.49,2.37-.08,5.09.34-3.05-1.35-10.72-8.92-3.57-6.15ZM96.99,167.57c-1.72,1.95-7.22,8.06-4.91,6.7,1.74-1.85,10.83-12.77,4.91-6.7ZM17.8,173.13c-.75.9-.76.97-.29,2.11,2.64,4.13,3.92-5.48.29-2.11ZM263.18,173.05c2.01,10.01,7.82,22.78,3.38,32.24-1.18-7.07-4.01-20.51-5.44-30.19-.98-2.41.31-.6.61-.83.82-1.44,1.27,3.17,1.92,3.33.62.78-1.9-7.83-.46-4.56ZM42.58,181.36c1.3,3.07.54,3.66,3.09,5.61.97,1.13,1.07,5.78,1.46,2.89.15,2.78-1.12,12.33-2.2,15.18-1.44,1.57.03-4.25-1.01-.5-.26,1.62-3.32,1.81-3.77,1.39-2.52,4.22,2.55-16.45.03-8.14-.98,2.29.03,8.75-2.64,8.98-1.22-.22-7.86,1.31-5.63-1.16-.39-1,3.51-1.54,1.44-1.56-1.11.4.47-.7.31-1.02-.05-2.32,1.41-1.71,1.92-2.97.02-.31-.42-1.08.74-2.54,1.77-1.84-.96,1.66-.1.94,1.24,2.17,1.95-2.59,1.59-4.15-.71,0-2.82,4.86-1.78-.21.56-3.58,3.77-6.38,5.38-9.37.83-1.28-3.25.62-1.13-1.62.82-1.23.72-2.28,2.3-1.75ZM162.23,195.31c1.31.71,4.86,4.73,5.43,2.09,4.22,6.33,3.55,18.54-7.26,17.42-11.52,1.48-15.75-23.81,1.82-19.51ZM2.16,207.3c1.52,2.64,7.81.29,10.4.52,0-.29-11.02-.82-10.4-.52ZM275.96,208.63c.24,1.21-1.45,13.6-3.08,16.98.87-4.15,1.13-14.31,3.08-16.98ZM277.6,210.26c-.27,1.35-.72,7.7-1.06,5.85.52-4.05-.04-1.51-.7.42-.16.09,1.56-12.56,1.76-6.27ZM266.33,210.36c.69,4.53.92,4.82,1.56.5,1.06,6.46-2.91,24.04-6.59,29.8.3-3.91,5.37-13.5,4.72-17.73-1.35,4.53-2.91,11.48-5,15.62,2.47-7.58,3.82-24.21,5.32-28.19ZM76.29,212.86c2.66,21.03,4.61,24.39,11.75,37.7-7.85-18.35-7.49-16.58-8.88-35.2-.74-.03.35,10.06.62,11.96-4.34-13.43,1.8-20.85,1.89-2.33,2.74,29.09,32.28,57.81,49.82,66.37-5.1-1.84-13.3-6.5-17.23-8.86,5.35,4.69,11.29,6.41,16.65,9.15-9.62-.57-30.64-17.97-38.9-29.78,3.93,11.35,30.64,27.47,35.51,30.88-2.75-.37,10.23,4.63,12.58,6.12,2.69.67,10.12,3.48,1.59,1.25-8.76-2.47-25.91-7.37-33.36-16.39-17.74-13.29-43.91-50.28-32.03-70.86ZM243.35,214.99c.21,8.4.14-2.33,1.19-2.13,2.23-2,.31,10.19-1.39,11.6-1.8,2.44-.04-4.03-1.48.96-1.12,4.29-2.23,7.32-5.63,10.09-1.27,1.26,3.31-1.53,1.62,1.12,2.63-1,5.63,2.26,3.73,5.38-.03,5.74-6.91,3.92-9.23,8.06-4.23,7.47-11.32,16.3-15.95,16.19-1.83,5.73-9.81,7-14.55,10.91,1.41,1.22,5.84-3.9,6.96-3.92-4.17,5.38-12.4,12.13-1.05,4.97,2.55-.77-4.99,4.34-5.58,5.32,2.27-.41,5.27-3.48,5.16-3.92,1.37.86,2.44-.74,3.49-1.83.99-.94,3.52-1.8,5.53-4.27,1.52-2.39.07,1.17,2.05-.36,3.87-3.77,3.7-4.67.72-1.03-3.67,1.57,5.65-7.5,6.42-9.27.06-.62,1.81-3.38,2.57-4.64-.12,2.13,1.07,1.94,1.72-.23,3.75-3.25-8.4,10.46-6.5,10.11-.03-1.24,6.87-7.78,2.83-2.73.18,0-1.48,2.46-.63,2.25,1.73.7.53,2.32-.54.7-1.38-1.34-5.43,5.58-6.21,5.75-2.83,1.07-14.95,11.25-9.16,9.08,5.6-1.99,2.53-2.87,6.27-3.12.2,1.76-4.2,3.46-4.81,5.43-2.95,4.17,5.83-5.61,4.66-2.41-1.03,2.26,3.27-.95,2.13.73-1.44,2.24-5.62,4.58-8.56,4.98-1.99.44,4.6-2.93,3.35-2.88-8.51,4.57-18.93,6.2-28.35,8.74-8.01,1.32-15.32,1.53-20.1-.24-.91-.71-.47,1.71-1.13,1.58.09.65,2.02.92.19,1.1-.86-.32-3.05,2.79-2.25.8,2.22-12.09,3.84-27.07,7-38.69,5.5-3.65,14.94-4.29,19.75-8.44,11.39-8.24,20.75-20.89,23.48-34.25,6.81.18,28.72-7.61,32.28-1.5ZM87.28,213.36c10.54,2.81,22.71-2.03,23.62,10.12,1.57,5.05,5.99,9.56,9.57,12.14-3.55.95.87,3.11,2.3,3.74-1.55.78-2.61.16,0,1.25,2.04,1.43-.1-1.58.73-2.08.15-2.86-5.01-5.69-5.37-9-7.78-17.36.91-10.31,13.31-10.03,25.63,1.8,15.34,10.88,20.49,29.87,2.74,7.49-1.25,7.99-7.16,3.62-8.53-1.68-12.43-8.39-20.37-11.45-.02,2.12,5.54,2.39.5,2.58,5.56,7.89,18.01,10.82,27.71,13.88,1.31,7.73,3.18,18,4.99,28.86,4.26,12.43-4.05,7.16-12.99,6.4-3.45-3.31-10.64-3.72-18.7-8.71-10.13-4.66-.96-1.8-3.73-4.47-.81.46-2.2-1.22-2.53-1.47-.53.1-.92.88-.52-.1.56-1.06-1.57.69-1.82-.97.32-.25-.89-1.86-.76-.84-.91,1.8-6.45-3.99-7.9-4.69,16.32,15.15-9.03-5.82-12.2-12.74-6.05-7.94-24.99-49.58-9.18-45.92ZM206.12,217.43c-.17,4.51-2.73,6.15-3.41,9.75-.86,3.13,0,3.77-2.63,7.06-8.32,12.13-24.13,23.06-36.68,18.94,8.91-5.9,6.18-20.15,9.74-29.25,2.97-6.29,27.2-7.21,32.98-6.51ZM72.77,228.36c-.48.56,8.7,26.22,5.92,20.73-3.07-4.51-7.84-22.54-5.92-20.73ZM75.18,229.64c2.95,16.16,14.5,37.69,25.29,46.42-6.28-6.25-23.95-32.41-25.29-46.42ZM77.95,229.68c.56,5.98,5.21,18.46,7.73,22.47-1.38-2.33-6.21-18.17-7.73-22.47ZM22.58,231.03c.13.91-2.22,5.78-.53,6.19,2.14.38,3.64-6.99.53-6.19ZM70.8,233.52c1.51,6.33,4.2,12.93,6.79,18.74-2.91-2.55-8.98-23.06-6.79-18.74ZM269.41,232.95c-2.04,6.2-7.82,22.41-9.75,19.29,3.27-2.2,6.69-14.62,9.75-19.29ZM13.84,234.29c-1.9.72-.36,2.86.1,3.66,2.31,3.09,4.68-5.05-.1-3.66ZM126.16,234.33c1.78,2.19,10.52,9.14,11.98,9.38-3.39-2.3-10.06-8.5-11.98-9.38ZM68.41,238.48c4.04,10.88,1.04,14.45,20.23,37.99,1.75,2.25-1.87-1.55-5.11-5.59-1.29-1.56-2.11-2.13-1.08-.75,1.09,1.46,1.27,1.72,1.14,1.72-6.22-7.24-12.66-20.39-15.15-25.31-.16.57-1.61-.96-.45-.51,1.19.25-3.09-11.21.08-4.39.62.92,1.2,3.47,1.82,3.11-.89-1.3-3.81-12.04-1.5-6.29ZM17.75,237.15c-.55.61-.75,2.93-.3,3.53,4.07,3.22,3.06-6.28.3-3.53ZM59.91,242.17c2.68,6.52,6.52,19.81,11.61,26.69-4.88-3.63-14.65-24.48-11.61-26.69ZM52.55,251.67c.1.31.32.85.5,1.2,2.2,6.16-1.99-2.15-.65,1.34,1.51,1.47,2.05,3.94,3.21,6.43,2.66.52,1.22-1.51-.02-1.73-.14.18-2.92-9.99-3.03-7.23ZM81.66,260.12c1.14,1.86,7.42,8.84,3.7,6.89-.68.38-1.37-2-.88-1.59.61.1-5.2-8.26-2.81-5.31ZM279.78,266.73c-1.25-.06-4.15,2.24-3.43,2.97.39.47,7.02-3.66,3.43-2.97ZM102.22,286.42c10.87,7.82,24.89,16.12,37.43,19.7-15.32-3.62-30.99-11.34-37.43-19.7ZM103.6,289.82c7.19,5.67,14.26,9.15,21.37,13.28-4.2.2-29.35-16.94-21.37-13.28ZM159.28,296.3c.58,4.12,1.57,7.78-.96,2.38-2.03-.78,1.68-.4.42-.9-2.18-.25.29-3.3.54-1.48ZM108.08,311.86c3.93,3.93,11.81,3.98,15.82,8.16.03.93-1.34-.54-1.83-.4-.65.78,3.66,1.88,2.87,2.46-.74.42,3.68.42,4.21,1.68-4.32-.89-6.02-.68.28.39.73-.97,3.7.75,3.04-.04-2.59-3.5,9.46,2.59,10.55,1.18,1.55-1.35-9.29-2.03-7.4-2.68.58,0,.27-.46-.5-.72-1.83-.15-7.64-1.06-11.46-2.76-5.53-2.78-11.42-6.79-15.57-7.27ZM81.9,314.07c-2.68,2.08,6.56,4.81,3.37,1.07-1.22-1.45-2.42-1.83-3.37-1.07ZM177.68,322.05c-.72-.79,5.88,1.29,3.81,1.17-2.45-.3-2.71.94-5.76.15-1.5-.36,2.15-2.68,1.96-1.33ZM141.35,322.18c-9.26-.06,7.19,2.64,4.49.65-.84-.9-2.98-1-4.49-.65ZM137.41,330.61c1.89.38,1.54,2.22,3.84,2.39,3.46-1.86-3.36-2.98-3.84-2.39ZM219.36,333.03c-2.16,1.45,1.56,2.55,2.59,1.67,1.24-1.12-.47-2.22-2.59-1.67Z"/></svg>