<svg xmlns="http://www.w3.org/2000/svg" viewBox="0 0 309 385">
  <path fill-rule="evenodd" d="M159 1c1 8-3 13 1 18 0-2 1-20-1-18Zm-1 31c-1 4 1 7-1 10-2 2 3 5 0 7 3 4-2 9 0 12 3 4 0 11-6 11-4 1-6 4-11 4l-5 2c-3 0-1 3-5 3-7 0-8-2-16 0-1 1-9 4-7 5a185 185 0 0 1-12 6c-7 2 4 1 6 0 1-1 8 0 3-1-1 0-1 0 0 0l2-1h1v1c-1 2 7-3 7-3l9-3c10-2 1 1-2 5-3 1-2 4-6 4 0 1-1 0 0 0 3-3-2 0-3 0l-3 2c4 0-4 4-5 4l-10 7s-1-2-1 0l-5 2-1 1c-2 0 3 0 0 1-2 1-9 7-3 5 1 0-6 4-4 4 5-2-2 2-3 2-4 2-4 2-1-1-6 3-13 9-6 5l10-3c0-1-3-1-1-1 4-1 0 2-1 2l-2 2c1 1-5 4-5 4 3-2-5 1-1 1 2 1-6 3-8 4l4-1c10-2-1 0 0 2 17-4-30 9-19 8 8-1-1 2-4 4l-6 3h-1c3 1-3 2-2 2 3 0 5-1 1 1h5c-4 1-9 3-8 5h2c4 0 1 0 0 1h-2v1h-2v2l-1 1c1-1 9-6 5-2l-5 5 8-4 13 1c3-1-1 1 2 1 2 3 0 0 2 1-4 7-12-2-19 4-4 0-4 10-9 10h1c1-1 0 4 1 1 2-3 0 3 2 0l2-2c-2 0 4-3 3-3l-4 7s6-9 6-7l-5 8c-2 2-5 8-2 5l2-4c2 1-5 7-4 9 2 3-3 5-5 5 1 4-2 4-4 6-1-1-10 22-5 13 0-4 13-10 12-6 5-6 2-1 2 2 2-3 1-6 7-6 5 1 0 0 0 2 0 1 0 0 0 0v2c2 3 3-6 4-3-3 6 3 41 2 31-3-3-2-37-1-29-2 2 0 29 0 11 0-9-1-15 3-12v8c0 9-1 6-2 9 3-5 3 11 4 12-1-7-3-35 0-28 0 2-2 8 0 8l2-1c0 2 1-2 1-1 1 2 3-5 3 0 0 4-2 8 1 7 1-1 1 2-1 2l1 2c-2 0-3-3-3-4-2 1-2-7-2-3 1 9 0 14 4 18v1l-1 1c1 4-1 2-1 3s0 2-1 1c-1-2 3 10 3 5 0-1 1-1 2 1 3-1-2-5-1-8v-2c0-6 1 3 2 2 0-6 1-3 2 1 0-3 0-4 2 0v2s2 7 1 2c4 6 12 27 20 36-3-2-14-19-16-25-4-1 23 38 30 39 4 4-1-1 2 0l-3-2 4 2c5 5 1 0 4 2 0-1-3-3 0-2 14 9 28 15 42 20 6 3-8 0-5 2 3 1 7 3 8-1 3-2 11 1 12 4 4 1-2 0 1 1v2c-1 0-1-2-2-1-2 2 6 0 3 4-2 3-3-3-5-1l2 2c1-1 1 0 0 0 0 3 0 3-3 2v1c2 1-6-1-5-2l-2-2c2 2-3 0-4 0l3 3c1 1 0 2 2 2 2-1 2 0 4 1 4 4-7-2-3 1 1 2 7 0 5 2-2 1 3 0 2 1l1 2v6c0 5 2 0 2 14 0 18 1 31 2 8 2-40 8-12 28-23l13-2 1-1c-3-1 4-1 5-3 8-5-7 1-8 1h-8c-5 0-12-3-17-6-1-1 6 1 6-2 1-2 3 0 2-2h3c3 2 13 0 6 2-8 1 8 1 8-2 3-5 11-9 14-13 2-1 0 4 2 2 2 0 6-8 9-10 2-1 24-11 11-6l-7 2c-1-2 7-4 10-5 16-5 40-18 48-26-6 4-6 3-1 0 3-3 8-1 10-6 2-2 8-4 1-2-6 4-38 22-23 9-17 11 1-2-12 6-3 2 0-1 0-1-3 1 3-2 2-2l-12 3c0-2 7-3 2-2 1 0 8-5 6-2 1 4 12-6 15-7 1-1-2 1-2-1 0 0 0-2 1-1 0 2 4-3 2 0 3 0 0-2 5-3 4 0 9-5 13-7 7-2 10-6 14-9 5-3-2-2-3-1-3 1-7 3-3 0l-9 3c-3 2-1 0 0-1-1 0-2 0-1-1l2-3c-2 2-3 2-5 2-3 2-3 2 1-2v-1l-5 4s2-3 0-2 1-2-1-1c-1-1 3-9 4-12v-2l-12 21-1 2c0-1 2-4 0-2-4 4-5 11-7 7l1-6c-7 7 5-13 5-15-1 3-3 5-1-1-1 2-3 15-8 17 1-3 1-1-1-2-1 1 2-2 0-1 0-7 9-20 10-27 0 4-4 13-5 17l5-15c3-10 3-10 1 0 0 1 0 2 1 0 1-3 4-24 5-17-2 7-2 17-4 22l-1 1c0 1 0 3 1 1l1-2c8-21-7-26 19-25 2-2-17 0-16-2v-1c0-1-2 2-1-2-1-7-1 5-1 4-2 1 0-8-1-8-1 1 0 9-2 8 2 1-2-27-1-17v11c-1-15-1 1-2-8-1 15-6-17-4-16 1-1-1-6-1-8 1 0 1 5 3 6-3-10-5-22-11-32-4-8-3-5-10-14l-4-3 5 6 1 1-1-1-10-10c-6-4 4 7 5 9l4 8-3-5c-2-1-8-8-6-2l4 4c2-1 0 1 1 1s-2 0-1 1c2 0 5 7 4 8v2l2 2c-3-2-7-5-9-9l1-1c2 0-2-1-1-2-2-6-6-9-12-13-2-5-16-10-13-12 0-4-2 0-2-1-1-1 0 2-1 1-1 1-6-4-8-5l-19-7c-1-2 0-5-5-5-2 0 1 3-5 2h-9c0-2-2-5-1-8 0-1-2-4 0-5 4-3-2 1-1-4 1-3 4 4 5-1l2 1c0 1 3-2 3 0h5c3 0 5 3 8-1 1 0 15 0 15 4-1 1 0 1 2 1 5 0 5-4 1-3-4 0-8-6-12-7 5-1 0-1-2-4s-8-2-12-3c-2-2-11 0-12-2-7 3-8-24-7-30 1-2-2-1-2-3-1-2-1-6-1-1Zm-8 10c-1 2 1 5 2 5-1-1 0-7-2-5Zm35 6c-1 4-2 0-2 2 2 3 7-2 2-2Zm-68 17c-1 1 3 4 4 4 3-2-2-5-4-4ZM89 79c-3 5 5 5 5 2l-5-2Zm68 6c0 2 1 5-1 7-1 1 1-4-1-2-8 1 3-7 2-5Zm61 2c-1 1 1 3 2 3 2 0 0-4-2-3Zm-29 8c-2 1 4 6 4 2 1-1-1-3-4-2Zm-84 2c-4 1-14 3-16 7 1 0 21-8 16-7Zm89 1v2c4 2 4-4 0-2Zm31 0c-3 2 4 7 4 3 0-2-3-4-4-3Zm-20 3c5 3 10 4 15 9-6-3-2-1-2 1-1 1-2 2 0 3v1l4 2c-4-2 1-2 1-4-5-5 1-1 5 2-6-6-15-12-23-14Zm36 7c-1 1 0 3 2 3 2-1-1-4-2-3Zm-95 8c2 1-4 2-5 1 1-1 4-3 5-1Zm103 1c-4 1 1 6 2 2l-2-2Zm-95 3c0 4-24 5-24 8 36-14 20 5 21 30-15 3-28 12-36 25-2 3-2 13-7 14-9 4-17 4-27 5v-5c-1 2-1 9-1 2l4-16-4 7c2-3 0 1 0 2-1 2 0-1-1 0-2 2-1 11-4 10-3 1 2-14 2-18 1-3 4-4 6-7 1-3 3-8 6-8 0-2-5 3-2 0 1-2 0-2 2-3 3-4 3-4 5-4l3-3c6-2 11-15 17-14-1 2 5-3 3 0l5-5c1-3 8-6 9-9l5-2c0-1-4 2-5 0l-4 3c3-1-3 3-1 1l1-2-1 1c0 2-2 2-5 1 0-1 2 0 0-2 0 3-3 3-2-1-1-1 2-1 0-2-1-2 8-3 9-4h1l6-2c0 1 2 0 0 1l5-1c0 2 16-1 8-1-14 2 2-2 6-1Zm15 0c24 4 34 9 61 38-3-7-14-17-20-22 9 4 19 18 24 25 8 13 11 24 11 32 0-2-4-16-3-9 1 5 4 20-2 18-5 0-9 1-14-2-7-3-6 3-14-3 0 9-5-15-9-18-9-12-17-17-31-20-3 0-2-5-2-7l-2-16-2-10c9-1 21 4 31 9 24 13 40 38 43 66 0-26-20-55-41-66-5-6-32-8-33-12 22-1 45 16 57 32 2 2 5 7 3 1 4 0-12-15-17-17l-3-2c1-5-53-19-37-17Zm57 5c1 1-2 3-4 3-3-2 3-4 4-3Zm-47 4Zm14 9 17 12c-13-11-1-2 4 2 4 2-3-6-4-6 7 7-1-1-3 0 0-2-11-9-3-3 9 7-17-10-11-5Zm33 11c8 9 15 20 18 31-2-8-16-28-18-31Zm-115 2c-1 3 2 0 3 1-2 0-11 9-11 10 1-1 17-14 8-11Zm-13 3c-1 3-5 5-5 4 0-2 4-6 5-4Zm-77 3c-6 5-15 6-21 9 5 1 16-6 23-8h-1s1-2-1-1Zm216 2c2-1 11 20 7 16-1-3 2 6 0 2l-7-16c-3-3-3-4 0-2Zm-144 1-5 4c-1-2 1-2 3-3 0-1 4-4 2-1Zm148 0c13 22 9 25-2 0 2 0 7 12 8 13l-6-13Zm-91 4v6c1 4-2 8-1 12l-1 1c-1 0 1 8-3 7-2-1-3 1-4-1 1 2-10 1-14 5-3 2-2-1-3-2-3 2-1 3-6 3-4 0 5-17 7-17 4-4 9-10 13-11 2-2 14-7 12-3Zm25-1c3 0 7 5 9 3l4 3c8 8 17 16 18 28 0 3-20-2-24-2-1-2-4-3-4-5 1-4-2-7-3-10l-1-11c-3-5 2 0 5 1-3-2-11-9-4-7Zm-78 5-5 6 5-6Zm-79 5v2c2 4 3-5 0-2Zm245 0c2 10 8 23 4 32l-6-30c-1-2 0 0 1-1s1 3 2 4l-1-5Zm-220 8c1 3 0 4 3 6l1 3-2 15c-2 2 0-4-1 0l-4 1c-2 4 3-17 0-8-1 2 0 9-2 9s-8 1-6-1c0-1 3-2 1-2l1-1c0-2 1-2 2-3v-2c2-2-1 1 0 0 1 3 2-2 2-4-1 0-3 5-2 0l5-9c1-2-3 0-1-2 1-1 1-2 3-2Zm119 14c2 1 5 5 6 2 4 7 3 19-8 18-11 1-15-24 2-20ZM2 207c2 3 8 1 11 1l-11-1Zm274 2c0 1-1 13-3 17 1-5 1-15 3-17Zm2 1-1 6c0-4 0-1-1 1 0 0 1-13 2-7Zm-12 0c1 5 1 5 2 1 1 6-3 24-7 30 1-4 6-14 5-18l-5 16 5-29Zm-190 3c3 21 5 24 12 38-8-19-7-17-9-36l1 12c-5-13 2-21 2-2 2 29 32 58 49 66-5-1-13-6-17-8l17 9c-10-1-31-18-39-30 4 11 31 27 36 31l12 6c3 1 10 3 2 1-9-2-26-7-34-16-17-14-44-51-32-71Zm167 2c1 8 0-2 2-2 2-2 0 10-2 11-2 3 0-4-1 1s-3 8-6 11c-1 1 3-2 2 1 2-1 5 2 3 5 0 6-7 4-9 8-4 8-11 16-16 16-2 6-10 7-14 11 1 1 6-4 7-4-5 6-13 12-1 5l-6 6 5-4 4-2 5-4c2-3 0 1 2-1l1-1c-4 2 6-7 6-9l3-5c0 2 1 2 2 0 3-3-9 10-7 10l3-3-1 3c2 0 1 2 0 0-2-1-6 6-6 6-3 1-15 11-10 9 6-2 3-3 7-3 0 2-4 3-5 5-3 5 6-5 5-2-1 2 3-1 2 1l-9 5c-2 0 5-3 3-3-8 4-18 6-28 9-8 1-15 1-20-1l-1 2c0 1 2 1 0 1-1 0-3 3-2 1l7-39c5-3 15-4 20-8 11-9 20-21 23-35 7 1 29-7 32-1Zm-156-2c11 3 23-2 24 10 1 6 6 10 9 13-3 1 1 3 3 3-2 1-3 1 0 2 2 1 0-2 0-2 1-3-5-6-5-9-8-18 1-11 13-10 26 1 16 10 21 29 3 8-1 8-7 4-9-2-13-8-21-11 0 2 6 2 1 2 5 8 18 11 28 14l5 29c4 12-4 7-13 6-4-3-11-3-19-8-10-5-1-2-4-5-1 1-2-1-2-1h-1c1-2-1 0-2-1v-1c-1 1-7-4-8-5 16 15-9-6-13-13-6-8-25-49-9-46Zm119 4c0 5-3 7-3 10-1 3 0 4-3 7-8 12-24 23-37 19 9-6 7-20 10-29 3-6 27-7 33-7ZM73 228c-1 1 8 27 6 21-3-4-8-22-6-21Zm2 2Zm3 0Zm-55 1c0 1-3 6-1 6 2 1 4-7 1-6Zm48 3Zm198-1c-2 6-7 22-9 19 3-2 6-14 9-19Zm-255 1c-2 1-1 3 0 4 2 3 5-5 0-4Zm112 0c2 3 11 9 12 10l-12-10Zm-58 4c4 11 1 15 21 38 1 3-2-1-5-5l-2-1 2 2c-7-7-13-21-16-25v-1c1 0-3-11 0-4l2 3-2-7Zm-50-1-1 4c5 3 4-7 1-4Zm42 5c3 7 6 20 12 27-5-4-15-25-12-27Zm-7 10v1c2 6-2-2-1 1l4 7c2 0 1-2 0-2s-3-10-3-7Zm29 8c1 2 7 9 3 7l-1-2c1 1-5-8-2-5Zm198 7-4 3 4-3Zm-178 19c11 8 25 17 38 20-16-3-31-11-38-20Zm2 4 21 13c-4 0-29-17-21-13Zm55 6c1 4 2 8-1 3-2-1 2-1 1-1-2 0 0-4 0-2Zm-51 16c4 4 12 4 16 8h-2l3 2c-1 1 4 1 4 2-4-1-6-1 0 0h3c-2-3 10 3 11 1 2-1-9-2-7-2l-1-1c-2 0-8-1-11-3-6-3-12-7-16-7Zm-26 2c-3 2 6 5 3 1-1-1-2-2-3-1Zm96 8 3 1h-5l2-1Zm-37 0c-9 0 8 3 5 1l-5-1Zm-4 9 4 2c4-2-3-3-4-2Zm82 2c-2 1 2 3 3 2s-1-3-3-2Z"/>
</svg>
