<svg xmlns="http://www.w3.org/2000/svg" viewBox="0 0 370 418">
  <path fill-rule="evenodd" d="M184 0c0 4 2 7 0 9 2 3-1 3-1 5 4 3-1 1-1 3l2 1c0 2-3 3 1 4-1 1-4 0-1 2l1 6c-1 0-2 1-2 3 4 2-3 4 1 5 2 0-6 6-1 7 1 1 3 0 1 2-4 2-4 7 0 6 2 1-6 4-4 7 8 3-5 3 4 8l-1 1c-10 3 3 1 1 5 0 2-3-4-3-2-1 1-2 2 1 4 4 5 0 3 0 7 0 3-3 0-4 1-2 1-1 3-1 5-1 1-6 9-10 9-4 4-16 11-18 15 4 0 10-8 12-2v2l3-1c2 1-1-2 1-1 4-1 2 0 3 2 2 2 1 4 0 5l-2-1c-2 1-2-2-4-1-1 1-2-2-3 0h-1l-1-1h-3c-1 1-3-4-3-1h-1c0-2-2 0-2-1 1-1-2-1-1-1v-1c-3 2-3-1-6-2l-2-2h-1c1-3-1-2-2-2l-2-1c-1 3 2 4-1 4-2 0-2 4-2 5l-2 3c-3 0 0 2-3 2s1 3-2 2c-2 0 2 1-3 2 2 2-1 0-1 2l-2 1-2 1c-2-1 0 2-1 1-2-1-6 2-7 1 1 5-16-1-15 1 0 6-6-1-4 4 0 1 1 5 2 3v-1l4 4c2 2 4 4 8 5 5 1 11 2 12 5 1-4 13 4 14-1l1 2c1 1 3 0 4 2 4 2 19-9 13 1-1 1 5 3 5 0 3-4 5 10 2 6 0-4-7-2-4 0 3 1-2 1-2 1-10-2-4 4-7 3-1-1-4 5-1 4-2 0 1-1 0 0l-3 3c0 2 0 4-1 2 0 0 0 3-1 1v-1l-2 2c1 1-2 2-1 1l1-2-3 3c-1 2-1 0-1 0h-1v-2l-1 4h-2v-6c0 4-2 8-3 4v-1c-1 2-2 0-2-1l-1 4c-1-1 0-5-1-3-6 0-3 2-5 3-3 0-1 1-2 3 0 0 1 1 0 0-2 0 0 2 0 2h-1c0 2-2 0-1 0s0-2 1 0c0-2-2-4-2 1-1 1 0-1-1-1-1 2-3 0-3 3-1 0-1-3-1-1 0 1 0 1 0 0v-1c2-3-3 1-2 1v1l-2 1c-4 0-9 4-13 4-1-2-4 2-5 2 0 1-13 3-10 1 4-5-7 4-13 0-2-1-2 2-2 2l-2-6v4c-2-1 2 2 0 2-4 1-17-1-21-2l-3-1s-1-2-2-1c0 1-1-2-2-1s0 2 1 2c1-1 1 2 1 2h-2c1 3-1 0-2 1 0 3 6 6 8 9 3 6 35 12 24 16-3-1-7-2-9 2-3 1-11-6-8-2l4 4v1c1-1 3-1 2 1 1 1 1-3 2-1v1l1 1c0-2 1 0 1-1-1-1 2-2 2-2-1 2-4 3 0 3 1 0 1-2 2 1 0 3 0 1 1 1 0 1 0 0 0 0h1l1 3s-1-1 0 0h1v-1 2l-1 1c0-1-1-1 0 0 2 2 2 0 2 2l-1 2v3h-1c1-3 0 0-1-2 0-1 0 0 0 0s1 0 0 0-2 2-3 1l-2 1h-2v-1l-6 3c0-2-2 0-2-1l-4-1c-4 0-4 4-4 5l-2 4v2c-1 1 1 1 1 3v1l1 1v-1c-1-1 2 2 2 0 0-1 0 0 0 0-2 3-5-1-7 6-3 1-8-2-11-1-2 0-7 2-8 0H4c-3-1 0 1 1 2v1c2 1 3 10 3 6l1 1-1 1c3-2 4 1 3 1 0 1 2 0 1 1v1l-1 1-1-1-1 1c-2 1 0-4-1-2l-1 2c1 0 0 2 0 0v2h3c2 2 2 2 2 0l1 2c1-1 0 2 1 2 0 0 0 2 1 1 0-1 1 2-1 1l-2 1c2 0-1 1 0 2h3l1-1v-1l2 1h1v-1c-1-1 1-2 2-1-1 1-2 0-1 1h1c0 2 0 0 1 1h2l1-1v1c1-2 1 0 3 0 1 0-1 2 1 2l6 2c4-1 11-4 14-2 3-2 5-1 6 2 0-1 0-4 1-1l1-1c1 1-1 3 1 0 1-1 0 5 1 0v2c1 0 1-2 2-1v-1c1-2 0 4 1 4s0-2 1-1l1-2c1 2 1 4 3 3 2-2 2 8 1 4v-2c-1-1 0-3-2 0-1 1-1-2-1 1-1 1 0-2-1-2v5c1-2 1 1 1 1l1-2h-1l-1-1 2-2c2 3-1 5 2 4 0 0-1-1-1 1 1 1 0 2 1 1v4l1 1 1-1c-2-1 0-3 0-2 1 1 1-2 1 0 2 2-1 0 0 3v1c0-2 2-2 1-1v1s0 4-1 2l-1 2-3 1h-1c-1 1-1-2-2 0 2 0 0 0-1 1-2 2-1 2-3 2-3 3 8-3 11-2 3 0 23 4 23 2 1 0 2 3 4 2 2 2 5 1 4 4-2 7 6 0 7 2h4c-1 1 1 3-1 5-1 0-1 0 0 0 1 1-1 2-2 3 1 0 4 1 2 2 1-2-3 0-1 1h-2c-3 1 3 1 2 2l-3 1c2 0 1 2 1 4 2 1-1 1-1 3 5 2-1 3 3 5v3c1 1 2-2 3-2l-1 2c-1-1 0 2 0 0 1-2 2-2 1 0 0 1-3 5 1 1l-2 2c-1 1-4 0-3-3l-1 3c-1-1-3-4-2-1 2 3 2 0 3 1 0 2 2 1 4 2 5 0-7 1-2 1l4-1s5-2 4 0h1l1 1c0 2-3 1 0 4 2 2-1 3 3 3 5 0-1 0 1-1 2 1 0-4 1-2 2-1-1-5 4-4l22 2 9 1c1-1-2-2 7-2 8 0 1 2 5 2 2-1 10 1 13 1 6-2 22 1 24-3 0-1 1-2 4-2s-2 1-3 2c-4 5 25-3 30-1 4-1 21-1 12-2l-94 1h-25c-3-1-7 1-5-2a1527 1527 0 0 0 81-3h-17c0-2-3 1-4 0h-6c-3 0 1 0-1-1-1 1-1 2-2 1h-2s-4 1-5-1c0-1 0 2-1 1h-12c0 2-1 0-1-1 20-4 72 3 88-5-21-1-50 1-72 1 3-4 25-2 34-3 9 1 23-3 32-4a1764 1764 0 0 0-20-2c-11-2-37 1-45-2 4-5 11 1 20-1l24-3-44 1c2-1-19 1-12-1 2-1-1-1-1-2l76-1c-10-1-42 1-55-1 12-1 29 1 41-1-22-1-50 2-63-1-4-7 80 2 74-7-2 2-7 1-10 1-1 0 2-7 0-3-1 2 0 2-16 2-9-1-54 5-47-2 13-5 9 0 28-1 12 1 15 0 27-1 35-2-13-1-16-2 4-2 12-1 19-2 17-4-56 0-61-2 22-6 39-2 65-6-3-1-55 2-58-1 0 0 2 0 1-1-2-1-2 2-3 0 1-3-8-7-2-10-3-8 10-3 15-4 4-1 7 3 10 0l-1-1c-2 1 0-3 0-1l3-1c0 2-3 1 0 2s6 2 5-2c1 2 0 1 2 0l4 1c6-1 7 6 8 3 0-3-1 1 1 0h6v-5c3-1 0 2 2 1 3 1 1-3 3 0h2v1c0 1-1-1-2 1-1-1 0 2-2 1 1-1 0-4-1-1s1-4-1 1c0 2 2-1 1 1 0 1 1-1 1 1 1 1 1-2 1-2 1 0 0 3 1 2l4 2c0 4 0-2 1 1v2h1c0 3 2-2 3-2 1-2 2 2 2-1h1c0 2 1-1 1 1-1 4 1-2 1 0h1l1 6c3-5 2-3 2 1 2-6 3-2 3 1 1-6 2-5 1 0 0 2 0-3 1-2s2-4 2-2c2 10-3 0-2 10l1 5c2 0-1-6 1-4 0 1 4-4 3-2 0 2 3-1 1 1 0 0 0 2-1 1-3-3-1 8-1 3 1-1 1 2 1 0s2-1 2-2c0-3-1 1-1-2 3-2 1 1 2 2 1-1 0-5 2-5 0 0 0 5 1 3v-2 2c1-1 0-4 1-3l2-1v-4c4-3 0 8 2 6v-1l1 1c0-2-1-4 1-7 1-1 0 2 1 0 2 1 2-4 3-5v1c0-2 1-3 1-1s0 4-1 3v5c2 1-1-2 1-2v-2h-1l1-1v-1c3-1 0-1 1-3l1 1c1-1 1 2 1-1h2c1-3 1 0 2-2 1 0 0 2 1 0h1c3 1-2 2 0 3l1-1s1-3 1 0l2-2v1c1-2 1 4 2 0 0-3 2 0 3-2 2-6 0 3 1 2l1-3c0-2 1 1 1-1v2c0 1 1 2 1 0l1-2c1 2 0-1 1-1 2 2 1-2 3-2 1 0 5 0 4-2 1-1 1 2 2 0h1c-1 1 2 0 1 2 0 1-1 8 1 6 1-1 1 2 1 0 1-2 1 2 2 0v-1c0 2 3-1 3 0 1 2 1-1 2-1 0-2 2-4-1-3 1-1 2-3 2-1 1 1 0-2 1-1 1 0 0 2 1 1l2-4v4c1 1 0-4 2-4 0 3 0 1 1 0-1 3 2 0 2 1l1 1v1l1-2c0 1 1-2 1 0v3l1-2c1 3 1 0 1 0 3-3 0 1 0 2 1 2-1 8 1 7 2 0 1-3 3 0l2 1c2 0 1 4 2 4-1 1-1 7 1 3v1c6-2-1 9 8 7-5-2-5-2-3-8-2-3 1-5 3-4 2 3 1 8 1 11 2-4 1-8-1-11-1-3-2 1-1-3l1-3 1-1c0-2 0-1-1-1v-2c-2 0 2 2-1 2 0-1 1-2 0 0-2 3-1-6 0-4l1-1h1c-2 2 0 1 0 1 0 2 1 0 1 0l1-2c1-1 0 4 1 1 0-3 2 4 2 1-1-4 0-2 2-3 0-1 1-1 0 0l1-2c-2-1 2-1 0-3 0 0 1 0 0 0 1-4 2 2 2-3 0-4 4-3 2-4l1-1c-2 0-1 0-1-1v-1c-2 3-1-1 0-1s-2 1-1-2v-1l-2 3 2-2-1 2v1c1 1 1 6-1 5-1-1 2-4 0-1-1-2 0-6 1-8-2 1-2 4-3 5v-3c1-1 0-4 1-2 0 2 3-6 1-5l-1 4v-2l-1 1c1-2-4 11-1 5 1 1-2 4 0 3l-1 1v1c0-1 0-8-1-4v-3l-1 2 2-2-2-1c2 0 1-1 1-1l1-3c-2 1 2-2 1-3 1-1 3-2 3 0h1v2l2-2c-1 1 0 2-1 1v1c0 1-2 1 0 1v1l2-2v-3c0-2 1-2-1-3l-2 1-2 1c-2 2 0-2-2-2 1 3-3 0-3 1h-2s-2 3-3 2c-1 0-2 0-1-1l2-3c0-1-8-4-6-2-1 0-1 1 0 0 2 1-3 5-3 3s-3-5 0-7c1-1-1-3 1-4-1-1-2-2 0-3 3 0 1-1 0 0-1 0 1-1-1-1-1-1-2 5-2 1-1-3-1 4-1 3l-1-1c1-1-2 1-1 2-1 3-1 4-3 5l1 1h2c1 2-1-1-1 0v2c-1 1-1-2-1-2v2c-5-4 1-1-2-3-2-1-1 7-3 5h1c0 1 0-4-1-3l1-1-2 1v2c-1 1 2 2 1 3 0 0-2 0-1 1 2-3 1 4 2 1 2-2 0 4-1 1v-2c-1 0-1 4-2 2l-1-1-2 1c-2 0-3 0-2-2 1-3-1-1-1-2h-1c-1 1 0-2-1-1v-1l-1 4c-1-1-3-1-1-2-1 0-4 0-3-1-1-2-1 0-2-1 1-2 3 0 4-4 0-2-3-3-1-6 0-1 0 3 1 0-1-3 1-6-1-9l-1-1 1-1c1-3-2 2-2 2v-7h1l1-2c7-5 16-9 25-16l8-12c1-3-2-3-1-5s0 0-1 0c-1-4-13 7-14 3-4-1-14 2-15-3l-2 1c-1 0 0 2-1 1 0-1-8 1-6-1-1-2-10-1-18-3-2 1-21-3-15-1-2 1-14-2-21-5-5-2-10-2-12-6s1 0 0-4c1-2-7-2-3-1 1-1 3 2 0 1-8-1 3-5-3-10 0 1 2 6-1 2-3 0-2 1-3-1s-3 0-3 0h-3c-3-14 5 0 7-8l2 1c4 1 7 3 11 3 0-2 0 1 0 0l1-1c-1-1 2 0 0-1-14-3 21-6 28-10 4-1 5-5 9-6 6-1 9-3 6-4 1-3 4-2 0-4 3 2-5 2-8 2 0 0 3 0 2-1v-1c-1-3-2-1-3-2-12 2-22-4-30-11-1-2-1-4-2-3-1-2-1-5-4-6-4-5-5-3-7 2-6 5-34-13-34-19-2-2-8-12-10-10-3 1 1-3 1-4 5-7-2-2-2-5l4-1c3-3-8-1-1-5 3-3-5-3-2-5 2 0 2-1 2-2 4-4-9-4 1-7 2-5-8-5 0-8v1c2-1-1-2-1-2l-2 1c5-6-2-2-1-8 6 3-1-2 3-3 0-5-6 0-2-8 3-2 1-3-1-3 1-1 4-1 1-2-4-2 5-1 0-4-3-1 2-1 1-3-1 0-4-1-2-4 2-2-2-1 0-4 1-2 0-7-1-4l-2-1ZM94 147c-3 5 7 0 2 0h-2Zm0 12c-2 3 0 3 0 4l1 3c1 2 0 1-1 0l-1 3v1c2-1 0 1 1 1h1v1l7-1c2 0 3-3 4-2 1-7-11 12-8-7 3-3-1-2-2 0-5 0-1-4-2-3Zm128 5 4 1c-1 1-11-3-4-1Zm-126 8-2 1c-1 1-2 2 1 3s8-4 1-4Zm64 6c-9 7-5 11-17 15 1-6 16-14 17-15Zm13 6s2 1 2 3h4c0 2-12 1-15 5s-5 5-9 7c0-2-1-7-4-2-2 0-1 0-1 1s-2 3 0 4c0 0-3 2-2 0v-2c-1-3-1 2-2 1v-1c1-3-1-2 4-4s17-10 23-12Zm164 5c1 1-15 4-10 3 3 1 9-6 10-3Zm-109 3c2 2-1 3 0 4 2 1 0-1 1-1 1-1 0-3 2-1s32 15 21 11c-9-2-20-6-29-12-2-1 1-1 0-1-1 1 1 1 0 0l2 1h-1c-1 1 3 2 2 1 0-1 0 0 0 0-1-2 2-1 2-2h-3c0-1 0-2 3 0Zm-165 4h8c-8 2-23-1-8 0Zm-29 0h6c3 0 2 1-3 1-6 1-6-1-3-1Zm99 0c5 2-1 3-4 4-4 0 2-5 4-4Zm-77 2h11-11Zm30-1v3l-1 1 1 1c-1 0 0 2-2 2 0 2 0-2-1-1-2 0-4 3-4 0-2 0-2-1-3 2-2-2 2-3 1-4l-1 1c-1 2-1 4-2 1 1 4-2-3-3 0h-1c0-1 1 2-1 2 0-1-1-3-2-2h-1v1c-3 1-1-4-2-4h3c-2 0 1 0 0 1s0 3 0 0l1-1c-2 0 2-1 1-1v1c0 2 2-2 2-1 0 2 1 0 1 0v3c-1 0 1 1 1-1v-1l1-1c0 2 2-1 1 1h3c1-3 4-3 8-3Zm59 1c-2 0 0 3-2 2 0 0 1 1-1 1v-1h-1l4-2Zm-20 2c1 2-8 4-6 2 5-1 0-1 2-2h4Zm-7 2c-5 3 5 1 7 1 0 0 3 0 2 1h-3c-1 0 0-1 0 0v2c3-4 1 0 2 0-1 1-8 2-10 0 1-1-1-2-1-2l3-3Zm29 0c1 2-3 4-3 2l-2 1c-2 1 0-3 0-3 1-1 1 1 2 1-1-1 2-2 3-1Zm-17 4v2c-1 3-4-4 0-2Zm-98 5c-4 3 3 7 3 3 1-2-2-3-3-3Zm147 38v2l2-1c0 3-4 1-1 2 1 2 1 1 1-1 1-2 1 1 1 2l1-3c-1 3 3-2 2 0 0 2 2-1 2 0h1l1 3c0 3 0 1 1 0h1c0 3 0-2 1-1 3 6 1-1 3 2 1-2 1 1 1-1 2-3 2 4 3-2 1 0-1 3 1 3 1 0 2 1 2-1v4c1 9 3 4 5 0 1 1-1 1 1 1l1 5 1-1c-1-1 0-2 0 0 0 3 3 6-1 6-4 1-2-3-3-2 1 3-3 2-5 2h-38c-7 1-3-1-3-4l2-9 2-3c-1 2 1 0 2 1 0 0 1 1 0 0h3c1 1 0 0 0 0 0-1 3 1 2-1 1-3-1 2-1-1-1-1-1 1-1 1l1-2h1c0-1 1 2 1 0 1-1 1 2 3 0v2c1-2 4-1 4-3Zm172 2c1 1 0 1-1 2v2c-3-2-2 5-4 5l1 3h-3l1-2v1-2l2-3c-2 3 0-1-1-1l1-1c-1 1-1 0 0 0v-1h-1c2-1 3-4 5-3Zm-196 10c0 6 0 4 1 1v5c-3 0-1-18-1-6Zm174-3v2c1-1-1 1 0 0h-1c1 1-1 2-1 1v-1c-1 0-3 2-1 2 2 2-4-2 2 0 2 1-4 2-3 0-1-2 3-2 2-5 1 4 3-2 2 1Zm-13 4h2l-1 2c-2 2 2 0 3 1l1 1c-3 1 2 1 1 2 0 0-10 1-7-1l1-2v-3Zm-102-1c-1 2 2 0 0 1-1 2 2 0 1 1l1 1v-1h2s1 3 1 1c1-1 1 2 1 2 0-1 0-3 1-1 1-2 1 2 2 0 0-1 1 2 2 0 0 3 1 0 2 2 2 3-3 2-6 1 0 0-3 2-4 0h-1l-1-1c-2 5-2-7-1-6Zm100 2c0 1 0 1 0 0 1 0 1 6-1 5-2 0 1-9 1-5Zm-7 0c4 3-3 2-4 1l4-1Zm-30 0s0 5-1 4c0-1-1 2-3 1 2-1-2 0-1-2 0-2-1 2-1 0 0-3 4-2 4-2l2-1Zm88 1c1 2-3 1 0 3 0 0 1-3 1-1v3l2-1h1c0 1 0 1 0 0l-2-2-1-2c-1 0-1-2-1 0Zm-7 1c1 1 0 6-1 7v1c-1 2 3-1 2-1v-1c-1 2 0-1-1-1 0-1 3-6 0-5Zm-129 1c0 1 1 2 2 0v-1 3c0-2 0 0 0 0h-2c0-1-1 1-1-1 0 0-1 2-1 0l1-1c1 1 1-3 1 0Zm-19 4 27 1c-2 1-21 0-20 1l-33-1c0-2 21 0 26-1Zm-46 0 4 1h-5c2 0 1-1-1-1h2ZM2 272c1 1-2 3-2 3 0 6 3 0 3 1 3 0 3-1 1-3-2 1 1-1-2-1Zm222 0 2 8c-1 2 1 0 1 2 0 1-1-2-1 0-1 1-7 1-3-2-13-3-42 2-62-1l1-1h42c7-2 13 0 18-1 3 0 0-1-1-1 0-1-1-5 3-4Zm-30 4c3 0 12-2 12 0h-16 4Zm-4 5c16-1 17 1 30 1h-4c-3 0-65 3-57-1h31Zm-34 10c1 1-1 0 0 0h1c1 2 1-1 2 0v1c2-1 0 4 1 5s-4 0-5 1 5 0 5 1c0 2-1 0-1 0h-7l1-1c1 1-1-4 2-2v-4h1v-1Zm99 6c1 3-1 1-1 2v1c-3 5-1-5 1-3Zm-83 1c-16 1 14 1 15 1l-20 1h15c1 1 57 0 17-1h-11c43 0 9-2-16-1Zm-130 3h-2c-1 0-1 3-3 3-1-2-1 1-2 1 0-1 0-1 0 0h-1l-2 1c2 1 8-3 10-2 1 1 1 0 1-1h-2c0-2 2 0 2-1-1-2 2-1 1-2-1 1-2-1-2 1Zm114-1c3 0 6 0 8 2h-1l-1 1h1-3c0-1 1 1 1-1l-4 1h-2c-1-2-1 0-2-1h-1c0-1 0-1 0 0l-2-1c0-1 3 1 2-1l1 1c1 1-1-2 3-1Zm86 1c0 2 0 0-1 0 0 2-1 2-2 3-1 4 6-4 3-3Zm-44 12c4 2-45 0-16 0h16Zm106 0c-1 2 2 4 3 2 0-2-2-2-3-2Zm-142 3c2 0-1 1-1 1v2c-1-1-2 2-1-1 0-3-1-1-1-1-1-1 2-1 3-1Zm-105 2c-4 2 0 1 1 1h1l1 1v2h-1c0 2-5 0-4-2-4 0 10 8 8 3 6 0-3-6-6-5Zm252 7-2 2c2 4 6-2 2-2Zm-252 4c-4 2 1 5 4 3 2-3-2-6-4-3Zm120-1h-14 14Zm146 6c-2 2-1 5 2 3 2-1 1-6-2-3Zm-157 1c1-2 18 0 6 2-2 1-3-2-4-1 1 2-5 0-3 0h-1v-1h2c-2 0 0-1 0 0Zm140 0c-4 5 6 5 1 0h-1Zm-51 2c1 1-14 0-14 1 1 1 20 1 14-1Zm59 2c-2 1-2 3-1 3 3 2 4-5 1-3Zm-146 0c-1 1 3 1 1 1h-4c-1 0-8 0-7-1h10Zm-67 3c-4 1-11 6-15 3-2-1-2 1-1 1-2 2 1 0 1 1 1 1 1-1 1-1 1 0 0 2 1 1h3l10-5Zm69 4c1 1 5 0 3 1-1-1 1 0 0 0l-7 1c-5-1 3-3 4-2Zm160 6c-2 0-4 4-1 4 1 0 4-6 1-4Zm-53 2-2 1c1 2 2-1 2 1 1 4 5-4 0-2Zm-22 9c-11 2-142 0-112 4 11 1 23 2 33-1 8 2 17 0 27 2l49-1h2l6 1c1-2 7-2 9-2 4-2 2-1 5 2 5-6-5-2-7-3-5-2-8-2-12-2Zm-69 6c-27 3-62 0-85 2-5 4 17 0 15 3 2 2-12 0-15 1-4 0-5 3 0 3 21 2 47-2 69-2 22-1 42 1 61-3-40-2-81 4-115 1 8-5 88-1 70-5Zm5 0c-1 2 24 0 8 0h-8Zm50 3c-6 1-1 6-1 1h1c1 0 2-2 0-1Zm-52 8c-2 1-14 0-12 1l2 1c-2-1 9 0 6 1-2 1-20-2-20 0 1 2 5 2 8 1l5 2h-4c12 5 58 1 80-2-4-4-26 0-34-1 0-1-17 1-7-1-6-2-16-1-24-2Zm-39 0-7 2 22-1-15-1Zm46 1c9 0 14 0 11 1h-19c-2-1 5-1 8-1Zm90 5c-53 2-111 0-162 8h16c-7 1-31 2-12 3 40 0 82 1 121-1 6 0 20 0 24-4 4 1 6-1 9-3 2 0 10-2 4-3Zm-48 11c0 1-2 1 0 2h-12c-9 0-7 1-8-1 2 3-11 0-7 2h52c6-3-6-1-6-1-6 2-13-2-19-2Zm19 4c-10 3-33-1-44 4-1 1-8-3-10-1-1 0-5 1-3 2 1 1 5-1 4 2-1 1-10 0-3 1 6 1 4 1 8 3 8 3 16 0 25 3 1 1 2-1 2-1 0 2 3 1 3 3 3 2 14 1 17 0 5 0 12-3 12-6l35-5-46-5Z"/>
</svg>
