<?xml version="1.0" encoding="UTF-8"?><svg id="Layer_1" xmlns="http://www.w3.org/2000/svg" width="370" height="418" viewBox="0 0 370 418"><defs><style>.cls-1{fill-rule:evenodd;}</style></defs><path class="cls-1" d="M184.04.41c-.39,3.54,1.63,6.77-.53,8.37,2.28,3.43-.21,3.11-.84,5.28,4.72,2.88-.27.7-.53,2.77-.31.37-.34.34,1.72,1.6-.01,2.01-2.6,2.17,1.01,3.78-.84,1.17-4.32-.02-.84,2.26,1.47-.46,1.03,4.66,1.06,5.58-1.55.21-2.36,1.08-2.55,3.1,4.01,2.01-2.52,3.51,1.44,4.45,2.41.43-5.82,6.85-.61,7.73.67.72,2.17.14.3,1.32-3.31,1.86-3.17,7.26.16,6.39,2.05.85-5.68,3.95-3.56,6.74,7.92,3.69-5.39,2.96,3.29,8.56.2.13-.37,1-.69,1.04-9.63,2.44,3.48.13,1.27,4.38.06,1.74-2.73-3.48-2.77-1.31-1.31.87-1.9,1.06.37,3.75,4,4.53.52,2.77-.2,6.75,0,3.11-2.3.05-3.37,1.51-2.34.44-.72,3.01-1.3,4.12-1.24,1.58-5.95,9.11-9.38,9.88-4.94,3.33-16,10.77-18.31,14.13,3.47.73,10.15-7.27,11.54-1.83.39,1.54.63,1.01.16,2.3.12.06,2.75-2.14,3.54-.95,1.41.63-1.07-2.1.95-1.42,3.29-.82,1.29.76,2.92,2.57,1.54,1.65.77,3.49.19,4.34-1.33.45-1.03-.97-2.77-.37-1.26,1.08-2.12-1.76-3.48-.81-1.53.88-1.73-2.02-3.03-.48-.59.69-1.07.63-1.07-.15,0-.6-.06-.64-.81-.49-2.82.98-1.27-1.7-3.43-.74-1.06,1.43-2.52-3.12-3.14-.94-.01.9-.35.96-.64.11-.55-1.84-1.88.58-1.98-.92.46-.96-2.21-.34-1.16-1,.56-.43.36-1.2-.28-1.08-2.21,2.67-2.64-1.17-5.49-1.42-1.39.01-1.13-2.74-2.29-1.84-.7.43-.9.15-.57-.79.5-2.8-1.66-1.52-2.39-2.07-.74-.94-1.77-1.14-1.93-.38-1.34,2.73,2.27,3.28-.58,3.76-2.08-.12-2.09,4.2-2.84,5.19-.32.83-1.69,1.93-1.33,2.76-3.34.31-.19,1.97-3.14,2.17-2.68-.03.42,2.4-1.78,2.15-2.59-.64,1.25.93-2.94,1.87,1.36,1.97-1.35.03-1.5,1.52-.08.73-1.83.11-1.64,1.08-.03.3-2.33.08-1.77,1,0,.59-.06.64-.58.44-1.91-1.04-.22,1.86-1.29.91-1.8-.82-5.45,2.19-6.9.68,1.69,4.9-15.39-.69-14.73.88-.17,6.05-5.59-1.06-3.61,4.48-.24,1.32.52,4.85,1.48,2.4,0-.63.01-.64.5-.2.44.92,1.68,2.85,3.28,3.21,1.91,2.2,3.92,4.42,8.68,5.2,5.05,1.66,11,2.4,12.08,5.23.47-3.9,13,3.56,13.59-.51,1.1-.66,1.91,1.33.62,1.24,1.16,1.24,3.42.45,4.85,1.98,3.33,2.4,18.65-8.27,12.9,1.28-1.43.9,4.68,2.91,4.95-.11,3.11-3.96,4.4,9.95,1.37,5.82.05-3.89-6.93-2.14-3.67.3,2.65,1.28-1.91,1.12-2.4,1-9.55-1.77-3.73,3.99-7,3.24-1.01-1.02-3.23,5.28-.5,3.72-1.81.06.41-1.24.2.09-.97.71-2.45,2.08-3.49,3.48.33,1.84.22,3.09-.47,1.34-.48.6-.81,3.17-1.37,1.37-1.02.03-1.22,1.21-.31-.88.14-1.67-1.53.85-1.41,1.72.63,1.15-2.09,1.95-1.01,1.01-.13.04.9-1.78.53-2.36-.52,1.31-2.21,2.65-3.23,3.44-.12,1.38-.83-.1-.81-.44.24-.39-.05-.29-.51.17-1.08.86-.94-1.56-.45-1.58-1.17-.28-1.95,3.79-1.17,3.37.05.28-.77.65-.75.19-.31-.93-1.02-.45-1.26-.03.72-1.72.61-2.93.22-5.62-.11,3.62-1.84,7.88-2.51,3.68.47-1.65-.52-3.65-.55-.52-.94,1.95-1.29-.54-1.43-1.7-.36,1.16-.93,3.11-1.56,4.36-.48-.64-.06-4.98-1.11-2.85-5.76-.1-2.77,2.16-4.96,3.2-2.35-.26-.9.67-1.62,2.58-.51-.09.72,1.03-.37.22-1.47.1.5,1.84.14,2.28-.98.87-.62-1.14-1.2-.08.12,1.39-1.29-.51-.71-.4,1.04-.24-.27-1.86,1.01-.27.17-1.98-2.2-4.09-1.83,1.44-.79,1.35-.36-1.11-.73-.84-1.03,1.94-3.41-.08-3.83,2.3-.41.26-.12-2.34-.44-.73-.02,1.01-.46,1.32-.56.39-.79-1.24-.53-.86.51-1.46,2.31-2.64-2.8.92-2.52,1.42-.1.7-.07.75.52.6,1.49-.08-1.26.84-1.6.86-4.3.64-9.88,4.58-13.53,3.99-.5-1.28-4.08,2.12-4.5,1.9-.65,1.31-13.05,3.16-10.55,1.39,4.32-5.32-6.61,3.98-13.25.29-1.63-1.23-1.48,1.89-1.8,1.38-.79-1.42-.78-4.14-1.62-5.42-.34.88.18,3.48-.55,3.51-1.6-.26,2.31,2.38-.07,2.2-3.82,1.35-16.9-1.28-20.46-1.65-.21-.33-3.05-1.07-3.37-.87.28-.12-1.01-1.91-1.55-1.25-.55.55-1.55-1.71-2.67-1.01-.73.45.81,2.24,1.58,1.83,1.02-.95,1.17,1.83.43,1.58-.3-.68-2.45-.17-1.5.44,1.23,2.57-1.24.36-1.7,1.12-.17,3.37,5.17,5.88,7.44,8.42,3.45,6.78,35.15,12.77,24.67,16.7-3.69-1-7.38-2.22-9.57,1.42-2.84,1.17-10.58-6.08-7.68-1.16.56.34,3.04,3.63,3.45,3.85.27-1,.26.78.65.49.61-1.14,2.8-.33,2.04.77.49,1.19.39-2.5,1.71-.56.81.9-1.18-.05-.2.7-.23.64,1.23,1.5,1.17.95.03-1.37.47.26.55-.73-.39-1.25,2.36-1.57,2.72-1.98-1.24,1.95-3.91,2.71.08,2.72.85.53,1.09-1.81,1.22.98-.03,3.64.23,1.33,1,1.66.53.92.12.06.49-.1.74.61.28.44.9,0,1.01.62-.41,1.78.64,3.25.46-.02-.35-1.33.31-.44.46.58.75.55.59-.06-.21-.64.65-.59.83-1-.43.18.39,3.65-.76,2.44-.26-.57-.32.93-.46.81-.35-1.19-1.23-1.34-.53.27,2.02,1.13,2.31-.22,2.34,1.04-.79,1.59-1.66,2.78-.87,2.34,1.38-1.03.21,2.41-.13,1.72.8,1.73.02,2.76-.09,1.13-.25.14-.11,1.32-.75.75.87-2.99-.42-.63-.74-2.83-.03-.29-.52.05-.52.36.01.38.66-.27.39.2-1.16-.12-2.34,1.8-3.14.89-.24-.48-2.42,0-2.54.49.36,1.02-.97-.66-.56.23.27.49-1.75.91-.83.34.27-.14.73-1.68.19-.9-2.79,1.73-4.14,1.38-6.14,2.56.09-1.57-2.05.5-2.1-.97-.7-.98-2.98-.74-4.49-1.12-3.19.14-3.9,3.85-3.58,4.85-.99.15-2.7,4.62-1.81,4.81.56-.21.42.64,0,.59-.96.31.46.44-.2.86-.96.87,1.26,1.01.48,2.79-.15,1.26-.12,1.38.21,1.1.4-.61.62,1.52,1.33.88.03-.19-.53-.11-.45-.51-.27-1.25,2.53,1.79,2.15-.02-.23-.6.5-.02.25.29-1.69,2.56-5.3-1.56-6.84,5.4-3.11,1.09-8.39-1.32-11.56-.56-1.43.22-6.99,1.44-8,.13-1.37-1.33-2.32.29-3.83-.39-2.48-.67.52,1.32.78,1.79-.08,1.84,1.72.84.32,1.64,1.65.92,3.3,9.57,3.52,5.71-.25-.78,1.37,1.7.36,1.12-.28-.13-.94,1.05-.32.54,2.21-1.27,3.95,1.01,2.27,1.65.18.86,1.98-.32,1.04.71-1.14.77.62.18.15.68-.42.4.16,1.57-.7.79-.83-1.02-.14,1.63-.86-.3-.24-1.21-.32,1.18-1.63.82-1.35.45-.02-3.91-1.18-1.69.56.67-1.2,1.16-.32,1.39,1.05.1-.13,1.76.09.67-.61-1.6-.29,1.13-.56,1.49.37.58,1.1-1.08,1.38,0,.21.4.37.47.61.27.36.1,1.6-1.33,1.75-.49,1.09,2.43,1.01,2.62,1.15.47.54-.15,1.09,3.42,1.67,2.11.66-1.09-.14,1.5.6,1.32.42.16.15,1.99.87,1.44.59-.98.93,1.49-.44.61-.58-.25-.89.96-1.98,1.15-.26.32-.26.38,0,.31,1.52.26-1.25.83-.08,1.4,1.53.52,1.77-.76,2.61.42.13.59.89-1.99.98-.76.7.69.2-1.05.39-.84,1.34.15,1.7-.25,2.02.95-.64.57,1.31.09.64-.53-.28-1.19.73.09.5-.99-1.07-.54.7-1.82,1.16-.73-.52.92-1.35-.47-.45,1.38.66-.27.8-1.51.82,0,0,1.95.32-.66.76.31.44.26,1.9,1.3,1.9.57.19-.9,1.14-.46,1.25-.97.69-1.21,0,.29.47.33.97-1.49.94.39,2.18.14,1.93-.03-.19,2.06,1.12,2.42,1.18,1.13,5.66.78,6.72,2.1,3.26-1.35,10.21-4.28,14-2.66,3.03-1.77,5.1-.25,5.24,2.22.56-.89.47-4.25,1.02-1.02.13,1.51.29-1.34.96-1.25,1.78,1.11-.13,3.12,1.42.38,1.38-.62-.39,4.9,1.11.1.57-2,.26,1.71.39,1.63.55,0,.78-1.67,1.13-.75.01.17.18-.05.38-.5.69-2.51.29,3.63,1.16,3.6.66-.35-.37-1.74.86-1.25.58.47.48-1.41,1.4-1.41.4,1.89.34,4.03,2.69,2.5,1.55-1.58,1.55,8.35.47,3.91-.56-1.21-.02-.51.09-1.8-1.11-.64-.09-2.61-1.43-.38-.9,1.45-1.36-2.08-1.6.97-.69.94-.11-1.7-1.06-1.28-.08,1.29.19,5.08.58,4.58.4-1.44.51,1.41.82,1.44.26-1.37.07-1.18,1.07-1.95.93-.71-1.6.3-1.44-.52,1.7-.36-.87-.76-.23-1.36.79-.22.54-.69,1.54-1.1,2.57,2.16-1.36,4.07,1.93,3.1.35.83-.92-.38-.71.97.55,1.58-.17,2.39.75,1.57.63.42-.73,5.04.31,3.9.66-.12.02.39.41.58,1.67-.14,2.22-2.26,1.07-1-1.24-.93.47-2.57.55-1.98.4,1.31.91-1.72.98-.03,1.82,2-1.7.56-.02,3.18-.34.42.02,4.54.18,1.57-.45-2.04,1.92-2.22.9-1.25-.91-.21-.13,1.35-.1,1.39-.55-.13-.16,3.38-.87,1.97-.24-.24-2.38,1.44-1.69,1.81.37.63-2.45.61-3.01,1.05,0-.42-.39-.4-.83.05-.8.98-.48-2.28-1.37-.66,1.77.32-.79.28-.94,1.09-2.16,1.91-1.37,2.48-3.12,1.78-3.79,3.34,7.76-2.99,10.61-1.85,3.13.74,22.62,4.42,22.89,2.03,1.21.64,2.53,3.45,4.05,2.4,1.97,2.09,5.58.88,4.09,4.35-1.79,6.37,5.95-.37,7.2,1.12-.19.48.02.48.51,0,1.24-.85,1.29.98,2.29.88.78.35.48-1.92,1.19-.48-1.2,1.36.88,3.3-1.26,4.76-.68.27-.68.27-.12.49,1.15.6-.77,2.24-1.44,2.48.78.77,3.97,1.35,1.98,2.25.52-2.39-3.4.33-1.48.76-.35.31-1.04-.41-1.89.12-2.68,1,3.48.69,1.73,1.76-.18.64-3.02-.08-3.09.98,2.47.88,1.86,2.3,1,4.28,2.79.88-.6,1.4-.75,2.76,5.63,2.08-1.18,3.25,2.89,5.85.96-.19.48,2.02.11,2.21.75.93,2.27-1.46,2.74-1.21,0,.52-.71,1.73-.73,1.25-.73-.66-.16,2.29.5.36,1.07-1.87,1.71-2.01.53-.11.15,1.08-2.63,4.65,1.02,1.17.16.67-2.1,3.14-1.95,2.19-.53.27-3.93-.05-2.73-3.15-.57-2.01-1.41,2.71-1.73,2.79-.8-.69-2.94-4.12-1.37-.86,2.06,2.93,1.6-.32,3.09,1.2-.72,2.06,1.46.49,3.53,1.41,4.82.36-6.48.85-1.26,1.32,3.27.06,2.18-.18,3.44-.72.19-.81,5.4-2.16,4.44.02-.87.59.9,1.01.77.06-.08-1.16.41.63.72.68-.03,1.43-2.86,1.33-.19,4.23,2.26,1.72-1.14,2.82,3.09,2.61,4.86-.08-.35-.36,1-1.21,2.32.88.04-3.56,1.62-2.17,1.34-.6-1.28-4.8,3.38-3.55,6.42,1.38,16.07,1.42,22.14,2.22,2.39.03,8.41.11,9.2.75.83-1.18-1.67-1.81,6.48-1.75,7.96-.57,1.06,1.57,5.75,2,1.33-.74,10.14.38,13.02,1.04,5.23-2.31,21.36.56,23.69-3.14.29-1.46.79-2.09,3.57-2.13,3.47-.27-1.38,1.01-2.2,2.01-4.17,5.3,24.59-2.73,29.1-1.41,4.04-.34,21.26-.91,12.46-1.96-25.62,1.27-65.82.33-93.7,1.13-10.65-.34-7.02-.09-25.63-.01-2.68-.61-6.89,1.51-4.9-2.18,19.42.32,46.02.22,70.9-.6,3.16-.29,4.31-.38,10.12-.79,4.93-.35,5.05-.64.26-.69-3-.11-12.83-.61-16.78-.92-.45-1.37-3.39,1.45-4.1,0,.45,0-5.12,1.32-4.39.25.45-1.04-.42.26-1.88.35-2.85-.03,1.18-.65-.69-.68-1.45.31-1.2,1.32-2.64.31-.33-.81-1.04,1.04-1.66.02-.01.09-4.21,1.11-4.75-.36-.51-1.53.23,1.3-1.03.73-.82-.3-12.59.96-12.12-.4.46,1.76-.53-.1-.9-.78,20.25-4.22,72.4,3.49,88.32-4.58-21.84-.96-50.09.29-72.43.81,2.98-3.89,25.03-2.08,33.93-2.79,9.47.39,23.35-3.6,31.9-4.19-16.27-.26-33.8-.19-51.86.06-3.41.74-4.76-1.83-1.95-.81,3.4-1.34,26.07-1.85,33.6-1.69-10.96-1.94-36.58,1.58-44.92-2,4.62-4.73,11.79.86,19.96-1.24,3.35-.03,20.46-1.41,24.32-2.19-4.96-.46-37.48.26-44.06.32,2.33-.31-18.47.84-12-1.15,1.87-.64-1.35-.58-.96-1.16,10.18-.83,50.05-.49,75.86-1.01-9.46-1.45-42.01.59-54.65-1.08,11.78-.97,29.27.6,40.39-1.34-21.18-1.22-49.44,1.67-62.56-1.04-4.27-7.38,80.1,1.61,74.16-6.99-2.05,2.36-7.24.63-9.81.71-1.32.77,1.71-6.64-.28-2.77-1.09,2.59-.09,2.43-15.76,2.47-9.54-1.72-54.13,4.67-46.92-2.84,12.72-4.2,8.54.58,28.03-.44,11.9,1.27,14.49-.51,26.97-1.37,34.39-1.48-13.49-.23-16.42-1.94,4.54-1.76,11.99-1.07,18.95-1.95,17.44-3.38-56.31.6-61.32-2.19,22.23-5.31,39.33-2.12,65.52-5.32-3.23-1-54.95,1.39-58.07-1.12.11-.04,1.83-.32.75-.8-1.65-1.41-2.27,2.07-2.78-.35,1.1-3.16-7.91-6.77-2.31-10.09-2.72-7.53,10.63-2.78,15.21-4.21,4.18-.27,7.4,3.25,9.86.31.63-.24.18-.6-.75-.6-1.84.43-.35-3.07.35-1.75,1.6-1.17,1.06.28,2.63-.55.47,1.61-2.73,1.05-.03,2,3.31,1.3,6.11,1.36,4.69-1.82,1.1,1.92.78.26,2.13.12.99.06,3.11.36,4.42.16,6.02-1.1,6.75,6.01,7.33,2.96.86-2.79-.12,1.8,1.24.64,1.87-.81,4.99-1.56,6.38-.53,1.34.98-.59-4.12.13-4.22,2.57-1.56-.1,1.68,1.33,1.01,3.62.38,1.19-3.05,3.66-.08.27.9.52-.76.87.06.63.89.38-.95,1.05-.93.42.26.12,1.23.17,1.9-.63,1.05-1.44-1.18-2.84.53-.99-.76.39,1.81-1.87.78,1.44-1.15.77-3.3-.37-.29-1.74,2.72.25-4.15-1.38.39.35,2.62,2.31-.68,1.36,1.47-.7,1.18.95-.84.89.27.86,1.31.5-1.16,1.01-1.13,1.17-.12-.12,2.45.59,1.5.44-.35.46-.33.29.2.54.86,2.49,2.11,3.54,1.46.08,4,.44-1.19.95,1.36.47.55.75,2.45.95,1.92.5-.62.63-.55.57.33.06,2.36,1.75-2.64,3.1-2.64.83-1.34,1.6,2.56,1.65-.34-.43-1.3,1.73-1.39,1.19-.05-.44,1.96,1.08-1.03.54,1.27-.38,3.08,1.58-2.37,1.37-.31.01,1.03.47,1.06.67.05.65-2.43.69,4.82,1.33,5.38,2.76-4.72,2.23-2.15,2.01,1.51,2.31-6.11,2.95-2.23,2.66,1.06.94-5.78,2.03-5.28,1.02.26.09,2.05.78-3.28,1.43-2.55.83.92,2.33-3.75,2.15-1.89,1.7,10.13-2.76-.23-1.97,9.84-.27,2.73.88,2.99.93,5.16,1.45-.09-.85-5.96.85-4.25.15,1.57,3.97-4.09,3.52-1.45-.71,1.81,2.24-1.6.7.8-.44.45-.61,1.63-1.03.91-3.46-2.49-1.36,8.2-.72,2.91.06-.49.98,2.55.83-.04-.58-2.08,2.05-.39,1.96-1.7-.05-2.93-1.15.47-.95-1.67,2.33-2.24.91.8,1.66,1.7,1.35-1.04.42-4.82,2.09-5.29.42.18-.26,5.13.56,2.7-.06-.32-.03-1.01.07-1.53.3-2.3.32,2.95.79,2.02.26-.79-.34-4.03.95-2.81.81-.14,3.69-1.81,1.88-1.54-1.03.55.78-1.25-.48-1.93-.06.21-.49-3.26.1-2.01,4.23-3.06.07,8.04,2.05,6.2.6.09-1.04-1.39.09-1.25.72.07.03,1.66.61,1.5.8-2.31-.56-3.89,1-6.75.9-1.6.51,1.66,1.16-.13.17-.41.32-.61.33-.44,1.94.94,1.83-3.62,2.45-5.13.72.56-.59,5.34.65,1.4.25-2.37,1.16-3.14,1.16-.98-.36,1.48-.8,3.97-1.4,3.08-.42-.17-1.02,4.16-.1,4.44,2.51.97-.71-1.34.88-2.09.28.31,1.3-1.53.7-1.47-.16.23-1.27,1-1.06.33-.3-.17,2.7-2.55,1.03-1.97-.45.53-.34-.54-.11-.49,2.18-.67-.39-1.46,1.08-2.56,0,.14.09,1.41.57.37.56-1.1,1.3,1.81,1.26-.44.44.48,2.04.93,2.1-.72.74-2.84.63.71,1.86-1.91.87.06-.29,2.33.99.51q.28-.69.43.04c3.29.45-1.2,1.57.64,2.99.85-.03-.74-1.46.63-.97-.05-.64,1.05-3.11,1.31-.82-.27,1.78,1.3-1.98,1.63-1.8.63.04-.86,1.95.43.93.94-1.55,1.04,4.47,1.55.8.01-3.64,2.13-.1,3.12-2.21,1.77-5.75-.22,2.89.84,1.71,1.61-3.08-.15-2.07,1.35-3.38-.28-1.2.96,1.44,1.04-.17.02-.48.06-.45.24.17.34,1.39-.23.72-.51,1.27.44.74,1.09,2.59,1.51-.21,0-1.01.74-2.12.75-1.14.58,1.56.2-1.71.43-1.39,2.32,2.01,1.43-2.23,2.99-2.09,1.1.22,5.06-.28,4.43-1.76.79-1.12.61,1.55,1.49.24.25-.45,2.72-.75,1.71-.26-1.66,1.26,1.73,0,1.12,1.74-.09.82-1.03,7.81,1.14,6.31.17-1.64.21,2.18.97.16.99-2.63.98,1.47,1.49-.15.03-.54.15-.8.19-1.31.28,1.66,2.92-.64,2.91.19.49,2.32,1.16-.71,1.61-1.61.4-1.43,2.7-3.52-.24-2.71.34-.44,1.98-2.46,1.8-.81.52,1.41-.05-1.71,1.18-.94.9.21-.07,1.56.89.44-.05-1.43,2.91-5.14,1.63-3.06.9,1.07-.28,2.28.5,3.44.99,1.55-.16-3.7,1.11-3.69.59,3.22.16.97,1.17-.25-.34,2.67,2.69-.39,2.28.79.01.63.45.37.75,1.03.24.08-.38,2.24.32.8q.39-1.76.77-1.25c.69,1.07.85-2.33,1.12-.53.71,1.08-1.12,2.82.17,3.28,1.33-.24,1.48-6.34,1.31-1.9.13,2.32.25-.4.69-.53,2.49-2.89-.41,1.62.35,2.31.85,1.54-1.83,8.21.66,7.49,2.2-.72.67-3.58,2.57-.28.54,1.03,1.67.48,2.44,1.13,1.61.16.58,3.96,2.03,4.17-.96.62-1.1,6.1.77,2.03.43-.73.04,2.29.56,1.25,5.49-1.31-1.01,8.76,7.05,7.22-4.73-1.5-4.52-1.89-3-8.01-1.33-2.77,1.78-4.74,3.61-4.06,1.58,3.28,1.27,7.6,1.01,10.69,1.64-3.61,1.17-7.78-.7-11.09-1.1-2.1-2.55,1.02-1.79-2.28,1.04-.63,0-2.62.88-3.25.4-.63,1.39-.35,1.42-1.39-.05-1.79-.27-.15-.93-.15-.2-.2.09-1.22.33-1.14.32-.16.71-2.31-.76-1.44-1.5.15,2.16,1.66-.34,2.06.01-1.05.67-1.81-.52-.31-1.95,3.64-.89-6.05.43-3.62.1,1.2,1.12-.19.96-.94.28-.41,1.58-1.25.69-.02-1.33,1.53.56.65.28,1.28-.32,1.22.59-.02.94-.07.88-.39,1.01-.88,1.23-1.88.77-1.13.19,3.73.73.82-.06-2.98,1.5,3.64,1.82.46-1.16-3.2.57-1.34,1.9-2.59.57-.82,1.31-1.36.71-.43-.02,1.29,1.05-.75.99-1.24-2.19-1.66,1.89-1.36-.69-2.92.43-.21,1.5-.76.55-.86.8-3.44,1.73,2.19,1.88-2.66.01-3.71,3.65-2.58,1.97-3.8-1.57.16.75-1.14.47-1.54-1.12.53-1.06-.06-.28-.43.68-.22.94-4.37.13-1.03-2.18,2.78-1.51-.7-.23-.82.75-.66-2.43.42-.92-1.89.71-2.77.24-1.2-.77-1.45-.85.01-1.11,3.18-1.53,3.44.49.8,1.38-2.68,1.55-2.61,1.54-.7-1.13,2.53-.14,2.56.7.01-.23.44-.35.77,1.28.41.75,5.58-1.28,4.61-.38-1.1,2.06-3.28-.11-1-.85-2.06.7-5.74,1.03-7.5-1.44.47-1.47,3.83-2.35,4.5-.02-1.07.38-3.73-.28-1.13-.34,1.35-.77-1.22-.08-1.83.78-.9-.35-3.68.7-1.32.37,1.7,3.42-6.52.97-5.73,1.65.33-.72,3.6-.9,4.5-.71.28.1-1.96-.23-2-1.67.78-2.25,3.15-.88,1.12,1.04-2.17-3.22,10.3-.74,5.13.99.22-1.63,3.05-.26,2.88.89,0-.72.62-.48,1.06-.04,1.86-.31,1.13-.52.31-.08-.33.58-7.38-.74-3.25-1.29.19,1.48-3.23.5-3-.43.34-.58,1.16-1,1.5-.69.18.92-2.43,1.25-2.47.06-.23-2.42-.2-1.25-.56,1.91-.17.47-.96.87-1.31.36-.18,1.52-3.3.63-2.28-1.54,1.07,1.68-2.04.96-3.38.81-.71,3.19-2.49,2.88-.26-.43,1.71,1.82-.49,1.66.61-.54.16-.87,2.26,0,1.64-.83-1.46,3.16-2.86,1.74-1.49-.81.13-.15,1.62-.9.98-.33-.28-.39-.27-.35.03.29,1.35-2.24,1.92.48,1.05,1.02-.67-.8,1.72-.24,1.94,0-.2.68-1.44,1.39-2.18,1.91-1.86-.45-.95.4-3.26.5-1.65.57-1.57-.78-2.56-.33-.74-1.93.32-2.17.72.01.84-1.81-.49-1.83.64-2.15,2.45-.29-2.16-2.01-1.87,1.03,2.9-2.93-.38-3.49,1.37,0,.77-.39.82-.58.08-.16-1.02-.82.47-1.3-.21-.15-.1-1.82,2.55-3.01,1.74-.47-.1-1.44-.41-.48-.57.96-.21.64-3.34,2.01-3.17-.13-1.68-7.95-3.98-6.61-2.14-.34.41-.23.49.55.41,1.33.29-2.74,4.06-3.33,2.72.51-2.3-2.63-5.01,0-7.23.83-1.05-1.07-2.52.66-3.93-.45-1.35-1.33-2,.85-2.66,2.29-.53.46-.92-.43-.32-.94-.37,1.19-1.24-1.2-1.51-1.07-1.05-1.68,5.73-2.1,1.74-.35-3.33-.33,3.98-.94,2.24-.08-.71-1.12.87-.76-.24.99-1.59-1.96.95-1.39,1.81-.24,2.42-.39,3.76-2.19,4.44-.81-.29-.03.94.33,1.11.3-.77,1.59-.1,2.39.34.56,1.97-.67-.83-1.22.18-1.3,1.76.47-.39.27.82,0,.68-.45.05-.5.6-.29,1.5-.67-1.38-.99-1.36-.64.2.78,1.58-.01,1.75-4.8-4.17.92-.5-1.38-3.25-1.89-.76-.81,7.7-3.37,5.72,0-.56.51-1.15.66-.78.84,1.72.66-3.89-.09-2.39-.98.37.61-.85.67-1.35-.38-.58-1.96,1.76-2.44,1.45-.78.69.97,1.66.19,1.73-1.35,1.08,2.13,1.75,1.12,2.62-.21.5-2.01.72-.62,1,1.58-2.76.31,4.22,1.34,1.5,1.85-2.54.46,3.36-1.17.89-.12-.2.26-2,.12-2.14-.83-.22-.87,3.81-1.45,2.06-1.13-.71-.95-.23-1.27-1.54.37-.31-1.68,2.57-2.47,1.43-1.18-.12-2.02.08-1.46-1.91.8-2.54-.85-.84-1.26-2.28-.21-.95-.45-.98-.8-.08-.61,1.64.09-1.44-.8-.82-.96.23.08-.97.23-1.12-.41-2.35-1.69,4.51-1.79,4.25-.23-1.13-3.02-.56-.71-1.73-.7-.18-4.22.17-2.7-1.07-.81-2.24-.84.13-1.89-.78.92-2.78,2.34-.01,3.31-4.54.15-1.8-2.89-2.69-.84-5.6.67-.85-.03,2.34.9.12-.64-3.1,1.37-6.67-1.02-9.29-.37.14-.95-1.76-.24-1.07.33.27.47-1.76.7-.54.6-3.24-1.81,1.78-2.25,2,.2-1.46.93-3.27-.24-4.78.52-.21,1.68-2.49.6-2.57-1.32-.51.37-.79.68-.15.23-.37.31-1.28.72-1.7,6.89-5.74,16.77-9.46,24.97-16.74,3.49-4.98,4.47-5.49,8.31-11.07,1.01-3.81-2.25-3.17-1.03-5.12,1.26-2.14-.4-.21-.75-.67-.88-3.66-13.05,7.01-14.5,3.58-4.09-1.15-13.61,1.48-14.79-3.28-.27-.06-1.92,2.08-2.21,1.42-.5-.61.73,1.3-.3.78-.32-1.34-8.69.41-6.62-1.2-.77-2.02-9.91-.9-17.43-2.5-2.44.41-21.28-3.83-14.97-1.56-2.48,1.2-14.22-2.28-21.5-4.97-4.93-1.54-9.43-2.15-12.01-5.89-1.42-4.29,1.24-.24-.26-4.47,1.46-1.9-6.18-1.63-2.59-1.02,1.39-.25,2.67,2.19.49,1.58-8.76-1.4,2.37-5.06-3.58-9.91-.18,1.13,1.67,5.95-1.21,2-2.28.2-1.24.9-2.6-1.74-.7-1.22-2.73.19-2.58.66.97.89-6.39.32-3.87-.46-2.86-13.86,5.74.5,7.11-7.26-.69-1.38,2.14.94,2.64.79,3.81.66,6.83,2.61,10.16,2.33.43-1.19.61,1.58.78.31-.34-.82.82.26.46-.64-.47-.92,1.73-.19.16-.88-14.14-3.28,21.16-6.33,27.58-10.58,4.74-.79,5.26-4.46,9.94-5.39,5.43-1.49,8.05-3.41,5.52-4.05.58-2.86,3.84-2.57.42-4.34,2.41,2.15-5.28,2.42-8.12,2-.35-.41,2.3-.08,1.3-.53-.98-.85.84-.5.44-1.67-.6-2.5-2.18-1.27-3.11-1.42-12.09,1.53-21.96-4.06-29.51-11.42-1.11-1.57-1.56-4.37-2.71-3.06-.78-2-.99-5.39-3.4-5.71-4.23-5.45-5.14-3.09-7.32,1.46-5.6,5.71-34.07-12.28-34.43-18.99-1.93-2.09-7.04-11.66-9.63-10.04-2.9.91,1.16-2.33,1.51-3.26,4.96-7.5-2.11-2.4-2.25-5.17.16-1.45,2.83-.53,3.74-1.24,2.87-2.51-8.04-.77-1.28-5.33,3.48-2.81-4.58-2.64-1.22-4.52,1.24-.14,1.92-1.45,2.01-1.96,3.25-4.34-8.96-3.77.11-7.43,2.26-5.2-7.07-4.5.41-7.34-.24.29-.2.33.22.22,1.59-.26-1.11-2.07-1.24-1.34-.57.33-.71.96-1.63.64,4.36-5.99-2.1-2.03-.91-7.56,5.95,2.26-1.58-2.07,2.15-3.71.84-4.96-5.74.29-1.91-7.95,3.38-1.18,1.26-2.94-.72-2.64.87-.72,3.88-.98,1.36-2.32-3.94-2,4.46-1.09-.19-3.95-2.67-1.22,1.93-.78,1.24-2.44-1.57-.19-3.83-1.44-1.89-3.89,1.45-2.43-2.17-1.39-.27-4.28,1.07-1.82-.14-7.2-1.35-4.03-.44.19-1.56-1.95-1.73-.66ZM94.15,147c-2.84,4.67,7.22-.31,1.99-.23-.96.66-1.06-1.04-1.99.23ZM93.53,159.33c-1.5,2.27.78,2.49.59,3.85,1.2,1.77.68.62.98,3.13,1.07,1.67-.17.37-.61.07-.14.99-.71,1.63-1.23,2.96-.16.69-.14.71.18.28,1.2-1.07-.3,1.16.43,1.35.33-.19.61-.99.75,0-.15.88,1.23-.24.53.59-.44.88-.13.43.22.29,1.58-1.29,5.25.21,6.89-.79,1.4-.23,2.97-3.28,3.84-2.02.69-7.16-11.38,12.13-7.88-6.66,3.16-2.88-1.26-2.62-2.03-.21-4.81.03-.82-3.72-2.66-2.83ZM222.23,163.85c2.76-.28,8.48,3.33,3.9,1.5-.65,1.07-10.75-3.19-3.9-1.5ZM95.52,172.43c-.58.99-1.08,1.5-1.3.12-.8,1.04-1.98,2.72.4,3.18,3.87,1.31,8.12-4,.9-3.3ZM160.25,178.37c-9.17,6.29-5.04,10.3-17.63,14.41,1.03-5.71,16.64-13.47,17.63-14.41ZM172.5,183.79c.15.4,2.86.73,2.92,2.74.16.4,3.06.88,3.44.96.36,1.77-11.82.83-15.23,4.86-3.06,3.33-5.02,4.45-8.54,7.11-.18-2.46-1.52-7.51-4-2.68-2.18.38-.66.5-.68,1.15.02,1.47-2.11,3.33-.44,3.68.43.84-3.29,2.84-1.86.83-.89-2.1-1.04-.49-.39-2.88-.26-2.82-.65,2.73-2.13,1.24-.73-.83.83.32.44-.47.56-3.16-1.19-2.81,3.54-4.24,4.94-2.47,17.84-9.91,22.94-12.29ZM336.88,188.88c.91,1.48-14.53,4.54-10,3.02,2.89.87,9.39-5.61,10-3.02ZM227.96,192.05c1.8,1.55-1.27,2.7.41,3.76,1.92.97-.63-.93.36-.84.94-1.08.37-3.12,2.05-.89,1.88,1.48,32.03,15.36,21.44,11.21-9.61-2.49-20.43-5.83-29.42-12.34-1.86-.79.79-1.19.06-.73-.72.37.83.4.43-.25.15-1.21.02,1.04,1.58.88.45.91-.35-.11-.5,0-1.05.67,2.18,1.74,2,.97.02-.47-.74.07-.79-.32-.76-1.81,2.85-.72,1.94-1.39-1.71-1.05-.68.11-2.71-.1.54-1.07.39-2.07,3.15.05ZM62.75,195.78c-12.37,1.42,9.83-.57,8.12.31-7.65,2.17-22.58-.94-8.12-.31ZM33.57,196.02c2.07.72.37-.75,6.24.09,3.37.26,2.37.53-2.69.71-6.35.71-5.77-.99-3.55-.8ZM133.12,196.45c5.13,1.29-1.22,2.38-3.75,3.81-4.72.07,1.67-4.77,3.75-3.81ZM55.98,198.01c.05-.37,11.52-.26,10.64,0-3.68,1.39-13.53-.83-10.64,0ZM86.12,197.45c-.14.19-.68,3.02-.22,2.84,1.33.13-.44.43-.54.69.48.14,1.35,1.99.4,1.27-.46.14-.2,1.62-1.48,2.13-.45,1.54-.08-2.47-.96-.91-2.15,0-4.36,2.35-4.15-.93-1.78.4-2.41-.12-3.33,2.26-1.4-1.44,2.17-2.72,1.54-3.82-.41,1.22-1.02.72-1.68,1.18-.86,2.02-.69,4.13-1.38,1.07.25,4.24-2.67-3.3-3.47-.07,0,.36-.05.35-.39-.07-.7-1.05.09,2-1.13,1.64-.62-.84-1.19-2.67-2.11-1.25-1.45.67-.42-.3-.89-.36-.19.39-.22.99-.34,1.38-3.12.91-.57-4-2.33-4.22-2.96-.26,3.72-1.11,2.93-.42-1.43.27,1.29.47.18,1.17-.99,1.42.14,2.55.46.45.24-.62,1.87-2.65.33-1.77-1.79-.19,2.06-1,1.31-.22-.97.72.7.05.48.77-.26,1.59,1.62-1.77,1.43-.85-.09,1.19.87.09,1.1-.17.43-.18-.1,2.67.32,2.5-.73.68.94.8.8-.25-.32-1.04-.4-1.24-.09-1.67-1.13-.07,2.29-2.18,1.42-.8-.71,1.96,1.89-.55.84.94-.68,1.48,2.42-.98,2.84.24.95-2.98,3.59-2.91,8.09-2.73ZM144.69,197.88c-1.67.54.34,2.7-1.49,2.07-.28-.1.45,1.48-1.66.7-.59-.42.23-.5.57-.77.47-.81-1.32.34-1.32.19-5.13,1.85,6.19-4.43,3.91-2.19ZM125.45,199.81c.94,2.51-8.42,3.77-6.83,1.83,5.35-.15.75-.75,1.93-1.35,2.2-.23,3.17-1.51,4.9-.48ZM117.52,201.5c-4.37,3.65,5.12,1.36,7.86,1.64.06-.44,3.05-.27,1.62.59.05-.89-2.17.68-2.62-.07-.98.68-.12-.57-.74.05.02.43-.1,2.07.48,1.83,2.8-3.26.93.51,2.16.4-.91,1.03-8.63,1.58-10.39-.16,1.43-1.14-.45-1.34-.88-1.51-.3-1.31,2.96-4.45,2.51-2.78ZM146.74,202.29c.86,1.77-3.03,3.68-2.96,1.58-.72.9-.58,1.27-2,1.48-1.99.95.57-2.89.45-3.26.97-.75.95.62,1.4.75-.16-1.13,2.76-1.86,3.11-.56ZM130.17,205.84c.5.21.7,1.74.33,2.56-1.87,2.68-4.49-4.7-.33-2.56ZM31.83,211.4c-3.52,2.95,3.42,6.32,3.55,2.2.25-1.95-2.29-3-3.55-2.2ZM178.76,248.71c.23.67.34,1.49.61,2.14.55.31,1.44-2.3,1.37-.62.17,2.37-3.3.9-.83,2.22,1.41,1.34,1.47.51,1.53-1.73.59-1.76.47,1.54.31,1.98.45.92.79-4.91.96-2.23-.58,2.26,2.8-2.55,2.52-.1-.1,1.36,1.63-1.5,2.05-.17.51,1.24.48-.02.87-.36.13,1.46.62.33.56,2.95.16,2.82-.02.78,1,.54.95.55.88-1.77,1.16-.1.19,2.54.43-2.22.99-1.38,2.73,5.78.66-.94,3.11,1.74.54-1.12.88,1.37,1.02-.11,1.77-3.61,2.12,3.64,3.13-2,1.03-.68-.63,2.71,1.05,2.1.63-.02,1.48,1.48,1.49-.15.2-.82.44,3.69.48,3.31,1.21,9.36,3.14,4.38,5.08.56,1.01.21-1.14,1.17.32.91.35,1.23-.04,3.4,1.08,4.8.04,1.23,1.68-1.44,1-1.27-1.08-.78.85-1.42.62.74-.48,2.4,2.85,5.76-1.4,5.41-3.48.92-1.5-2.46-2.45-2.16.57,3.47-3.53,2.35-5.82,2.43-12.21.87-25.33-.56-37.52.23-7.39.86-2.7-1.54-2.59-4.64-.06-4.04,1.01-5.76,1.9-8.83-.17-.99,1.8-4.2,1.37-2.91-.42,2.29,1.29-.12,1.79.89.07.15,1.4.86.91.21-.55-1.16,1.49,1.13,1.17-.09,0-.69.36-.63.98.15.98,1.01.23-.07.02-.42.75-1,3.03,1.43,2.74-.42.19-2.85-1.68,2.04-1.82-.96-.06-.94-.36.17-.61.33-1.07-.08,1.19-1.91,1.19-1.67,1.62,1.18.08-.42.72-.45.49-.19.82,2.04,1.17.75,1.02-1.54,1.11,1.73,2.6-.59.62-.74.21,1.78.54,1.78.75-1.8,3.4-.59,3.6-2.77ZM351.12,251.11c1.16.51-.32,1.17-.99,1.84-.58.88.53.26.37.77-.89-.27-.03,1.57-.62.92-2.66-1.54-1.55,5.76-3.8,5.2-1.12-.21,1.28,2.34,1.16,2.9-.22.06-2.17-.01-3.3.31-1.14-.37,1.3-.65.75-1.7.11-2.01.5,1.35.69.25,1.12-1.88-1.51-.94-.31-1.86.33-.59,2.85-2.78,1.56-2.43-1.64,2.32.79-1.52-.46-.89-.81.39.63-.93.46-1.08-.38.71-.86-.56-.08-.5.43.17.82-.22.83-.83-.03-.71-1.27,1.21-1.21-.1,1.48-1.23,2.78-4.05,4.96-2.78ZM154.89,260.8c.09,5.88.56,4.49,1.47,1.17.54-.92-.16,8.53-.82,4.56-2.19.92-.51-17.45-.65-5.74ZM328.98,257.74c-.49.55-.22,1.91.35,1.79.6-.08-.88,1.66-.69.63.32-1.05-.98-1.37-.66-.29.64,1.33-1.43,2.42-.56.86.35-.56.08-.99-.36-.55-1.15.08-3.06,1.39-1.54,2.3,2.15,1.34-3.1-2.35,2.97-.41,1.51.86-4.38,2-3.85.05-.74-2.09,3.71-1.91,2.8-4.79.17,3.54,2.4-2.19,1.53.43ZM316.16,261.72c-.78.85,1.83,1.7.78.58-.9-1.22.65.1.9-.75.73-.83-.61,2.61-1.22,2.55-1.56,2.1,2.22-.55,3.76,1.2q1.05.63.26.8c-2.37,1.16,2.8,1.09,1.72,1.91-.13.24-10.01,1.28-7.25-1.26,1.28-1.9-1.1-.07.59-2.02-.92-.77.93-6.6.47-3.01ZM214,260.91c-1.36,1.91,2.13-.02.05,1.31-1.16,1.75,2.27-.71,1.19.67-.81.6.48.77.38,1.46.17,1.21.52-1.19.47-1.36.92.77.97.55,1.73-.22.66.25,1.2,2.84,1.67,1.03.4-.53.03,1.87.76,2.16.19-.62-.1-2.75.84-.5.75-2.57.89,1.24,1.78-.09.43-1.77,1.63,1.73,2.08-.37.53,2.67.88.36,1.78,2.03,2.24,2.49-3.19,2.25-6.11,1.12.06.05-3.07,1.4-3.71-.19-.24.04-2.52,1.18-1.36.46,1.23-.68-.58-.85-.69-1.59-1.54,4.96-2.14-6.86-.87-5.94ZM313.68,262.85c-.13.73-.12.74.36.31,1.34-.37.64,6.3-1.33,5.08-1.49-.39,1.22-9.69.97-5.39ZM307.17,262.77c3.86,3.25-3.33,2.19-3.78,1.56.9-.55,3.92-1.97,3.78-1.56ZM277.38,263.34c-.87-.09-.71,4.98-1.75,3.6-.11-1.34-1.1,2.52-2.81.82,1.76-.96-2.11-.01-.69-1.65-.18-2-1.05,1.69-1.13-.25-.05-2.76,3.87-2.29,4.13-1.81.43.42,1.98-1.72,2.25-.7ZM365.01,264.04c.61,2.33-2.66,1.38-.5,2.6.56.13,1.57-2.3,1.1-.5-.71.83.67-.28.53.58.5,1,.28,1.38-.23,2.19.16.86,1.84-2.39,1.98-1.02.03.91.42-.79.84.15.43.57.66.55.66-.03-.49-1.13-1.74-1.19-2-1.65-1.48-.05-1.14-3.47-1.83-2.44-.07.56-.62-1.8-.54.13ZM358.38,264.75c.28,1.59-.06,6.22-1.5,7.72-.54,1.49,1.42-1.17.51.85-.97,2.17,2.8-1.3,1.85-.94-.69.48.24-2.36-.4-.91-1.13,1.4.55-1.6-.37-1.25-.32,0-.35-.07-.11-.36-.28-1.22,2.58-6.18.02-5.11ZM229.05,265.53c-.45,1.83,1.21,2.14,2.33.44-.69-.32-1.86-.75-.1-.52.75-1.39.22,2.47.14,2.21-.63-1.33-.16.52-.66.22-.37,1.36-4.11.95-1.38.25-.44-1.45-.98.61-.99-1.15-.16-.42-1.26,1.55-.98.09.42-.2-.24-1.47.26-.91.88,1.13,1.52-2.66,1.39-.63ZM210.45,269.81c10.21.72,20.6-.12,26.42,1.05-1.48.66-20.97.25-19.46.71-12.37-.45-19.66.34-33.05-.49-.72-1.74,20.98-.53,26.09-1.27ZM163.82,269.99c1.49.68,4.68-.28,4.68,1.18-.35.67-7.26-.22-5.33-.16,1.74.05,1.26-.93-.78-.53-6.05-.21-1.77-.94,1.43-.49ZM2.37,272.26c.87,1.2-2.68,2.42-2.13,3.05-.21,5.67,2.26-.23,2.98.22,2.75,0,2.73-.56.46-2.06-1.48.03,1.05-1.9-1.31-1.22ZM223.53,272.4c.55,2.17,2.93,5.79,2.02,8.02-.53,1.23,1.42-.65,1.31,1.15.13,1.29-.93-1.72-.99.17-.7,1.22-6.7,1.21-3.37-1.51-12.43-2.95-41.45,1.32-61.3-1.34.11-.38.64-.05.67-.43,0-.92-.29-.9,11.69-.68,3.16.75,6.94-.71,9.83.04,6.66.4,13.15-.57,20.12-.11,7.55-1.24,13.04.72,18.99-.6,2.78-.56-.6-1.02-1.21-1.2-.6-1.21-.95-5.31,2.24-3.52ZM194.33,275.5c2.95.52,11.23-1.26,11.73.46-2.82-.13-13.51.74-15.62-.09,1.34-.31,2.6-.87,3.89-.37ZM189.77,280.78c16.61-.61,17.69.75,30.68.74.95,1.48-3.36.48-4.17.64-3.45-.52-64.9,2.45-57-.87,9.04.3,20.97-.77,30.5-.51ZM156.28,291.02c.38.58-1.15-.43-.46.25.35.66,1.28-.65,1.46.08.74,1.25.93-.99,1.77-.52.15.25-.99,1.99-.03,1.03,1.67-.45.17,4.1.61,5.27,1.73,1.32-3.98-.22-4.27,1.03-1.09.4,4.28-.14,4.38,1.01-.18,1.43-.29-.48-1.21.25-1.23.14-2.53-.43-3.86-.77-.59.19-1.63,1.41-2.33.69.09-.7-.56-1.83.53-1.1.82.69-.54-4.16,1.66-2.36,1.81.74.45-2.85.08-3.57-.04-.91,1.05,1.1,1.07-.08-.2-.38-1-2.18.58-1.2ZM255.49,297.17c.6,2.85-1.23.83-1.29,2.2,1.06.58.8,2.91-.08,1.1-2.87,4.53-1.17-5.19,1.37-3.3ZM172.44,297.67c-16.88,1.16,13.6.99,14.69,1.49-4.44.72-16.69-.42-20.05.9.08.99,13.82-.2,14.45-.14,1.04.92,57.71-.27,17.66-.53-6.36-.03-11.56-.13-11.56-.23,43.78-.54,9.26-2.46-15.19-1.49ZM41.89,300.79c-.86,1.69.06-1.04-1.6.47-1.09-.57-1.52,2.36-2.86,2.33-1.33-1.31-1.43,1.88-2.31,1.15-.22-.35-.26-.33-.34.23-.36,1.51-.43-1.26-.59-.35-.19,1.28-1.15,1.05-1.74,1.52,1.95,1.01,7.61-3.31,9.83-2.02,1,1.04.35-.3.84-.78.11-.53-2.35.58-2.03-.17-.25-2.06,1.92.26,1.75-1.38-1.09-1.35,2-1.08.71-1.59-.78.5-1.3-.95-1.67.61ZM155.62,300.31c3.3.11,6.44-.38,7.92,1.53,1.92,1.34-2.28-.51-.92.64.57.35-.28.14-.26.44-.07.22.97.28.85.02,2.15-.02-3.21,1.01-3.6.34-.02-1,1.76.58,1.33-.88-1.26.25-4.28.34-4.18.92-.61-.66-1.1-1.73-1.87-.78-.96-1.46-.63.65-1.45-.57-.28-1.17-1.04.21-1.05-.31-.03-.62-.52-.55-.52.07-.22.62-2.05.18-1.43-.7-.39-.55,2.09.63,1.82-.53-.07-.22.05-.15.27.16,1.18,1.24-.55-1.3,3.09-.35ZM242.32,300.92c-.66,1.81-.3.54-.95.22-.21,1.91-1.79,1.94-2.24,3.21-1.2,3.84,6.16-4.63,3.19-3.43ZM198.35,312.56c3.96,2.26-45.27.9-16.1.53,10.84.11,9-1.12,16.1-.53ZM303.95,313.29c-1.38,2.01,2.51,3.4,2.92,1.22,0-1.04-2.33-2.01-2.92-1.22ZM161.91,316.22c2.26.24-.51.45-.6.67.41-.07-.32,3.45-.58,2.46-.84-.98-1.4,1.68-1.19-1.56.02-2.33-.26-.53-.4-.81-.96-1.34,1.79-.7,2.76-.75ZM57.25,318.03c-4.42,1.84.07.89,1.23.63.09.3-.18,1.38.66.31.22.65.08,1.17,1.15,1.07.65.36.22,1.97-.67,1.35.02.42,1.31,1.61-.03,1.07-.49-.43-.41-1.8-.73-.24.15,1.52-4.38-.56-4-1.99-3.73-.27,10.47,7.88,8.47,2.74,5.85.47-2.99-5.6-6.09-4.94ZM308.69,325.17c-.68.11-1.43,1.55-1.19,2.3,1.63,3.65,5.31-2.45,1.19-2.3ZM56.87,329.01c-4.28,2.26.72,4.81,3.82,2.63,2.36-2.72-1.81-5.54-3.82-2.63ZM176.87,328.34c1.59.45-13.57,1.16-13.5-.1,1.81-.35,13.2-.26,13.5.1ZM322.77,333.73c-2.17,2-.58,4.94,1.87,3.45,2.24-1.12,1.01-6.58-1.87-3.45ZM165.97,334.66c1.11-1.55,17.83.55,5.9,2.21-1.81,1.03-2.88-2.06-3.57-.38,1,1.17-5.72-.05-3.17-.26.73-.79-1.36.06-.94-.57.23-.5-.57-.54-.57-.93.2-.36,2.32,1.53,1.93.45-1.33-.38.79-1.41.42-.5ZM305.94,335.34c-4.39,4.83,6,4.39,1.55-.05-1.07-.62-.73-.76-1.55.05ZM254.54,336.99c1.28.93-13.81.32-13.81.76,1.08.78,20.37.83,13.81-.76ZM313.72,339.12c-1.45.72-1.83,2.67-.63,3.26,2.98,1.35,4.12-4.94.63-3.26ZM168,339.47c-1.16.32,2.57.38.61.84-1.88.48-2.24-.17-3.27-.21-1.6.27-7.86.34-7.14-.62.68-.24,10.36-.26,9.8-.02ZM100.6,341.74c-3.94,1.15-10.57,5.92-14.58,3.48-1.57-.88-1.72.49-1.33.98-1.19,1.71,1.32-.57,1.57.78.99,1.29.35-1.13.64-.97.7.37.09,1.64,1.34.82,1.43-.7.93,1.35,2.65.21,1.74-.85,12.71-5.74,9.72-5.31ZM169.94,346.09c1.22.44,5.48-.37,3.37.7-1.29-.32,1.13.7-.3.62-3.65-.49.13.12-6.97.1-4.83-.43,2.61-2.39,3.9-1.43ZM330.45,352.47c-2.39-.15-4.84,3.4-1.42,4,1.32-.11,4.26-5.99,1.42-4ZM277.32,354.39c-.57.6-2.02-.62-1.87.92.65,1.27,1.68-.89,1.49.42,1.14,4.2,4.63-3.39.37-1.35ZM254.63,363.37c-11.01,1.27-141.69-.3-111.5,4.11,11.01.15,22.6,1.09,33.1-1.05,8.04,1.94,16.93,0,27.15,1.15,3.8-.3,49.7-.22,48.3-.72,2.12-.16,2.47-.13,2.6.22-.35.94,6.25,1.85,5.88.67.9-2.15,7.04-1.51,8.54-1.61,4.52-1.92,2.68-.68,4.81,1.84,5.58-5.57-4.41-2.36-6.88-3.12-4.14-1.38-7.73-2.05-11.99-1.48ZM185.8,368.73c-26.44,3.25-61.32-.02-84.44,2.24-5.46,3.83,16.24.51,14.27,2.73,2.23,1.96-12.07-.02-14.98,1.21-3.59-.03-4.36,2.99.36,3.5,21.31,1.35,46.87-2.74,68.75-2.14,21.88-1.15,41.85,1.1,61.25-3.53-40.34-2.08-80.51,4.13-114.58,1.2,7.96-4.71,87.49-1.33,69.37-5.21ZM191.39,369.45c-1.59,1.64,23.55-.59,8.05-.44-5.63.31-4.97-.14-8.05.44ZM240.68,372.21c-5.36.8-.98,6.08-.23,1.22-.15-.73-.13-.75.43-.45,1.4.46,1.79-1.68-.2-.77ZM189.38,379.66c-2.17.84-13.98.59-11.93,1.48.29-.21,2.17,1.05,1.37.42-1.9-.91,8.94.32,6.36,1.39-2.19,1.13-20.64-1.5-20.58.13,1.8,1.45,5.25,1.87,8.4.84-.37.2,5.9,1.67,4.75,2.06-1.84.38-1.78-.15-3.93.18,11.8,4.85,57.87.35,80.25-1.83-4.46-4.26-26.4-.51-34.12-1.59.05-.6-16.65,1.49-6.88-1.06-6.08-1.47-16.51-.83-23.69-2.01ZM150.31,379.93c-1.84,1.3-5.8,1.56-7.69,1.77.44.34,21.7.58,22.51-.84-4.79-1.09-10.69-.99-14.83-.93ZM196.18,381.1c8.38.35,13.49-.2,10.58,1.11-6.76-.05-11.65.36-19.2.12-1.69-1.28,5.89-1.39,8.62-1.23ZM286.07,386.11c-52.66,2.3-111.5-.1-162.38,7.51-1.29,1.53,3.47-.04,7.82.27,5.97-.25,20.01-.27,8,.45-6.95.42-30.12,1.73-11.25,2.78,39.84-.15,81.75.98,121-1.6,5.38.02,19.56.25,23.73-3.43,3.51.88,6.27-1.48,9.31-2.74,2.01-.77,9.76-2.55,3.78-3.24ZM238.38,397.37c-.14.52-2.08.62-.7,1.22,1.09,1.14-4.72.26-4.45.47-.13.34-1.01.37-7.28.28-8.81-.28-6.98.33-7.55-1.61,1.99,2.78-11.54.55-6.96,1.91,17.04,1.57,32.97.66,47.68.71-.83.46,4.59.59,3.97-.61,5.54-2.32-6.51-.93-5.97-.95-5.89,2.69-13.61-1.58-18.75-1.4ZM256.88,401.29c-10.02,2.67-32.57-1.45-43.53,3.26-1.42,1.69-7.99-2.18-10.01-.42-1.12.08-4.92,1.28-2.96,2.07.71.95,4.51-1.26,3.18,1.54-.14,1.44-9.47.36-2.72,1.69,6.36.24,4.18.13,8.02,2.82,7.76,2.72,16.41-.22,25.54,2.51.38.91,1.24-.66,1.84-.53,0,1.54,2.5,1.15,2.77,2.5,2.61,1.78,13.82.98,17,.58,5.17-.62,12.17-2.88,11.61-5.83,9.94-2.34,26.06-4.62,35.76-5.53-15.98-.93-33.17-2.65-46.5-4.66Z"/></svg>