<?xml version="1.0" encoding="UTF-8"?><svg id="Layer_1" xmlns="http://www.w3.org/2000/svg" width="342" height="306" viewBox="0 0 342 306"><defs><style>.cls-1{fill-rule:evenodd;}</style></defs><path class="cls-1" d="M136.9.26c-.5,2.06-1.35,5.4-2.76,2.45-.36-.03-1.4,2.73-1.14.87-.05-2.09-1.16,1.65-.33,2.17,3.56,3.96-12.84,12.36-3.17,8.06,1.03,1.79-10.37,7.31-2.02,5.02,3.63-.09.87-3.32,4.31-1.36,2.21-.11-.29-1.71-.94-1.77.81-.81,2.07-.99,2.8.84,3.1,4.02-.12,5.58-2.5,1.79-1.76.31-1.73.29-1.61,1.62-.09,5.48-1.53-2.55-3.32.33-2.7,1.36,3.32,2.42-.06,5.45-.72,3.92-7.51,3.6-6.68,6.64-2.59-1.27-3.33-1.15-1.63,1.47-.43.88-2.86-1.57-3.46-1.87-.7-1.1-1.35-2.05-2.24-.37-1.03.35-2.46.08-1.82,1.83,2.75-.2,5.06.57,6.63,3.28.53-.95,5.98-3.7,4.74-1.28-2.18,2.98,4-1.79,3.05.4-1.26.83,2.68,1.19,2.15,2.72-1.25,2.56,5,2.07,1.61,5.73-.05,1.83-4.06,1.76-4,4.16.4,1.29-4.76.12-4.06,1.92-.44,1.72-8.49-.82-5.2,1.8,2.4,2.9-4.21-1.63-5.9.54-1.68.19-3.42,1.43-.27,1.17.25-.94,7.04.54,5.39.68-.54.21-.46.53.22.89,5.22-1.46,4.13-2.79,8.77.81,2.38-4.97,4.38.9-1.01,1.71-1.53,2.8-5.44-1.84-4.03,2.52-1.52,1.16-3.25-2.82-3.95-.77-2.06,3.19-3.2-1.27-4.6,1.22-4.85,3.52,5.97,1.13,3.76,3.53-2.2,1.62.94,4.46,3.36,2.7.92-.07.97-.13.97-.89-.54-1.63,4.36-1,4.34-2.45,1.62-2.34,1.01,3.08,3.47,1.25,4.41,1.64,2.67-2.7,4.82-1.6.35.6,1.36,4.74-.12,2.78-.53-.93-.48-.31-.89-.03-2,2.43-11.21,1.25-6.24,4-1.57,1.55-4.72,2.47-6,3.63.86.03,1.87,3.48,2.33,2.35,3.14-3.93,2.05,2.15,1.44.41,1.26-2.8-2.23,3.5-2.53,1.78-.84,1.4-3.91,1.06-5.54,1.69-2.36,1.74-1.07-5.52-2.34-.77-1.47,8.65-3.32.39-4.79,5.29-.02,3.71-2.83-.25-2.55,3.07-.74,1.63-3.54.21-1.65,3.9-.29.75.4.43.9-.42.98-2.14,3.86-.57,3.71-3.14,3.27-2.56,2.47,2.13.29,3.35-4.63.41,5.34,4.89-2.13,7.08,5.7-8.79-5.19-.72-1.84.04.67,0,.02.52-1.1.89-7.22,3.25,7.15.67,4.55,2.51-.55,1.27-3.1.54-3.38,1.8-.61,2.31-6.13-2.1-8.61-2.59.82-.47,6.19-7.07,2.45-5.28-2.61,2.77-10.21,1.99-13.27-.78.14-.83-2.29-1.1-2.82-.54-.12-.85.82-3.48,2.65-3.25.99,3.01,2.28.39,3.51,2.55q.38,1.05,1.68.98c1.21.82,8.47,3.22,4.81-.28-2.24-.29-5.95-.97-4.14-4.3,1.51-1.14,7.71-1.02,2.56-2.72-.68.43-.76.24-.29-.71.96-3.53-2.59.61-3.4.24-3.1-1.52-1.56-5.12-6.08-4.36-4-1.28,1.24-2.32,1.83-3.15-.18-2.32,7.28,5.07,6.02-.1.14-1.14-2.85-3.75-1.51-1.51,1.26,1.12-1.75,1.67-1.91-.22-5.21-2.93-2.55-14.45-4.24-15.47.76,5.41-4.92.38-3.31,5.48-.18.03-.94,4.86-1.01,2.13.1-1.04.08-1.07-.53-.92-2.41.18-.73,3.26-1.82,3.18-1.23-.99-2.23.03-1.33,1.36,2.84,3.7-4.57,1.25-2.47,4.09.48.39.2.62-1.26,1.01-3.65.65-1.8,4.58-.12,1.85.85-1.88,2.09,1.42,3.3.17,5.04.27,1.76-5.61,4.13-4.48,1.56,2.59,1.09,13.78-1.58,6.22-1.87-3.77-3.26,1.46-5.74,2.47-.6,0-.89.87-.48,1.4.28,1.18,2.2-2.16,1.53.12-3.27,3.7-8.1.57-9.21,5.9-2.47,3.36,4.65-.67,5.67-1.08,1.62,7.33,8.19,1.96,5.12,4.73-.82,2.55-7.7-.75-6.75,2.78,0,.82,1.84,3,.05,2.9-.92.16-1.24-1.54-2.07-1.5-1.29-.66,1.13,3.15-.86,1.89-1.1-.46-1.01-.49-1.23.53-.9,1.18,4.58,2.89.92,3.28-1.89.73-9.55,7.97-7.11,6.45,9.53-5.54.79,2.09,1.59,3.85,3.34-.33,9.12-4.01,9.83-5.75-.35-1.64-2.39-4.09.26-5,.72,0,.71-.05.22,1.12-.9,1.36.92,1.7.81,3.05.43,3.33,4.14-2.3,5.65-.2-.14,2.68-6.21,1.67-7.19,5.11-4.48,9.09-8.53.9-6.38,8.52-1.77,1.91-2.44.49-4.46,3.59-3.16.73,1.53,1.88.83,3.11.44,4-8.06-.41-6.86,2.44-.03.33,1.27,1.9.16,1.35-.93-.37-.53.53-.15.63,1.22,1.04-3.4,2.47-2.01,3.6-5.01.71,1.79-2.8-.88-2.37-.06.24-1.15.43-1.01.01.35-.4-2.04-.13-1-.49.54-.17,1.34-.04.56-.6.82-.21.06-1.34-.8-.52-.88-.04-1.57-1.43-2.49-1.4-3.02-.22-2.37-3.22-.03-2,1.37.88.69-1.03.27-1.35.34-1.38-3.93-.78-2.09-2.88,3.75-1.44-1.9-3.3-.93-5.97.46-2.73-1.14-1.27-.5-2.15-.64-6.71.34,14.41-8.05,13.97-.76.95,5.08-.53,4.69.55-.04,1.45-1.34,4.63-3.22,4.2-1.7-.41-3.95,3.72-3.84.77-.18-.34-1.08.35-1.59.42-.53.64-3.35.97-2.57,1.27.49.83.16,1.27,1.01,1.06-.58.27-.32.55.47.51.79-.83,2.73,4.14,2.97,2.89-.04-.31,2.65-.78,1.86-1.16-1.67-1.32,4.11-1.71,3.89-.74-.71.17-1.08,2.24-1.86,2.29-2.01.05.41.01-.8.93-1.18,1.25-10.69,3.85-4.22,3.02,2.65-.75,3.2-.39,4.38.11,1.28-1.61,3.43-.41,2.22.82,2.76,6.81-4.63,3.79-4.86,5.89-2.09,1.72,3.72.82,1.05,4.01-3.34,1.78-4.76-2.05-2.57-3.4.43.16.59-.19.19-.43-.84-.25-.42,1.58-1.11.54.45,1.05-1.13,2.5-2.18,1.81-1.3-2.9-2.88-.43-3.47,2.78.25,1.08,4.2.83.61,3.26-.05-.32-2.41.3-.87-.57-.84-.04-.03-.51-.23-1.08-1.11-.23-.23.89-1.27.81-.11.27.81.49.2.53-1.11,4.88-4.8,1.04-3.58,3.51,1.97,3.72-4.98,5.69-4.77,8.57,1.05-.57,2.49.04,3.46-.44,1.81-1.54,1.61-3.48,3.34-3.13.46-4.43,4.19,2.5,5.77,1.06-.35-2.17-6.51-5.86.16-4.21,2.02-1.15-1.86-3.31,1.4-4.93,5.88-3.66-1.52,4.33,2.84,2.59,1.39-1.88.23,1.42,1.02.1,1.33-1,6.69-4.18,3.65-.72-3.75,3.16,1.81-.96,1.89.34,1.19,4.4,4.59-3.64,7.98,3.1-.94,1.43-.42-1.45-1.77-.19-1.38,1.25-5.33-1.98-5.32.02.79,1.12-2.15,3.32-2.86,1.98-.5-.91-2.06.19-.82,1.09,1.08,2.3-2.29,1.11-4.1,5.46-2.12,1.42-1.62,6.13-3.78,6.82-1.34,1.05-8.86,6.5-4.21,4.07,1.21-3.67,6.14,3.58,2.23.42-1.47-1.11-.02,1.18-1.36.7-3.02-.46,5.15,4.57-1.18,2.1-.1-2.35-8.18,4.21-9.8,4.68-2.27.83,1.15.6.47,1.86-.29,1.36-.86,1.53-.86.26.02-1.52-2.35.54-1.15.83,2.59-.27,1.18,2.03,1.09,2.52,1.63-1.53,4.18,1.63,4.06-2.07,0-2.64,3.31-1.7,3.62-3.38.88-.08,3.14,3.08,2.84.62,1.54-1.25,6.05-8.77,9.55-7.38.45,1.42,2.16-1.5,2.96-.59,1.08.74.44-.66,1.3-.65.78.51-1.95,2.56-.81,3.92,1.29,5.08,3.9.47,6.05,2.47-1.2,1.62-5.59,3.98-7.57,4.85-2.04.72-.94-2.79-3.06-.02-1.47,5.51-4.74,7.24-7.93,11.69-2.15,1.06-2.35,3.79-.3,1.19,1.61-1.71,4.33,1.13,6.39-2.99,2.45-4.09,6.38-6.87,10.43-4.44.57-.52,1.23-.57.81-.06-.43,1.36,2.28-.72,1.12.88-1.14,1.26,2.32,3.14,3.54,1.92,3.35,2.63,7.57,5.39,11.82,6.04,1.29,2.09-.03.02-.86.64-1.46,1.68,1.57,4.7,2.86,4.19,1.04-2.3-.3-2.67,3.21-2.61.94-1.42-1.84-.55-1.11-.97.56-1.36-2.58-1.8-1.99-2.44.86-1.06,1.44.26,1.68-.31-1.26-2.43,5.78-4.95,2.86-1.69-1.7,1.86,5.23-1.43,6.17-1.98,1.76-.66.23-2.44,2.68-2.15,1.49,1.24,5.96,1.9,2.75-.38,1.4-.67-3.14-2.79.9-1.93,1.18,1.11,2.04-2.42,2.02.05.74-.82,1.82.35.45.44.13.08,1.07,1.58,1,.14-.37-1.67,2.08-.58.81-1.27-1.09-.34-.3-1.16-1.74-.8-.44.13.86-.75.85-.48,1.23-.82-1.23-.42-1.18-.86.48-1.15,4.17,1.51,3.21.28-.53-.09-.54-.12-.14-.52.59-1.25-1.99.51-.86-1,.07-.36,3.1,1.19,3.07.7.23-.34-1.24-.43-.3-.46.81.06-.22-1.13.59-.99,4.94.01.28-2.11-.86-1.48.44.6-.94-.02-.74.35.28,1.4-.81.23-1.55.26-3.47-.37,2.64-1.65,2.54-1.96.7-2.31-3.59-.66-2.99-1.23,1.56-1.39-2.24.14-.61-.94,1.2-2.76,4.46-.13,5.92-1.02-.57-.59-1.43.49-1.22-.77-.4-.27-2.4-1.49-1.78-1.51.62-.8-2.56-1.73-2.88-2.5,3.53-1.38,4.12-.45,2.64-4.04-.06-2.55,4.88-1.36-1.5-4.01-1.65-1.42,4.11,1.68,5.11.44,1.81-.68-1.96-.55.5-1.62-1.84-1.67,1.03-1.04,1.83-1.94-.54-.51,2.42,1.44,1.57.44-.69-.43-1.83-1.5.11-.85,1.37.33,3.23-.19.61-.55-.69-1.13-.88-1.08-1.77-1.06.57-.76-2.72-.45-1.48-1.29.43-.71-.74-1.16,1.04-1.14,2.3.18,4.78,1.75,5.37,2.04-.85-.39.43,1.39.78.61.29-1.13-1.59-2.3-2.69-2.25,1.11-1.08-2.93-3.16,1.2-1.64,3.06,1.21-.18-1.52.78-1.63,2.06,1.72,2.75-.87,4.79.67,2.45-.63-1.01,2.04.34,2.09,1.22,1.06,7.84.13,3.31-.41-3.36.69-1.03-.61-1.96-1.24-1.92-.59,4.22-.37,2.65-1.03-.72.14-.52-.58-.94-.72,1.73.22,1.96.33.85-.73.34-1.21,1.63.84,1.84.25.11-.65,1.7-.42.56.28-1.3.65,2.93.15.87-.76-.77-.64.27.18,0-.44-.61-.9,3.42,1.05,3.41.81,4.97-.63,5.53-1.25.53-1.68-.94-.95,2.72.52,2.77-.44,1.06-.75,3.85.89,4.85.21-2.07-2.52,3.31.95,3.5-1.1.32-1.5-1.95,1.44-1.78-.33.5-.78-.73-1.09-1.11-1.44.65-.59,2.07.13,2.45.72,2.94.26,1.07.09.82,1.56.88.54,1.4-1.36,1.93-.6-.93.87,3.3,1.81,2.35,2.9-1.3.56,3.73.29,3.08.07-.8-.74.84-1.53-.5-1.22-2.17-.22-2.77-.61-4.4-1.86-1.92-1.29,3.1-1.08,3.78-.42,2.04.7,2.7,2.86,5.1,2.38,1.33-3.1-.2.43-2.87-2.69-4.49-1.16.38-1.63,1.28-1.39-1.04,2.03.99.32,1.37,1.19,5.31,1.27-1.7-3.28,6.81.38,1.22-.09-.97.66-.06,1,.52.51-1.87-.07-1.5.66,2.95-1.15,5.81,2.35,9.2.89,1.6-1,.75-1.86,2.78-.59,2.33.29,1.28-1.08,1.66-1.98,1.06-.95,4.3.27,1.86-.96-2.27.13,1.6-1.69.17-1.31-1.15-.19-2.84-.71-1.44-1.82,1.25-.05.42-1.46-1.58-1.71-1.82.18-.01-.96-1.3-.76-.42.16-.46-.21-.06-.61-5.52.39,3.42-2.07,4.48-3.08,3.15-2.08-.23-2.05-1.64-.47.36.38-1.07,0-.69.17,1.78,1.3-1.9.55-1.31,1.41.12.83-3.24-2.24-.94-1.71,1.24.49-2.38-2.13-2.03-.51.38.8-2.43-.59-.59-.8,1.03-1.14,1.86.3,2.27-.96.79-.78,1.15-.03.68.65,1.27-.05,1.42-.79,2.6-.26,1.98-.17.34-.58,1.38-1.49,1.52-.9-2.15.13-1.92-.69-.12-.55-1.02-.86.18-.65,1.88-.03,4.41,2.84,5.11,1.57-.37-.39-1.95-1.44-2.42-2.56-.22-.47-.39.66-.38.53-.18-.32-1.34.46-.51-.34,1.53-.35-3.82-3.43-.75-2.52,1.22.18,8.67,2.61,5.19.82-1.2-.77-1.18-1.64-2.5-1.96,1.51-.94,3.92,1.09,6.06.37.49-1.44-9.61-1.94-5.38-2.46,3.08-.05,5.1-.47,7.32,1.18,1.7,1.01,2.61-.33-.07-.78-1.09-2.2-.53-.93-2.91-2.39-2.04-1.74,2.49.79,1.86-.61.3-.89.67.52.98.01.63-.76,1.96,2.12,2.03.8-.56-1.04-1.52-.89.1-1.43,2.57-1.05,2.51,1.98,4.66,1.65-1.85,1.68,3.32,1.88,1.81,2.21-1.96.11.73,1.84-1.08,1.59-3.1,4.55,3.64,2.04,4.19,2.62,3.26.75,2.32,1.54-.46.51-1.25,1.74,1.19.77.21,1.32-1.2.66-2.82.56-3.92,1.03.21,2.33,3.76,3.33-2.13,2.57-.62.09,2.11,1.97-.55,2.36-2.12.89-.53,1.63.92,1.6.81-.22.86,1.85,2.2,1.48.7-.97-2.07-.96-.98-1.46,1.37-1.04-1.46-.25-.85-1.13.17-.75,1.91.15,2.26-.34.07-.39.64,1.14-.08.66-1.79-.09.46.94,1.03.58,2.25.33,5.36,1.58,2.69-1.96,1.73-.13,1.1.99,2.77-.78,1.54-.51-3.61-2.41-4.06-3.2.93-.76,3.01-.55,4.12-.71.48.19-.22.63-.25.25-1.12-.61,2.29,2.8,2.25,1.1.31-1.86,1.15,2.43,1.83,1.28.68-1.31-.17-.86-.75-1.21-.82-.73-2.4-1.85-2.34-.67.15-.58-1.7-2.89-.87-2.25,5.74-.59,4.32,1.52,5.07,4.79.26-.57,1.23-.02.42-.67-.6-.39,4.62-1.44,4.63-.38.99.57-1.76,1.69-1.72,1.53.33-1.55-1.89-1.26-1.56-.74,1.7.42,1.38.67.21.82-.44.82.91.44,1.08.9-.9.41.26,1.66.31,1.09-1.05-.5,1.08-1.08.55.1-.26,1.17-.35,1.35-.61,1.19-.29,2.52-.58,3.92-3.25,4.08-6.43.15-3.46,2.66-9.61-.85-.93-.7-.48,2.07.8,1.76-2.09,1.29-3.08-.06-6.26-.4-1.96-.45-.29-1.77,1.12-1.49,1.01.65.85-3.23-1.72-1.63-.56-.24-3.27,1.6-2.28.34.66-.13-.87-1.06.13-.94,1.97-.81-.32-1.56-.87-.24-1.67.92.21,2.21,1.31,2.74,1.63,1.12-2.73,1.61-2.64.26.65-.77-1.19-.55-1.25-.45-2.24,2.24-1.6-3.68-3.5-2.43.5,1.39-1.42,2.34-.17,3.37.51-1.09,2.52,1.76,4.42.73-.08,1.13-1.29,1.16-.07,1.77,1.05-.19-1.74,1.92-.96.92.65-.69-.48-.32-.95-.58-1.21-.36.42,1.01-1.08.62-2.14-.61-1.6,1.42-2.99.6-2.07-2.23-1.85-.18-2.69.36,1.03,1.08-3.61-1.69-1.13,3.18.04-1.66,2.23.2.94-1.25,1,.62,3.44.59,3.4.64,1.06-.16,3.91,2.04,2.67,1.82-2.08-.7-2.12.58-3.51.49-.98-.36-1.73-.54-2.18-1.42.03-.12-.88.93-1.22.36-.06-1.23-1.83,3.81-.1,2.83,1.47,0,.82.39,1.88.09,1.4-.08-1.84-.79-2.03-.85,1.16-2.66,1.78-.47,3.78.19,9.06,3.2-9.59,1.37-3.32,2.93-.37,1.16,3.94,3.16,3.61,1.24-.65-1.73-1.39.82-2.45-.1-.79-.67,0-1.74.13-1.05.53-.02,3.38.11,4.88,2.19,1.21.39-1.44,1.11.1,1.19,1.39.95-1.44-.24-1.48.73-.05.76,1.36.68,1.41,1.08-1.69,1.13-5.82-3-5.83-2.09.79,2.24,1.29,2,2.85,3.15.05,1.09-1.89.62-.43,1.52-.37.05-.94.54.17.35.96-.11-.72,2.8,1.88,2.38,1.58.78,2.39.01,4.02.76-.25.42,1.68,4.77,3.83,5.17,2.42,2.38-8.09-1.45-7.27,1.78.79-.73,10.48,1.98,6.37,4.64-.15,2.46,3.29.9,3.14,3.21-1.13,5.55-1.8,7.67-7.27,4.53-7.13.3,2.92,1.39,4.68,3.39-.01,4.02-3.38-.3-4.22.39-.39.57-3.98,1.64-3.71.61,0-1.41-4.91,2.34-4.62,2.38,2.35.06,2.56,3.76,5.02,3.26,1.37.43-.85-1.56-.11-1.2,2.8.31.3-1.14-1.42-1.01-.82-.93-2.95-.22-1.89-1.16,1.54-1.1,2.91.33,2.83.4.45.37,2.02-.27,1.7.55-.45,1.26,2.71-.94,3.02-.66-.3-.49.36-.62.75-.14.86,1.07-.56-1.25.71-.37.88,3.32,3.07-.01,4.8,1.54-.48.77-3.65-.89.01,1.91-.61,1.09-.93.69.39,1.3.17.24.19.21.09-.11-.34-.77,1.19-.16.28-.79-.63-1.9,5.09,1.74,4.66.98-3.06-3.71-.38-1.13,1.96-2.19.29.09-.3-1.66.24-1,1.32.58,1.84-.11,3.11-.27,1.16-1.46-1.71-1.43-1.81-1.53.93-1.31,5.64,2.67,4.42-.01-2.2.4-4.58-2.28-.65-.99,1.61.59,1.07.41,1.15,1.36-.16.83,1.87.95.75,1.7-.12,2.53-4.77-1.51-3.04,1.67.11.77,1.16.19,1.12,1.22-.17.27,1.66-.7,1.5.05-.02.35-2.34.51-1.2,1.04.58.4-.7.61-.99.99-2.26.39-.59,1.63-1.38,1.46-2.27,1.03-1.03,1.4-3.76.74.5,1.19,4.85,3.45,3-.02.75-.46.74,1.08,1.69-.48-.06,1.14,3.03.7,1.54,2.02-3.56.6-3.01,2.42-1.04,1.75,1.18-.26.82-.92,1.01-1.39.8.63,3.05,1.74,1.46,2.39-.01,1.15-2-1.74-2.44-.32-.51.77.83.23.91,1.16,2.08,1.82-.75,1.26-1.88.64-.52-.63-.69.43-1.25-.3-.35-.73-.11.5-.39.65-.37.29-.73,1.07.45,1.27-.4-1.12-.67-.68.43-.43.45.51,2.19.62,3.25.37.07-.39.54-.16.32.23-.17.88,1.44-.73,1.88.07.09.43-2.83.43-2.77,1.12-.17-.1-.04.09.3.41,1.57,1.08-1.97.73.72,1.11,1.16.16,1.13.8.06.63-.29-.22-3.79,1.14-2.49,1.75.7.13.69-.54,1.55.3,1,.13-.46-1.22.37-1,.91.94,3.47-.38,3.8.81.4-.24.29.05-.19.53-.89.79.36-.07.44.37,1.49,1.4-.58.37-1.44.97-.27.33-.29.32-.16-.06.27-1.12-2.46-.28-1.78-.25,4.27,4.33,2.86,1.5-1.38,3.62-1.44.37,2.84.92,2.24,1.82-.38.98-1.69-1.61-1.74-.24-.03.63-.52-.13-.39.74.34,1.99.36-.66,1.12.95.03.82,2.68.93,2.44.58.1-.3.32-1.37-.43-.66-.18.91-.99-2.81.23-1.61.3,1.26,5.11,2.04,3.09,2.8-1.16.65-2.75-1.62-2.56.53.08,3.11,3.56-.24,4.09,1.59,2.64,1.08-4.38,3.02-5.75.48-2.94-.7.43,2.47-2.35.59-2.04.16-2.03-2.08-4.15-2.16-1.16.93.04-2.1-.1-.89.51.61,2.12,1.18,2.93,1.03,1.6-1.93-4.37-.91-.43-2.46.12-.18-3.49-.55-3.21.56.5,2.65-1.4-.27-2.1.98-1.76.89-1.34-1.88.54-1.06,1.35-.36-1.84-1.99-.73-1.63,1.39.87,6.21-1.4,2.13-1.37-.44.98-4.31,1.08-4.49-.4.49-.57,4.6.19,4.11-1.19-2.35.71-.57-3.8-2.99-2.71-.4-1.56-11.57-3.29-6.93-4.9.37-1.01,4.55,2.25,3.34-.36.08-.3-.45-.3-.79-.58-.53.22.07-1.58-.72-.44-.06.05-.81.05-.61-.66.62-1.43-1.34-.41-1.37-.17,1.13.86-1.8,2.47-2.31,1.09-.3.76-1.46,1.64-3.44,1.02-1.59-.63,4.23-.61,2.17-1.7-.41.12-.4.14-1.02-.22-1.77.24.48-.8-.05-1.25-1.23.25-3.24.09-4.79-.97.12-1.19,6.63,1.68,3.14-.97-4.25-2.55,2.28-.78,3.02,1.37,3.1-.43-2.04,3.46,3.84-.41-.79-.63-6.85-1.97-4.01-3.01.94-1.67,8.39,1.19,5.65-.99-1.04-.22-1.04-1.62-1.35-.47-.66-1.07-.79.47-1.29-.3-1.1-.28-1.26-1.53-2.15-1.03q-.65.42-.1.63c1.43.99-2.33.6-2.33,1.49-.09.78-1.22-.07-1.91-.02-.62,0,1.41-1.2-.66-1.14-.48.09-1.63-.74-.52-.5,1.42-.09,7.35-1.79,4.8-3.12-3.1-.06-3.08.36-5.82-1.2,1.11-.35-9.63-7.68-6.48-3.01-.42,1.03,4.8,1.9,2.17,2.56-1.82.51-.7-.85-1.99-1.62-1.54-.15,1.1,1.71.31,1.75-.69-.27-.85-1.46-1.68-1.36-1.01.4-2.61-2.99-1.83-.31.64,1.2-1.39-.98-1.29.02,1.68,1.35,3.85,1.72,5,2.3-1.89.13-2.64.97.29,1.02,2.81.01,1.58,2.11-.36,1.94.94-1.21-1.49-1.63-1.25-.94,1.95.92-.6.04-.5,2.08-.05-1.63-1.05-.77-.62-.09-.83.04-1.25.9-1.81,1.34,2.62,1.23.68,1.56-.65,1.46-.21,1.16-3.25,1.38-4.35,1.89-1.27.21-.88,2.15-2.52,1.56-1.83-.57-.58-.11-1.01-1.05-.59.17-1.52,1.41-.57,1.39,2.55,2.51,4.47,2.6.44,2.37,7.12,6.01,2.92.96,3.38,5.73,1.15.2.31-2.55,1.31-.61.86,1.2-.37,2.43.15,3.17.76-.21,3.7,1.61,2.41,2.25,2.79.51,8.36.96,8.99,2.94-.32.84-.75-.52-1.28-.36-.69.17.95,1.18-.27,1.25-2.49.55,2.4,2.14,2.31,1.53-.11-.36-.08-.35.23.02,1.7,1.58-.69-1.92-.6-2.51.46-.59,3.9.18,2.53.45-.76.2.54.69.06.75-.42-.03-.42.64.09.4.72-.36-.16,1,.53.8,1.12.08.15.51-.18.48.49.04,3.07,1.13,3.7.17.47.15-1.09-1.98.03-.89,3.49,1.95-1.68.4.71,2.8,1.07-.22,2.43,1.48,2.69,1.5.27-.1.86-1.13.73.11-.47,1.12,3.16.99,2.76.89-.61-2.21.64-1.87-.77-2.21,1.03-1.27,2.15,1.91,2.09,2.23-.88.64-3.75,1.18-3,1.94,1.41-.26.33,3.4-.19,1.85-.73-.26-3.26-1.12-5.47-.22-2.32.1,1.18.59.98,1.85.31,1.94,3.13-1.35,3.21.38-.45.8-1.66-.21-.52,1.14,1.02,1.21,4.77,1.83,2.47,3.68,2.43,1.8,4.51,3.47,6.98,1.58-.34.54,1.62.15.46.5-.68.31-.56,1.43-.68,1.95-.58.49-1.68.51,1.09,1.46.85.3.99.3.99,0,3.9.02,2.19,6.87,7.14,5.48,2.74-1.56,1.04-2.72,1.49-4.33,4.68-3.25,4.92,1.43,5.68,4.86,2.27,6.58,6.82,1.28,8.04-2.39,3.98.7,6.14-2.41,8.42-5.06,1.64-2.42,3.38,1.33,3.54.09,4.57-2.93.1-2.12,2.66-4.36,2.87-1.64.58,2.54,2.27,1.84.54-.29.66-1.39.17-1.56,3.63-.35,4.41,1.3,2.1-2.7.62-2.16,4.38,2.21,5.41.95,2.47,2.94,7.45.36,11.58-.7,3.87.41,4,3.96,8.16.18.98-.45,1.56,2.63,2.47,1.21.89-1.82,3.19,2.66,2.1,0,2.17-5.43-1.59-1.91-.64-7.22-.28-.93,1.26-4.57,1.1-2.07-.38,1.26.76-.94,1.96-.3,2.18.5.94-2.16,2.19-2.42,17.69.12,5.71-6.54,16.14-1.88-.13,1.01-1.53-.06-2.2.05-1.06-.54-4.27,6.79-1.54,3.3,1.32-2,4.58,2.29,6.04,1.31.47-.88,1.42,1.5,1.81.18.21-1.01.8,1.05,1.14.19.8-.55-1.37,2.4.4.63,1.4.44,6.53-1.05,8.02-.38,2.25.41,1.34,5.84,3.39,5.53,1.22-.27,1.29,1.25,2.33,1.85.48,1.15,2.72.13,2.66,1.64.15,1.02-.1,1.3-1.08,1.22-5.27.3-.42,5.08,1.49,1.77.61-.96.01-2.62,1.73-2.54.77.16-.07-4.01,1.38-2.49,2.22.69,2.95,2.47,3.51,4.01.77,2.55,5.98-.23,6.55,1.28-.32.88,2.19.33,2.55.9,1.02.61-1.39.26.07.85,1.65,2.09,1.92-2.41,3.74.26-.64.39.82.35.44-.25-.89-2.03,5.94.61,4.32-.77-.38-1.18-7.85-.27-3.88-1.73-.52-.14-.26-1.39-.61-.7-.41.83-2.27.14-.83-.08.58-.01.62-.05.22-.21-1-.27,1.29-.5-.52-.88-2.94-1.67,5.74-.25,1.62-1.74-.67-1.21-1.01.11-2.03-.58-.8-.68-.25-.78-1.35-.75.65-.51.34-1.09-.5-.93-2.25.59-.26-2.77-1.57-3.14-.82.74.62,1.73-.59,2.5-1.26,3.18-.81-6.33-.8-6.07.91-5.56.73-4.16,5.36-4.08.24-.45-.63-.85.67-.16,1.86,1.11.92-1.39,2.57-.18,2.05.98-4.39.51-2.77,1.63,2.34,3.74,1.28-3.58,5.57,1.87-.53-.75.2-.06.14-1.06.18-.73-1.76-.42-.58-1.03.81-1.33-1.08-1.67-.93-2.81.24-.45.17-.48-1.11-.43-2.64.26.93-1.29-2.9-1.01-3.35-.02.2-.27-.87-.72-1.93.3-.27-.14-1.94-.44,3.57-1.19-2.23-.13-1.84-2.55-.07-1.13,2.79-.24,1.82-1.77-.4-.54,1.4-1.18,1.38-1.58.94-.41-5.1-1.62-1.25-2.83-1.25-1.15-4.45.98-3.83-2.47-.51-3.76,4.33,1.32,4.74-1.69.25-.7,1.07.6,1.95.18.39-.66-1.66-.44-.62-.89.47-.28,1.2-.41.76.08-.35.21,4.27.14,1.23-.24-2.7-.42-2.13-1.21-3.92-1.7q-1.19.01-.31.34c.78.29.81.33.25.35-1.49.14,1.43.7,1.67.85.14.46-2.29.3-1.7.74.89.66-1.6.64-1.68,1.05-.22-.31.98-.65-.04-.62-.64.15.5-1.09-1.2-.65-1.86.13,3.87-1.58,1.08-2.09-.34,0,.61.47.23.48-2.11-1.07,3.95-1.04.21-1.31-1.85-.39-4.01-4.49-6.42-3.95-.52,1.1.77.65,2.61,1.55-1.59.38-5.33-1.15-1.87-1.95.96.32,1.45-.93,1.17-.04-1.89,1.68,5.49-.95,3.45-.88-2.46-.66-1.78-3.61-1.58-5.42,1.7.02,2.19,7.47,2.85,2.66.89-2.12,2.43,1.8,1.84-3.66,2.86,1.48,11.26,5.18,11.6,3.95.2-3.99,7.21,2.26,1.39-2.89-3.68-7.35-1.51-2.83,2.46-2.76-.63,1.87,3.86.66,4.94,2.33,1.57,1.33,3.64,1.86,2.26.58-1.47-1.54,1.37-.37,2.36-1.12,3.85-2.28-8.4-.03-8.24-3.31-1.08-1.49,8.48-.28,5.72-1.66-3.33-.52-.39-2.73-3.33-1.27-.64.51-.05-1.11.87-2.41,2.44-4.44-2.59,1.21-2.27-1.44.44-2.99-1.38,2.78-1.97-.25-1.28-2.4-.51.39-1.45.92-7.01,3.69-6.11-1.37-7.6-1.27.03.82-4.78,1.74-5.36,1.68-.34-1.84,4.91-3.85,4.5-5.21-2.55-.93-5.08,3.35-6.2,4.38-1.94-2.85,2.86-2.78,2.21-4.63-.93-2.09,1.68-.14,2.38-.58,1.86-1.31-1.31-.68.32-1.55,1.75-1.16,1.65-2.91-.4-1.47-2.64,1.95-1.32-.77-1.82-1.78-1.41,1.09.03,2.82-1.68,4.09-4.08,1.54,1.1-4.49-1.52-2.98-1.46,1.6-1.19,2.1-1.15-.36-.37-3.22-1.18,2.05-5.37,1.86-2.07-.12-1.19,4.94-3.09,3.14-1.47-6.36,1.06-.24-3.77-2.84-4.21.33-.11-2.65-2.31-3.37-3.21-1.61,4.76-.81,2.86-1.86.25-1.55-.96-2.16-.09-3.47-1.07.67-3.87,1.62-2.29-.22,6.32-2.69-.05-1.58.41-4.41-1.23-3.43-1.07,1.67-3.05,1.24-4.78,1.36,2.9,3.29-1.43,5.24-3.28.26-.23,3.02-.88,3.44-1.51,1.5-5.59-1.53-4.51-3.71.8-4-.43,1.39-1.51.09-.57-.37-.59-.36-.49.18,1.69.32-2.9,8.85.39,5.18,3.16-2.8,1.34.71.98,2.51,1.66-.32.94-2.92,2.89-2.99.43,0,.36.14-.45.84-2.17,1.64,2.84.05,2.03,2.2,5,1.32,1.22,1.76-3.19,1.43-4.15.41-3.51-1.96-5.75-.39.07-3.04.88-12.01,1.73-13.4-1.84,1.6-2.72,6.85-3.4,9.22-.9-.07,1.94-10.37.04-7.02-.45.56-.29-1.32.19-2.23.32-2.3-2.19,1.23-2.19,1.96-.88,4.05-5.08,3.04-3.69-1.94.29-1.92-.98-.19-1.56,2.13-2.83-.28,2.35-6.8,6.88-7.67,4.74-.74,6.67-5.3,8.72-2.32,1.02,2.42-1.21,1.3-2.06,2.04,1.15.81,7.47,4.15,3.48.54-.22-.97-1.72-3.11,1.24-1.52,2.6,1.84-.74-4.99-3.5-2.68-.2-.95,5.29-.66,4.63-2.69,0-.63.46-.68.67-.08.88,2.2,3.05-2.18,3.58.94-1.37,2.13-4.26-.24-1.12,3.11-.37,1.26.53,2.78,1.16,2.57.21-1.42-1.14-2.79,2.08-2.05,2.3.17-.74-1.69-.15-2.36,2.21-.85,6.31.01,9.64,1.66,2.29-1.03-1.74-4.11,2.78-4.96,2.74-.99-.28-.51.22-2.38-6.58,1.28.9-3.79-4.59-.09-3.1,3.53-4.08-2.19-8.09.12-3.53-1.24,5.24-1.64,6.94-2.76,12.85-6.8,9.12.16,13.73,7.53,7.07,1.88-7.15-8.03,3.26-2.76,1.86,2.23,9.41,1.78,8.28,5.17-.15.91.04.99,1.32.54,1.84.1-.66-3.27,1.19-.82-.66.94,4.84.2,2.33-.41-7.13-2.67.33-6.35,3.46-6.04-.83-1.44-5.7.18-3.78-2.39.4-1.33,2.26-1.91,3.72-.89,1.58.29-1.3-2.53-2.71-1.58-1.09.11,2.18-1.1,1.22-3.26-2.49,4.03-13.01,9.19-4.91.08,1.66-.79-5.96-.77-2.36-2.89,4.47-2.69-12.47,4.76-13.27.94.26-2.82,5.06-.92,6.67-2.49.23-.88,2.99.31,2.18-.7.07-1.51-7.37,1.73-6.71-.12,1.16-1.02,5.34-.32,6.19-3.15,1.82-2.58-1.74-.66-1.55.03-1.1,1.62-2.97-1.83-4.63,1.72-.65-.22,2.07-4.14-.53-2.36-.65.81-.52-.7-1.15-.64-.53-2.11,6.33-.92,5.57-2.93-1.27-.79-5.13,2.4-5.7.66-.14-1.48-3.44.35-1.77-2.41.55-1.79-7.1,2.46-6.05-.72-1.44-3.05-2.38,1.16-4.31,1.13-.04.16,1.78-2.26.87-2.48-.2-2.1,6.35-2.77,4.83-.07-.76,2.89,4.56-.58,4.23-1.52-5.43,1.7,1.38-4.19-5.26-2.03-1.5.53-1.54.5-.99-.77,1.34-1.65-.99-2.42-.67-2.01,1.15,1.19-3.3,5.07-5.2,4.31-4.37-.56,3.5-4.56.15-4.2-1.33.88-.69-2.1-1.5-.2q-.41.88-.48-.69c-.88-6.44-.63,6.74-3.31,3.55-1.41-1.65-2.57.59-3.93.36-.75-.4,4.12-3.31,2.41-3.34-3.18,2.04-3.75,1.99-4.8-.97-5.57-.32,4.59,5.79-1.29,5.5-4.21.27,1.97-2.96-2.22-5-1.95-.11,4.06,6.7-4.29,1.09-1.41-1.46-2.21,2.23-4.7,1.69q-1.21-.11-1.05,1.04c.2,9.32-2.25-2.86-3.93,1.47-.55-1.79-3.94,2.62-2.35,1.86,3.04-.61,7.49,4.63,2.03,4.87-2.82-.26.21,2.09-1.43,1.66-2.68.79,4.5,1.24,5.31,1.54,1.32,3.52,7.87-3.79,10.63-.47,2.95,2.43-3.61-.55-3.71.76,3.29,1.96,4.91.26,8.78,3.79,2.89,1.94.4,1.44,1.42,3.66.1.99.55.63.53-.42.81-3.55,1.47,2.63-.38,4.02-6.73,5.12-7.52-.28-3.65-4.2.5-1.51-4.3.79-2.18-1.77.46.04-2.87-.13-3.19-1.02-1.35-.91-.82,4.2-1.61,1.4.3-1.73-1.91.22-3.01-.88-2.17-1.23-1.14,1.34-3.39,0-1.48-1.07-3.45-1.36-4.75-1.22,1.34-1.33-1.92-.75-3.55-.52-3.86.02.65.74.85.7-.27,2.33-2.57,1.21-2.27,3.52.72,4.38-1.74-1.73-.65,4.83-1.21,3.72-2.15-6.96-3.09-3.06-.4,2.1-.85-.21-1.33-.5-1.13-.1.83,5.73-.74,4.19-2.67-.54-1.87-2.88-3.46-3.59-2.89-1.25,1.39-5.44,1.74-5.97-.81-4.59-1.33.48-3.09,1.03-1.49.71-2.32-.05-.88-.8,1.98-.57-2.18-1.3.42-1.81,1.25.16,1.72-2.28.22-1.5-5.73-1.89-2.29-13.14-5.15-7.35-1.97.53-4.74,1.47-.92,1.21,2.82-2.77.15,3.35-1.1,2.58-4.77-2.25-2.5-2.47-2.11-7.55-1.33.36-4.37,11.45-3.54-.37.14-5.26-1.75,6.11-2.25,3.31.2-.53-.18-.46-.72.13-2.49,1.84-1.98-5.2-2.69-4.75-.71-.7-5.52-6.29-1.4-4.65,6.21,1.79,22.96,1.85,30.2-1.24-2.3-.33-.7-3.07,1.84-2.92,2.39.41,1.23-.87.38-1.13-.63-1.53-4.97.15-4.56-1.66.51-1.7,6.13.44,3.95-3.55-3.38-3.7-4.94,3.9-5.87-1.81-.17-2.43-2.62,1.37-.61-3.28,1.07-2,8.65,3.14,7.45.51-1.33-1.43,3.89-1.09.98-1.42-2.29.36-3.81.16-3.81-.5,1.08-.28,5.76-1.29,1.05-1.63-1.73-.65-3.92-.71-5.94-.34-1.32-.98,3.25-3.14,4.76-1.27,4.14,2.58.82-2.06,2.02-2.87,2.5-1.85,2.51,4.35,3.99,2.98-2.54-4.26-.9-3.4,1.51-1.31,2.13-.58-3.01-2.94-1.44-3.16.89,0,1.19-.69.45-1.03-.11-.79-3.37-1.43-1.98-2.12,7.39-2.98-9.23-2.81-4.66-6.35.47,0-.08-.72-.78-1.01-1-.64.88-3.29-1.57-3.6-.92-1.63-4.16-2.16-4.62-3.59.16-.74-.35-1.43-.54-.69-2.39,5.76-.63-4.75-2.58,2.1-4.39,3.68-3.2-2.37,0-2.98.38.1,5.71-.44,4.61-1.08-.37.62-1.84-.77-.92-.41.73.64,1.63-.77.96-1.1-.7-.27-1.43,1.19-2.04.67-1.91-.5-4.92-.99-3.47,1.23-1.88.9-1.29-5.25-2.65-3.85.59,3.38-4.85,8.05-4.13,2.31-.31,2.94-5.05,6.24-4.74.9-.11-10.29-1.03,4.9-3.29,3.82.13-.75,1.76-1.9.16-1.9-3.6.14,4.41-6.94.22-4.79-4.29-1.5,1.12-3.33,2.99-1.04,1.15-.64,5.05.06,7.03.8-.1-.3-3.23-1.69-1.86-1.97.44-.26.46-.31.09-.18-2.15.73-3.02.74-1.57.03,1.21-.71-.23-1.03-1.05-1.04-1.49.3.96.52.55.86-.68.04-2.29-.98-2.14-1.36.96-.61-.65-.8.28-.86,1.25-1.66-1.74.33-2.77.81-.95-.61.18-1.39-1.94-1.09-2.43-2.43-1.48,2.75-2.38,3.27-2.01-1.4-5.14-1.08-5.46-4.21-.21-2.84-.53-4.62,2.5-1.5,1.16.97,1.41-2.46,4.06-1.74,4.73-.31,3.85-2.35.73-3.06-2.97-2.24-2.91,1.46-4.34.87-1.02-2.99-5.54-2.12-7.09-4.38-.21-1.62-1.13,1.82-1.81,1.69-.56,4.23-1.82-1.66.56-3.14-2.04-.8.08-1.89-1.31-4.27-.67-3.04-3.32,8.01-4.32,8.89-4.4,1.71-3.03-4.32-3.48-7.26-.74-7.16-.9,3.76-.87,3.4-.2,1.47-1.61,1.9-1.3,3.69-.64-2.64.75-3.46-.1-6.46-.25-4.29-.01.21-1.37,1.39-.36-.01.79,4.29-.25,5.1-1.55,1.25-2.11-2.98-3.78-.15-.06-1.11.05-5.82-.7-4.55-1.13,6.7-2.05,8.39-3.04-.04-2.57-6.62-.52-1.47-.57,2.44-.28,4.12-.95,2.16-2.91,2.15-.91.13-.31-3.51-1.08-3.31-.63.8-.2,7.83-2.3,5.62-.96-1.24-6.38-2.06-3.12-3.09,1.41.23,1.27-.23-.5-1.58-.2-2.08,3.05-7.84,6.66-6.11,2.34.58-2.1-3.37,4.6-2.4,2.21-2.51,7.32,1.52,9.84.15-3.53-2.01,1.36-.13,1.4-.94,0-.42-1.79-2.13-2.63-2.51-2.17-.87,2.79-.89.02-1.45-1.27-.15-1.81-1.74-3.14-.87-1.91,1.27,4.04,3.7,1.32,3.82-3.55.43-1.51-2.25-2.07-2.63-1.88-1.88-5.29-4.91-.3-3.09,4.05-1.3,7.71,7.72,9.31,4.9-.71-1.49,3.28,1.18,1.36-1.82-2.06,1.35-5.37-1.83-2.84-2.33.85-1.33,3.03,3.06,3.86,1.78.23-.41,2.98.12,1.15-.93-.58-1.14-3.69.09-2.36-1.37,2.09-.77-4.15-.07-2.88-1.15.72-1.37-4.14-1.77.27-2.09,3.74-.1-.32-.21.37-2,.1-2.97-1.55,3.18-2.18,1.05.41-1.27-4.48-.62-1.99-1.89,1.93-.91-1.2-.32-.4-2.02.52-2.89-1.35,1.26-1.89.59-2.46-1.98-7.94,1.37-3.87,1.17.52-.52,2.24-.4,2.34.17.63.28-5.6,1.66-3.38,2.36,1.83,1.41-3.79,5.83-6.31,3.54.29-.09,7.47-6.97,3.12-7.18-1.42.99,2.13-3.37.16-2.82-1.35-.19.21-.96.47-1.2,0-1.08-4.37.02-3.53-1.59,1.41,1.54,4.08-.06.89-.89-1.28-.56,2.09-.89,1.21-1.81-.79-2.06,1.98-4.1-1.45-3.69-1.86-2.47-1.93,2.86-2.93-3.47-1.04-1.66-2.01,3.62,0,4.04-.1.72-1.12.9-1.57.28-.75-1.04-1.47,3.52-1.58,1.15.14-1.9-1.3.71-1.55-.74-1.66-1.89-3.96-1.56-1.85,1.21-.08,3.47,6.91-2.21,5.12,6.28-1.24-1.31-3.53-2.56-4.08-3.35-.44-.46-2.31-3.19-2.88-2.57-4.3,2.17,3.33,3.1,3.57,5.27,8.06,7.96-.18,28.23-.24,13.96.42-.99.31-1.31-.36-1.14-2.36-.78,1.73-.47,1.47-1.61-4.84-.79,1.8-1.62-3.13-4.97,1.71-.9-1.77-1.14-2.18-1.56.49-2.32-.03-3.77-.66-1.83-1.47,3.15-.84-4.93-4.75-2.54-.31.39-.55.47-.92.32-3.51-1.42,2.6,3.31,2.1,0,1.14-.1-.75,5.47.76,4.99,1.97.13-.12,3.83-.48,1.99-.11-.76-.21-.86-.87-.86-1.16.74-.41-4.3-1.41-2.38-.13.26,0,1.32-.53.81-4.21-3.52-7.75,5.26-3.1.69.94,3.88,7.78,2.37,11.63,6.55,1.74,1.59,0,6.16,2.5,7.66,2.75,1.61-2.01,6.64-3.21,6.41-.14-1.53,2.44-4.33-1.27-2.26-4.08,6.24-3.67-4.84-7.37-2.24-1.42,1.3-1.01.21-1.73-.12-1.14.89,1.97,1.83-1.14,2.02-.29.26-3.39.47-1.39.89,1.51-.72.75,2.75,1.89,1.55,1.71-3.34.03,4.14,3.02,3.46,4.78.92.13,1.94,5.89,2.02.85,1.44-1.02,2.2.19,2.67.28.56-1.24.44-.64.94.41.4.4.79-.01.64-1.32.25,3.42,3.19,3.95,3.82,2.14.99-.99,2.83,1.4,3,2.89,1.54-1.92,2.94-1.81,4.03,3.21.39,2.42-.53,1.33,6-1.62,4.8-1.11-8.39-3.29.15-1.18,5.67-1.4-4.53-2.2-2.12.12,3.18-1.45,1.62-1.66,2.28,1.52,2.5-.41,1.54-1.7,1.1-.7.67.4,2.15-.14,2.81-1.13.12-2.78.82-2.65-1.39-.11-1.23-.37-1.43-.47-2.61-.45-3.34-1.05,5.81-2.23.67.17-2.05-1.03-8.65-1.49-1.61-.04,2.39-1.23,2.9-2.48,5.05-3.52,2.03-.29-2.13-1.65-2.62-.1-3.98-5.24,4.67-3.88-.45.55-1.07.58-2.26.04-2.12-1.99.14-1.61,5.37-3.04,1.41-.41-1.01-1.19-4.25.54-4.34,1.85.09,1.39-1.07.37-1.24.22.71.63.6-.75.34-1.36-.42,1.36-.67-.56-.73-1.61.12,2.2-.46,1.88-1.51-.09-.11-2.73-.3-1.98-.51.49.32.11-1.11.54-.35.2.3.24.27.25-.17-.39-1-1.52-1.87.52-1.46.66-.58-1.1-.69-.58-.87.14-.6-.76-2.75-1.29-2.51.24.85.7,2.38-.33,2.9-1.94.1-2.23-2.65-3.05-3.25-.38,2.66-3.39-.4-4.27,1.28-4.76.53,1.68-2.54,1.01-2.5-.57-.59-.77-2.1,1.3-2.15,1.18.18-.4-2.48,1.61-2,3.17-.16,2.03,1.49,3.26,2.02,4.46.09,4.2,1.14,5.63-.91,3.42,1.11,1.27,1.14,4.24.76.96-.1,1.42,2.02,2.73,1.12.82.71,1.88-.35,2.85-.47-.62-.87-6.04-1.24-5.37-1.63.64-.4-.61-1.36-1.79-1.37-2.28-1.11-2.69-4.27-6.08-5.1-.52.2-.49-.15.05-.55.64-.71-.63-.86-.45-1.89-.99-1.32-2.13.81-3.23-.34,3.26-2.42-7.81-4.72-.24-4.8,5.94.19-.8,1.01.42,2.29,1.93.91,8.87-.19,6.05-1.55-7.17-.36-.69-4.08-2.42-7.26-1.44,1.5-1.36,5.05-4.38,4.75-1.15-1.02,3.03-6.92-4.44-3.53,4.83.27.53,4.1-.89.85-1.71-8.56-11.6.58-8.73-4.88,3.42-5.53,4.04-1.56,6,.45,2.86-3.29,5.04,6.2,7.3-.51,1.61-.76,7.43-1.04,3.61-2.7-5.42-1.32,6.75-3.09,3.22-3.74-1.01.03-2.9-.87-3.97-.68,2.93-2.38-2.73-7.86-4.57-2.79-.54,3.94-2.29-2.06-3.09-.18-4.52.49.36-3.11-7.22.46,3.95-2.43-3.28-4.64,1.38-4.68,1.85.55,4.86-2.74,3.23-3.2-2.19-1.13,2.63-1.47,3.02-2.85-.43-.96,14.71,1.24,10.75-1.17-.77-1.15-2.39.91-2.77-.23-.37-1.92-7.17.98-5.15-1.69,1.9-2-3.38-1.1-3.8-2.35.63-2.65-13.39,3.38-7.33-1.53.59-7.58-4.42-4.85,5.49-4.49.52-1.83-5.5-1.23-3.73-3.53.75-1.16-2.18-4.28.99-1.96,5.05,2.92,1.44-.61,3.75-2.04-8.72-.07-5.38-7.66-8.08-3.13-.21,1.76-1.62,1.44-1.16.25.01-1.51-2.73-.97-1.37-3.35.91-.99-.78-2.37.47-2.63,1.92-.21-.54-1.38.57-1.98,1.25-.78.61-4.07-.18-1.39-4.07,6.41-2.52-6.6-4.45-6.33ZM139.2,16.78c5.55,2.26-1.61,4.42-2.27,2.91-.25-1.21,1.1-.34,1.26-1.28-.47-1.1-1.94-3.71,1.01-1.63ZM139.96,25.54c.98.56-2.05,2.8-1.24,3.84-1.16,3.66-4.39-6.44,1.24-3.84ZM221.1,26c-5.9,2.53-4.06,4.03.28,3.78,1.97-1.18-1.45-1.23.84-2.96,1.51-1.38,1.19-1.62-1.13-.82ZM230.98,27.04c-.78,1.67-8.95,1.74-5.38,2.84.55-.06,6.65,2.77,5.16.73-1.34-1,2.67-3.95.22-3.57ZM208.1,27.67c-2.07,1.98-5,2.67-7.45,2.25.33.7,5.89,2.81,7.22,2.68-1.09-1.29,2.54-5.04.22-4.93ZM215.47,31.35c4.74,1.06,1.72,4.64,4.55,4.69,8.7-2.66-4-5.17-4.55-4.69ZM130.46,32.19c-2.25.15-3.81,3.36-5.93,1.05-2.59-1.94,6.98-.91,5.93-1.05ZM140.7,32.56c.08,1.55,5.43.7,6.3.69.27,3.63-8.41.51-6.3-.69ZM236.99,38.26c.08,4.14-3.17,5.41-.45,5.59,2.42,1.34,5.39-5.29,2.38-4.88-1.47.93.12-2.44-1.93-.72ZM138.35,44.08c1.14.98,6.23,2.65,5.48,3.37-4.39,3.16-1.68-.54-4.77-1.76-2.39-.81-1.55,1.55-1.83,2.37-2.67-.9-3.11-4.91,1.13-3.97ZM246.67,49.39c-.09,2.55-1.96,5.72-2.86,7.87.11,1.69,1.18.96.21,3.27.47,2.17-2.5,1.45-1.3,2.05-1.7,1.25,4.97,1.23,1.52-.2-.17-.74,2.89.31,1.61.2-.6-.14-.61-.14-.14.24,1.25.87-3.45,1.46-1.74,1.76.82.18,1.79.54.5.48-.59-.15-.61-.12-.39.48-.67,1.54,2.96.24,2.55,1.07-2.98.35.8.81.84.85-.07.69,1.94-.84.03-.7.87-1.43,2.14,1.13,3.39.83,4.33-1.24-2.13-1.34.31-1.92,1.05-.24.67.54,1.4-.08,1.54-.91-.17.35-.07.81.35.23,1.86-.91,2.47-.97-1.14-.83-2.15-.55-5.21-1.63-1.64-1.07,3.41.06.11-1.73-1.87-1.42-1.09-2.28-1.94-4.27-.03-.32.77-9.84-1.29-8.41ZM197.71,51.23c1.15,1.7,3.6.28.45,2.7-1.28.23-3.67,4.15-3.67,1.48-1.32-4.17,2.24-1.98,1.84-4.04-.9-1.09.47-1.78,1.38-.14ZM129.72,51.3c1.65.83.04.82.61,2.31,1.06,2.25-2.1-.23-2.84.19-2.77.23.2-4.89,2.24-2.5ZM208.95,52.27c1.93,5.15-3.88-.25-2.63,2.41q.52.52-.21.9c-4.63,1.73-.05-5.58,2.85-3.31ZM139.16,60.44c5.63,4.09,10.38,4.44-.57,4.37-4.85,2.89-6.17-4.76-2.19-2.79.12,1.89,2.23-3.54,2.76-1.57ZM198.7,61.61c.62,1.17,1.41,1.41,2.66.98.41.61-4.91,2.42-5.01,1.14-.15-.64-.71-1.02-.69-.47.21,2.68-.9,2.26-2.52,2.68-2.25-.3,4.33-5.28,5.56-4.33ZM149.16,65.86c.82,1.4,5.8,3.29,3.18,4.1-2,.61-1.52-2.38-4.12-2.07-3.92.65-1.57-3.78.94-2.03ZM251.34,70.84c-.95,1.35-4.26.03-3.43,1.2.52.25-2.43-.4-2.48.53.58.46,4.24.3,1.55.79-1.06.59,1.21.19,1.25.6.28.49-2.91-.08-1.74.67.34.34.51.36.89.13,3.27-1.03,2.52-.63,4.57-.28.39.23-1.89.23.11.63,1.94.45.86.32,1.02.94.64,1.74-3.38,5.08-2.37,1.16.07-1.78-7.14.35-7.92-1.74-1.95,1.61,4.8,1.47,3.82,3.23,1.25.44-3.08.51-1.55,1.18,1.94.67,1.73-1.07,3.38.83-1.18.27,1.21.8.49.92-.78.61-1.4-1.55-1.81-.13,1.06,1.22,8.22-.11,8.87,3.39,2.86-6.19,9.47,2.56,9.37-2.66.9-3.38-4.26-2.62-3.58-5.12.91-1.44-3.43-1.24,1.06-1.07,3.5-1.4-1.67.1-2.25-1.48-.5-.58.86-.12,1.34-.65-.23-.16-4.23-.24-4.3-.55-.33.54-2.35,2.52-2.76,1.37,2.12-.2,1.56-2.3-.26-1.05-1.27-1.85,1.03-3.54-3.25-2.82ZM251.1,83.47c-.18.11-2.8.7-2.57,1.27.89.49,4.05.47,2.11,1.45,2.38-.46,3.76-3.24.46-2.72ZM115.38,86.27c1.67,3.5,4.23-3.83,5.8,3.98,1.68.37.85-1.69,1.36-1.53,2.32,1.55,7.44,1.28,1.78,4.49,0-4.96-1.34,2.07-4.54,2-3.61,2.29-3.64.79-.8-1.25,3.75-2.18-11.43-6.27-3.6-7.69ZM251.72,86.46c-.47.83.94,1.15,1.23,1.81-.48.01-1.56-1.05-1.98-.32-.22,1.15,4.85.71,3.39,1.25-.97.23-.88.69.16.82,1.74.39,4.41-2.54,1.88-2.75-3.97.65-3.32-2.51-4.68-.81ZM258.73,88.19c-.16.74,2.52.51,1.45,1.72-.9,1.12,1.2.02.43,1.25-1.25.57,2.59.78.98,1.05-.34-.11-1.76.63-.99.43,5.27,1.33-7.38-.29-2.07.68,2.23,1.34,15.75,3.43,7.06,1.15,1.58-.79-4.79-6.38-6.87-6.27ZM78.63,92.59c.77,3.34-5.33.98-4.35-1.08.81-.86,4.96-1.83,4.35,1.08ZM131.97,97.46c-.55.49,3.1,1.23,4.27,1.73.84,1.03-1.54,1.07,1.57,1.29,1.84.19.14-.63,1.64-.37,1.59,1.14-2.92,1.22-2.88,1.58.77.42-2.77.83-1.14,1.09.75.37.73.6,1.41.51.06.65-1.99,1.37-1.45,1.76,1.23.45-.1.6.51,1.56-.37.55-.48,1.2-1.01-.5-1.54.45-1.07,3.26-3.26,2.86-2.11,1.04-.94,1.63,1.46.28,2.2-.37-1.84,1.31.15.86,1.85.14.07,3.11-.96,3.34-.61,1.91-1.41-1.25-1.55-1.9-.75-1.18-2.62-3.24-3.65-4.01-2.55.88-.74,0-1.63-.69.06-.02-1.57,1.01-1.48.27.36-.52-1.21-.6-.22-.65,2.39-.18-4.37-2.36-1.83-3.62.67.14,2.36-2.66,2.09-.73.01,1.81.05,1.99.31,1.58,1.48.44,1.97-1.29,3.51-1.75-.34-.42,2.12.43,1.12-.27-.42-.16-.38-.21.32-.37,2.62-.69-.84-.41.18-.87.69.18-.34-.99-.39-1.25.12-.4,2.96-2.53,2.89-1.75ZM157.54,97.77c.12.84,2.92-.48,1.41,1.07.26.62-.89.47-.29,1.07.64.78-.59-.39-.23.37.89,1.77-4.62.86-1.85.66.55-.01-.21-.84.6-.97-4.17,1.29-3.1-2.44.37-2.2ZM78.4,102.9c-.08,2.09-3.02,2.54-3.89.59-.71-1.5,3.18.65,2.83-1.82.53-1.37,1.29-.1,1.06,1.23ZM206.8,101.12c3.05,1.31-.85,5.17-1.98,2.07-.35-1.16.68-2.68,1.98-2.07ZM215.35,104.75c.74,1.6,1.08,2.8-.64,3.36-3.27-.56-1.91-4.93.64-3.36ZM93.75,105.58c2.48,2.27,11.61,7.2,3.01,6.87-2.29.57-.98-2.06-3.04-2.1-2.31-.51-.65-3.13-3.16-3.53-4.34-.56,2.4-2.25,3.2-1.24ZM262.52,109.98c5.54,2.63-2.59,3.81-.89,1.18,1.2-.71-3.44-3.88.89-1.18ZM88.43,117.71c1.64,2.46-4.27,2.62-5.29,1.07,1.15-.67,3.9-1.78,5.29-1.07ZM73.42,118.3c1.21,2.1,4.79-.67,4.29,1.6.56,3.3-9.97-3.21-4.29-1.6ZM68.41,119.84c.48,4.01,3.8-2.01,3.07,3.97,1.04,1.58-2.2.23-2.76.15-.88-.29-7.09,2.05-7.31.03.64-1.25,1.59-1.7,2.26-1.07,1.46,2.48,3.67-7.54,4.73-3.07ZM228.76,119.05c6.09,2.48.33,3.1,5.05,1.87,1.17.88-8.3,6.55-7.59,2.34-.36-1.96.66-2.03,1.48-3.09-.99-.95-1.55,1.43-1.77-.2.99-1.31-.14-1.99,2.83-.92ZM210.85,119.71c2.08.65,2.55,2.09,0,2.42-.64-.06-1.83.54-1.09-.7.03-.71-1.06-2.73,1.1-1.72ZM241.22,120.43c1.93.64,2.6,2.66,1.67,2.51.22-1.07-1.98-2.24-2.41-1.28-.23,1.25-2.24.36-2.28-.14,2.51,1.33-2.85-3.14,3.02-1.09ZM46.73,123.95c-2.7,2.1,1.11,4.62,2.6,2.04.74-1.78-.97-3.12-2.6-2.04ZM235.68,127c3.3,1.17-1.63,4.73-1.92,2.84-.19-1.34-.59-4.02,1.92-2.84ZM255.9,127.64c1.42.46,1.72.62.21,1,2.21,2.57,4.66,5.53-1.13,6.56-.78-1.41-1.93-1.54-2.63-3.17.61-1.86,3.54,2.61,5.02.77,1.05-1.74-5.78-2.46-4.6-4.12,1.02-.51,1.71-2.5,3.13-1.05ZM54.13,136.96c2.59,2.56,16.74-3.97,12.92,4.12-2.91-.46,1.27,1.82-1.78,1.36-.32-.98-8.55-5.5-10.59-3.15.79.97-2.43-.18-1.7-.33,1.13-.56-1.94.04-.62-.79,0-.14-.14-.16-.31-.06,1.97-1.08-.26-3.18,2.09-1.15ZM203.5,137c3.14,1.77-2.91,2.86-3.7,2.22.72.87,1.79,2.18,2.97.76.93.05-1.22.24-.07.95.47-.05,2.91-1.17,3.07.31-.23,2.05,1.92,1.84,3.22,1.94.19.32,4.88.97,6.45,2.33-.82-.11-1.52,2.36-.24,1.05,2.42-1.62,7.63-7.26,2.65-.51-4.38,4.87-3.61-1.42-6.25-1.35,2.05.15-2.9,4.27-2.48,3.94-.93-1.54-2.98-2.49-5.38-2.82-2.08-.69-3.56,3.15-5.95,1.4,2.5.46-2.65,5.21-3.19,2.03,0-.31-.33-.28-1.48.15-.41-.47,2.14-2.98,2.8-3.55-.11-1.23-2.76.38-3.19-.89.91-.02,2.14-1.76,1.25-1.76-1.85-.67-2.18.02-3.69-1.22.16-.18,1.14-.64,1.9-1.16,2.29-.71-.38-.06-.22-.67,1.01-1.12-4.35-.98-2.07-2.13-.47-.68,8.11,3.07,5.21,2.44-1.74.07.27.81-.83.57-2.25.38,2.46.67,2,.35.5.38,1.84-.63.27-.32-2.45.65.44-2.12.55-.34.29-1.2,4.69-2.75.96-2.15.23-1.96,4.92.64,5.89-.5.24-.48-.87-.41-.85-.1-.44.89-2.74-2.47.4-.96ZM253.85,138.75c-.81,1.98,5.43,4.34,4.13,2.63-1.04-.55-3.01-3.58-4.13-2.63ZM50.78,139.62c3.14,6.45,7.61-2.09,8.64,3.59.51.25.52.24.13-.08-1.15-1.27,1.71-.69,1.22.76-.45,1.49-8.04,2.34-9.5.92-2.08-1.72-1.02,0-2.19.29,0-.52-.9-1.8-1.23-1.91.38,5.8-9.11-5.02,2.94-3.58ZM187.1,141.46c1.31,1.58-1.73.55,1.25,2.14,1.28,1.11.79,4.48-.98,3.15-3.1.5.54-2.18-1.85-2.4-1.2-.3-1.16-.5.12-.59,1.55-.11,1.6-.28.35-1.07-2.54-1.22.18-2.32,1.11-1.23ZM278.72,142.34c.81.56.36,3.63-1.01,2.8-2.47-.43,2.18-2.17-1.24-1.75-3.5.25.09-3.63,2.25-1.05ZM274.49,144.74c.27.86.35,2.84.12,3.2-2.03,1.73-2.3-5.95-.12-3.2ZM294.35,144.54c6.01.42,1.29,6.84-.57,2.65-.51-1.35-1.46-3.88.57-2.65ZM177.59,146.07c1.3.47,8.63.56,4.36,2.26-2.31-.7-3.73-1.92-6.33-.48-.69-.4,1.27-.75.68-.87-.93-.19.27-1.73,1.3-.91ZM153.73,147.21c.6.18.77.23-.02.5-2.14-.02,5.08,3.47,4.06,1.59,2.18-1.96-.73-.91-1.68-1.06.71-.2-2.54-1.69-2.37-1.02ZM314.07,147.83c-.46,2.4-4.8-.99-3.65,1.48,3.02,2.76,8.79-4.43,3.65-1.48ZM285.84,148.74c2.34,2.07-4.94,1.71-4.49,1.18,2.42.6,2.16-3.82,4.49-1.18ZM289.62,150.21c.9,1.79-.98,10.77-1.62,6.22.91-2.09-.88-4.41-1.61-5.84,1.69-1.02,3.05-3.8,3.23-.39ZM302.8,149.89c5.62,2.66-1.05,3.83-1.2.94-.11-.98,1.58-.3.69-1.36-.55-.62.6-.03.51.41ZM300.45,151.8c3.82,1.3,4.85,8.35.64,6.32-2.25-.53-2.24,11.37-10.62,7.91-3.34-.43,5.75-2.7,5.12-4.06-.9-.82-3.97,1.62-4.29-.62-1.63-3.78,6.49-5.15,2.54-6.36.49-.41,10.52-2.37,3.91-2.66-5.09.69.26-4.67,2.7-.53ZM43.16,151.06c1.03.73-2.51,2.23-1.12,2.46.93.03,2.44,1.12,3.1-.15.78-.03,3.56,9.39.24,5.96-4.08-.92.85-2.89-3.02-4.21-7.39.52-2.54-5.5.79-4.06ZM55.47,152.26c-.98,1.54-4.16,4.9-4.19.72.43-.08,3.22-1.71,4.19-.72ZM55.44,155.98c.42,2.1,5.08.32,3.45,1.86-2.3,1.74,2.98,3.61,1.42,4.17-3.37-2.2-4.24.08-5.48-1.77-.51-.47-.51-.49-.03-.36,2.39.19-3.57-5.32.65-3.88ZM143.1,157.24c.79.5,3.18,1.66,2.88,2.72-.98,1.36-7.2-3.98-2.88-2.72ZM308.55,158.2c3.19,2.34-4.8,4.94-5.7,2.45,1.36-1.67,4.02-4.74,5.7-2.45ZM266.47,158.69c3.84-1.36,1.01,3.65.08,4.51-.65-2.61-5.31-3.24-.08-4.51ZM205.23,160.08c-2.52,4.06,3.68-3.6,2.17,4.13-1.76-3.02-2.99-1.78-4.3-3.09-.54-.62,4.71-3.12,2.13-1.04ZM187.97,160.96c2.45,1.83-1.62,1.4-1.88,2.08.57,2.28-4.9,1.11-4.62,2.38.12,1.67,2.17,3.41.13,2.96-.5-1.87-3.34,2.64-3.8,1.14-.09-2.97,1.42-.6,2.99-2.4-2.28-1.84.32-1.42-2.31-1.26.25,1.01-2.2.07-2.13-.29.81-.55.65-1-.4-.5-.51.75-1.91.16-.89-.28,1.24.06-1.94-2.5-.48-1.79,1.84-.14,3.17-.38.77.43.92-.28,2.99,1.22,2.87.46.65-.77.3-.32.36.28.93.48,2.97-2.69,2.76-.6,1.55-1.73-.31-1.02,2.15-1.06,3.1-.26-.33-3.3,4.47-1.56ZM153.46,161.18c-.17.61-1.93,3.05.25,2.56,1.12-.67,3.16-.99,1.58-.44.1,1.24,2.22-.35,2.76-.23-1.69.09-3.91-1.9-4.58-1.89ZM272.1,161.18c1.47.15-1.37.88-1.12,1.28,1.69-.8,5.59.08,3.49,1.93-1.65,3.17-9.27-5.48-2.37-3.21ZM321.72,162.58c5.29,3.21-6.08,3.63-7.3.85-1.11-1.2,5.7-2.1,7.3-.85ZM271.3,164.85c2.88,4.1-5.04-2.11-5.79,3.36-1.48-3.18,2.59-4.51,5.79-3.36ZM316.7,167c3.17,2.39-6.9.68-4.9-.16.38-2.48,1.97-1.98,4.9.16ZM247.37,165.77c2.31,6.92,2.2,7.83-3.14,3.44-3.01.07,1.82-4.98,3.14-3.44ZM278.03,168.23c2.7,2.28-4.88-.36-4.93-.93-.04-1.44,1.84.9,2.25-.55-.1-1.87,2.11,1.56,2.68,1.48ZM250.82,167.21c2.94,1.68,2.26,2.16.78,4.5-.2.52-3.73-8.51-.78-4.5ZM322.72,167.96c5.99,2.43,2.78,2.52-.57,1.36,9.89,8.15-10.47,1.8-7.18-.07,3.79-.86,6.08,3.07,8.54,3.12-.97-1.37-8.02-7.11-.79-4.41ZM103.85,169.91c-3.13,1.11-3.74-.05-1,2.8-.1-2.85,2.1-.2,3.49-.44,2.33-1.34,1.78-1.96-.41-1.08-1.31.05-1.11-1.35-2.09-1.29ZM283.3,169.92c2.18.42-6.94,5.89-2.79,2.27q.91-.56-.43-1.28c-2.91-.86,2.4-.92,3.23-.98ZM273.17,171.64c2.8,3.42-1.52.99-3.68,1.01.51-1.32,3.22-2.06,3.68-1.01ZM163.15,171.83c1.22.32,6.67.61,3.86,2.24-1.92.55-4.15-2.57-6.17-1.55-1.16-.33,1.94-1.46,2.31-.7ZM173.4,173.02c3.6,3.36-5.92,4.98-1,.56.66-.59-.73-1.82,1-.56ZM259.92,174.23c.5,1.62-2.61,5.18-3.32,2.46-2.44-2.5,1.56-3.75,3.32-2.46ZM253.35,174.47c3.1,3.57-.98,3.3-3.81,1.41-2.33.25,3.85-2.29,3.81-1.41ZM272.85,174.83c3.1.86.46,2.08-2.2,3.24-4.94,2.82-2.19-6.4,2.2-3.24ZM2.25,176.71c-5.73,4.47,1.2,1.83.9,4.49-.95.3,3.36,0,3.2-.25-.47-.34-2.32-.5-.31-.74,2.09.27-.92-1.07.19-.89,3.09-.44-1.4-.32-1.85-.8-.24-.26-2.08-.96-.58-.9.25.18-1-3.41-1.54-.91ZM266.6,176.42c1.23,1.82-1.82,5.19-1.81,3.3.77-.64.71-.76-.32-.76-5.33-.94.89-5.2,2.13-2.53ZM9.85,176.44c-1.35.83-.5,1.09.09,1.89-2.26.64-4.45,4.15-1.04.96,2.33-2.18,3.54.29,3.7-.58,1.76-1.31.22-2.17-1.73-1.69-.39.32.52-1.68-1.02-.58ZM259.49,178.39c-.1,5.33-6.57.11-1.75-.19,1.34.24,1.92-1.35,1.75.19ZM39.85,182.98c4.34.63.24,1.27-.55,1.49-.83-.12,1.09,1.89-.02,2.78-7.18,3.66-1.32-4.52.56-4.27ZM188.44,185.52c.18.98,1.2.18.44,1.83-1.83,3.83-3.64-4.29-.44-1.83ZM266.91,196.43c.47,1.22-.86,3.92-1.41,5.11-1.51,3.84.31-8.53,1.41-5.11ZM8.29,201.67c-.77,1.07-4.84,3.46-3.82,4.03,1.49.84,7.31-5.23,3.82-4.03ZM272.87,201.46c1.08-.06-2.11,8.36-1.95,7.04.6-1.52-.03-7.58,1.95-7.04ZM280.72,203.32c6.23-.86,3.37,4.22,1.21,7.7-.21-.61-3.36,11.06-1.78,2.06.62-9.57.38-7.56-1.55-2.25-.4-.65,1.35-4.91-.3-3.4-2.54,1.58-2.91-6.72,2.41-4.11ZM296.1,203.74c5.67.63-3.43,5.63-2.69,2.79.74-1.34-2.8,0-1.29-2.08.59,3.24.51-2.9,3.98-.71ZM320.22,205.96c.17.37,2.82.07,2.79.65-.05,1.32-3.77.47-3.67,2.35.26-3.4-4.1,1.75-5.12-1.14-3.89-3.12,4.97-.67,6-1.86ZM311.38,206.49c.6,1.77-2.38,2.06-4.59,1.81-2.08-.77,3.33-3.27,4.59-1.81ZM48.54,207.27c3.6.04,5.07,4.2.53,3.65-1.18.44-.78-.1-.35-.47-.46-.28-.93-.15-1.06-.71-2.64-.21-2.07-4.26.87-2.46ZM313.62,209.22c.29.96.07,2.64,1.01,3.49-2.39-2.33-1.27,2.33-2.46.56-9.11,2.34-6.18-4.36,1.45-4.05ZM290.85,209.47c2.27.28-1.42.71,2.08,1.48,1.35,1.56,4.99,6.41,2.35,9.24-2.72,1.6-4.62,8.95-4.15,2.56-1.42-.25-3.63,5.93-2.02.08.2,0,1.49-6.14,0-3.31-1.24,4.6-1.38-2.12-1.89,3.42-1.72,3.58-1.05-8.1-.24-9.84.28-3.02,1.16-4.04,1.51-1.75.23,3.4,1.16-4.91,2.36-1.87ZM285.97,213.77c.49,1.92-3.09,11.31-3.36,5.86.57-2.07.3-4.47,2.02-6.85.97,1.31,1.24-3.08,1.34.99ZM153.3,220.36c2.41-.36-.61,1.35.6,1.14,1.06-.8.09.3,1.21.36,1.9,1.57-6.37-.36-6.78-.14-1.19-.34,1.42-.99,1.96-.4,2.77,1.12.77-1.82,3.01-.97ZM296.81,225.48c3.57-1.21,4.77,3.9,1.79,5.28-3.21,1.01-1.46,3.81-5.5.6-.62.34,1.67-6.53,3.71-5.88ZM148.84,237.84c1.85.65-.74.43.03.94,1.7,1.03-6.52,1.77-3.58-.59.91,1.17,3.02-1.62,3.55-.35ZM173.16,244.84c1.52,1.29,2.81,4.53,5.24,2.37.93.18,4.4-.35,4.69,1.83-3.29-.47-7.87.53-10.26-.3,1.93-1.12,1.11-.79,0-2.03-.77-.69,2.07-.02.64-.91-.5-1.06-.6.58-.88-.17-.85-.98-.94-1.7.57-.79ZM177.47,249.71c1.97,1.02,4.69,1.6,5.4,4.14.49-.81.48-.51,1.13,0-3.14,1.48-4.08-2.76-6.86-1.66-2.25.08-.28-1.44.63-.88.66-.89-2.02-1.95-.3-1.59ZM177.85,253.58c3.01.66-.31,3.09,2.04,2.59,2.38,1.41,12.78,3.47,5.82,3.95.09-1.55-2.2-.47-3.1-1.6-.03-1.09-4.65.99-3.4-.61,2.2-.87-4.01-2.71-5.14-3.08-.61-2.36.84.32,1.71-1.11.92-.76.97-.63,2.08-.14ZM209.73,254.96c5.37,3.54,1.9,1.31-.26,4.73-.15-.43-1.86-.02-.65-.59.45-.4-2.81-5.01.91-4.15ZM185.67,255.64c.9.15,2.15,1.61,1.49.08-.81-1.23,1.53,1.58,1.88.71-.4,3.75-10.54-2.47-3.37-.79ZM317.17,258.73c-.48,1.32.67,1.6,1.18.74,1.26-.66,2.18,1.46-.94,1.06-2.26.02.15.86-.16,1.14-2.35-.27-.45,2.68-3.06,2.27-3.82,2.45.83-.18,2.23,1.68-3.3.65,1.48,1.54,2.47,2.06,2-1.26,3.19,3.15,1.64,2.56,1.23-4.69-5.52,6.39-2.69,4.22.82.31,1.46-1.04,3.06.29,2.27.57-.43-4.44,1.06-4.15.93.53.61-2.26,1.69-.83,1.95.5,6.49-2.09,7.69-.02,1.66.14,12.67,4.71,9.98,2.18-1.65-.05-5.96-2.24-7.23-3.28-.46-1.44-3.51.69-3.2-1.38-.5-2.17-4.29-3.3-6.05-4.26-1.81-2.61-5.03-4.32-7.68-4.27ZM260.49,261.04c-1.18.86.03,3.43,1.44,3.08,2.65-.8,1.21-4.73-1.44-3.08ZM278.16,260.88c-1.03.2-1.48,1.22-.88,2.02,1.68,2.82,4.32-3.16.88-2.02ZM215.88,262.52c-1.23.6-.16,4.57,1.11,4.09,1.29,2,2.84-6.72-1.11-4.09ZM231.44,265.93c-5.64,1.25-3.36,8.35.45,9.5,1.3-2.12,7.82-7.68-.45-9.5ZM174.58,270.39c-2.63-.71.42,1.4.23,1.8-1.29-.56-3.04,2-1.51,2.24,5.01.13.05-2.14,4.54-1.48.22-.68-2.05-.97-2.41-.99-1.03.07-.18-3.04-.85-1.57ZM102.28,274.44c-2.06.87-2.73,3.41-1.31,2.77,1.85-.19,5.14-4.56,1.31-2.77ZM281.05,278.46c-3.3,6.83,6.31,3.53.76,1.25-.51.29-.48-1.69-.76-1.25ZM215.9,280.16c-2.98,1.78,2.05,4.57,1.95,1.16-.27-1.35-.73-2-1.95-1.16ZM227.24,287.94c-.77.81-.82,1.49-.14,2.21,2.63,2.1,3.06-4.85.14-2.21ZM161.33,300.79c-2.07,2.74,1.27,7.03,4.22,3.77,1.21-2.79-2.29-4.23-4.22-3.77Z"/></svg>