<svg xmlns="http://www.w3.org/2000/svg" viewBox="0 0 405 180">
  <path fill-rule="evenodd" d="M231 0c-6 0-2 5-3 7l-4 2c-2 1 0-4-2-1 0-2-4 10-1 7 3 0 10-9 8-6-1 5 0-1 3 1 1-2-2-3 3-3 5 2 4 5 3 7-1-1 1 4-1 3v2c2 2 0 0 0 1s0 1 0 0c-2-2 0 3-1 3 0-1-1-3-2-1h-2c1 2-1 2-1 3-2 2-4-2-5 2-3 2 1 6 2 8-2 2 1 5-1 6 1 6 3 1 3 8 1 2 2 2 0 3 1 2 5 3 2 5l-4-4c4 2-1-7-3-4-4 1 1 16-6 8-1 13-17 16-25 25-7 4-2 15-10 10 11-13-6 1-9 0 0-2-4 1-6 2-3 3-5 1-8 2-4 0-3 3-4 6-3 0-2 3-2 5-4 2-7 3-11 7-8 6 3-2 4-2 1 1-1 1-1 2 1 1-2 0-2 1 0 5-3 2-3 4 0 1-8 6-4 5h3c-1 0 3-2 4-1-2 2-1 5 2 6-4 0-12-4-17-5-4-2-8 4-10 3l-7-5c-2 1-8-3-12-2 1 12 0 3-6 8-4 1-5 1-2 2-2 2-3 4-7 3 0-1-1 0 0 0 2 1 0 1-1 1 4 0 1 4 3 1 5-5 0 2 8-2 3 2-4 4-6 6h-4c-1 1 2 0 1 2 1 2 0 2-2 3s1 2-2 2c2 1-3 2-1 2 1 0 4-2 2 0-4 3 0 2 2 2 1 0 0 2-1 1l-1 2v1h-5l-4 1v2c0 1 0-2 1 0h1l-1 1h2l-1-1c1-1 0 0 0 0h2c-2-1-1-1 0-1v1c-1-1 5 0 5-1h-3c2 1 9-4 8-3h2c2-1 1 2 2 1v-1l1 1 1-1h1c0 1 0 1 0 0h2v-1c1 2 1 1 1 0 1 1-1 2-1 2 4 1-1 1-1 3v-1 2h2c0-1-2-1-1-2l1 1 2 1v-1c2 0 1 1 1 2l1-1c0 1 0 2 1 1l1-1c-1 1 1 1 1 1 0-1 1 1 1-1v1c1 1 0-2 1-2-1 2 2-2 1 1l2-1h-1c1 1-1 0-1 1 1 2 0-1 2 0v-1h2c1 1 0-2 1-1 0 2 1 1 2 1h4c0 2 1 0 2 1 0 1-1 0 0 0h1c0-2 1 2 1 0 1-2 0 1 1 0l1 1h3l2 1h2-1c1 1 1-1 1-1 2 0 0 1 0 1 1 0 0 2 1 0 1-1 0-2 1-1v-1c1 0 0 2 1 1v1h1v-1l1 1c0-1 0 0 0 0l1-2c-1 0 0 0 0 0v3c0-1 2-4 3-1l1 1c0 1 2 0 0 0l1-1 1-1c-2 1 1 1 1 1-1-2 1 1 0 0h1v1c1-3 3 1 2-1l3 2c1-1 1-2 2-1v1l-1-3h2c2-1-1-1 1-1 1 2 1 0 1 0h3v-1c0 2 2 0 3 0l-1-1h2c-2 3 1 2 0 0l2 2v-1h2c1-1 1 1-1 1h3l-2-2h1s0-3 1-2h2c-1 1 3 1 2 1s0 3-1 1l-2-1h-1c-1-2-1 3 1 3-2-3 2-3 1-1h-1l1 1v-2c1 1 1 4 1 1h1v-1c2 0 1-2 2 0h2v1c1 0 0-2 1-1s0-2 1-1c2 2 2-2 1 2h1s0 1 0 0c1-1 0 1 1 1 1-1 0 0 0 0 2 0 0-1 0-2 1 2 1 0 2 0l-1-1c2 1-1 5 1 2 1 0 0-2 1-1l2 2c1-1-2-3 1-3-2 1 0 2 0 0 1 1 1 2 1 0l1 2h1l-1-2c0 2 1-1 2 0-1 0-2 2 0 2v-2c1 0 0 2 1 1v-1l2 1c0-1 1 2 1 0l1-1 2 3c0-1-2-2 0-2v-1 1c-2 1 2 2 1 0l1 2c1-2-1-3 1-1 0-2 0-1 2 0 1-1 3 1 2 1-2 1 2 1 3 2 1 0-1-2-2-1v-1c0 2-2-2 0 0l2-1v1c-2 0 1 2 1 2 0-2 1 1 1 0l-1-1h1c0-1 0-2 1 0 0 2 2-1 2 1-2 2-3-4-3 0 1 1-2 0-1 1h1l2-1v2s0-2 1-1c1-1 1-2 2-1v-1l1 1h1v-1 1c-1 1-4 2-3 0 1 2 1 1 1 0-4 2 1 1 1 3l-1 2 1-1v1c0 1 0-1 0 0v-1c0-1 3 2 2 0-1 1-2-2-2-2v-1l1 2v-2c-1-1 1 2 0 0l1-1 3 1 1 1c-2 0-1 3 0 2 2-4-1-1 0-3l2-4v-1c-1-1 1 1 0 0h-1v-1c1 4-3-2 1-1 0-2 1 0 2 0v-2c1-1 0 2 1 1 0-2 2-2 1 0s1-2 1 0v-1c1 0 1 1 2-1v2c2 1 1-4 1-2v2l2 1v-1 1c1 1 1-2 2 0l-1 1c0 1 2-2 2 0l1-1c0 1 0 1 0 0h-1 1c1-2 1-1 1 1h1-1l1-3v2h2c1 1 0-1 0 0 0 2 1 1 3 2-1-1-1-2-2-1 0-1 0-2 1-1l1-1v2-1h1v-1c2 1-2 3 2 1 2 0 2 1 2-1 0 3 2 1 1 2s-1-1-2-1v1l3 2c1-1-3-1-1-1l1-1v-2c1 2 2 0 1 2-2 0 0 2 0 1-1-1 1 0 1-1v-2c2 0-1 3 0 2 3-4 2 3 2-3-1 0-2 2-3 0 0 0 0 2-1 1 1-2 4-1 4-2l2 2c1-2-2-1-1-3l1 2c1 1 0-2 2-1 2 0-3-1-1-3 0-1 1-2 1 0-1 1 1 0 2 1s-1 0-1 1c1 0 3-1 1-1h1l1-1h1c-3 3 1 0-1 2h-1l1 1 1-2 1 1v-2c-1 0 0 0 0 0v1c1 0 1-2 1 0v1c-1 1 0 1 0 0 2 2 0-1 1-1 2 2-1-1 1-2-1 2 0 2 1 3v-1c1 0 0 4 1 1s1-1 2-1h1c-1-1 0-1 0 0 1 1 2 0 1 2h1c-2 0 4 1 1 1 2-1-2-2-2-3 0 0 4 0 3 1l1 1c1-2 1 2 2 0l1-1-1 2c3-1 2 1 3-1 0 2 3 0 3 2 1-2 3-1 4 0 2 3 0-1 1 0 2 2-2 2 0 2h2s-2-3 0-1h1c2 0 1 0 0 0 2 1 2 0 2 2-2 2 1 2 1-1v2l1 1h1s0-1 0 0l1-1c-1-1 2 0 0-1h1v1l1-2c-2-2 1 1 2 0s-2 0-2-1h2c0 1 1-2 1 0s1-2 1-1c0 0 1 2 1 0v-1l1 1 1-1c-1 2-1-1 0 0 0 0 4 2 3 0l1 1h3c0 2 1-1 0 0v-1c1 2 1 0 1 0l1 1c1-2 1 1 1 0 1 1 1 3 2 1 3 0 0-1 0-1 1-1 2 1 2 1h1c-1 0 0 2 0 0l2 2c1 1-3-2-1-2 1-1 0 2 1 1-1 0 1-1 0 0s1-2 1 1c0 2 3-1 2-1-1 2-2-1-1-1s1 0 0 0c1 1 2 1 1 3 3-2-1 0 2 0 3 1 1 1 2-1v1s1 2 1 0c0-3 3 2 3 1v-1c0 1 0 2 1 1h2l-1 1c1 1 0-1 0 0h2v-1c1 2 3 3 3 1 0 2-1 2-2 3 2-3 4 2 1 0l1 1h1c1-1-1-3 1-2v3c2 1-1-2 1-2v1h3c-2 2 0 1 1 1-2 1 1 1 1 1 0-1 1 1 0 0v1c1 1 1-2 1-1h3c1 1-1 0-1 1 2 2 2-2 2 0 1 1 5 0 2 2-1-2 0 2 2-1v1h1c-2-3 1 1 0-1h1c1 2 2-1 2 0 1 1 1-2 2 0 1 1 0 0 0 0h2v-3h-1s-2 4-1 1c1-1-1 1-1-1v2l-1-3c1 1 1 0 1-1 0 1 0 3 1 2 0-4-4-5 0-4l-2-3h-1s-2 0 0-1c1 0-3 0-1-1-1 0-3 1-2-1h-1v-1c-1 3 0 1-1 0-1 0-2-2-1-3v-2l-2 1v-1h-1v1h-2l1-1c-1-1-3 1-3-2 0-2 1 0 2 0l-2-2c2-2 1 3 4 1l1-1-1-1c1 0-2 0 0 0h-3v-1l-1 1v1c-1-1-2 2-2 0l1-1h2v-2c1 1 0-1 1-2l-1 3c0 1 2-3 2-1h-1l2 1-1-1h2c0-1 1 1 2-1h-1l1-1c0-1-2 1-2-1 0-1 0 2-1 0h-2 1l-1 1c1-1 3 0 1 1v-1h-1c-2 2-1 0-1 0 0-2-4 2-3-1v-1l-1 1c-2 0 2-2 3-3 0 1 2 1 0 0h-5c0 1 2 0 1 1s-2-3-1-3l-1-1v3-4l-2 1c2 0 0-2 1-2 2 1-1-2 0-1 0-1 3-2 1 0l4 1c3 2 1-1 3-1v1c-2 0 0 2-1 2v-1h-1l-3 2c0 1 1-3 3-2 0 0-2 0-2 2h2l-1 1v-2c1-1 2 2 3 2-1 0 0 1 0 0 0 0 0-1 0 0h2c0-1 0-2-1-1 0-1 3-1 3 1 0-2 1 0 2 0 2-1-2 1 2 1 1 1-2 1-2 1 0-2-1 3-1 0 1-2-2 0 0 0l-2-1v1l1 1h1l1 1c0-1 1-1 0 0 2-1 2 0 2 1l4 1 2 1c-1 0 0 1 0 0l1 1c1 0 0-2 1-1s-2 3-1 2h1l3 1c-2 1 1 0 1 1 1 0 3 3 2 0h1c0 2 0 1 0 0-1 0 0 4 1 2 1 0 0 2 1 1 0-1 0 1 0 0 1-1 0 1 1 1v-1c1 2 2 1 1 0l1-1v2h2c0 1 0 0 0 0 1 0 3-1 1-1h-2l-1-1c-3-2 7 1 2-2h1c-2-1 1 0 1-1l2 1h3v-1c1-1 1 0 1 1l1-1c0-1 0 1 0 0v-1l1 2c-2 0 0 0 0 0h-4c-1 2 1 0 2 1 0 0-2 0-1 1 1 0 0-2 2-1-2 0 1 1 1 1-3-2 2 0 0 0h1c1-1 2 0 0 0 2 3 1-4 0-1 1 0 1 1 0 0v-2c4 1 6 4 9 5-2-3-9-5-12-7l-4-3c-1-1 0-2-2-3-2 0 1 0 0 0-1-1 0-2-1-1v-1c-1-1-1 1-1 1 0 1 0-3-1-1 0 1 0-1 0 0-1 0 1-2-1-1-2-2-4-4-8-5l-6-4c0-1-7-2-5-3 0-9-17-15-23-18-14-3-6-9-16-14-4 2-6 0-9-1-8-6-13-10-17-18l-16-15c-1-4-7-9-10-13s-6-12-11-8c-2 1-5-6-3-7-6-6-10-19-18-20-4-2-5-8-10-7Zm-13 8c-2 2-5 5-4 7 1 0 0-3 2-1l1-3c1-3 3 0 4-2s0-2-3-1Zm-11 14c-11 12 5 2-1 8-2 1 0 1 0 1 1 2 5-3 5-3 1-1-3-2-2-4 1 0 3 2 4-1-2 0-3-4-6-1Zm7 7c-2 0-4 3-6 4-3 3-2-1-4 2-1-1-1 3-3 4-1 0-4 3-3 4 1-1-1 1 0 0 3 1 5 3 8 0 2-2 3 0 4-2-1-2 4-5 1-6-2 0 2-2 2-2 0-1 3-7 1-4Zm-15 2c-3 1-2 7 0 6 2-2 4-6 0-6Zm48 2c1 0 1 0 0 0l1 2c0 2 3 2 3 4 2 1 1 5 3 4v4c-7-3-1-7-6-3-2 3-13 0-8-2 3 1 3-3 6-3 4 0-6-9 1-6Zm-23 3c-1 1 0 5 1 3 1-3 1-4-1-3Zm-33 6c-5 4-7 10-11 14-2-3 0-1-4-1-5 0 2 1-2 4-3 4-7 8-8 12 1-1 2-2 1 0-2 3 1 1 1-1 2 0 3-5 5-7 5-3 6-4 9-9 2-5 10-2 12-6 3-2 2-7-3-6Zm57 2c-1 1 5 3 2 4h-5l3-4Zm21 12c3 3 1 4-1 6-1-1-11-1-5-4 2 0-1-1 2-2 3 0 2-2 4 0Zm-41 1c4 3-1 7-2 11-2 3 2-1 3 0 1 4 3 9 1 16 0 7-2 2-3 7-2 3 1 0 3 4v1c-1 1 3 4 2 2l6 4c4 1 6 7 2 2-4-3-13-8-20-10-3-3-9 3-10-1 0-6 12-13 14-21 1-1 2-18 4-15Zm-11 1c-2 3-6 3-7 6-2 0-2 2-5 4-2 3 6-1 6-2-4 1 6-5 6-6 2-2 0 0 0 0-3 1 5-4 0-2Zm-57 3c-3 1-7 11-4 8 1-1 0 2 1 1h1c1 1 1-1 2-1h-2c-1-2 0 1-1 0l1-3 2-3c1 0 1 1 2-1-1 0-1-1 0 0h1l-1 1c1-1 2-1 2-3-1 1 0 2-1 1-4 1 1-3-3 0Zm44 1-2 5-1 1c-4-1-4 8-5 8 1 1 3-3 4-3 2-2 1-4 3-5l3-5c0-2 0 0-1-1h-1Zm-57 11c-1 0-6 6-3 4 0-1 8-5 3-4Zm-10 6c-4 2-10 0-13 7-2 4-11 9-12 12 4 2 5-5 9-6 2 0 5-2 1-2l3-1c1-1-2 2 0 0 2-1 1 2 1 2 2-2 3-5 6-4 1 3 0 4 4 2 0-1-2-2 1-3l-3-1c-3 0-1-2-3-2-2-1 6 0 7-2 2 0 1-1 0-1 0 1 0-3-1-1Zm91 0-3 9c1-1 5-8 3-9Zm74 6c2 1 3 4-1 3l-4 1c0-2 3-5 5-4ZM102 97c-3 2-2 8-6 9-2 1 1 0 0 1v5c-1 0-1 1 0 0h-2c-3 2-8 3-10 0-3-4-6 4-8 3v1c-2-1-1 2-4 3l-5 1c-2-1 0 1-1 1h-1l1-1c-2 1 1 3-1 2v1h-1c-2 2-1-1 0-1v-1c-1 3-5 3-4 6 0 0 0-2 1-1 0 0-2 3 1 2 1-2 2 0 3-1 0-1 0-1 0 0v-2c1 1-1 0-1 1h1c-1 0 2 0 1 1l-1 1s-2 2 0 1c1-2 2 2 2-2h1v2l1-2v2h1c1 1 0 0 0 0 1-2 0 1 1 0l-1-1h1c0 2 1 2 0 0h1v-2c1-1 1 3 2 3v-2 2-1l1 1v-1c1 2 0-2 1 0h1v-1c2 0 1 1 1 1 1 1 0-2 1-1l1-1c1 2 1 2 1 0-1 0 1 0 0 0h3c1-2 2-1 2-1h3c-1-2 1-1 0 0 0 1 2-1 0-1l2-1v1c2 0 1-1 1-1l1 1 2-2c1-1 4-1 5-3 2 0 5-1 4-3l3 1 3-2h1c-2-1 0-2 1-3 3 0 11-10 7-12-2 1-4 2-2 3 1 1-4 2-2 0 2-3-2 1-2 0-1-1 0-2 1-3-10 1-4-3-12-3Zm40 1c-5 3-10 8-12 12l3-2h-1c3-1 6-3 8-7l2-3c0 1 1-1 0 0Zm52 0c3 3 10 0 11 4-3 3-9 5-13 7-3 0 0-2-4 2l-7 4c-3 1-3 3-5 3l-4-4c-5-2-4-7-8-9-12-6 2-6 6-2 0 2-4 9 3 5 6-2 13-10 21-10Zm21 1c1 0 1 2 2 1 3-2 6 7 9 4 2-1 6-2 2 2-1 2-6-1-7 2-2 5-3 1-6 2l-2-2h-1l-3 2c-2-1-3 3-5 3-5 1-8 10-13 11-4 1-5-4-8-4-4-1 4-6 5-7 3-3 12-3 13-5 3-4 7-7 10-6 3 0-2-2 1-2 1-1 0-3 3-1Zm-90 2-3 4c0 1-1-1-2 1v4c-2 1 0 1 0 1-1-2 5-4 6-5s3-9-1-5Zm86 3c0 1-3 2 0 2-1 2 3 1 1 0h2l-3-2Zm16 6c0 4 2-1 1 1s0 9-3 8l1-4h-1c-1 4 0-7 2-5Zm60 3c1 3 6 2 8 6 2 3-3-2-4-2-1-1 1 2-1 0l-4-4Zm-36 2 4 6c2 3-3-1-3-1 0-2-4-7-1-5Zm-15 1c7-1 2 8-2 9-3 0-10 1-10-1 1-1 1-1 0 0-2-1 0-2 1-2l1 1h1c-1 2 2 0 1 0v-2c2 0 5-4 8-5Zm-28 7h5s2 3 0 1c-3 2-11-3-5-1Zm134 0c-1 1 2 0 1 1h-2c0 2 2 1 3 0v1h1v1h-3c1-1-3 0-3-1 2-1-2-1 0-2l1 1v-1h2Zm-137 2c-2 0-1 2 0 3 2 0 0 2 1 1 2 1-2 2-2 3h-5s-2 3-1 0c-1 0-3 4-2 0 1 0-2-3 0-2h3c1 1 5-4 3-4 0 0 4-3 3-1Zm-147 1h1v1c2 1-3 2-2 1 1 1 1-1 1-2h-1c0 2-1 0-1 0l-1 1c-2 0-12 2-11 5l1 3h3v1l2-1c1 1 2 0 3-1v1c1 0 1 2 1 0s2 4 2 2l1-1s0-1 0 0v-1l-1 1c-1 0-2-3 0-1 2 0 0-2 0-2 2-1-2-1-1-1l2-1c-2-1 0 0 0-1 1-2 0 2 1 1v-2s4-3 0-3Zm284 2h1-1c0 1 3 1 0 1 0 2 2-1 2 0s1 2 1 0c1 1-1 1-1 2 2 0-1 0 0-1 0-1 0 1 0 0-1-2-1 3-1 1-1-2 0-1-2-1v1l-1-3c1 1 1 1 0 0h2Zm26 2c1 0 5 0 3 1s3 2 2 3c-1 2-10-6-5-4Zm21 10c3 1 4 2 4 4h-2l-1-1v1c1 0 1 0 0 0 0-2-2-3-3-2 0-2-3 0-2-1-3-1 1-3 4-1Zm-294 0c-1 1 2 0 1 1-2 2 5-1 3 2v1c-1-1 0 1-1 1v-1 1c0 1-2-2-3-1-1 0-3-1-1-3l1-1Zm5 11c2 1-1 2 0 3h1s-1 0 0 0c0 0 4 2 3-1 0-1 2-2 0 1h2c1-1 1-2 2-1h-1c0 2 3-1 3 1l-3 1c1 0 1 0 0 0s-3 0-3 2c0-2-2 0-2-1 1-2-2-1-3-2v-2l1-1Zm-36 1h-2c1 1 0 5 2 2v2l1-2c1 1 1-1 2 1 1 1 0 0 0 0 1 2 1-1 1-1l1 1h1c0 2 3 0 2-2v2c-2-5 0 1-1 0l-2-1h-2v-1c-1-1-2 1-3-1Zm-9 1c-4 0 2 4 0 2 1-1 2 1 1 1-1 1-3-2-3-2 0-1 0 1 0 0h-1c-3 2-6 3-10 2l-9 6c0-1-3-6-5-2-2 2-2-4-5 1-1 4-6 0-7 4 0 2-4 5-5 3 0 5-3 1-8 4-1 1 0-2-1 0 0 2 5 2 3 4-1 2-4 0-5 2 1 0 7 2 9 0 3 1 6 0 8-1 2-2-8 0-4-1 2-2 4 1 5 0-1-2 4 0 5-2 2-1-4-2-1-2 6 2 10 0 1-1 0-2 8-1 10-2 0 0-2 3 2 2l2-2 4 1c-1-1 1-1 0 0l2-1c-3 4 7 3 7 0 3-2-5 0-1-3h1c2 0 1 2 2 1 4-1-2 2-3 4-1 4 6-3 9 1 2 1 8-5 5-2-2 1-5 1-3-1 1-1 3 1 2-2-4-3 3 1 4-3 2-1-3-1-3-1-1 0 3 0 2-1-1-2 1-1 1-1-1-3 4 1 4-3l-1 1v-2c2-1-2 2-3 1 0-2-2 0-2 0-1-1 0 0 0 0v-1c-2-1-1 1-2 1l-1 1-2-3h-2l-1 1c0-1 2 0 0-1 2 0 0 0 0-1l-1-2c1 0 1-1 0 0Zm-3 6c4 2-7 4 0 4 0 1-8 2-7 0s3 1 4-1v-3h3Zm14 7c-4 1-3 2 0 3v1l4-1c1-2-2 0-1-1l-3-2Z"/>
</svg>
