<?xml version="1.0" encoding="UTF-8"?><svg id="Layer_1" xmlns="http://www.w3.org/2000/svg" width="405" height="180" viewBox="0 0 405 180"><defs><style>.cls-1{fill-rule:evenodd;}</style></defs><path class="cls-1" d="M230.96.15c-5.72.24-1.81,5.17-2.7,6.91-.84.15-2.81.54-4.51,1.6-2.2,1.65.1-3.26-1.49-.7-.64-2.08-4.08,10.2-1.17,6.81,2.63-.11,9.52-8.83,8-5.68-1.09,4.61.03-1.52,3.31.93,1-1.68-2.69-3.37,2.58-2.82,5.12,1.49,3.54,4.41,2.73,7.21-.93-1.31,1.57,3.88-.48,3.02-.53-.44-.38,1.06.17,1.66,1.18,1.47-.47.02-.17.98.14.44.13.44-.21.03-1.89-2.14.26,3.13-1.2,2.68,0-1.05-.93-3.1-2.23-.99-.82,1.46-.83.62-1.54.37.57,1.44-1.26,1.62-1.52,2.95-1.39,1.59-3.41-1.97-4.72,2.29-3.11,1.47,1.29,5.4,2.05,7.1-2.08,2.38.64,5.87-1.14,6.97,1.19,5.78,3.45.88,3.22,7.82.78,1.68,1.67,2,.41,2.91.76,2.15,4.33,2.47,1.52,4.6-.58-1.49-2.17-3.01-3.61-3.68,3.51,2.14-.78-6.71-2.9-4.42-4.48,1.06.21,15.82-6.03,8.47-1.4,13.16-17.77,15.95-24.97,24.63-7.82,4.17-2.22,15.14-10.11,9.9,10.7-12.4-6.52,1.6-8.85.1-.15-2.11-4.79,1.28-5.92,2.59-3.09,2.55-5.15.75-8.6,1.68-4.13.35-3.04,3.41-3.6,5.5-3.04.86-2.68,2.99-2.04,5.31-3.78,1.71-7.43,3.29-11.59,6.74-7.84,6.71,3.62-1.32,4.12-1.29,1.37.44-.9.45-.33,1.34.53,1.29-2.18.66-2.15,1.18-.55,4.75-3.16,2.35-3.03,3.72-.47,1.21-8.12,6.04-4.53,5.01.89.27,3.62-.51,3.24.17-.64.73,2.88-1.4,3.56-.98-1.85,2.72-.67,4.99,2.08,6.08-4.08.11-11.26-4.28-16.38-4.7-3.86-2.4-7.92,3.51-10.06,3.22-1.39-.74-5.37-4.53-7.31-5.57-1.94.79-8.05-2.94-11.7-1.8.61,12.48.15,3.42-6.64,7.56-3.8,1.65-4.11,1.02-1.03,2.13-2.77,1.94-3.8,3.85-7.18,2.97-.29-.28-1.36.56-.31.45,2.04.48-.17.98-.64,1.37,4.03-.46.25,3.07,3.12.77,4.91-5.31-.96,1.86,7.68-1.91,3.26,1.46-4.44,4.09-5.81,5.59-.27.35-3.18-.96-3.93-.07-1.81,1.45,1.68-.02.85,2.2.64,2.12-.55,1.75-1.92,2.65-2.37.81.35,2.18-2.36,2.78,2.21.21-2.82,1.75-.87,1.97.65-.07,3.66-2.54,2.01-.25-3.88,2.57.3,1.85,2.28,1.38.53.52-.48,2.53-1.14,1.77-1.54-.67-.05,1.9-1.18,1.92-.65.14-.17.54-.53.82.81-.59-2.87-.12-2.11.33-.55.28-5.08.85-1.98-.22,3.62-1.03-4.1.03-4.91.59.95,1.86-1.03,1.77.53,2.13.38,1.01.37-1.46.96.03.2-.85.21-1.33.61-.02-.22.36-1.41.79-.77.85.43-.89,2.32,1.3,1.98.44-.23-.52-1.04-.45-.77-1.65.58-.86-.02.67.37.57.19-.2,1.72,1.08,1.06.28-1.35-1.14-.44-1.2.2-1.57-.31.17.97,2.5.5,1.04-.77-1.24,4.4.53,4.85-.7-2.22.07-3.27.22-2.62-.25,1.68.77,8.22-3.68,7.89-2.61-1.46.34,1.66.44,2.1-.29,1.24-.57.16,1.96,1.52.75.62.21-.09-.33.35-.34.42-.07.12.85.49.28.07.03,1.51-1.56,1.42-.57-.56.96,1.34-1.65.79.17-.14.75.2.84.39.1.31-.79,1.1-.35,1.34-.39-.29-.25.43-2.19.31-.65.48,1.5.48.65.51-.06,1.45.5-.16,2.01-.38,2.1,3.87.91-.78.67-1.59,2.08-.01.55.26-.43.49-.31.14,0-1.04,3.09-.14,1.75.51-1.46.91-.49,1.65-.25.21-1.01-1.94-.54-1.01-1.71.68.83.56-.84,1.28.71.32.62,1.89,2.23,2.3,1.38.05-.85-1.12.69-.59-.63,2.59-.41,1.46.83,1.63,1.5,0,.83.59-.56.88-.5.08.43.13,1.39,1,.71-1.38.59.87-2.55.73-1.42-.94,1.57.8,1.53.99,1.52-.19-1.31,1.23.83.77-.81-.4-1.22.8.15.73.86.25.2.03-2.28.28-2.23-.24,1.97,2.39-2.18.91.75-.62.87,2.04-2.05,2.09-.57-.12.43-.9-.76-.6.03.61.8-1.43.05-.63.83,1.03,1.53-.35-.76,1.43-.3,1.53.08-.66-.89.33-1.12.23,1.05,1.29-.3,2.09.23.77.86.2-1.46.57-.61.21,1.36.94.37,1.84.51,1.84.89,3.3,1.41,4.09.65-.2,1.25,1.23-.09,1.81.64.51.61-.03-.16.33-.3.47.26,1.54.72,1.22-.15-.08-1.27,1.08,2.46,1.12.2.5-1.6-.19.78.6.27.87-.39.24.96.84.66,2.07,1.08-.14-.51,2.6-.02.59.58.51,1.65.85-.08.96,1.19-.55,1.43,1.53,1.01,1.07-.56,1.22,1.48,2.23.71-.33.09-1.29-.86-.5-.78.41.92.39-.47,1.13-.35,1.46.1,0,.38-.28.7.84-.31.18,1.88.99.21.82-1.04-.3-2.53.78-1.16.65-.11-.07-.84.51-.69.64.13-.36,1.33.49.6.72-1.09.01,2.38.48.87.05-.91.35.03.65.13.42.03-.28-.95.22-.65.31.29.42,1.56.87.46.08-.3.13-.24.15.19.1,1.38.76-1.44.19-1.69-.3-.48.29-.37.87.16.71.66-1.01,1.51-.03,2.21,0-.97,2-3.24,2.48-.32.32-.38,1.28-.76,1.31.33-.28,1.16,1.41.01.21.14,0-.31.49-.99.5-.7-.09.08,1.64-2.34.72-.71-1.12.35,1.86.72,1.19.21-.38-1.32,1.45,1.22.61.76-.97.02.21.83.41-.14.53-1.89.61,2.31.69.81.19-2.57,2.05.85,1.79-1.06.83,1.07,2.3.8,2.81,2,.52-1.04,1.26-1.54,1.97-.9.28.43-.94.42.15,1.07.78-.01-.11-2.4-1.02-2.92.45-1.35.95.25,1.4-.37,2.41-.35-.64-1.01,1.49-.56,1.28,1.35.9-.47,1.39.21.32.59.08-.97.91-.7,1.44.52.73-.35,1.38.17.5,1.55.31-1.79.53-.71,0,1.67,1.65.24,2.34-.01-.14-.25-1.82-1.48-.5-.78.1.64,1.24-.16,1.5-.14-1.8,2.18,1.55,1.6.19-.61.66.76,1.48,2.6,2.31,2.13-.31-.27-1.14-1.96-.25-1.03.77,1.41,1.21.94,2.09.03.79-1.15.71,1.02-.59.87,2.01,1.24.82-.12,2.42.42-.88-.43-.76-1.69-1.67-2.19-.29-.8,1.85,1.18,1.05.08-.38-.39-.3-2.57,1.09-1.75.44.75,1.65-1.23,1.31-.03-.2.86,3.58.37,2.31.86-.99.24-.14,2.45-1.11.74.22-1.26-2.08.49-1.99-.78.02-.85-.63-.03-.68.15-.64-2.59-1.24,2.84.7,3.05-1.99-2.94,1.74-3.08.91-.85-.47-.25-1.28-1.8-1.07-.52,1.29,1.15.76,1.53,1.37.71.67.18.02-1.88.26-1.59.93,1.17.28,3.9,1.09.69.22,1.4,2.22,1.54.5.46,1.41-1.98-.26-.98.08-1.47,2.22.72.99-1.47,1.89.5.72-.46,2.05-1.26,2.03,0,.33,0,.15.78.52.75.52.21-.27-2,.24-1.19,1.84,1.51.57-1.5,1.11-1.06,2.3,2.16,1.96-1.21,1.66,2.55.17.27.21.26.21-.01-.04-.64.81.65.88-.27,1-1.21-.32.99.5.58,1.15-.17-.4.67.03.64,1.58-.28-.26-1.09.37-1.73.59,1.13.45-.03,1.23-.21-.29-.27-.82-.75-.24-1.04,1.24,1.04-1.86,5.13.4,2.25.93,0,.39-2.93.86-1.44.72,1.34,1.85.62,2.19,2.06.78-1.03-1.44-2.65.79-2.59-1.29.54.19,1.77.85-.29.42,1.09.92,2.26.53-.48.19-1.05.75,1.77.74,1.98-.28,1,.66.07.88.03-.53-.39-1.34-3.01-.35-1.43.08,1.62.89-1.15,1.78-.5-.59.19-1.82,2.06-.23,1.79-.22-.2-.87-.58.02-1.12.7-.49-.12,1.63,1.23.31.89-.84-.53.23-.45-.46.42-1.25,1.76.95,2.12.38.59-1.06.78,2.76,1.03.78.06-1.6.21.29,1-.99.68.27,1.37,2.85,1.82,2.49.03-.61-1.22-2.38.46-2.17.44.17.05-.35.42-.67.84-.93-.24,2.58-.6.99-1.81.4,1.82,1.68,1.45.31.96-.18-.14,2.01.61,1.3.68-1.57-.87-2.94.82-.55.71-2.01.12-.87,2.06-.48,1.3-.78,2.86,1.3,1.83,1.66-1.29.51,2.26.99,2.91,1.25,1.81.83-.62-1.44-1.67-.45-.2,0,1.48-1.37.46-1.48-.05,2.39-2.21-1.81-.54-.12.57.19,2.17-1.75,1.71-.72-.53.88,1.76.73.28,1.15-1.6.03,1.56,2.36,1.05,1.87.06-1.43,1.18,1.15.87-.11-.2-.55-2.05-1.35-.8-.83.41-.92.11-.61.71,0,.35-.57.47-2.37,1.13-.25.5,2.29,2.23-.61,1.93,1.17-2.06,1.68-2.99-3.72-2.49.17.54.54-1.8.47-.7.9.39-.39.74-.29.41.11.18,1.41.68-1.5,1.77-.58.02.26-.8.82.03,1.64.05.14.11-2.2.82-1.14,1.24-1.31,1.58-2.1,2.85-.46.77-.33-.68-.83-.32-1.06.4.22,1.02.27.93.67-.16.63.77-1.24.64-.36.4,1.3.38-.51.76-.44.47.29.25.86-.37,1.02-.8.36-3.55,2.02-2.55.1.14,1.23.73.57.14-.43-3.86,1.57,1.33,1.36,1.21,2.64-.2.87-1.24,1.15-.97,2.13.62.11.8-1.2,1.07-.86.77.82-1.23.53-.27,1.02.28,1.14.22-.75.86-.25.93.43-.18-.35-.1-.81-.52-.47,2.78,1.93,1.46-.19-.48,1.08-1.83-2.11-2.11-2.09-.64.27-.04-1.26.43-.16.55.43.12,1.05.46,1.25.27,0,.21-.94-.09-1.42-.4-1.42,1.69,1.27.8-.5-.73-.74,1.04.35.56-1.15.37.03,1.82,1.85,2.7,1.12.53.75.69,1.2,1.69,1.54-2.4-.38-.98,3.17-.72,1.46,2.41-3.63-.56-1.01.14-2.45.69-1.34,2.02-2.49,1.81-3.95-.76-1.69.8.61.41-1.14-.46-.89,1.42,1,.38-.17-.55-1.07-.37-.18-.97-.24.11-.52-.6-1.96-.81-1.17,1.92,4.2-2.21-1.65,1.16-.14.09-2.03,1.44-.43,2.43-.92-.51-.98-1.48-.98.05-1.4.33-.74-.11,1.44.45.45.58-1.18,2.78-1.17,1.12.55-.42,1.47,1.27-1.8,1.63-.33.81.93-.19-1.08-.33-1.14.64.31,1.27.98,1.79-.2,1-1.34-1.16,1.86.54,1.59,1.2.73.54-3.72,1.11-1.6.48.95.95.54-.11,1.2.79.24.55.97,1.13,1.34.47.57-.35-2.39.09-1.3.33.83,1.63.72.53,1.48.86.62,1.29-1.98,1.5-.16.46-.13.21.69-.19.68-.52,1.12,1.38-1.27,1.96,0,.41.29.42-1.67.7-.3.18.61.18.61.33.08.06-1.2-.72-.63-1.34-.42-1.18-.14,1.2-1.25,1.28-.41.92-1.91.42-.28.39.94-.64,1.66.21,1.2,1.4.66.91-.88-1.68.76-.71-.45-.3.11.36-3.98.55-3.02-1.13,2.32,1.01,1.96.27,2.46-.97,1.07,1.42-.17,1.62.17.67.84.02-1.52.46-.77-.08,2.15.88,1.3,2.29,2.01-.65-.84-.69-1.6-1.76-.5-.25-.91.28-2.61.75-.75.43-1.17.21-1.04,1.38-.94.2-.19.07.47-.27,1.32-.46.91.74-.2.47-.45-.21-.36.75.13.8-.19-.5-.36-.72-1.07-.26-.74,1.83.72-1.6,2.27,1.76.91,2.09-.24,2.14.34,2.89-.99-.52,2.27,1.51,1.09.18,1.84-.79.56-1.02-.96-2.01-.68-.42.31,1.11-.02.3.44-.22.22,2.51,1.38,2.71,2.12,1.3-.64-2.63-1.32-.16-1.43.28,0-.3-.86.26-.58,1.56.24-1.06-3.04.51-1.54,1.1,1.09,1.42,0,.87,1.51-2.11.25-.49,1.76-.38.97-.31-1.45,1.56.24,1.07-.78-.09-1.13,1.38-.58.42-1.93,1.45.07-.73,2.86.33,2.04,2.16-4.36,1.82,2.34,1.9-2.96-.91-.35-2.33,1.69-2.96-.05-.52-.11,0,1.43-1.09.82-.3-.21-.29-.23.07-.12.88-1.96,3.91-.62,3.2-1.58-.32-1.26,2.13,1.83,2.24,1.24.91-1.27-1.62-.94-.55-2.55,0,.32.86,1.52,1.16,1.86.68.69-.75-2.42,1.65-1.1,1.7.25-3.31-1.29-1.23-2.73.54-1.43,1.27-2.54.67-.29-.85.82,1.77.48,1.99,1.06,1.01,1.2-.77.15-.26.74.92.51,2.78-.67.81-.51-1.38-1.3,1.52.21,1.21-.55.29-1.16.33-.81.68-.19.52.14.06-1.87.63-.65-3.08,3.51,1.16.28-.12,1.9-.62,1.09-.11.27-1.29.07.06.65.75.93.75,1.72.16.4.81-1.74,1.23-1.95.12-1.28.77,1.41.99.17.02-.3-1.67-2.59-.65-1.95-.22.48.29.59.33.17.56-.71.11,1.05.47,1.01.39-.06.55-1.74.78-.37-1.33,2.02-.47.55,0,1.34-.91.89-.17,1.59.25.41,1.52,2.1-.18-1,.24-.99,2.4,1.92-.55-1.37,1.54-2-.92,1.59-.19,1.32.75,2.36.36,1.07.03-.87.6-1,.48.11-.09,4.16.61.96.53-2.3,1.02-.34,1.64-.71-.52-.72,1.16.48,1.13.01-1.2-.74.44-.51.36.02,1.22,1.21,2.26.46,1.2,1.87.5-.81,1.2.61.19.53-1.4.14,4.32,1.15,1.6.2,1.3-.36-1.97-2-2.42-2.8.23.18,3.86.28,3.49,1.35-.13.82.41,1.39.67.71,1.15-1.5,1,2.35,1.61.45.56-.5,1.34-1.99,1.29-1.11.29.42-1.91,1.8-.56,1.92,2.4-1.1,1.39,1.01,2.81-1.39-.45,2.28,3.27.8,3.26,2.62.6-1.9,2.74-1.55,3.49-.24,2.22,2.83-.2-.83.69-.47,2.61,2.1-1.07,2.36.56,2.36.66-.31,1.51-.71,1.46.32.91.08-1.42-3.18.06-1.65.39,1.34,1.76-.4,1.78.15,1.31.36.51.05-.29.71,1.48.41,2.04-.34,1.39,1.5-1.26,1.95,1.66,1.64,1.37-.68.3-.29,1.27,1.47.39,2.18-.09.15.4.63.57.94.26-.17-.03-1.87.69-.87.25.8.48-.63.81.08.26.49.63-.15.28-.34-.55-.76,1.95-.37-.11-1.1-.25-.61,1.06.45,1.22-.08.4-.23-.45,1.33.28.9.36-.3.9-1.39.58-1.7-1.38-1.77,1.22.59,2.42-.4.51-.49-1.58.01-1.52-.47.37-.03,1.02-1.06.86-.41-.15,1.23,1.09-1.24.67.02-.19,1.15,1.38-1.95,1.11-.26.34,1.95.41-1.26.87-.91-.41.48,1.16,1.74.63.55-.28-.65.62-.54.85-1,.63.01-.19.83.59.75.57.29,1.22-1.89.44-.76-.54,1.36-.44-.94.24-.63.21.22,3.99,1.95,2.8-.16-.36-1.16,2.25,2.38,1.74.94-.19-.57.64-.09.42.26.67,1.13,1.18-1.08,2.04.62.09,1.6.86-1.04-.21-.85.05.02.88-1.46.79-.11.42,1.26.87,0,.42-.05.46-.64,1.05,1.52,1.51.39.62-1.31.29,1.57.55.42.06-.31.21-.56.34-.56.87,1.44.82,2.93,2.14,1.27,2.32.22-.02-.69-.57-.67,1.12-1.2,2.19,1.09,2.21.65.24-.27,1.68-.81,1.16-.16-1.48.06-.38,2.09.03.54-.26.92,1.29,1.66,1.77,1.99,1.35.79-2.86-2.49-.51-2.61,1-.5-.87,2.26.26,1.43-.18-.34,1.13-.97.56-.41-.95,1.64,1.23-1.2,1.04.86-.13,2.06,2.6-.58,1.27-.49-.86,2.23-1.41-.77-.78-1.03.88-.5.8.03.22.44,1.29.41,1.63.39.58,2.23,3.28-1.3-1,.14,2.6.56,2.5,1.11.97.56,1.49-.85.37.16-.16,1.33.6.44-.49.11.41,2.56.55.64-.02-3.01,3.09,1.35,2.81.42-.03-1.15.05-1.53.3-1.38-.13,1.43-.19,2.06,1.36,1.24,1.14-1.21-.05.91.69.2.38-.31.71-.19.71.24-.22.17-1.05,0-.51.78.6.55-.38-.83.36-.44.99-.58,1.18-.71,1.69.56,1.32.47-.75-.83.31-1.04.47,1.64,2.15,3.02,2.82.66-.06,1.83-1.63,1.88-2.05,3.36,1.88-2.73,3.47,1.52,1.2-.44-.18-.09-.09,1,.43.87,1.01.1.1.77,1.17.19.92-.94-1.18-2.35.77-2,.45.3-.62,2.42.49,2.98,1.31,1.45-.91-2.14.19-1.31.14.36,1.04-.11.8.19-.25,1.11,1.33-.35,1.24.5.04,1.33,1.12-.4,1.1.4-1.48,1.13.72.4,1,1.03-1.42.89,1.35.79,1.5.18-.02-.93.88,1.07.26.59-.4-.2-.56.33-.12.46,1,.81.28-1.67.92-.77.96.67,2.2-.13,2.77-.13.68.8-.78.39-.66,1.02,1.22,2.11,1.37-1.73,1.83-.21.91,1.49,4.39.42,2,2.32-1.45-1.48-.57,2.1,1.79-1.17.97.94-1.43.45-.26,1.5-.67-.68,2.16.36,1.22-.11-1.56-3.1,1.11.4.49-1.41-.53-.5.26-.48.24-.13,1.58,2.62,2.07-1.08,2.5.54.93,1.14,1.35-2.01,2.19.23.94.67-.61-.54.16-.76.69-.52.18,1.81,1.05.06,1.27-.08.75-3.08.37-2.72-.28.39.15,1.01-.75.32.13-.05-2.57,3.28-.87.38,1.06-.97-1.77,1.3-1.62-.31-.23,0-.19.49.12,1.81-.04,2.39-.86-3.66-.77-3.19-.15-.45-.14-.46.12-.06.72,1.14.65-.34,1.02-.56.35,1.03-.25,2.36,1.02,1.61-.35-4.17-3.88-4.48-.43-4.27-2.16-1.26-1.45-1.38-2.07-2.97-.69-1.1.25.67-.26.63-.03-.77-2.27-.78-.89-1,1.64-.39-3-.63-.87-1.25-.33-.61-3.11.46-1.5-.62,1.24-.55-.6-.83-.75-.25-.16-.26-.35-1.43-.6-.76-.62,2.34-.18.5-1.14-.36-.69-.38-2.1-2.25-.5-3.26-1.35-.33-.8-.25-.55-1.49.73-1.03-1.63.48-1.26.88-1.14.19.63-1.58-.23-.93-.43.62-1.04-.76-1.21.07.3-.12,1.18,1.35.27.76-.17-.53-2.26.73-1.83-.47-.3-.39-.59-.28.32-.51-.67-1-2.65.47-2.5-2.12-.13-1.79.98-.39,1.6-.4-.84-.75-.86-1.52-1.6-1.83,1.87-1.61.79,3.41,3.5.72,1.18.67.52.33,1.59-.54-.18-.58-2.33-2.44-1.46-1.3,1.19.25-2.05.74.19.76,1.54.94-3.41.11-2.5-.37.38-.6.76-.91-.12-.64.06,0-.41,1.02-1.1.74-1.04-.26.07,1.59-.71.92-.91-1.37-1.33,1.93-1.38.04.1-1.05.57-.7,1.12-1.13.18-.52.51-.86,1.27-.24.11-.43-.63-2.63.1-2.19.91,1.09.37-1.07,1.71-1.11-.47.7-.75,1.71-1.66,2.19.38,1.75,1.91-2.85,2.13-.82.11.76-.8-.05-.57.49.39.02,1.53.89,1.43.34.19-.74-.27-.29-.48-.78-.14-.66,1.7.86,1.3-.11.26-1.1,1.46.73,1.98-.48.4-1.08-2.41.21-.86-.78.66-.06,1.07-.21,1.53-.39.01-.83-2.57.95-2.1-.81-.31-.96-.54,1.29-.77.12-.34-.58-1.54-.31-1.91-.93-.51.29.33.3.28.64-.08.17-1.11.09-.37.56.89-.65,2.54.55.76,1.08-.72.9-.13-.84.39-.53,1-.43-1.82-.49-1.91.15-1.09,1.49-.2-.47-.86-.91-.11-1.26-3.96,2.11-2.65-.08-.76-.47-1.39-.89.18-1.07.44-1.05-1.2-.36-1.52.7-1.97-.51,2.66-2.15,2.81-2.87.04,1.23,2.71.91.74.21,1.8-1.16-2.46.06-2.62-.72.18-.36-.71-.41-.58-.1-.02.68-1.49.45-1.6.91-.3.68,1.48-.14.75.35-.88,1.39-1.89-3.07-1.5-2.61.79-.02-.67-1.73-.27-.78-.44.85.53,2.05-.23,2.4-.78.35.21-2.43-.4-2.25-.74-.22-.32-.45.1-1.12.59-1.39-1.75,1.59-1.84.4,1.67-.24-.2-2.12,1.22-1.56,2.16.78-1.41-2.44.1-1.79-.13-.55,2.42-1.25.65,0,.67,1.3,4,1.1,4.21,1.08,2.59,1.95.7-.76,2.73-.21.6.78-.41,1.21-.34.8.45-.18.39-.58-.09-.58-1.05.69.96,1.9-.34,2.13-.16.8-.82.08-.25-.26.89-1-.96.03-.77-.92-.66-.86-3.2,1.52-3.23,2.55.53.53,1.52-3.15,2.75-1.97.65.2-1.61.28-1.23,1.47.06.24,1.04-.27,1.23.58-.07.06-1.15.18-.31.32.96-.39.12-1.4-.44-1.64.95-.78,1.85,2.16,2.78,2.1-.64-.23.62.98.39.03-.23-.29.26-.82.34-.41.27,0,1.74,1.06,1.31.49-.26-.95.63-1.7-.93-.76.18-1.41,3.51-1.27,3.14.54.18-2.04.99.48,1.92.06,2.6-1.06-2.11,1.2,1.92,1.43,1.34.35-1.44.41-1.36.25-.32-1.42-1.52,2.97-1.13.73.57-1.99-2.23.13-.62-.22,1.45,1.04-2.13-.04-1.68-1.5-.32.66-.25,2.54.3,1.76.81-.62-.06.98,1.01.56.91-.17.42.61.56.53.4-.1.59.83.7.17.15-1.03,1.77-.69.55.12,1.83-.64,1.36.62,2.31,1.13.51,1.54,1.99,1.03,3.24.68.37.48,3.97,1.33,1.95,1.33-.54.22.08.88.63.43.93-.64-.15.98.64.74.72-.04.37-2,.81-1.28,1.07.71-2.11,3.26-.42,2.21,0-1.2.45.6.78.28.59.3,2.54-.36,2.62.37-1.48.85,1.68.52,1.75,1.09.53.6,2.39,2.82,1.37.71-.77-1.17,1.37-.71,1.44.04-.07,1.38-.18.05-.69-.21-.21-.04,0,3.82,1.44,2,.52-.45.22,1.83.69.77.34-1.55.32.57.48.07.44-.65.13.48.52.5.34-.11.62-.95.67-.15.4,1.19,1.16.3.14-.67.03.08.88-.48,1.11-.34.17.23-.76,1.11.07.67,1.41-1.01-.74,1.02.56.6.72-.71,1.33-.6,1.5.58.15,1.04.48-.71.69-.58.49.13,2.12-.64.61-1.08-.6-.51-.59,1.45-1.81.24-1.11-.91-.7-.01-1.68-1.13-2.32-2.04,7.17,1.21,2.63-1.51.66.25,3.04.24.46-.27-1.47-.77.87.28.94-.99,1.09-.46,1.69.27,2.84.84.9.81,2.07-.75,2.39.12,0-.66,1.1-.84.21-1.05.48-.63.56.46.77.63.14-.43.67-.21,1.06-.64.63-.84-.3.71.39.33.46-.18.27-.86-.25-.86-.76-1.54,1.98,1.6.54,1.16-1.19.1.28.57.34.72.14.34-2.52.51-1.68.14,1.62-.82-.8-.57-.93-.29-.79.76-.75.06-1.23.39-1.32,1.65,1.03-.01,1.63.11-.09.37-1.36.64-1.07,1.13,1.07.55.85-1.67,2.07-.6-1.96-.14,1.4,1.01.92.63-2.35-1.74,2.83-.14.62.46-.37.34.85.37,1.15-.48.61-.62,1.34.54.03.52,1.67,3.03,1.04-3.96-.02-1.37.36-.03.45.74-.03.28-1.16.17.33-1.85-.8-.77-.45,1.03-.37-2.27.88-.92,3.54.75,5.9,3.11,8.17,4.4-1.31-2.45-8.1-4.93-11.23-7.27-2.38-1.56-2.57-1.79-4.6-2.98-.52-.7.05-1.89-1.89-2.37-1.56-.65.83-.08-.27-.74-.48-.35.56-1.14-.55-.64-.41.5-.22-.62-.5-.75-.53-.97-.1.76-.36.86-.19.71-.45-2.76-.77-1.18.07.75-.4-.4-.72-.08-.48.2.89-1.8-1.13-.71-1.56-2.5-3.45-4.29-7.17-5.18-1.99-1.43-3.61-3.12-6.52-3.82-.21-.86-6.54-1.56-5.2-3.28.77-8.8-16.91-14.34-22.4-17.37-14.58-3.31-6.54-9.39-16.11-14.13-3.75,1.27-6.27.19-9.5-1.62-7.91-5.3-12.86-9.15-16.9-17.33-2.87-4.7-12.81-11.18-15.32-15.48-1.7-4-7.22-9.23-10.52-12.8-2.46-3.59-5.84-11.53-11.16-8.37-1.63,1.35-4.42-5.18-2.92-6.83-5.36-5.92-9.52-18.71-18.28-19.94-3.11-1.71-4.14-8.31-9.53-6.74ZM218.04,7.83c-1.64,2.11-5.17,5.32-4.2,7.31.72.13.53-2.97,1.71-1.22.42.42,1.06-2.08,1.71-2.56.6-2.92,2.65-.29,3.68-2.76,1.16-1.53.36-1.92-2.9-.78ZM206.55,22.48c-10.14,11.5,5.75,1.63-.92,7.79-1.32.46.35.6.7,1,.63,1.48,4.44-3.2,4.25-3.7,1.54-1.06-2.86-1.99-1.39-3.32,1.1.16,2.63,1.86,3.39-1.23-1.52-.26-2.28-4.46-6.04-.53ZM213.63,28.89c-1.25.1-3.32,2.88-5.83,4.34-3.22,2.48-2-.92-3.84,1.4-1.29-.31-1.26,3.47-3.09,3.95-.75.76-4.24,3.69-3.11,4.06.81-.22-1.07,1.71.21.75,2.62.88,5.42,2.17,8.36-.67,1.29-1.65,3.1.62,3.67-2.16-.77-2.05,4.35-4.42,1.15-5.29-2.54-.39,1.83-2.56,1.52-2.64.05-.34,3.54-6.14.97-3.74ZM199.4,31.31c-3.62.95-2.82,7.06-.05,5.2,1.37-1.7,3.33-5.56.05-5.2ZM246.9,32.62c.8.4.92.78.19.59-1.43-.06.99.75.71,1.66.18,1.72,3.67,2.49,3.15,4.35,1.57.6.6,4.4,2.83,4.14.93.19,1.46,4.03.06,3.33-6.73-2.27-.82-6.95-6.25-2.98-1.45,3.46-12.64.27-7.83-1.8,3.29.84,2.95-2.94,5.97-2.44,4.25-.24-6.05-9.21,1.17-6.85ZM224.05,36.09c-1.19.63-.3,4.42.89,2.49,1.41-2.4,1.39-3.92-.89-2.49ZM190.86,42.48c-4.71,3.64-7.35,9.1-10.79,13.62-2.2-2.97-.27-1.2-4.06-.66-4.92-.71,2.17.63-1.9,3.86-2.74,3.24-7.11,7.8-8.23,11.59.65-.84,2.3-1.64.84.05-1.86,3.17.85,1.33,1.14-.75,2.32.02,3.32-5.06,5.53-6.98,4.21-3.31,5.42-4.2,8.7-8.71,1.89-5.87,9.49-2.04,11.5-6.02,3.74-2.76,2.64-7.88-2.73-6ZM248.4,44.31c-1.64.21,4.53,2.67,1.29,3.41-.9.19.6,1.21-1.96.56-1.17-.46-3.5,1.18-2.28-.55.73-.33,3.2-5.27,2.95-3.42ZM269.05,55.77c3.11,3.15.75,4.21-1.06,5.76-1.28-.53-11.21-.49-4.75-3.29,1.93-.11-1.18-1.08,1.44-1.76,2.96-.09,2.31-2.34,4.36-.71ZM227.59,56.63c4.49,2.92-.97,7.39-1.77,11.68-1.58,2.57,2.37-.99,3.08-.34,1.04,4.21,3.58,9.04,1.57,15.66-.44,7.54-2.83,2.29-3.65,7.62-1.37,2.87,1.31-.36,2.91,3.66.69.01-.02,1.09-.04,1.47-.24.43,3.32,3.3,2.59,1.28.9,1.75,5.28,4.04,5.83,4.16,3.79.98,6.25,7.16,2.04,2.35-4.48-2.95-13.08-7.91-19.69-10.3-3.54-2.72-9.76,2.83-10.16-1.15.17-6.21,11.96-12.47,13.67-20.56,1.3-1.43,1.7-17.69,3.61-15.52ZM217.19,58.45c-1.92,2.49-5.9,2.69-7.11,5.9-2.45.07-1.78,1.79-5.24,3.29-2.03,3.36,5.78-.56,6.5-1.78-4.37.79,6.09-5.26,6-5.92,1.67-1.75-.64-.27-.75.37-2.45.99,4.95-3.95.6-1.86ZM160.09,60.54c-3.47,1.76-6.94,11.59-4.06,8.83,1.35-1.73-.2,1.25.98,1.02-.04-1.49,2.79-.1.58-.07,1.25.99,1.22-1.3,2-1.17-.13-1.22-1.36.89-1.42-.22-1.09-1.74.15,1.51-.93.34-.46-.8-.29-3.02.81-3.27.78-.94,1.83-2.85,2.43-3.45.45.64.46,1.31,1.12-.27-.29-.06-.34-1.4-.04-.52.22.8.85-.65,1.03.42-.33-.31-1.3,2.63-.43,1.28.87-1.96,1.75-1.51,2.05-3.29-1.44.36-.18,1.65-1.65.74-3.34.7,1.88-3.28-2.48-.35ZM204.16,61.89c-1.18,1.21-.88,3.35-2.06,4.79-.34.94-2.67,3.41-1.26.92-3.53-.29-3.79,8.22-5.13,8.3,1.7,1.44,3.5-2.54,4.75-3.24,1.51-1.44.85-3.89,2.05-4.42,1.39-2.12,2.61-3.98,3.94-5.73-.13-1.39-.29.19-1.21-.25-1.15-.18.77-1.28-1.09-.36ZM147.16,72.76c-1.2.18-6.52,6.46-3.65,4.69.65-1.42,8.73-5.5,3.65-4.69ZM137.48,78.78c-4.4,1.86-10.78.65-13.63,6.88-1.51,4.64-11.28,9.43-11.61,12.39,4.19,1.57,4.33-5.04,8.69-6.32,2.03-.11,4.96-1.27,1.26-1.27.42-.43.6-1.95,2.35-1.83,1.41-.24-1.81,2.4.88.75,1.69-1.62.35,1.26.93,1.38,1.83-1.74,2.81-4.77,5.76-4.13.98,3.18.34,4.14,4.01,1.93.25-.76-1.93-1.6,1.38-2.95-.13-.73-2.82.44-3.61-.98-2.49.05-1.31-1.47-2.55-1.46-2.15-1.15,5.81-.59,7.07-2.18,1.81-.13.71-.67.03-.51-.35.36-.54-3-.95-1.71ZM227.81,78.7c-.19,3.68-1.92,5.77-2.32,9.03.83-.61,4.66-7.66,2.32-9.03ZM301.68,85.27c1.92.47,3.22,3.94-.66,2.81-1.14.89-2.56,1.29-3.93.46-.56-1.1,3.15-4.5,4.59-3.27ZM102.4,97.32c-3.49,2.03-2.26,7.74-6.6,8.94-1.42.72,1.39-.06.1.87-.66.85.77,2.95-.19,4.51-.49.54-.32,1.05.18.55,1.75-.6-1.62,1.08-2.02,0-2.98,2-7.96,2.71-9.88.08-2.81-4.12-5.73,3.53-8.4,2.74-.44.07,1.04,1.99,0,1.14-1.61-.78-.78,1.89-3.23,2.4-2.72.86-3.54,1.59-5.69,1.57-1.37-.67.6.92-.31.65-.21-.29-1.08.91-1.02.31-.15-.28.89-1.08.25-.9-1.68.69,1.05,2.36-.4,1.69-1.08-.63.66,1.4-.02,1.08-.21-.51-.96-.36-1.54.31-2.11,1.78-.34-.84.64-.87.47-.03.16-3.54-.08-1.4-.79,3.39-4.78,2.76-4.32,6.15.4-.09-.06-1.74.71-1.32.71.45-1.13,3.25,1.6,2.36.74-1.95,1.84-.49,3-1.18.23-.59.18-.69-.17-.4-1,1.36-1.3-4.35-.24-1.52.78.55-.57.06-.44.8-.1.94,1.03.67.5.26-.75-.59,1.8.04.7.7.48,1.5-.35,0-.36.92.29.52-1.82,2.62-.19,1.15,1.51-1.93,2.37,2.15,2.06-1.96-.36-.95,2.13.79,1.06.19-1.17-.69-.55,1.8-.29,2.11.54-.19.72-2.25,1.26-2.5.66.08-1.43,2.62-.19,1.78.93-1.01.27.78.82.93.98.06-.2-.33.05-.72.95-1.31.32,1.48.86.28.3-.49-.34-1.3-.8-1.01-1.08-.59,1.03-.51,1.19.32.09,1.52.82,1.36.45-.05-.91-.99.41.13.36-.66,1.24,2.23.6-.24.4-1.32.99-1.52.36,2.6,1.29,2.27-.13-1.08-.32-1.25.28-2.05.28-.04.02,2.25.35,2.26.39.24-.19-.44.16-.41.27-.1.49.82.52.2-.89-.96.21-1.64.25-.75.44,2.08.17-1.34.55-.08,1.09,1.74.71.4,1.72.37-.31-.45-1.43-.22.09-.63,1.13-.09.45.29.16.64,1.15,1.18.24-2.2,1.74-1.26.99.53.71-1.04.91-1.16.45,2.17.83,2.14.81.39-.58-.32.84-.36.41.28-.16.49-.14.5.72.08,1.23-1.21.78-.5,1.9-.8.72-1.27,1.79-.17,1.72-.35-.13-.93,1.97.71,1.37-.32-.2-.49.42-.47.42-.06.56-.68.75-.03,1.22.19-.36-2.11.87-1.21.65-.19-.02.63,1.94-.57.01-1.04.1-.37,2.03-2.1,1.23-.86-.39.38-.36.44.4.76,1.43.53.86-.29,1.32-.75.56-.37-.07,1.17.34.63.89-.75,2.33-1.06,2.21-1.83,1.01-.78,4.15-.57,5.45-2.54,1.6.16,4.97-.87,3.3-3.28.64-.84,2.93-.26,3.09.6.05-.88,2.8-2.65,3.1-1.69-.24.48,2.4.3,1.29-.24-1.86-.5.16-1.93.85-2.21,3.28-.95,11.23-10.82,6.69-11.98-1.27.71-3.43,1.42-2.1,2.47,1.06.89-3.14,1.61-1.25-.15,1.52-2.57-2.63,1.28-2.52.37-.4-.86.14-2.37,1.17-3.04-9.78.85-3.69-3.05-11.65-2.84ZM141.54,97.6c-4.74,3.63-9.23,7.92-11.95,12.02.4.88,3.01-1.64,3.5-1.99-.06-.41-1.76,1.14-1.18.18,2.89-.86,6.38-2.55,8.27-7.05.93-.51.65-3.04,1.4-2.37.31.71,1.76-1.47-.05-.79ZM193.9,97.76c2.7,3.35,10.37.47,10.79,4.21-2.45,3.09-9.08,4.89-12.34,7.41-2.91.1-.49-2.21-4.52,1.15-2.75,2.94-4.3,2.49-6.88,4.39-3.05,1.26-2.47,3.34-4.72,3.22-.32-1.63-2.3-3.49-4.7-3.86-4.13-1.8-3.09-7.75-7.91-9.11-11.81-5.68,2.7-5.8,6.28-2.1.03,1.69-3.79,8.75,3.2,4.99,6.02-2.49,12.42-10.5,20.8-10.31ZM214.84,98.89c1,.34,1.54,2.32,1.93,1.44,3.22-2.42,6.03,6.35,8.87,3.76,2.74-1.16,6.63-1.6,2.38,1.56-1.04,2.65-6.16-.57-6.69,2.19-2.2,4.8-3.35,1.34-6.12,1.79-1.46.74-1.67-1.88-2.38-1.52-.06,1.11-1.56-1.21-1.13-.08.24,1.34-1.97,1.66-2.62,1.91-1.75-.74-2.86,2.91-5.08,2.8-5.37,1.32-8.05,10.15-12.97,10.88-3.74,1.62-4.99-3.53-8.01-3.3-3.6-1.28,3.66-5.96,5.27-7.23,2.4-2.68,11.36-2.8,12.65-5.32,3.15-3.65,6.91-6.41,10.01-5.64,2.65-.39-1.83-1.7.74-2.49,1.1-.2-.1-2.87,3.14-.75ZM125.29,101.14c-1.95,1.55-2.76,2.51-3.46,3.49-.07,1.37-.89-.32-1.42,1.63-1.86,1.95.68,1.86-.89,3.29-1.8,1.28.42,1.79.16,1.18-.82-2.22,5.1-4.17,6.68-4.35.5-1.1,3.13-9.36-1.07-5.24ZM210.54,104.19c.89.85-2.63,1.52.17,2.25-.7,1.62,3.01.23,1.74-.05-1.02-.93,1.41.37,1.14-.22-.54-.26-3.14-3.16-3.05-1.98ZM227.43,110.16c-.03,3.4,1.37-1.19.96,1.23-1.86,1.21-.77,8.51-3.29,7.38-1.21,0,2.17-5,.65-3.56.43.5-1.4-.86-.7-.01-.93,3.68-.33-7.01,2.38-5.03ZM286.5,112.77c1.64,3.39,6.12,2.06,8.28,5.84,2.18,3.56-2.39-1.69-3.47-1.61-.93-.85.45,1.85-1.47.37-1.21-.42-4.41-5.04-3.34-4.6ZM250.84,114.85c1.43,2.03,3.08,3.79,4.16,6.11,2,2.84-2.84-1.37-3.3-1.25-.14-1.28-3.51-6.62-.85-4.86ZM235.7,116.36c7.35-.86,2.4,7.61-1.87,8.18-2.54.35-9.7,1.54-9.48-.64.33-.61.37-.61-.84-.11-1.42-.71.49-1.52,1-1.33.1-1.31,1.06.33,1.06.69.19-.28,2.53-.62,1.65.26-.81,1.56,1.4-.15.46-.88-.43-.32-.4-.39.5-1.21,2.01-.79,4.96-4.45,7.53-4.94ZM207.96,122.8c1.06,1.22,5.64-.76,5.14.21.06.25,1.86,2.54-.46,1.23-2.4,1.33-10.91-3-4.68-1.43ZM341.77,122.93c-1.23,1.46,2.39-.05,1.64.73-.16,1.15-1.2-.27-1.32.2-.13.57-.59,1.14-.99.53-.28,1.46,1.91.2,2.49,0,.98-.24,1.53-.66.75.26.24.21,1.34-.05.38.58-1.09,1.06.23.07.49.4-.14.26-.71.86-1.12.39-.64-.8-2.35-.24-1.07,0-.33.43-1.77.21-.93-.13.95-.87-2.94-.2-3-.99,1.98-.68-2.39-.53.12-1.95.77-.28-.63,1.33.76,1.03.62-.19-.54-1.37.4-1.33.17,1.66,2.11-1.08,1.39.28ZM204.85,125.01c-1.66.4-1.08,2.43.57,3.24,1.58-.06-.66,1.26.21,1.08,2.05.59-1.35,1.57-1.35,2.77.23.71-5.32.59-5.27.36.06-.58-2.27,2.38-1.35-.15-.6-.7-2.24,3.35-1.51-.16.39.26-1.71-3.51-.28-2,.28.57,1.98-.88,2.72.14,1.25,1.15,5.12-4.32,3.1-4.6.74-.12,3.89-2.2,3.16-.68ZM58.34,125.63c.35.75.26.32.5.01.93.51-1.18,1.01-.17,1.21,2.22,1.01-2.62,2.39-1.32.79.16,1.16.97-1.06.71-1.64-.84,1.41-1.38-1.29-1.38.36.09,1.64-.47-.45-.69-.39-.57.17.03,1.22-.99,1.01-2.27.37-12.19,1.69-10.55,5.4-.82.53.37,4.15.89,2.24.49-.14.64,1.47,2.18.37,1.2-1-.24.89.3.77.8.09,2.24.28,2.34-.84,1.09.67,1.44.23,3.08-.69.88-.31-.54.39.02.4.5-.05.26,2.11.53.5.06-2.2,2.01,3.46,2.61,1.51-.08-.94,1.04-.44.98-.65-.48-.23-.37-.61.12-.43.85.46-.86-1.47-.77-.16-.42.73-.72,0-.58,1.06-1.3-.47-2.23-3.69-.34-1.08,1.7-.43-.12-1.93.04-2.31,1.93-1.5-1.37-.98-.42-1.38-.11-.11,2.7-.35,1.25-.71-1.28-.54.68-.17.4-1.16.84-1.54-.08,2.57.58,1.16.37-.53.43-1.59.09-1.59-.14-.65,3.84-3.6.55-3.76ZM341.93,127.7c-.19.38.66-.08.84.32,1.18,1.26-2.38-.65-1.16.37.01.65,2.97.25.64.83.18,1.48,1.88-1.37,1.77-.23,0,.97,1.26,1.51,1.32.4,1.11,1.01-.89.84-.98,1.26,1.45.64-1.1.53-.82-.44.14-.76.76.94.66-.2-1.51-1.94-1,3.44-1.41,1.36-.31-2-.28-.99-2.13-1.33-.72.54,1.74.37.21.74-1.27-.22-1.28-3.62-.75-2.71.47.79.89.67.24.05.74.14,1.72-1.5,1.59-.43ZM367.95,129.53c.87.83,5.14.19,3.42,1.36-2.43.72,2.41,1.8,1.55,3.48-.54,1.32-9.43-6.67-4.97-4.84ZM388.89,139.6c2.96,1.89,4.24,1.95,4.17,4.29.21-.52-2.25-1.23-1.7-.1.25,1.28-.47-1.28-1.19-.81.44.67,1.12,2.29-.33,1.33.93-.18.74-.23.08-.6.11-1.28-1.99-2.64-2.51-1.56-.38-1.78-3.15-.03-2.3-1.15-3.41-1.07,1.3-2.82,3.78-1.39ZM94.5,140.28c-.26.76,2.23,0,1.4.66-1.74,2.09,5.23-1.22,2.89,1.69.24.09.86,1.56.61,1.51-1.11-1.25-.51,1.09-1.02,1.14.23-1.16-1.88-2.2-.72-1.15,1.12.45-.79-.03-.06.63.22,1.28-1.85-1.35-2.7-.28-.79-.24-2.83-1.6-1.11-3.09q.69-.54.02-.4c-1.61.65,1.31-2.05.7-.72ZM100.09,151.14c2.16,1.28-1.57,1.75-.09,2.72-.02-1.02,2.12-.43,1.27-.22-.42,0-.82.44-.6.66.6-.24,4.76,1.76,3.15-.91.42-1.05,1.9-2.11.54.28.52.98.89-.94,1.73-.1,1.05-.27,1.19-1.08,2-.46-.13,1-.75-.25-.73.34.11,1.36,2.91-1.19,2.35.36-.53,1.11-3.12.06-2.37.7.34.42.33.44-.19.28-1.12.34-2.85.35-3.58,1.86.38-1.85-1.45.53-1.13-.37.56-1.95-2.78-1.2-3.19-2.44.38-.88.27-1.78-.16-1.92.7-.09.72-2.01,1-.77ZM64.3,151.58c-.21.47-1.66,1.01-1.96.73.19,1.11.09,4.19,1.57,1.28,1.16-.79-.89,1.65-.07,1.43.61-.37-.5,1.55.35.56.63-.7-.43-2,1.15-1.12.47.55.66-1.25,1.81.04.96,1.11,0,.55.04.86.87,1.16.34-1.35.87-1.4.29.43.92.33,1.34,1.03-.27,1.28.1.37.47-.33.6,2.6,3.39-.01,2.57-1.39-1.58-3.06-.04,1.01-.53,1.89-1.69-5.16.08.85-1.13.09.71-.08-1.49-2.25-1.42-1.08-.99-1.3-1.77.38-2.5-.5-1.17-.21-.02-.5.33-.7-1.66-.67-2.51,1.02-2.88-1.37ZM55.09,152.63c-3.73.38,1.74,4.71.14,2.54.41-1.31,1.3.59.67.99-.75.42-3.16-1.83-3.13-2.54.56-.71.07.92.6.33.42-.56-.34-1.42-1.03-.36-3.27,2.2-6.6,3.29-10.14,1.94-3.5,1.98-7.01,5.39-9.66,6.53.28-1.02-2.92-5.65-4.84-1.71-1.43,1.58-2.03-4.2-4.51.24-1.39,4.64-6.22.41-7.37,4.53-.19,1.59-3.6,4.52-4.49,3.03-.61,4.71-3.8.74-8.45,3.64-.97.98-.34-1.43-1.14.14-.23,1.73,5.64,2.41,2.83,4.08-.67,2.18-3.53.18-4.44,2.14,1.13-.16,7.24,1.54,9.2,0,2.44.65,5.18.32,7.73-1,1.82-1.79-8.25-.28-4.28-1.63,1.95-1.08,3.74,1.06,5.55.41-1.03-1.74,4.15-.19,5-1.43,1.77-1.36-4.69-2.4-1.12-2.34,5.45,2.01,9.5.27.46-.81.67-2.39,7.97-1.69,10.19-2.58-.24.5-2.15,3.5,1.65,2.11,2.14-.8,1.68.54,2.05-1.48.81,1.02,3.66,1.03,4.17.16-.34-1.01,1.03-.1.54.14-.92.82,2.74-1.04,2.13-.39-3.45,3.34,6.13,3.04,6.19-.26,3.54-2.14-4.1.41-.25-2.58.17-.94.68.43,1.12-.08,1.48-.85.51,1.49,1.61.39,4.12-.69-2.26,2.01-2.67,3.77-1.79,4.6,6.01-2.54,9.05,1.35,1.66,1.59,7.92-4.84,4.08-2.21-1.59.95-4.62,1.28-2.25-1.06,1.21-.89,3.04.93,1.75-1.13-3.73-3.42,3.31.86,4.18-3.63,2.25-.99-3.11-.62-3.14-.43-1.06-.82,2.95-.34,1.78-1.56-.73-1.64.77-.57,1.1-1.16-.96-2.32,4.09,1.06,3.8-2.43.06-1.47-.63.37-.64.59-.75-.13-.04-1.69.3-1.75,1.11-1.6-2.82,2.04-3.57.48-.32-1.93-1.48-.09-1.88.1-.68-.27-.01.31-.21.41-.36-.31-.86-.97-.15-.97-1.44-1.09-.9,1-2,.84-.91-.03.7.59-.15.67-1.15-.01-2.28-3.76-2.85-2.53-1.41,1.1-.87-.13-1.22-.02-.21,1.26-1.19,1.37-1.63.66.19-.45,1.77.44.6-.67,1.29-.55.12-.22-.24-1.46-.23-.93-.74-1-1.01-1.51.86.03.9-.84,0-.52ZM51.73,159.41c4.47,1.14-7.13,3.56.11,3.45-.25,1.41-8.08,1.86-6.93.15,1.09-2.44,3.4.57,4.16-1.42.67-.67-1.35-2.89.17-2.25,1.41.52,1.75-1.1,2.49.07ZM65.85,166.18c-3.36,1.22-2.61,2.08,0,2.67-.6.93-1.05.56,0,1.07.64-.61,3.08-.72,4.04-1.09.96-1.4-1.59.4-.71-.56.73-.7-3.35-2.64-3.32-2.09Z"/></svg>