<?xml version="1.0" encoding="UTF-8"?><svg id="Layer_1" xmlns="http://www.w3.org/2000/svg" width="253" height="376" viewBox="0 0 253 376"><defs><style>.cls-1{fill-rule:evenodd;}</style></defs><path class="cls-1" d="M120.54.23c-25.44,3.02-47.41,17.01-67.28,30.53-2.79-.22,1.28,1.54-1.3,3.18-2.42,3.89-7.1,5.45-9.75,4.49-1.13.22-4.09,2.68-4.43,3.98.28.67-1.31-.85-.49.32,1.06,4.68,1.34-2.19,3.69-2.57,1.98,1.51-3.15,7.49-4.56,5.2-.12-2.27-4.66,3.44-2,2.25,1.22,1.93-3.6,4.85-6.06,6.32-4.03-.12-3.67-4.26-8.94,2.29-11.38,18.49-30.07,43.99-11.93,64.68,17.11,20.59,55.97,52.87,81.97,36.01,13.17-7.46,22.11-6.99,24.76-24.09-.27-2.02-.58-3.41,1.71-4.58,2.75-3.97.32-10.04-.76-13.84-2.02-3.91-1.84-8.74-3.25-12.59-6.14-5.24-.36-1.94-4.15-6.95-.8-.6.63-2.96-.89-2.62-.82,0-.82,0-.27-.39,1.62-1.23-.79-1.42-.39-2.82-.82-2.82.86-7-2.25-7.85-1.1-2.09-.51,1.81-2.13.78-1.03-.15-2.68-.85-1.55-2.22-.21-2.01,5-.25,2.06-2.16-.56.14-.55.02.06-.84,1.16-.93,1.38-1.11,1.88-.51.53-.32-.26-3.72,2.74-2.12,2.21-8.6,25.8-4.71,35.51,4.05,30,23.02,27.15,57.2,10.51,83.11-2.1,5.5-11.45,10.15-10.97,14.63-1.99,1.16-10.41,8.05-5.06,6.92-7.34,7.28-21.68,16.61-31.52,23.65-.36-.14-3.37,2.77-1.59,2.32,1.54,1.9-6.49,2.73-7.38,5.24-5.65,7.19,20.5-10.02,24.06-9.32,2.04-.45,3.87-3.24,1.86-2.84-4.03-.36,2.86-4.19,3.12-2.61,1.42,1.16-.3-.72.03-1.17,7.59-1.35,4.31-3.69,9.7-5.62,2.19-4.12,7.18-3.45,9.39-4.65-2.42-3.1,3.97-.2,2.34-1.73-.59-.33-2.76-.63-1.47-1.7.4-1.95,3.85,1.91,3.08.2-.05-1.39,4.47-4.12,7.15-2.84,4.49.4-2.18-1.1-1.55-2.4,4.65.62,1.5-6.04,5.93-3.55.93-1.08-1.24-1.25-.78-1.57,1.77-.79,4.27-.18,3.53,1.74-5.41,5.25-5.95,13.68-12.76,18.53-3.02.48-3.48-2.11-1.27-2.99-.61-1-5.19-3.1-5.09-.86.39,1.19-.87,0-1.5.28-5.45-1.27,6.14,8.71-1.47,5.8-4.78-1.44,3.29,2.1.31,2.79-1.66,2.09,3.49,2.53-2.91,5.66-13.18-.66-28.82,3.04-37.83,12.56-1.15,1.99,2.47.44.41,2.81-1.81,1.77-1.9,1.85-3.69,3.66-1.75,4.56-8.52,3.52-10.3,7.02-7.83,6.39,7.72-1.21.07,10.12-11.65,20.26,4.67,3.84-4.83,18.82.69,2.46,2.11-7.3,5.24-4.3,1.59,1.23-4.56,13.56.31,10.24-.65-1.98,5.96-16.3,4-8.2-3.15,3.36-5.36,22.76.18,11.49-.63-1.67,2.78-1.98.96.19-.79,1.78-.14,2.13-.67,3.45-.53,4.33.73,10.22,3.42,12.76,2.53,4.34,6.24-9.38,6.75.13.38,4.07,1.31,6.23,2.08,9.55,1.55-1.02.61-3.1,2.89-3.89,4.54-2.79,1.04,3.43,1.28,5.22-.39,4.04,7.26-.46,6,8.59-1.11,12.38,10.43-2.96,12.62,8.37.36,1.57.26,3.24,2.14,1.86,1.18-1.52-5.14-8.53-4.87-11.55-5.08-40.44,27.65-43.61,52.24-63.37,38.99-15.41,70.99-53.51,74.39-96.34.58-8.98,5.73-49.75-5.41-48.04-.92-2.07-.79,4.81-1.72.36-.29-2-1.34-6.22-2.14-4.01,2.78,18.4-6.11-17.96-4.98-2.58,1.06,6.71-2.27,1.68-3.17-1.69-.51-2.96-3.16.32-1.74.7,4.17,5.68-5.11,6.1-1.22-1.04-3.39-5.7-4.37-14.23-8.15-19.83-1.69-.54-2.66-3.63-2.95-5.2.53-.82,1.79-.82,2.09-2.04-.77-.82-2.24.01-2.78-2.12-.31-1.47-2.73-1.19-1.09.56.72,1.06.75,1.28.27,1.94-5.65-2.92-9.78-12.19-14.77-16.88-3.76-3.75-6.96-3.82-2.23-6.93-.48-1.84-9.24-7.57-2.56-3.87,1.45.35,7.76,3.5,5.81,3.39-1.35-.37-1.36-.91-.65.59.71,2.24,1.29,1.46,2.5.88,1.4.47,3.7,4.1,6.19,4.27,1.48-.5,2.82,3.14,3.56,2.31-1.47-.75-1.05-3.54.76-2.28-.59.95-.11,1.26.5,2.62-.35,1.14-1.61,2.4-2.66,1.3-2.17,1.39,2.73,1.43,2.56,3.09.22,2.13,2.02-.49,2.39,1.86-1.27,1.73,1.9,5.89,4.03,3.74,2.66-.07-2.58-5.17.08-5.35,1.48.14-.45-.63.66-.87,1.32-1.19.72-.28,2.04.21,1.7-.29.34,3.74,1.29,1.85-.25-.66.57-.35.9.34,5.06,2.59-.55,3.18,1.56,5.35,2.28.93.1-3.54,2.47-1.05.53,1.01.93.23,1.47,1.19,4.67,5.94,2.27.05.31-1.84C215.22,17.71,164.19-3.91,120.54.23ZM220.92,44.22c-.15.78,3.69,3.46,1.62,2.76-.67-.67-.81.16.28.51,2.97,2.83-6.01,1.76-1.15.18-2.21-.69-4.7-4.79-.75-3.44ZM237.93,99.24c.15,1.59,1.53,6.9.86,7.98-1.67-.08-4.67-10.55-.86-7.98ZM116.05,313.16c-3.3-.48-1.52,5.49.1,1.8,1.49-2.05,3.58-1.92-.1-1.8ZM118.15,324.8c-41.05,11.14-14.48,64.94,19.93,46.95,2.34-1.44,5.2-3.04,6.39-6.08,7.89,2.39,1.75-3.11,2.48-7.3,10.42-19.26-12.45-35.89-28.79-33.57Z"/></svg>