<svg xmlns="http://www.w3.org/2000/svg" viewBox="0 0 253 376">
  <path fill-rule="evenodd" d="M121 0C95 3 73 17 53 31c-3 0 2 1-1 3-2 4-7 5-10 4l-4 4c0 1-2 0-1 1 1 4 2-2 4-3 2 2-3 8-5 5 0-2-4 4-2 3 2 2-3 4-6 6-4 0-3-4-9 2-11 19-30 44-12 65 18 20 56 53 82 36 14-8 23-7 25-24 0-2 0-4 2-5 3-4 0-10-1-14l-3-12c-6-5 0-2-4-7l-1-3c-1 0-1 0 0 0 1-1-1-2-1-3-1-3 1-7-2-8-1-2-1 2-2 1-1 0-3-1-2-2 0-2 5-1 2-2v-1l2-1c1 0 0-3 3-2 2-8 26-5 36 4 30 23 27 57 10 83-2 6-11 10-11 15-2 1-10 8-5 7-7 7-22 16-32 23 0 0-3 3-1 3 1 2-7 3-7 5-6 7 20-10 24-9 2-1 3-4 1-3-4 0 3-4 4-3v-1c7-1 4-4 9-6 2-4 7-3 10-4-3-3 4 0 2-2-1 0-3-1-1-2 0-2 3 2 3 1 0-2 4-5 7-3 4 0-2-1-2-3 5 1 2-6 6-3 1-1-1-1-1-2 2-1 5 0 4 2-5 5-6 14-13 18-3 1-3-2-1-2-1-1-5-4-5-1h-2c-5-1 6 9-1 6-5-2 3 2 0 3-2 2 4 2-3 5-13 0-29 3-38 13-1 2 3 0 1 3l-4 3c-2 5-8 4-10 7-8 7 8-1 0 10-12 21 5 4-5 19 1 3 2-7 5-4 2 1-4 13 1 10-1-2 6-16 4-8-4 3-6 23 0 11-1-1 3-2 1 1l-1 3c0 4 1 10 4 13 2 4 6-10 6 0l2 9c2-1 1-3 3-3 5-3 1 3 2 5-1 4 7-1 6 8-2 13 10-3 12 9 0 1 0 3 2 2 1-2-5-9-5-12-5-40 28-44 53-63 39-16 71-54 74-97 1-9 6-49-5-48-1-2-1 5-2 1 0-2-1-7-2-4 3 18-6-18-5-3 1 7-2 2-3-2-1-3-4 1-2 1 4 6-5 6-1-1-4-6-5-14-9-20l-2-5 2-2c-1-1-3 0-3-2s-3-1-1 0v2c-6-3-10-12-15-17-3-3-7-3-2-6 0-2-9-8-3-4l6 3v1c0 2 1 1 2 1 2 0 4 4 6 4 2-1 3 3 4 2-2-1-1-3 1-2v2c0 2-1 3-3 2-2 1 3 1 3 3s2-1 2 2c-1 1 2 6 4 3 3 0-2-5 1-5v-1h2c2 0 1 4 2 2v1c5 2 0 3 2 5 2 1 0-4 2-1l2 1c5 6 2 0 0-2-19-37-70-59-113-55Zm100 44c0 1 4 4 2 3-1-1-1 0 0 0 3 3-6 2-1 1-3-1-5-5-1-4Zm17 55 1 8c-2 0-5-10-1-8ZM116 313c-3 0-1 6 0 2 2-2 4-2 0-2Zm2 12c-41 11-14 65 20 47 2-2 5-3 6-6 8 2 2-3 3-8 10-19-13-36-29-33Z"/>
</svg>
