<svg xmlns="http://www.w3.org/2000/svg" viewBox="0 0 326 448">
  <path fill-rule="evenodd" d="M21 0c-7 1-7 3 1 2 4 1 13 2 19 5 0-2-6-2-8-3-4-2-7-4-12-4Zm38 9c0 2-3 0-3 1 0 3 2 1 1 2 1 2 3-2 4 1 4 2 8 4 13 4s0-1 2-2c-2-2 0 1-1 0-2 0-5-3-7-2h-3c1-2-3-4-1-4 4 2-3-2-2 0 1 1 2 2 0 1-2 0-1-3-3-1Zm-11 3v1c0 2 1 0 1 1-1 2 1 1 1 2h1c0-1 1 2 2 0h4c1 0 1 0 0 0-2-2-1 1-2-1 1-1-3-3-3-1-3 2 2-2-2-2l-1 1c-2 0 1-2-1-2v1Zm30 4c-3 3 0 3 3 2 2 1 5 5 8 5 10 5 18 13 27 19 6 2-1-5-3-6l3 1c2 3 6 6 9 7h2c0 1 4-2 3 0l2 1v-1l1-1c4 4 10 2 14 4 6 0 10 2 13-1 4 0 2 0 0 2l3-1h1c0-1 0-1 0 0 2 0 3-1 1 1h3c2-1-1 3 0 3 0 0 4-2 2 0h1c-2 0-1 0-1 1h2c-2 2 0 0 0 1l-1 1c1 0 1-2 2-1-1 3 0 1 1 2v1l-1 1h3v1-1h2c0-1 0-1 0 0-1 1 2 0 1 1-2 1-1 0 0 1v2c2 3-2 2-2 1 2-1 0 0-1-1l-1-1c0-3-5 5-7 4-1 0 0 3-1 2s-3 1-5 1c-1 0 0 2-1 0h-9l-9 4c-2 1 0-2-2 1-2 0-2 2-3 1s-1 1-2 1c-1-1-1 2-2 1-4 0-8 2-12 4-5 3-30 4-30 14-2 5 0 12 0 17l2 4s-2 0 0 1c5 3-4 0-3-4 0 1-2 1-2-1-4-1 4-4 2-5-4 1-5 7-6 10-1 1 2 0 1 1 0 2 1 0 1 1l3 1c1 1 1-2 3 0 2 0 2-3 3 0 1 2 1-1 1 0 2 0 4 1 5 3 0 0 5 1 2 3-2 1 0 2-2 3-2 3 5 5 8 5 5 2 8-5 12-3 4 1 10 1 14 5l-5 1-3 1c-6 2 4 5 5 6l12 9c1 2 2-1 3 1l3 1c2-1 3 2 5 1 2 1 1-3 2-3s3 3 2 4c-4 4-9 12-15 12 1 2-3 2-4 4 0 0-3-1-5 1-3 2-9 5-12 4-1-2-3-2-4-1-4 2-5 4-12 4-4 0-1 4-5-1 0-1-1-6-2-2-2-1 0-3-2-4-2 1-2 2-2 3-1 2 2-1 1 1 1 3-4 4-2 4 1 0 1 2 1 0 3 1-1 5 1 5 2-1 4 0 6 1 4 3-17 5-17 6-12 8-27 6-38 14-4 2-12 5-10-1h1v-1l1-1-2-5c-2 0 1-4 2-2l8-2c-3-2 4-4 4-4 0-2-2-2-3-3-1 0-2 0 0-1-2-1-2 2-3 3-3 0-2-4-2-6 1 2 4-2 4 1 3-2 2-4 7-2 4-3 2-1 4 2 0-3 1 0 2-1 3-2 7 1 9 3 2 1 1 0 2-1-2-1 0 0 1-1 3 0 0 2 2 2 1 2 5 2 7 2l-1-1c-2 0 1-1 1-1-2 1-2 0-1-1-3-1 3-3-5-3-1 2 4 1 1 2-9-2 5-2-7-5-2 1 1-3-1-2l-11-6c-7-1-13 1-19 3 0-2-2-1-3 0h1c2-1 1 1-1 1-1 1-4 0-3 2-3-1-5 3-8 3l-2 2c1 1-2 3-3 3-4 0-7 6-10 8-4 5-5 13-9 18v1l-1 5c-1 1 1 3-1 4v3l1 1v4l3 2H1c2 1 4 1 5 3v1c1 0 2 1 0 0-2 0 2 2 2 2 2 0 4 5 6 6l-3-5c3-2 0 0 0-1 0 0-1-2 0 0l1-1c-2-1 0-3-1-4-1-2 0-4 1-7-2 0 0-2-2-2v-1c2-2 0-5 3-5-2-2 2-2 1-4 0 0 0-5 2-5 2 1 0-1 1-2h1v-1c-2 0 1-2 2-1 3-1-4-1 3-3 2 2-4 6-5 7 1 1 0 4-2 7l-2 7c0 3 5 4 3 7 4-3 1 4 3 5 3 3 3-2 6-1 1 1-2 2 0 2 0 1-2 0-1 1 1 0 0 6 1 4h1c-1 1-8 4-6 5 2-1 6-4 5 1 1 2-5 1-4 2 1 2 0 2 2 3h2c1-1 4 6 3 7l5 7 13 13c0 2 3 1 3 1 2 0 4 4 5 4 1-1 3 1 4 2-1 2 2 0 3 1 0 2 2 0 2 1 1 2 2 2 3 1 2 0 1 5 3 3l4 3v1c2-1 1 2 4 1 1 3 6 1 7 2 1 3 5-2 7 0h8l7 1c2-1 4-1 4 1 0-1 5-2 3 0-2 0 1 0 0 0h1c1 1-1 0-1 1l3-1c0 1 0 0 0 0h1v1c2-3 2 0 3-1-1 1 1 2 1 3 1-3 1-1 3-2l1 2v-2l1-2-1 2c2 1 3-2 3 0 0 1 2-1 0-1l2-1s-3 2 1 1l1-1h-1c2 0-1 1 2 1 0 1-4 1-1 1l2-2-1 1v-1c-1 1-1-2-1-1l2 1v1c0 1 0 2 1 1 2 1 0 0 2-1v2h1v-1h1c-2 3 1 1 0 3l-4 2c-1 1 0 1 1 1l-3 1c-1 2 2-2 2 0l-2 1c-1 1 3 0 3 1v-1h-1c1-2 5-3 3-4 1-1 1 2 3 0l1-3c1 2-2 3-2 4 3 4-1 0-1 2h3v1c-1 0-3-1-2 1 6-2 2 2 4 0 0-1 2 0 0 1v1l3-1c-1 1-3 0-2 1 1 2 1-1 1 0 1 2 0-1 1 0v-1h1v-1l-1-1 2 1c-1 1 2 0 1 1 0 1 0-1 0 0h-1c-2 1 2 3 0 2-3 1-1 2-3 0 1 1 0 2 2 2l2-1c-1 0 0-1 0 0l1-1h-1 1c2-2 0 2 2 2 1 0-5 1-2 2 1-1 0 0 1 1v-1c2-2-1 2 1 0 4-3-1 2 1-2h1-1c2 1 0 2 0 4 1 1 4-1 3-2-3 1-2 0 0 0 0-1 1 0 0 0v1s0 1 0 0c1 1 0 2 1 1h1c-1 3 1-2 1 0v2h3c-1 0-1 0 0 0l-1 1h2l-1 2h2c-3 2 2 0 0 1-1 2 2-1 0 1l3 2c-2 0 0 5 1 8 2 3-3 9-2 12 3 4 0 6 3 7 1 3 7 4 9 6h6c6 0 11 2 15 3 2 1 0-6 2-1 1 2 4-2 3 1v1c1-2 3 1 2-2-1-1 0-2 1-2-1 0-2-1-1-2 0-1 0-2 1-1-1 0-1 2 1 1 1-1-2-3-2-3l4-1v2c2 0-1 0 0 1h2c1-1 0 1 1 1h2v1c-2 2 3 2 2 4s4 0 2 4c1 0 3 0 0-1 2-1 1-2 1-2l1 2c0 1 4 0 3 1l1 2c1-2 1-1 3 0l1 3c0 1 2 2 1 3-2 1-3 4 0 3 2 0-1-2 1-2 1 3 3 2 3-1 0 0 0 3 1 2-1-2 3 1 1 0-5 1 3 1 2 2h-1c-3-2-3 5-1 3v1c2 3 6 4 3-1s2 1 2 2c2 4-5 3-6 0-3 0-1 1 0 2l-1 1h1c0 2-3 1-2 3 3 1-1 5 0 0-3-1 0 3-1 4-4-2-2 1-5 3 5 1-1 3 4 2 2 2 2 6 6 4l3-3c-1 1-1 5 1 3l7 2 1 1c-2 0 0 3 0 1 1-2 3 3 3-1h2c1 3 2 1 4 0h2v-7c3-1-3-5-2-6s3 4 6 3c2 0 1 0 1 2l-1 2-1 2c3 1 5 7 7 6 1 0-2-3 1-2l3 2v2l2 1 1 2c1 2 2 4 1 6h-1c-2 1 1 4 0 5-2 1 2 3-1 3s-1 1 0 1c2 0 1 3 0 3h2v1c-1 3 1 2 2 1s-1-7-1-9c-1 0 3-1 0-3-2-3 4 0 2 0v1l1 1-1 1c-4 1 3 0 4 1 4 3-2-3-1-4 1-3-3 1-2-3 0-1 0-4-3-4v-1c1-1-2-3 0-3 0-2-2 1-2 0 1-2-1-1-2-3h1c1-1-3 1-1-1 2 0-3-1-2-2h1c-2-3-1 2-2 0l-2-1c3 0-1-3 0 0l-2-1 2-3h2c1-1-1-1-1-1 0-2-1 0-1-1 1-1-1-3-1-4l3 2c1 1 1-3 3-1 1 1 3 0 2-2l-1-1c2 1-1-1 1-2l-3 1c0 1-1 4-1 1l-1-1c2 1 1-1 2-1v-3s-2 1-1-1c3-2 4 3 4-2-1-1 2-1 2-1 2-2 3 0 4 0 1 1-5 1-3 3 1 1-3-2-2 1-1 4 3 4 6 4 0 2 0 1 1 1l-3-4c-4 1-1-3 1-2h3v-1h-1c0-2-1 1-1-1-1-2 4 1 3 3 0 0 2 0 1-1h1c3 0 0-2 0-3l-2-1c0-1 2 0 1-1h-2l-3-2c0 2-2 1-2 0v-1c1 2 3-1 1-1h2l3 3v-2c-1 1 0-2-2-2-1-1 2 0 1-1-1-5-3 0-2-3-4-3 5 2 1-1-1-3-3-3-5-5 0-2-1-2-3-2-1-1-2 3-3 1-1-1 2 0 1-2v-3c-1-2-3 0-3-3 1 0-1 1 0 0h-1c-1-2-7-2-6-5 3 0-1-2 4-2-1 3 5 5 8 8 1 0 5 5 5 2l2 5c6 4 9 3 12 11l1 3c4 0-10-21-1-11-1 0 2 4 1 1s3 0 3 3c2 2 4 6 5 5 2-1 2 1 1 2v1c1 1 1-3 2-3-1 2 1 4 1 1-1 0-1 0 0 0 1 4 8 21 8 17-1-1 1-4-1-3l2 1v-2c1-1-2 0-2-1-2-1 0-2 0-1 3 3 0-6 0-5h2v-3c-1-1 1-6-1-5-7-13-16-32-30-43-2-3-14-4-18-5l-14-4c0-1-2-2 1-3l-4-1c-1 0 0-4-2-3-2-4-3 1-4-2-4-3-3-2 0-2 0-2-4-2-3-1l-1 1v-1l-1-1c-2 1-1-2-3-2v-2l2-1h-1c-1 0 1-1-2-1-1-1 2-2 0-3l-6-3c-1-1 0 1 0 0l-3-3-3-3c0-1-3 0-2-2l-5-4c-11-8-24-15-34-17-3 0-6-4-8-3-1 2 0 0-1 0-4 0-9-3-13-6-3-7 11 1 13 2s1-1 2-3c0 0 2 1 1-1-6-5-14-6-22-9-17-4-37 0-54 0l-15-6c-2-2-5-1-6-2h-1c0 1-1-2-2-1h-2v-1c-2 0-1 2-2 2-1 3-5 1-7-1 2 0 3-1 3-2 4-3 2-3 6-3 3 0 1-2 2-1 3-1-1 2 1 2 1-1 2-1 1-2l2 1c0 2 1 0 2 1l-1-3 1-1c-1 1 1 3 1 2 0-2 1 2 2 0h2c1-2-1 0-2-1l2-1c-1-1 1 0 1-1v-1c-1 0 2-2-1-2l1-1h1c1 1 1-2 2-1 3-2 5-1 8-1 6-2 10-2 13-5l9-2c0-2-3 0-3-1 3-1 1 1 2-1 3 0 2-2 1-1 0 0 1 0 0 0-2 0 3-2 0-2-1 0-1 3-2 2s2-6 1-2c-1 1 2 0 1-1l2 1 1-1c-1 2-2 2 0 2 0 0-3 1-1 1 1 0 3-2 1-2l1-2c2-2 1-1 4-1 2 0-4 0 0 0 1 1-2 0-2 1h2c1 0 1-3 1-1v2c1 1 0-2 2-2l-1-1v-1h1c1-1 1 0 0 0v1l1 2c2 0 1-2 2-1 2-1-1-1-1-1 0-1 0 0 0 0v-1c-1 0 0 3-1 1v-2c1 0 2 2 2 0-1-1 2-2 1 0h-1l1 1s0 2 2 1l-1-1h-1c1-3 4 1 3-1 0-2 5-1 3-2h1c-1 2 1 2 1 1h1c1-2 0 2 1 0 0-1 2 0 0 0l3 1 3-1c1-2-1 1-1 0l2-2v2c1 0 0-2 1-1 3 2 1-1 3 0 1 1-2 0-1 1 5-4-2 3 4-2l-1 1c1 1 2-2 3-2 3 0 3 1 4-1 0 2 2 1 1-1 1-2 1 2 2 1 2-1 2-3 2-1l4-2 2-1v1c1 1 1-1 1-2 1 0 1 3 2 1h2l5-3c2 0 7 1 5-1-1-2-4 2-4 0v-1h-3c-1-1 2-3 1-2 1 2 8 0 3 0-2 1-3-1-5-1h-7c1-1 3-2 2-3-3 1-2-2 1-1 1 2 4 0 6-2 1-2 4 3 6 1 1 1 11-2 7-3-2 4-12-5-5-4 3 1 7 0 11-1 5 0 3-6 6-8 0-2-2-3-3-5-2-4-4-9-8-11l-5-8c-5-14-15-21-28-26-3-1-5-2-7-1-2 0-4-3-6-2s-4-2-5-2l-1 1h-1c-1-2-2 0-3-1-8 0-16-4-21-6-3-1-4 3-7-1-5-3-4-8-2-11 0-2 4 1 1-2-1-1 8 2 3-1 1-1 4-4 5-2 1-1 1-1 1 1 1-3 2-3 5-3l12-4 7 1 4-2c2 2 8 4 11 3h4l1-2 1 2 1-1v1c-1 2 3-1 1-1h1l-3-1c2 0 0-2 1-3-1 2-2 0-4 0-2-3 6-3 8-3v3c3 5 6 1 4-2 5 1 9 4 14 6 13 5 6-2 12-4 5 0 6-5 6-10 1-1-2-2-2-4-2-1 2-5 1-4-3 0-2-7 1-4 0 2 2-1 0-1v-1c-1-2 0-2-1-1-4 0-3-7-5-9-6-8-14-12-23-14-7-2-8-1-15-2-6-1-12-3-17 0-5 2 5-1 6 1-18 5-4-1-17-1 0-1-7 0-4 1 2-1 9 2 3 2 4 2-9 2-7-1-3 2-5-1-8 0-9-1-3-5-14-3h-3l2 1c-2 0-5-1-5-3-2 1-3 0-4-1-2-1 0-2 1-2-1-1-3-1-2-2 2-1-1-1-1-2h-1l-1-1c2-1-2-1-1-1h1l-9-1c-4 0-3-4-4-3h-1c0-2-2 0-3-2l-1 1h-2Zm44 8c-2 0-3 0-3 3 1 3 6-3 5-3-2 2-1-2-2 0Zm24 11c4 1-2 4-3 2-1-1 1-1 1-2h2Zm63 43c2 1 0 5-2 2 0-1 0-3 2-2Zm-78 16c-1 0-2 1 0 2 3 1 3-4 0-2Zm-3 7c4 7 25 8 27 4-8 2-19 1-27-4Zm31 2c-2 1 3 0 2 1-2 2 3-2 3 0-1 1 1 2 1 1h1c5 4 13 5 17 11 0 2 5-1 6 3 4 4 5 16 12 13 1-1 1 1 1 1l1-1c1-1-4-2-5-3s3-3 0-3v-1c0-3 1 1 3 0l-1-3c-6-8-17-18-26-19v2c-1 0 0-2-1-1-3 3-10-3-14-1Zm-49 23h1c2-1 3 3 4 0 0-2 4 1 5 2-3-1-9 2-11 0 0 0-2-1 0-2 1 1-2-2 1 0Zm104 4c-1 2 5 2 5 2 2 1 1 4 4 5s11 5 12 11c3 3-2 3 0 5 8-2-4-15-10-15-1-5-5-9-11-8Zm18 29-1 3c0 2-3 3 0 5 0-3 0-2 3-3 3 1-2-3 0-2 4-1-1-3-2-3ZM96 184c-3 3-2-2-3 1 0 1-3-1-1 1h1l-1 1c-1 1 4 0 3-2 1 2 2 1 2 1v-1h-1v-1Zm-31 1c0 1 2 1 0 1 0-1-2 2 0 2h-1v2c2-2 4-5 1-5Zm24 1-2 1c0 1-2 0 0 1 3 2 6-3 2-2Zm-52 1c2 1-3 2-7 7l-3 5c-2 0-2 3-3 2-2-1 1-2 0-3s1-2 1-2v-1c1 0 3 2 3-1 0 0 4-4 2-3-1 1-2 0-1-1 1 0 1-2 2-1s0-2 1-1h2c1 1 2-2 3-1Zm167 2c-2 2-7 1-9 3h2c-1 2 3-2 3 0 0 0 2 0 0 1-3 0-1 1 0 0l1 2c2 0 1 0 0 0-2 2 1 0 2 0h3c1-1-2 1-2-1v-1 2c1-1 1-2-1-2-2-1 3-1 3-1h-1v2s1 0 0 0h1c-1 5 17-5 6-4-1 2 1-2-2-1h-6Zm-42 2c6 2-1 10-3 9h-3c2-2-2-2-2-3-1-1 2 1 2-1l2-2c-2 0-1-2-1-1h1l4-2Zm-42 4c-1 2 3 0 3 1 0-2 3 0 4-1 2 1-7 3-7 2s-2 0-1-1c-1-1 2-3 1-1Zm-4 1c-1 1-1 2-2 1l-1 1c-9 1 0-3 3-2Zm30 5c2-1-1 1 1 1s-1 2-1 0c-2-1-1 3-4 2-1 1 1-3 2-2 0 1 1-2 2-1Zm-7 4c0 1 5-2 3 0l-2 2c-2-2-1 1-2 0-2-1-1 2-2 1v-1c-2 0 1-1-1-1l1-1c1 4 2-2 3 0Zm-74 29c3 0 3 5 0 5l2 4c2 1 5 6 8 6 1-1 0 3 1 0 2-1-1 2 1 1 1-1 2 2 3 0-2-2 0-1 0-2v-3c3 0-1 2 1 2 3 0 1 1 1 2-2 1 3 2 1 2s0 1 0 1c1 0 1 3 2 1-1-4-1-2 1-2h1c-1 0 0 5 1 2 1 0 2 0 2 2 2 1 0-2 2-1 1 3 3-1 3 2 1-3 2 3 4 1h2c5 0 8 2 15 1 2 1 2 3 5 1 4 1 3 4-2 3-15 0-31-2-45-9-2 0-3-3-3-2-1 1 2 3 3 3-1 1-3-1-4-1l-9-12c7 0 2-6 4-7Zm-7 63c-2 1 0 4 2 3 1-1 0-3-2-3Zm83 4h3c-1 1-2 0 0 0 3-1 0-1 0 2 0 2 1-2 2-1 1 0-4 3-1 3v-1c1-2 1-1 1 0-1 1 0 3-4 2 0 0 3-1 1-1l1-1c1-3-2 0-3-2v-1Zm-6 0c0 1-4 0-3 1 1 0 1 0 0 0 0 1 4-1 3 1h-2c-1 1-1 2 1 3 1 2 1 0 2 0-1-2 3-1 3-2 1-2-2 0-1-2-1 0-2-1-2 1s2 0 3 1c-7 1-1-1-4-3Zm-6 0-1 2h-1c1 0 3 1 2 2-2 2 2-1 1 1l2-2-1 1v-1h-1c-2 2 2-4-1-3Zm129 52c1 2 4 3 2 5 2 1-1 1 2 1 4 1-2 0 1 4 2 4-6-6-5-6 2-2-5-4 0-4Zm-34 6v5s-2 1-1-1v-1h-1c0-1-2-1 0-2 0 0-1-2 2-1Zm4 21c1 1-1 3 1 3 1-1 0 1 1 1 3 0 0-2 2-3v1c-1 0 3 2 2 0s-4-2-6-2Zm4 4c1 1-4 1-1 2 2 1-1 1 3 4 1-1 1-4-1-3 0 0 2-1 0-2 0 1 0-3-1-1Zm10 5c2-1 0 2 1 2 3 1 0 1-1 4-1-1-2-5-3-2-2 3-2 4-2 0 0-2 3-2 3-3l2-1Zm80 2c1 2-3 1-1 2l3 3c1 2 0-1 1 0v-2l-3-3Zm-95 0c-2 1-3 2-3 4l1-1 1 1v-3c3 2 2-3 1-1Zm56 2c0 1 3 2 0 2 5 4 4-3 0-2Zm-46 4c-1 2 4 0 2 4-2 2-1 1-3 0-3 1 1-5 1-4Zm19 1c2 2 3 2 4 1 0 2 0 4-2 2-1 0-2 0-1-1s-3-3-1-2Zm8 0c-1 2-2 4 1 2 1 0 0-4-1-2Zm14 1v1l-1 1c-1-1 0 1-2 1 0-1 3 4 3 2l4-1c-2 0-2-5-4-4Zm-13 6c-2 0 0 3-1 3v1c2 3-1 1-3 1h-1c1 0 1 1 1-1 1-2-1 0-2 0-4 1 0 2 1 3v-1c1 1 2-1 2 1 2 1-2 1 0 1l-1 1 2 1c2 0 1-4 3-3 0 2 3 1 2 2s2 3 2 2l-1-1c1-2-2-5-2-6 2-2 0 0-1-1v-2c-1 0 0-3-1-1Zm22 1c-2-1-4 2-2 2l2 1c1 0 3 2 3 0 0-1-4-1-2-2s-1-2-1-1Zm-3 4v1c1-1 0 3 3 2 1-2-3-2-1-3 0 0-1-2-2 0Zm-10 0s-3 2-1 2c1-1 1 4 1 4 3 2-3 3 1 6h1v-2l2 1-2-8c-1-1 0-4-2-3Zm-8 8c-3 0-1 2 0 2 3 1 3-3 0-2Zm4 3v3c1 0 7 1 3 3l-1-1h-2c-2 3 2 2 2 2 4 6-6 1 0 5 1 2 4-1 2-1v-5c2 2 2-4 4-3-1-4-2 0-4 1 1-2-3-4-4-4Zm21 3c0 2 2 1 1 2h3c-1 2 3 2 2 2-2 2 3 3 2 3-1 2 2 3 2 1l-3-5c0-2-6-2-7-3Zm-6 2c0 2-4-2-3 2 0 2 0 1 2 1l1-1v-1c2 1 2 0 0-1Zm3 2c0 1 0 4-1 2-4-2 0 3 3 0 2 1-1 3 1 4l2 2v-2l1 1c0 2 5 1 2 0-3-2-4-4-5-7l-1 1c0 3 0-3-2-1Zm-3 7c-3 0-2 3 0 1 1-1 3 3 3 1h-1c2-1-2-2-2-2Zm16 8c-1 1 2 6 3 4 1-1-2-5-3-4Z"/>
</svg>
