<?xml version="1.0" encoding="UTF-8"?><svg id="Layer_1" xmlns="http://www.w3.org/2000/svg" width="326" height="448" viewBox="0 0 326 448"><defs><style>.cls-1{fill-rule:evenodd;}</style></defs><path class="cls-1" d="M21.12.07c-7.52,1.38-6.66,3.3.43,1.6,4.48,1.73,13.33,2.74,19.33,5.76-.23-1.94-6.24-2.63-7.91-3.66C28.88,1.5,25.78.33,21.12.07ZM59.21,9.04c-.26,1.47-2.97.33-3.26,1.43-.45,2.72,1.66.11,1.47,1.38.57,1.93,2.09-1.74,3.28,1.56,4.38,1.72,8.4,3.28,13.49,3.86,4.46-.17-.4-.98,1.99-2.49-1.73-1.57-.44,1.06-1.2.47-2.41-.57-4.49-3.62-6.68-2.14-1.16,1.07-1.7.25-2.12-.46-.34.31-.51,1.19-.72.06.32-1.54-3.79-4.01-1.89-3.36,4.54,2.03-2.59-2.52-1.83-.77.88.97,2.41,2.57-.19,1.32-1.14.24-.41-3.33-2.34-.88ZM47.84,11.57c-.36,1.39-.7.69-.03,1.87-.3,1.14,1.2-.9.69,1.02-.74,1.93,1.87.08,1.61,1.22-.15.56.27.67.48.12.38-.63,1.67,1.81,2.06.43,1.49.54,3.02,1.12,4.78.18.49.07.32-.08-.82-.72-1.84-1.51-.81,1.19-1.75-.28.88-1.38-2.68-3.68-2.67-1.75-3.64,2.71,1.93-1.22-1.69-1.94-.7-.74-1.7.89-1.93,1.19-1.63,0,1.48-2.25-.25-1.94-.53,0-.6.09-.47.59ZM78.49,15.64c-3.29,3.21-.85,2.95,2.11,2.76,2.63.95,5.14,4.4,8.33,5.02,10.43,5.08,17.72,12.9,27.21,18.63,5.79,1.73-1.13-4.81-3.17-5.96-2.9-1.78,3.24-.12,3.46.56,1.65,3.57,5.67,6.75,8.56,7.39,1.81.81,1.42-.79,2.49-.27-.02,1.09,3.89-1.58,2.27.55.92-.35,1.18-.74,1.8.35,1.1-.11-.54-.97.31-1.01.63-.29,1.06.15,1.53-.33,3.14,3.31,9.88,2.03,13.29,3.8,6.28-.27,10.46,1.7,13.74-.84,3.57-.34,1.1-.28-.06,1.22-1.05.67,2.04-.26,2.51-.48-2-.08.23-.57.8-.47.68-.57.41-.37.5.23,1.86.11,2.71-.55.75,1.27,2.44-1.36,2,1.32,3.29.19,1.52-1.35-1.33,3.12-.54,2.53.75-.05,4.53-1.39,2.66-.25-.43.98,1.64-.46.47.72-1.59-.37-1.27-.51-1.14.65.25.05,2.39-.84,1.38-.16-1.69,1.27,3.45-.94.73.67-1.94,1.41.03-.03.15.57.09.48-.65.44-.43.81.52.44.9-1.66,1.18-1.23-.28,3.3-.14,1.2,1.25,1.94-.74.41-1.05,1.59-.25,1.17,2.17-1.7-.39.46-.25,1.14.78.31,2.25-.64.33.45-.06,1.08,2.62-1.12,1.93.13-.37.68-.32.88.11.52.54-.63,1.42,1.22.66-.55-.67-.41.85-.07,1.07-.64.49-.42.5-.42.16.02-1.09,1.46,2.4.32,1,1.17-1.49,1.05-.29.24.23.74-.79.7-.04,1.81.25,2.79,2.08,2.57-2.51,1.3-2.25.97,1.61-1.06-.12.03-.65-1.56-.27-1.21-1.82-.81-1.04-1.19-.16-2.62-5.33,4.86-7.31,4.62-.59.15-.27,2.55-.59,1.26-1.59-.27-3.32,1.46-5.1,1.76-.78-.25-.66,1.46-1.25.08-.35-.41-1.57.13-2.44-.71-1.2.86-5.27.09-6.88.78-3.3,1.37-5.49,3-8.66,3.78-1.78.98.06-1.91-2.36.56-1.43.57-1.66,2.5-2.45,1.67-.98-1.31-1.44.46-2.17.04-1.24-.76-1.03,2.33-2.17,1.46-3.92.24-7.7,1.73-11.88,3.91-4.93,3.03-29.6,4.25-30.44,14.43-1.65,4.84.49,12.01.3,16.63,1.37.85,1.85,2.73,2.57,4.03-.31-.13-2.04.31-.6.55,5.57,3.52-4.16.88-2.4-3.4-.75.41-2.05.44-2.38-1.32-4.21-1.16,3.6-4.14,1.62-4.66-3.66.72-5.04,7.07-5.99,9.66-.88,1.42,1.97-.04,1.59,1.53-.49,1.23,1.14-.1,1.1.63.1.88,2.19-.35,2.55.79,1.19,1.19,1.45-1.35,3.01-.21,1.63.84,1.84-2.14,3.25.01,1.09,2.13.42-.3.99.07,1.55.78,3.53,1.86,4.51,3.1.15.55,5.18,1.75,2.51,3.03-1.71,1.04-.49,2.68-2.51,3.11-1.92,2.95,5.04,4.89,8.71,4.66,4.31,1.99,8.05-4.62,11.79-2.93,4.25,1.69,9.97,1.65,13.73,5.31.02.3-4.02,1.14-4.54,1.49-.81-.99-3.21.24-3.67.69-5.24,2.07,3.91,5.01,5.81,5.72,3.66,3.59,7.28,7.57,11.67,9.11,1,1.92,2.11-.74,3.25.91.51.86,1.7,1.15,2.72.89,1.41-.48,3.38,2.77,4.56,1.13,1.95.85,1.1-2.89,2.65-2.78.69.11,2.74,3.2,1.34,3.56-4.13,4.44-8.63,12.17-14.57,12.55.66,1.52-3.04,1.9-3.72,3.86-.85-.18-3.46-.71-4.92,1.06-3.87,1.5-9.48,4.87-12.06,4.01-.95-2.15-3.09-1.9-4.25-1.16-4.32,2.17-5.63,4.21-12.03,4.37-3.76-.12-.96,3.43-5.14-1.02-.39-1.78-1.35-6.32-2.44-2.6-1.54-.82.05-2.68-1.76-3.19-1.28.69-2.18,1.36-2.02,2.56-.97,1.49,2.06-.66,1.4,1.24.86,3.1-4.32,3.79-2.13,3.98,1.11.09,1.29,1.57,1.47-.18,2.19.8-1.97,4.65.9,5.08,1.75-.86,3.41-.48,5.33.36,4.11,2.99-16.32,5.24-16.9,6.38-11.73,8.51-26.65,5.61-37.79,13.68-3.74,2.18-11.8,5.11-10-.42.98.95,2.02-.42.68-.51q-.69,0-.08-.47c.63-.7,1.44.23,1.17-.85.35-1.49-1.12-4.16-1.9-5.1-1.96.08,1.19-3.94,2.35-2.31,2.34.15,5.98-1.16,7.89-1.67-2.67-2.48,4.06-4.18,3.67-4.28-.1-1.96-1.86-1.56-3.17-2.68-.22-.66-1.38-.54,0-.85-1.86-1.06-1.93,1.17-2.74,2.18-3.08.55-1.81-4.1-2.07-5.71,1.11,1.63,4.03-2,3.84,1.4.32.13.16-.47.59-.4,3.06-2.2,2.09-4.01,6.5-2,4.42-3.36,1.76-.93,3.9,1.75.2-3,1.26.43,2.25-1.08,3.56-1.46,7.17,1.49,9.35,3.43,1.62.56.51-.1,1.63-.85-1.85-1.01.45-.45,1.23-.74,3.07-.64.15,1.21,1.91,1.82,1.19,1.85,4.85,1.57,6.6,1.71.65.75.76-.54-.25-.67-2.1-.37,1.08-1.1.13-1.32-1.37.7-1.55.4-.78-.85-2.72-.68,3.31-2.75-4.29-3.16-1.75,1.97,4,1.24.09,1.92-8.42-1.7,5.04-1.57-6.15-5.26-2.51,1.81.51-2.42-1.38-1.78-3.44-1.77-7.16-3.87-10.56-5.59-7.74-1.42-13.44.28-19.36,2.94-.08-2.44-2.53-.71-3.45.13,0,.54,1.03.38,1.18-.17,1.91-1.61.71,1.33-.67.88-1.52,1.23-4.4-.11-3.01,2.37-3.21-1.31-4.95,2.13-8.15,2.75-.91.83-1.07,1.97-2.35,2.13,1.78.46-1.76,2.94-2.98,2.69-4.08.08-6.45,5.93-9.27,8.1-4.39,4.76-5.19,12.57-8.98,17.9-1.24.91-.62.75.09,1.15-.64,1.56-1.93,2.94-1.12,4.77-1.15.97.14,3.05-.93,4.57.31.88-1.08,1.63-.1,1.85.51.13.52.16.1.47-.8.49.36.41.31.85,1.29,1.17-.85,1.65.46,2.62.88.81.9,1.47.05,1.14-1.06-.49-1.15.81,0,.75-.12.26,3.69,2.33,2.59,2.31-.82-.17-2.6-1.2-2.84-.29,1.72.84,3.52,1.19,5.23,2.85,1.04.26-1.44.64.16.81.7-.09,1.1.77,0,.52-2.29-.32,1.23,1.47,1.65,1.25,1.89-.08,4.17,4.92,5.56,6.48,2.28,1.47-3.08-4.89-2.12-5.09,2.75-2.02-.68-.27-.63-.66.03-.41-.38-1.88.25-.81-.02,1.09,1.66-.67.65-.62-1.51-1.1.08-2.87-.6-3.56-1.25-2.6-.08-4.2.44-7.12-2.09-.07.17-1.86-1.29-2.06-.62,0-.58-.3.15-.98,1.7-1.95-.49-4.88,2.14-5.63-1.19-1.29,2.3-1.87,1.15-3.3.45-.43.39-4.83,2.58-5.36,2.15.71-.74-1.22.72-2.03.62-.69-.43,1.24.82.3.77-.41.63-1.08-.18-.88-1.46-.19,1.1-1.89,2.17-1.75,3.57-.84-3.76-.21,3-2.37,2.47,1.71-3.96,5.89-4.44,6.85.09.99.02,4.46-2.22,6.54-.46.69-.84,5.66-1.75,7.88-.31,2.44,4.47,3.68,3.01,6.16,3.48-2.48.06,4.69,2.33,5.58,2.96,2.96,3.65-2.48,6.43-.86.37.86-1.9,1.38-.12,2.11-.29.28-1.83-.07-1.02,1.08.87-.26-.02,5.21,1.1,3.38.28-1.02,1.29.15.64.28-1.09,1.23-7.41,3.42-6.2,4.75,2.42-1.37,6.25-3.59,5.22,1.13.74,2.43-4.44,1.31-3.69,2.4.77,1.68-.59,1.6,1.66,2.52.59,1.2.69-.97,1.63.04.77.51.89.51.89.03.83-.77,3.7,5.7,2.78,6.82,1,1.83,3.08,4.64,4.58,6.81,3.06,4.38,10.03,9.02,13.52,13.56.07,1.34,2.34.58,3.03,1.19,1.96-.16,3.67,3.93,4.68,3.13.64-.13,3.28,1.4,3.75,2.32-.35,2.36,2.68.15,2.92,1.59-.08,1.46,2.83-.06,2.75.8.26,1.46,1.63,1.68,2.62,1.16,2.1-.78.95,4.38,3.41,2.84.94-.25,2.38,1.95,3.24,2.34.82-.14-.04,2.73.85,1.82,1.8-.94.93,1.31,3.52.87.77,2.72,5.91,1.07,7.35,1.7.74,2.66,4.41-1.92,6.21.12,2.77-1.15,6.26.31,8.52.02.48-.36,5.02-.18,6.55.65,2.35-.81,4.38-.41,4.29,1.36.04-.72,5.23-2.25,3.17-.59-1.75.41.6.12-.27.62-.38,1.07.74-.65,1.16-.04,1.02.46-.67.13-.65.51.14.95,2.65-1.68,2.62-.47-.27.43.18.27.53-.19.64-.92-.02.75.87.31.96-.46-.21.85.08,1.06,1.3-2.83,1.68-.81,2.93-1.79-.97,1.16.29,2.13.43,3.36.77-2.9,1.38-1.23,3.31-1.86-.03,1.08,1.4.41,1.09,1.64.25.97.59-1.52-.16-1.27-1.11-.08.13-1.91.83-2.25.24.36-1.41,2.13-.43,1.92,1.2,1.33,2.16-2.33,2.68-.56-.27,1.47,2.1-.58-.15-.86.48-.74,1.41.16,2.49-.97.06.74-3.18,1.88.08,1.12.75.43.88-.01,1.25-.78-1.03.24-1.27.27-.42-.44,1.65.55-.88,1.89,1.36,1.32.7.86-3.75.69-.75,1.14,1.15.23,2.42-1.19,1.62-1.77-.34.01-.13,1.36-.49.63-.33-.35.81-1.44-.43-.73-.4.99-.66-1.7-.34-1.53.14,1.29,1.23.59,2.16,1.04-.72.11-.53.06-.3,1.21.25.88.32,1.81.92,1.49,1.96.23.18-.54,1.49-1.74.31.79-.75,1.58.75,2.28-.91.72.46.67.87-.37.63-.47.29-.82-.24-.42-1.07.54.43-1.4,1-.49-2,3.06.62.99-.32,2.94-1.74,1.26-2.27,2.41-3.75,2.56-1.38.5-.05.75.83.38,2.26.65-2.85.51-2.82,1.72-1.37,1.61,2.46-1.87,2.5-.42-1.18.37-.5,1.53-1.94,1.08-1.04.72,2.27-.13,2.2.92.04.59,0-1.31.25-1.21.26-.37-1.12,1-.83.18.51-1.56,4.71-2.49,3.25-4.04.8-1.04.93,1.84,2.5-.16.93-1.41.46-1.04,1.25-2.21.89,1.44-1.72,2.3-1.65,3.94,2.3,3.38-1.67-.77-1.1,2.06.59-1.69,1.16.6,2.48-.37.43-.16.04.68.52.87-.86-.29-3.07-.72-2.01.63,5.58-1.18,1.65,2.41,4.08.83-.57-.92,1.23.05-.01.45-.59.15-.69,1.15-.1,1.02.23.22,2.78-1.86,2.3-.57-.54.75-2.16-.06-1.6,1.23.55,1.39.86-1.49,1.02-.17,1.09,1.79.18-1.15.87-.46,1.16.62,1.43-.01.21-.5-.02-.42,2.93.41,1.29-.63-.62-.07-.66-.11-.3-.33.74-.39-1.38-.39-.66-.9.07.24,3.46.32,1.68.76-1.45.91,1.97-.35,1.24.87-.47.78.05-.78-.7.09-.25.23-.52.35-.59.28-2.24.55,1.94,2.05-.33,1.8-2.38.58-1.1,1.42-2.41.04.59,1.06.1,2.05,1.44,1.24.21.83,2.13-.35,1.89-.25-.55-.58.46-1.01.45-.31-.2.79,1.35-.09,1.16-.55-.53.11-1.44.58-1.29-.77.12-.94,1,1.25,1.07.16,1.57-1.82.07,2.5,1.63,2.11,1.15.27-4.75.68-1.27,1.6.89-.59-.05.71.13.99.1.27.21.22.42-.2,2.18-1.91-1.18,1.58,1.33.06,3.49-3.55-1.36,1.78.33-2.15-.88-.63,1.42-.62,1.61-.2.28.54-1.19-.16-1.11.29,2.07.73-.06,2.11-.31,3.47,1.3,1.13,3.76-1.13,2.71-1.46-2.17.24-1.67-.51.17-.59.67-.84,1.41-.08.51.15-.99-.04,1,1.07.04.95-.53-.06-.27.67.07.57.47.2-.38,1.06.85.73.68-.09.77-.05.52.22-1.12,2.31,1.66-2.04,1.28-.32-.39.26-.63,1.35-.26,1.23,1.15-2.99,1.36.02.26,1,.66-.46.92-.33,1.47.07.02.1.72-1.73,1.19-.75-.2.17-.75.73.02.61.88.23-.74.32-.74.51,1.27.05.38,1.5,1.65.65.95-.72-.78,2.33-.08,1.97.19-.12,3.78-1.71,1.59-.41-3.19,1.77,1.46.06.12,1.06-1.31,1.77,1.36-1.05.07,1.42.22.91,1.39,1.28,2.71,1.5-2.19.5.1,5.35.61,7.59,2.37,3.42-2.96,9.13-1.56,12.15,2.59,3.93-.18,5.88,3.35,7.2,1.13,3.3,6.94,3.63,9.01,5.91,1.32,1.17,3.67-.84,5.91.14,5.33.28,10.94,2.05,14.81,3.5,1.8,1,.36-5.99,2.29-1.24.15,2.19,3.43-1.8,2.16,1.26,0,3.29,1.49,3.51.58.29,1.15-2.02,2.91.82,1.41-1.85-.92-1.05.64-1.6,1.35-2.02-.4-.24-1.6-1.09-1-1.75-.02-1.38.31-1.94,1.24-.94-1.21-.17-.91,1.7.55.76,1.75-.48-1.18-3.06-1.22-3.3,1.08-1.13,3.2-1.56,3.87-.14.98.42-1.2.62.09,1.23,1.27.76-1.38.31.08,1.15.83-1.08.77-.19,1.2.25,1.1-.99.26.78,1.17.93,1.03,1.06,1.02-1.12,2.14.23q.69.69.15,1.04c-1.66,1.3,2.63,1.91,2.07,3.89-.72,1.87,3.66-.04,1.48,3.59,1.02.67,3.16-.27.66-1.19,1.29-.2.79-1.75,1.12-1.94.77.42.38,1.49.88,2.21-.1,1,3.42-.32,2.73,1.38-.18.98.2,2.04.73,1.87.84-2,1.43-.66,2.88-.35,1.22-.11.6,2.16,1.03,2.73.63,1.39,2.62,2.66,1.75,3.85-2.35.77-3.59,3.5-.01,2.91,1.46-.07-1.55-2,.38-2.04.85,2.4,2.67,1.34,3.31-.88.26.1-.14,2.31.39,1.2-.4-1.31,3.49.95,1.31.4-5.06,1.02,2.98,1.11,1.94,2-.47.79-.45.77-1.23.03-2.22-1.87-2.83,5.18-.71,3.5,1.15-1.4-.42,1.24.37.87,1.73,2.59,6.13,3.35,2.62-1.11-3.17-4.92,2.64.58,2.19,2.08,1.48,3.36-5.5,2.2-6-.07-3.32.24-1.2,1.13-.44,1.58.15.63-.98.38-.86.79.38.48,2.02-.36,1.44.79-.16,2.05-2.88.49-2.26,2.61,3.43,1.01-.41,4.49-.21.47-2.56-1.17.67,2.52-.86,3.41-4.03-1.6-2,1.42-4.75,3.29,5.24.86-.82,2.9,3.5,2.02,2.44,1.91,2.32,5.83,6.68,3.38,1.26-.21,1.73-2.76,3.21-2.69-.98,1.2-1.2,4.98.54,3.19,1.84-.52,5.91,1,7.32,2-.64,1.04.45.71.75.98-1.71-.39-.57,2.94.05,1.23.59-1.85,2.82,2.36,3.33-.93-.38-.61.69-.88,1.08-.27,1.79,2.68,2.64.95,4.37.38.26-1.28,3.01.97,2.19-.72.14-2.27.5-4.8-.53-6.56,3.43-1.33-2.29-5.04-1.97-6.68,1.46-1.02,3.07,4.71,6.1,3.88,2.1-.48,1.74-.35,1.24,1.61-.64.87.25,1.07-.47,2.15-.46.63-1.51.59-1.09,1.75,2.98,1.44,4.71,7.33,6.95,6.24,1.09-.49-1.94-3.45.99-2.1,1.37.66,3.16.88,2.95,2.29-1.54.09-.4,1.08.05,1.25,0,.27,1.69,1.25,2.17,1.25.39.16-.57,2.27.46,2.59,1.27,1.31,1.79,3.45,1.36,5.41-.58.97-1.21,1.35-1.8.24-1.44.99,1.18,4.34.6,5.11-2.13.65,1.57,2.8-1.22,2.68-2.79.3-.46.87.12,1.23,2.1.39.69,2.5.04,3.07.37.45,1.19.24,1.65-.43.74-1.06.91-.09.22,1.29-1.34,2.89.77,1.95,2.1,1.1,1.35-1.4-.99-7.37-1.51-8.85-.71-.33,3.38-1.08.46-3.72-2.45-2.32,3.54.45,2.33.27-.47,0,.52.75.04.87-.92.75.81.36.44,1.32-.04.38-.22.66-.38.63-4.9,1.64,3.05-.14,3.43,1.24,4.44,3.27-2.19-2.91-.85-4.33.61-2.47-2.62,1.87-2.14-2.39-.15-1.35-.18-4.23-2.37-4.54-.88.1-1.3-.51-.64-.92.92-1.12-1.54-2.51.25-3.13-.25-1.42-2.44,1.08-2.09,0,1.14-1.57-1.21-.73-1.57-2.16-.2-.99.74-.13,1.01-.55.15-1.05-3.79,1.27-1.85-.47,1.93-.73-2.45-1.24-1.11-1.92.83-.14,1.82.45.63-.93-2.18-2.14-.7,1.98-2.32.68-.27-.07-3.3-1.79-1.37-1.44,2.12.36-1.05-2.47-.9-.26.35.8-.74-.46-1.09-.05-1.69.32,1.65-3.64,1.76-3.16.64.53,2,.15,2.09-.58.32-1.12-1.13-.28-1.06-1-.14-1.84-.94.08-1.39-.67.98-.63-.94-2.94-.52-3.75.76.46,1.8.74,2.47,1.4,1.62,1.16.99-2.79,3.3-.65,1.28,1.32,3.25-.49,1.97-1.75-.01-.36-2.31-1.34-1.53-1.6,2.68,1.11-.14-.35,1.06-1.41.01-.26-3.44.61-2.84,1.18.62.33-.8,3.01-1.16.8.22-.18-1.33-1.5-.38-.98,1.38.76.57-.9,1.38-1.42.77-.57-.18-1.73.76-2.48-.2-.73-1.95.39-1.01-1.45,2.23-2.24,3.88,2.97,3.51-2.27-.9-.6,1.9-.42,2.2-.96,1.81-1.49,2.47.58,4.16.31.53,1.33-5.17.54-3.07,2.47.82,1.88-3.14-1.71-1.8,1.91-.95,3.43,3.14,3.45,5.21,4.03.76,1.24.45.07,1.23.07,1.49.48-2.36-2.93-2.56-3.16-4.47.74-1.06-3.03.8-2.86.61.89,2.28.83,2.57.64.38,1.31,1.63-1.1-.06-.93-.51.16-.58-.15-.14-.59-.21-1.35-.88,1.14-1.4-.95-.67-2.12,4.38,1.11,3.31,2.84-.43.75,2.2.7.93-.08-.52-.38-.49-.4,1.04-.46,2.51-.03-.09-1.79-.23-2.76-.13-.62-1.97-1.29-2.45-1.37.21-.41,2.08-.2,1.13-1.02-.99-1.02-1.8,1.43-1.77.02-.46-.62-2.42-2.03-3.17-1.7.08,1.7-2.17.85-2.26-.44.16-.84.56-1.06.74-.41.29,1.53,3.04-1.02,1.08-1.14-2.18-1.27,1.65-.46,2,.29.84.79,1.41,2.84,2.8,2.27.36-.64-.04-1.71-.58-1.57-.91.36.6-2.12-1.08-2.21-1.03-.7,1.79.52.9-.57-1.2-5.73-3.76-.27-2.8-3.38-3.1-2.92,5.55,1.75,1.88-1.47-1.84-2.27-3.69-2.45-5.31-4.29-.48-2.13-1.51-1.97-3.44-2.26-.95-.5-1.21,2.84-2.22,1.47-1.35-1.14,1.51-.85.85-2-.12-1.5.93-1.49-.3-3.2-.77-1.86-3.03-.57-2.72-2.88.2-.63-1.55.42-.77-.38.31-.37.22-.52-.28-.44-.91-1.2-7.14-1.67-6.59-4.76,3.46.44-.36-1.37,4.39-2.21-.73,3.77,4.59,5.9,7.52,8.75,1.43-.18,4.98,4.71,5.6,1.71-.66,1.3.46,4.64,2.21,5.04,5.74,4.12,8.99,2.94,11.61,10.61.23.44.24,2.09.59,2.88,4.82-.02-9.98-20.09-.98-10.89-1.07.51,2.68,3.88,1.77,1.52-1.05-2.69,2.52.31,2.85,2.76,1.33,1.58,3.69,5.87,5.2,5.4,1.14-1.38,1.23,1.13.78,1.47-1.01.13.28.48-.04.94.35,1.3.85-3.04,1.67-2.31-1.17,1.07,1.03,3.06.77.78-.43-.51-.17-.51.61,0,.73,4.1,7.96,21.21,7.33,16.41-.51-.58,1.82-3.4-.12-2.14-.29-1.52,1.76-.68,1.56.35,1.1.8-.16-1.26.46-1.46.66-1.3-2.66-.73-2.91-1.66-1.78-.48.56-1.8.8-.52,2.93,2.36-.47-6.03-.38-5.14-1.27-.13,1.76-1.09,1.82-.07,1.09.09.45-3.44-.22-3.42-.72-.54,1.04-5.59-.94-4.64-6.87-12.76-15.89-32.41-29.56-42.74-2.28-3.06-13.61-4.16-17.7-4.87-4.07-1.96-11.73-3.58-14.17-3.88.03-1.28-2.42-2.4.41-2.97-2.15-.34-2.37-.33-3.22-1.84-1.46.66-.63-3.64-2.17-2.29-1.82-4.34-3.08.68-4.6-2.09-3.39-3.22-2.28-2.12.23-1.91-.09-2.01-3.69-2.77-2.67-1.28.17,1.26-.1,1.43-1.09.7-.58-.43-.67-.6-.38-.65,1.11-.14-.66-1.8-1.15-1.34-1.07.83-.61-2-2.23-1.7-.62.13-.83-1.36-.47-.79.29.81,1.27-.38.44-.79.3-.07,2.12-.88,1.63-1.85-.62-1-.37.52-.98.44-.49-.24.82-.95-1.44-1.36-1.12-.95,1.13-1.9-.85-2.29-3.04-1.09-3.61-2.4-5.7-3.51-.73-1.02.25.61-.39.35-.12-.9-1.86-2.41-2.48-3.11-1.03-1.8-1.76-1.77-2.75-3.34-.02-.86-2.87-.28-2.61-1.33-.63-1.97-3.79-2.89-4.89-4.52-10.83-7.73-24.23-14.96-34.22-17.03-2.79-.19-5.78-4.34-7.16-2.45-1.1,1.43-.33-.9-1.43-.21-4.2-.51-9.38-3.11-13.43-5.93-2.65-7.04,11.75.27,13.87,1.48,1.98,1.1.62-1.23,1.49-2.37.17-.61,2.27.22.89-1.05-5.99-5.17-14.06-6.87-21.54-9.04-16.97-3.95-37.08-.3-54.04-.51-5.52-1.78-10.15-5.03-15.58-5.65-1.75-2.04-4.23-1.7-5.93-1.75-.1-.27.03-.38.47-.38,2.06-.34-1.36-.83-.95-.19-.67.73-.85-2.19-1.96-.91-.39.47-.73.44-.73-.08-.03-.7-.57.32-.99.17-.55.06.45-1.12-.66-.39-.92.64-1.04-.09-.42-.76-1.53.07-.32,1.8-1.02,2.18-1.67,3.15-5.76,1.18-7-1.07,1.64-.14,2.69-.57,2.32-2.2,3.74-2.71,2.64-2.83,6.67-2.78,2.44-.16.07-1.9,1.73-1.47,3.23-.3-.92,2.01.99,2,.83-.85,1.45-.31,1.25-1.17-.73-1.55,1.69,1.27,1.47,1.04.09,1.13,1.29-.53,1.92.07.85.62-.8-1.77-.6-2.63-.61-.74,2.31-2.76.89-.99-1.26.65.58,3.4.46,1.92.06-1.59,1.64,1.95,2.24.52,1.19-1.32,1.28.67,2.14-.77,1.35-1.55-1.45.51-1.65-.76-.24-.41,1.91.24,1.35-.8-.22-1.05,1.16-.23,1.55-.94.52,0,.47-.67-.06-.97-.93-.51,1.48-1.92-.72-1.66-1.97.84.79-2.4.66-1.39-1.06.77.2,1.09.91.4,1.32.11,1.11-2.4,2.4-1.58,2.21-2.11,5.01-.77,8-1.22,5.41-1.23,9.87-2.1,13.09-4.76,3.55.02,5.89-1.28,8.72-2.32-.69-1.21-3.65.63-2.89-.39,2.25-.99.73.62,1.8-1.23,2.8-.24,1.78-1.79.79-1.39-.03.27.64.68-.26.7-1.68-.3,3.01-1.89.68-1.86-1.41-.34-1.01,2.63-2.16,1.98-1.49-.99,1.95-6.11.65-2.06-.75.7,1.86-.31,1.47-1.06.05-.19,1.93.12,1.36.35-.67,1.51.76-.43,1.05-.26-.5,1.78-1.96,1.21.39,1.7-.28.23-2.66.78-1.35.92.9.04,3.4-1.97,1.6-1.64-.58,1.08-.73-2.01.25-2.51,2.56-1.52,1.9-.99,4.31-1.27,2.27.67-3.97.42-.37.79,1.27,1.08-1.62-.1-1.44.61.51.4,1.13.92,2,.13,1.3-.31.85-2.96,1.23-1.14.66,2.03-1.44.55.02,2.01.8,1.46-.16-2.1,1.18-1.67,1.69.36-1.83-1.65-.62-1.35,1.17.21-.53-.75.25-1.2.68-.89.45,1.04,1.04.04.71-1.06.9.27.2.49-1.41.72-.67,2.09-.09.57.62.68.83,1.91.7,2.23,1.67-.26.53-2.54,1.89-1.12,2.2-1.01-1.32-.45-1.15-1.24.64-.88.25.06.57.09.51-.17.3-.59-.3-.59-.87-.35-.43,2.47-1.09.75.83-.7-.47-2.77.33-2.32.34.27,1.47,2.02,1.26.56-.53-1.39,2.57-1.92,1.8-.54-.24.22-.27.22-.14-.02.3-.92-1.65-.38-.72.34.85.38,1.32,2.89.78,1.4-.35-.55-.62,1.54,1.45.98,1.55-.2-.62-1.22-.61-.96,2.82-1.19.66-1.2-.85-.79.56-2.4,3.41.98,3.04-.42-.73-2.37,5.07-1.42,2.94-2.23-2,.05,1.54-1.21.66.41-1.15,1.98,1.59,1.65,1.45.19.14.25.61.98.59.08.64-1.2-.31,2.68.82.51.05-.7,1.93-.27.6.29.17.33,2.04.74,2.29.68,1.5-.71,1.97-.71,3.33-1.22,1.13-1.52-1.1.67-.87-.18.03-.45,1.27-1.2,1.49-1.23-.39.83-.65,2.71.79,1.75,1.12.06-.57-2.25.65-1.5,2.54,2.36,1.29-1.19,2.64.24,1.29.64-1.96.06-.54,1.14,5.07-4.36-1.85,2.69,3.59-1.97,1.59-.98-.93.98-.87,1.22,1.18.35,2.29-1.88,3.62-1.97,2.11-.37,2.55.82,3.82-1.08-.67,1.5,2.12.36,1.2-.84.1-2.17.39,1.75,1.6.08,1.72-.48,1.68-2.77,1.46-.16,1.03-.27,2.87-2.34,4.03-2.35.9.65,1.91.25,2.61-.62.93-.98.21.15.29.63.92.8.53-1.45,1.02-1.6.58-.88.29,2.44,1.1.35-.22-1.16,2.77-.57,1.7.2-.39.84.4-.32.82-.07,1.57-.93,3.29-1.63,5.31-2.59,1.57-.52,6.55.2,4.27-1.25-.45-1.89-3.87,1.41-3.47-.57.01-1.03-.33-1.33-.55-.48-.08.95-1.39-.15-1.64.07,2.14-1.19-.49-1.07-.93-.19-.67-.52,1.5-2.87,1.29-1.52.32,1.13,7.15-.42,2.69-.53-1.66.68-3.34-1.24-4.61-1.07-2.48.69-6.17.3-6.96-.29.87-.57,2.39-1.1,1.76-2.31-2.8.85-1.86-2.21.38-.84,1.75,1.58,3.99-.1,6.19-2.05,1.55-2.38,3.69,2.77,6.35,1.07,1.2.58,10.89-2.76,7.02-2.95-2.33,3.18-12.51-5.15-5.17-4.07,3.21.98,7.34-.5,11.25-1.39,4.66.02,2.95-6.03,6.13-8.44-.33-1.54-2.05-2.57-3.01-4.87-2.13-4.05-4.56-8.33-8.7-10.86-1.47-2.52-2.91-5.52-4.62-8.23-5.48-13.09-14.59-20.87-28.18-25.77-2.67-.41-4.8-1.61-6.98-.48-1.78-.71-3.78-3.26-5.74-2.09-1.82,1.25-3.69-2.09-5.51-2.35-1.14-.14.08,1.13-.92.85-.45-.23-1.18.56-1.18.03-.26-1.68-1.96,0-2.95-.46-7.71-.02-15.34-4.3-21.11-6.18-2.06-1.6-3.48,2.4-6.46-1.55-4.63-2.77-3.65-7.46-2-10.65-.53-2.23,3.62.86,1.37-1.59-1.84-1.63,7.53,1.44,2.52-1.27.64-1.27,3.98-3.76,5.07-2.03,1.46-1.23.58-.81,1.04.55.47-3,2.28-2.92,5.15-3.01,3.98-1.11,8.03-1.84,11.57-3.1,2.6.19,5.08-.62,7.09.07,2.52.15,3.8-2.93,3.96-1.32,1.9,1.92,7.83,3.64,10.79,3.04.93-.59,3.55-1.56,3.59-.69-.24.66.37.62.37.11.21-.21,1.55-1.03,1.89-1.36-.51,1.25,0,.28.05,1.21-.3,1.45,1.55.07,1.77-.21.75.11.24,1.57-.41.94-.6,1.82,2.66-.87,1.33-1.03-1.09.08.35-.52.38-.69-.34-.4-3.06.42-2.59-.39,2.19,0,.3-1.93.89-2.84-.78,1.43-2.32-.52-3.53-.59-2.06-3.22,5.66-2.41,7.87-2.72.54.06-1.45,3.05.22,2.9,2.83,5.32,5.12.84,3.99-2.26,4.53.9,8.9,4.12,13.31,5.92,13.28,5.86,6.32-1.09,12.1-3.63,5.23.23,5.96-5.19,6.4-9.73,1.11-.95-1.86-2.7-1.91-3.77-1.89-1.15,1.64-4.96.22-4.73-2.28.1-1.68-6.66,1.04-4.12.52,2.82,2.63-.47.72-.76-.69,0-.72-.05-.72-1.13-.09-1.27.2-1.34-.98-.72-4.08.29-2.71-6.84-4.52-9.07-6.04-7.62-14.12-12.09-23.09-13.7-7.42-1.72-7.69-1.06-14.66-2.04-5.92-1.51-12.03-3.08-17.79-.18-4.59,2.39,5.57-.64,6.3.55-18.07,5.19-3.75-.26-16.45-.99-.84-.49-7.39.87-4.84,1.69,1.98-1.61,8.98,1.52,3.04,1.61,4.45,1.9-8.55,1.95-6.69-1.02-2.72,1.84-4.73-.57-7.5.31-9.78-.97-3.51-4.98-14.45-3.24-2.12.96-2.48-1.08-3.36-.23-.47.6,2.62,1.01,1.96,1.53-1.6-.42-4.61-1.57-4.92-3.44-1.47,1.16-2.22-.18-3.31-.92-1.96-.39-.01-1.65.27-2.31-.55-.55-2.79-.8-1.49-1.51,1.55-.55-1.03-.76-.75-1.61,0-.64-.17-.67-1.33-.19-.55-.08-1.32-.8-.8-1.38,1.48-.67-2.14-.47-1.06-.68.41-.06.69-.26.69-.49-2.05-.69-5.71.82-8.7-1.05-4.29.21-3.03-3.62-4.14-2.9-.71.5-.92.47-.92-.13-.53-1.39-1.61.74-2.74-1.11-.81-.9-.56.19-1.14.36-.33-.42-1.57-1.24-1.81-.27ZM121.8,23.52c-2.23.42-2.92.81-2.65,3.75.87,2.66,5.44-3.62,4.55-3.62-1.86,1.88-.85-1.92-1.9-.13ZM145.93,35.37c3.67.17-1.97,3.51-2.5,1.52-1.16-1.19.38-1.12.75-2.28,0-1.08.51,1.13,1.75.76ZM208.96,77.85c2.47,1.09-.08,5.56-1.82,2.18.03-1.27.14-3.24,1.82-2.18ZM131.43,93.67c-1.52.22-2.65,1.8-.35,2.58,3.2.54,2.45-3.79.35-2.58ZM128.43,100.64c3.99,7.68,24.16,8.52,26.25,4.65-8.12,1.69-19.11,1.04-26.25-4.65ZM158.68,102.72c-1.53.92,3.03.6,2.05,1.25-1.59,1.84,3.75-2.08,2.99.48-.67.42,1.37,1.67,1.21.84-1.28-1.23-.33-.8,1.13-.1,5.14,3.44,12.8,4.35,16.77,10.32.65,1.99,4.87-.13,5.76,3.36,4.63,3.82,5.44,16.27,12.68,13.42.77-1.18.34.51.64.63.43-.09.2-.65.7-.9,1.08-1.5-3.94-1.85-4.48-3.18-1.39-.54,2.81-2.44,0-2.92-.58,0-.59-.2-.06-.79-.1-3.04,1.34.71,2.73.23.23-.9-.73-2.39-.89-3.08-5.84-7.85-16.94-17.8-26.25-19.5.94.58.63,1.4.02,2.14-.96.11.53-2.08-.77-1-3.12,3-9.42-2.54-14.25-1.2ZM109.78,125.79c.39.66.21.79,1.01.38,1.77-1.14,2.88,2.65,3.89-.02.75-1.71,4.11,1.3,5.25,1.52-2.73-.32-8.71,2.43-10.63.17-.47-.18-2.02-1.15-.62-1.35,1.06.41-1.22-2.66,1.1-.7ZM214.31,130.48c-1.14,1.12,4.24,1.41,4.37,1.68,2.75.52,1.56,4.23,3.88,4.36,3.27,1.83,11.62,5.96,12.68,11.39,2.82,2.97-2.32,2.91.05,5.07,7.32-2.09-4.41-14.85-9.91-15.32-1.35-4.39-5.61-8.5-11.07-7.19ZM232.24,159.08c-.63,1.63-1.57,1.6-1.64,3.28.08,1.83-2.39,2.83.08,4.16.64-2.73.03-1.38,3.1-2.37,2.88.36-2.04-2.92.27-2.4,4.06-1.11-1.43-2.29-1.81-2.67ZM95.81,183.63c-3.11,3.24-1.73-1.28-2.63,1.21.13,1.13-3.15-1.08-1.52,1,.69.11.33.82,1.02.2,1.48-.36-.62.61-1.05.47-.24,1.69,4.02.24,3.79-1.21.43,1.41,1.44.32,2.05.86.98,1.32.93-1.34-.71-.83-.45.11-.53.03-.5-.51.4-.83,1.09-1.55-.46-1.18ZM65.45,185.26c-.71.46,1.18,1.02-.03.77-.62-.54-2.05,2.1-.75,1.55,1.22.07.5.66-.25.35-.56.7.79.48-.62.99,1.46.05-.48.67.37,1.25,1.79-1.79,3.67-4.88,1.27-4.9ZM88.54,185.7c-1.28.51-3.68.87-1.21,1.69-.75.28-2.23-.1-.65.78,3.35,1.62,6.49-3.28,1.86-2.47ZM36.79,186.86c2.2,1.4-3.01,2.6-6.51,7.44-1.18,2.18-2.08,3.26-3.74,4.71-1.58,0-1.16,3.3-2.88,1.64-1.17-.72,1.41-1.49.28-2.34-1.12-1.23.93-1.86,1.18-2.33-1.11-.82-1.13-.79.24-1.34,1.02.71,2.65,2.41,2.17-.9.02.04,4.51-3.77,2.58-2.7-1.38,1.08-2.5-.34-.94-.9,1.11-.22.94-2.22,1.87-1.46.94,1.07.17-1.66,1.13-.75.42.71,1.13-1.41,1.61-.03,1.01,1.57,2.07-1.83,2.99-1.03ZM203.8,188.92c-1.84,1.61-7.29,1.45-8.62,3.25.4,1.26,1.64-1.65,1.6-.39-.46,2.27,3.35-1.56,2.98-.14.3.62,2.4.59-.1,1.28-2.22.31-.32,1.25.52.5.67-.88.43,1.18.72,1.63,1.66-.53.67.11-.27.37-1.66,1.4,1.69-.4,2.05,0,.89.27,2.1.73,3.17-.08,1.14-1.33-1.98.22-2.11-.95.21-.35.23-1.42.38-1.01.35.18-.2,1.46.29,1.17.28-.93.89-2.02-.92-1.71-2.09-.52,2.55-1.23,2.54-.52,1.43.81-.32.87-.84.09-1.17-.16,1.05,1.23-.07,1.25-.58.02.71.43.04.54-.24.08-.21.16.09.27.76.39.13-1.26.7-.93-.83,5.89,17.23-4.07,6.23-3.12-.83,1.6.64-2.02-2.27-1.39-2.31.3-4.07-.05-6.11-.13ZM162.29,191.15c6.2,1.68-.9,9.8-3.41,8.66-.7.38-2.53-.32-2.51-.15,1.34-1.65-2.2-2.11-2.02-2.21-1.34-1.76,1.28.18,1.33-1.34.57-.66,2.89-2.18,1.82-2.43-1.62.27-.62-1.91-.32-.77q.13.55.68.03c1.23-.95,2.96-2.24,4.43-1.79ZM120.07,195.05c-1.03,2.15,2.44-.49,2.97.62.33-1.48,2.74-.07,4.15-.57,2.27.88-6.94,2.72-7.07,2.11.24-1.5-1.71-.27-1.37-.86-1.11-.94,1.86-2.87,1.32-1.31ZM115.68,196.03c-.52,1.13-1.14,2.37-1.77.77-.3.56-.03,1.27-1.27,1.14-8.63,1.28.26-2.54,3.04-1.91ZM146.08,201.15c1.59-.77-.78,1.25.65.72,1.81.54-.59,2.13-1.21.42-1.37-1.13-.05,2.42-3.21,1.52-1.41,1.19,1.13-3.09,1.62-1.78.52.93.91-1.61,2.15-.89ZM138.56,205.03c.24,1.29,5.46-1.72,2.98.26-.91.52-.09,1.8-1.58,1.23-1.98-1.05-1.21,1.55-2.4.82-1.19-1.42-.56,1.47-1.56.9-1.24-.83-.69-.48.3-.82-2.1-.24.45-1.02-.82-1.51-.67-.03,1.07-.59,1.01-.81.22,3.78,1.44-2.51,2.05-.07ZM65.18,233.68c2.85-.02,2.38,4.96.25,5.49-1.46-.46.48,3.74,1.16,3.65,2.6,1.16,5.84,6.55,8,6.48.91-.9.24,3.12,1.75-.74,2.1-.77-1.34,2.49,1.09,1.24.58-1.17,1.96,1.94,2.26.52-1.91-1.99.74-1.32.3-1.87-.31-.77-1.04-2.6.04-3.49,2.79.25-1.06,1.95,1.26,1.79,2.63-.25.4.82.22,2.28-1.28.86,3.59,1.64,1.46,1.89-1.61.07-.1.68.47,1.07.79.14.47,2.52,1.24,1.08-.23-3.89-.62-2.16,1.26-2.15.76-1.1.44.39,1.45.1-1.17.05-.18,4.58.46,1.65,1.33.59,1.67.79,2.06,1.98,1.62,1.01.36-1.29,1.94-.46.82,2.54,2.78-.72,2.84,2.24,1.69-3.78,2.59,2.65,4.72.44.15-.62,1.21.12,1.53.31,4.81-.07,7.96,1.69,14.89,1.09,2.01.25,2.66,2.69,5.46.6,4.11,1.59,2.71,4.41-1.94,3.44-15.01.05-31.16-1.82-45.85-9.15-1.4-.07-2.46-3.14-2.89-1.97-.26.97,2.76,2.92,2.93,3.22-.88.44-2.45-1.33-3.26-1.5-1.06-2.08-6.18-7.46-9.59-11.91,6.9.11,2.24-5.94,4.49-7.33ZM58.18,297.11c-2.14.61-.05,4.19,1.5,2.61,1.3-1.05.06-3.21-1.5-2.61ZM141.33,301.05c-.08.7,3.32,1.03,2.61.25-1.02.25-1.87-.28-.13-.38,3.59-.51.48-.55.5,1.73-.18,2.42.52-1.46,1.63-.83.66.34-3.8,3.3-1.24,3.59.34-.37-.46-1.37.6-1.58.39-1.67.94-.34,1,.28-1.37.77-.44,2.44-4.11,1.51.27.03,2.76-1.04,1.25-.93-.78.55-.03-.85.28-1.01,1.21-3.01-1.52.02-2.28-1.42-.48-.56-1.14-2.93-.1-1.2ZM134.68,300.87c.51,1.29-3.85.61-2.38,1.21.52-.19.44.29.06.41-.72.83,3.48-1.45,3.01.39-.68,1.04-2.25-.81-2.18-.14-.86,1.55-.89,2.74.81,3.68.56,1.34,1.17-.52,1.55-.75-.67-2.04,3.6-.61,3.65-2.03,1.12-1.66-2.43.3-1.68-1.8-.7.59-1.23-.65-1.23,1.28-.21,1.72,2.09-.52,2.53.54-7.16,1.29-.63-.78-4.14-2.77ZM129.43,301.37c-.12.56-1.67,1.07-1.02,1.18,1.38.35-.84.2-.91.53.44.32,2.48.87,1.03,2.24-1.35,1.6,2.14-1.8,1.48.25-.49.43,2.41-.3,2.05-1.11-.42-1.9-.11.67-1.1.37-.94.15-.63-.79-.2-.92.44-.2-.28-.28-.57.13-1.94,1.63,1.98-4.13-.75-2.67ZM257.55,352.89c1.26,1.63,4.15,3.3,2.39,4.93,2.03.72-1.41,1.39,2.02,1.6,4.02.71-2.27-.46,1.28,3.17,1.55,4.36-6.47-5.64-5.01-5.98,2.24-1.57-4.76-3.96-.68-3.73ZM223.9,359c.99.95-.39,2.84.36,3.27,1.08.17-.55.66-.18,1.24-.04.67-1.83,1.22-1.16-.05.37-.12.33-.8-.05-.81-.38-.23.92-.62.2-1.14-.51-.91-.46.37-.91.4.17-.82-2.22-.78-.17-1.64.37-.59-.91-2.29,1.91-1.27ZM228.29,379.94c.71.89-1.4,3.5.28,3.22,1.49-.79.34,1.01,1.73.95,2.76,0-.63-1.79,2.14-3.19.32,0,.29.84-.04,1.17-.91.35,2.8,1.53,1.89.03-.8-1.99-4.48-1.85-6.01-2.18ZM232.28,384.04c.53,1.01-4.23.51-1.1,1.88,2.04,1.2-1.68,1.39,3.15,4,.71-.75.76-3.77-1-2.7.13-.49,1.21-1.26.09-1.73-.55.12-.12-3.78-1.15-1.45ZM242.1,388.63c1.43-.35-.37,2.27.91,2.22,2.76,1.61-.2,1.47-.95,3.82-.57-.76-1.93-5.06-3.31-2.06-1.98,3.26-1.64,4.86-1.52.01.16-1.35,2.32-1.5,3.06-2.32.76-1.2.56-1.8,1.81-1.66ZM321.54,390.97c1.56,1.77-2.06.68-.26,1.98,1.78,1.35,1.33,2.65,2.72,3.46,1.04,1.7.11-1.04.81-.65,1.38.47.22-1.07.32-1.59.17-.66-4.51-4.95-3.59-3.19ZM226.72,391.3c-1.46.75-2.49,1.21-2.38,3.24.24.94.44-.72.82-.62.2.16.23,1.52.84,1.07.69-.8-.55-2.79.37-2.83,2.17,1.7,1.44-2.81.34-.87ZM283.35,392.78c0,1.4,2.83,1.99-.6,2.19,5.68,4.23,4.45-2.56.6-2.19ZM237.26,396.76c-1.02,2.41,3.28.18,1.28,3.77-1.52,2.06-.19,1.53-2.6.88-3.09.49.59-5.39,1.31-4.65ZM256.27,397.79c1.74,1.71,2.31,2.16,3.92,1.64,0,1.21-.39,3.33-2.29,2.05-.57-.77-2.04-.49-1.14-1.15,1.39-.94-2.92-3.63-.49-2.55ZM263.73,398.06c-.6,2.16-1.38,3.75,1.52,2.25,1.15-.23.2-3.82-1.52-2.25ZM278.46,399.14c-.43.32.91.87-.67,1.03-.86-.17-.36,1.02-.96.52-1.04-.61-.12,1.51-1.39,1.11-.74-.44,2.74,4.05,2.74,2.21.68-1.07,2.86.09,3.39-.6-1.26-.28-1.35-4.93-3.11-4.27ZM265.02,404.55c-1.64.41.12,3.12-.79,3.12-.65.55-.86,1.24-.42,1.41,2.04,2.63-.56.72-2.38,1.23-1.16.84-1.6-.13-1-.64.46.4.43.98.85-.3.3-2.11-1.71-.42-2.57-.2-3.61,1.26.57,2.01,1.5,3,.25-.35-1.09-1.93.13-1.12.77.95,1.8-1.25,1.47.61-.09.14.09.36.4.47,1.37.38-1.97.44-.34,1.26.45.26.41.29-.66.58-.38.36,1.19,1.21,1.57.56,1.89.67,1.6-3.75,3.52-2.11-.7,1.19,2.72.57,1.32,1.55-.93.76,2.69,3.52,2.73,2.22-.08-1.19-.22-.66-.68-.28-.06-.92-1.48-.69-.56-1.38.56-1.48-2.51-4.05-1.72-5.08,1.5-2.36-.65-.7-1.13-1.45.08-.81,1.21-1.85-.32-2.41-.84.09.08-2.43-.92-1.05ZM286.52,405.55c-1.28-.25-3.6,2.17-1.62,2.56-.3,1.01,1.85-.35,2.03.59.76.43,3.25,2.16,2.79.02.06-.97-3.39-1.14-1.8-1.83,2.12-.69-1.37-2.26-1.4-1.34ZM284.12,409.67c-.83.84-.86,1.05-.12.99,1.13-.48-.03,3.03,2.5,1.9,1.78-1.32-2.15-1.94-.94-2.49.55-.43-.65-1.83-1.44-.41ZM273.89,409.61c.23.67-3.18,2.83-.78,2.27.7-.38.57,4.06,1.02,3.68,2.57,2.57-2.92,3.44.45,6.17-.46.79,1.94.23,1.84-.08-.78-.1-.63-1.45-.84-2.11.67-1.04.85,1.64,2.03,1.04.64-2.4-.25-5.35-1.96-7.36-.91-.8-.14-3.88-1.78-3.61ZM265.99,418.29c-2.81-.01-.6,1.84-.06,2.12,2.85.26,2.95-3.04.06-2.12ZM270.36,421.49c1.04,2.14-.16,1.14-.43,2.06,1.36.64,7.53,1.78,3.43,3.32-.19-1.36-1.39-.41-1.65-.72-.11-.29-2.5-1.52-2.16.27-1.97,2.34,2.25,1.43,2.73,1.84,3.75,5.97-5.81.75.16,4.71.66,1.61,3.59-1.43,1.93-1.08-.38-.76-.41-3.58-.69-4.47,2.56,1.77,2.05-4.91,4.34-3.19-.58-4.43-1.66.26-3.94.52.62-1.29-3.04-3.77-3.73-3.25ZM291.05,424.43c-.37,1.09,2.38.52,1.2,1.49.59,1.52,3.28-.98,2.98-.2-1.47,2.12,2.96,1.99,1.76,2.43-1.87,1.8,2.52,2.46,2.03,3.16-.81,1.3,1.63,2.85,1.49.67.41-1.14-2.52-4.84-2.7-5.06.05-2.33-5.56-2.24-6.77-2.48ZM284.88,426.05c.36,2.43-3.47-1.63-2.57,1.71-.12,2.18.16,1.66,1.45,1.49.38,1.05,2.04-1.53.92-1.33-.63,0-.66-.5-.02-.5,2.77.27,2.31-.29.22-1.37ZM288.37,427.94c-.58.83-.57,3.69-1.69,1.87-4.07-2.08.1,3.33,3.53.61,2.1.52-1.09,2.75,1.25,3.75.46.1.09,2.01,1.74,1.49,1.29-.63-.55-.86.01-1.27.63-.4.87-.22.8.6-.03,2.37,4.85,1.19,1.85-.32-2.48-2.14-3.54-4.16-5.09-7-.34,0-.39.17-.28.85-.31,3.48-.83-2.65-2.13-.58ZM285.34,435.37c-3.73.11-1.9,2.75-.09,1.09.34-.99,2.33,2.2,3.19.98,1.53-.73-1.12-.36-.94-.69,1.63-.56-2.01-1.42-2.16-1.38ZM301.01,443.14c-.99,1.16,1.92,5.59,3.26,4.21.29-1.55-1.79-5.82-3.26-4.21Z"/></svg>