<?xml version="1.0" encoding="UTF-8"?>
<svg id="Layer_1" data-name="Layer 1" xmlns="http://www.w3.org/2000/svg" width="682" height="154" viewBox="0 0 682 154">
  <defs>
    <style>
      .cls-1 {
        fill: #52a2b0;
      }

      .cls-2 {
        fill: #8cdeeb;
      }
    </style>
  </defs>
  <g>
    <path class="cls-2" d="M32,54c2.28.29,5.19-.48,7.32.02.75.18.63,1.79,1.36,1.96,25.55,5.77,54.04,9.73,81.32,13.02,5.33.64,10.64,1.45,16,2,.19.02,1.13.91,2.42,1.04,7.57.8,15.49.33,23,1.82,1.61-.47,1.25-1.79,1.58-2.86,1.13-3.64,1.14-7.17,3-11,3.46-.41,1.41,1.08,1.3,2.79-.16,2.4-.58,4.79-.29,7.21l7.98-5.99c.38,2.08-.53,12.34.06,12.95,1.43,1.47,18.79.55,23.38,2.12,2.92,1,3.88,3.35,7.13,3.87,7.61,1.22,19.32.56,27.44,1.06.66.04,1.34-.04,2,0,33.33,1.98,65.47,4.22,99,4,.67,0,1.33,0,2,0,1.04,1.66,3.79,1,5.49,1.02,32.11.4,64.45-2.16,96.51-4.02,6.34-.37,12.66-.56,19-1,27.9-1.95,55.4-4.85,83-8,.33-.04.67.04,1,0,38.62-4.44,76.15-9.84,114-17,.61-.12,1.37.1,2,0,2.26.72-.13,2.85-.96,3.54-1.8,1.49-4.1,2.11-5.56,3.44-1.36,1.24-2.01,3.32-3.43,4.57-6.37,5.61-14.97,9.91-23.05,12.47l3.99,2.97-5.99,3.01c-13.15,2.67-26.73,4.99-40,7-27.43,4.16-58.98,4.95-84.69,10.98-2.92.68-11.26.63-15.31,1.02-1.31.13-2.69-.12-4,0l-4,1c-7.77.71-16.24.46-24,1l-2,1c-.33.02-.67-.02-1,0-9.86.61-19.61.88-29.51.98-1.69.02-4.45-.64-5.49,1.02-2.77-.19-7.36-.35-10,0l-3,1c-.79.14-1.89.77-3,1-1.66-1.78-5.5-.98-8-1-5.97-.05-12.03-.14-18,0-3.46.08-8.16,1-10.5,1h-45c-1.94,0-6.41-.89-9.5-1-4.64-.16-9.36.21-14,0l-4-1c-2.65-.12-5.35.14-8,0-31.79-1.62-62.11-5.17-94-4-3.32.12-6.68-.09-10,0,.67,6.4-3.71,21.43-12.28,16.78-4.44-2.41-3.43-7.58-3.72-11.78-.18-2.55,1.03-8-1.64-8.86-2-.65-5.27.11-7.74-.26-11.57-1.76-23.09-4-34.63-5.87-4.94-.8-48-9-48-9-13.47-3.15-27.13-5.55-40.56-8.94-7.67-4.14-4.66-21.67,1.04-26.12.93-.73,1.96-.62,2.52-.94ZM42,58.02c-.14-.15-3.77-1.21-3.99-1.02l-1,6c.71.8,5.93-3.94,4.99-4.98ZM36,58.01c-8.46-3.02-11.5,11.66-9.8,17.3.7,2.32,4.55,3.98,6.8,3.69-1-7.84.97-13.71,3-20.99ZM45.01,80c5.7-4.07,8.05-10.96,3.49-16.98-6.98,5-5.62,9.66-3.49,16.98ZM35.01,72c3.79.73,5.51-6.37,2.48-6.99s-2.66,5.18-2.48,6.99ZM61.99,65c-1.49-1.12-6.59,6.69-6.74,7.66-.18,1.15,3.32,11.33,4.26,11.32,7.81-6.06,5.24-11.02,2.49-18.98ZM74.28,68.31c-.55.52-5.23,7.72-5.28,8.21-.17,1.63,2.02,11.13,3.51,11.48,1.78.42,7.31-7.53,7.45-9.54.08-1.13-1.93-9.61-2.47-10.46-.87-1.39-2.44-.43-3.22.31ZM90.99,69c-1.87-1.39-7.56,8.18-7.81,9.7-.2,1.22,2.35,10.97,2.83,11.29,2.48,1.68,7.58-6.43,7.96-8.56.35-1.98-2.18-11.84-2.98-12.44ZM636.51,71.02l-1.49,1.49c-.02,1.05,2.5-.59,1.49-1.49ZM104.02,72.01c-.44.31-4.92,8.93-4.95,9.46-.06,1.23,3.54,11.52,4.43,11.51,2.61-2.58,6.43-6.71,6.58-10.5.09-2.36-3.34-12.41-6.06-10.47ZM634.26,73.98c0-.68-.55-1.23-1.23-1.23s-1.23.55-1.23,1.23.55,1.23,1.23,1.23,1.23-.55,1.23-1.23ZM118.99,96.99c0-3.93,6.51-8.37,6.81-11.65.08-.91-3.34-10.88-4.31-11.34l-4.89,5.09-2.59,4.46,4.98,13.44ZM630.99,75c-21.78,7.21-45.81,10.71-68.62,13.87-119.3,16.49-239.76,18.22-359.88,9.14-1.56-.12-4.26-.46-5.49.48,1.05,1.19,1.83,2.17,3.51,2.49,11.63,2.18,28.69,1.37,40.97,2.03,104.93,5.62,210.49,2.88,314.88-11.14,18.19-2.44,57.4-6.94,72.62-14.43,1.43-.7,2.51.23,2-2.44ZM133.01,96c1.64,1.21,6.59-7.43,6.83-8.73.31-1.71-2.22-11.26-3.35-11.24-1.62,2.17-5.9,6.25-6.35,8.71-.31,1.71,2.15,10.74,2.86,11.26ZM160.99,103l2.06-24.47c-.33-2.44-1.78-2.81-4.05-2.53.73,6.73-4.72,19.46-3.06,25.39.26.94,3.96,1.35,5.05,1.61ZM149.99,80c-6.43,4.16-5.63,11.28-1.49,16.98,6.67-5.4,3.04-10.2,1.49-16.98ZM195,105v-17.5c0-.37-1.13-3.33-1.69-3.52-2.85-.98-16.83-2.54-19.74-2.04-2.22,3.45-4.17,19.86-1.64,21.62,1.54,1.07,19.55.9,23.06,1.44ZM166.99,115.99c-3.69-3.79-5.61,9.47,1.49,8.01,3.1-.64-.8-3.54-1.25-4.78-.37-.99-.11-3.11-.23-3.23Z"/>
    <path class="cls-1" d="M584,96c-3.57,13.54-20.6,7.21-31,11.01v-4.01c-7.62-.59-8.28,11.05-16,10.01.17-1.58-.28-8.7-1.62-9.06-7.28-1.96-4.52,3.75-8.09,4.86-15.52,2.09-28.37,8.18-43.3-.8,4.06-.4,12.39-.34,15.31-1.02,25.71-6.03,57.26-6.82,84.69-10.98Z"/>
    <path class="cls-1" d="M281,113c.06,1.66.49,5.33-1.6,5.96-.76.23-12.17-4.21-15.21-4.74-3.41-.59-12.34-1.42-15.73-1.25-2.97.15-13.27,1.47-15.74,2.25-3.6,1.13-4.44,7.09-10.19,6.87-3.66-.14-6.95-3.74-9.22-3.93-1.64-.14-12.08,8.98-10.32-2.15l-3.98,1.99c-.36-8.96-1.3-6.73-8.56-6.99-1.92-.07-4.01,1.02-3.45-2,31.89-1.17,62.21,2.38,94,4Z"/>
    <path class="cls-1" d="M659,59c.68-.1,10.46-2.96,8.99.49-.45,1.07-7.7,10.46-9.02,11.98-10.98,12.66-19.36,14.36-34.97,17.53l5.99-3.01-3.99-2.97c8.08-2.55,16.67-6.85,23.05-12.47,1.42-1.25,2.08-3.33,3.43-4.57,1.46-1.33,3.76-1.95,5.56-3.44.83-.69,3.23-2.82.96-3.54Z"/>
    <path class="cls-1" d="M372,114c.85,2.64-4.3,2.76-5.62,2.88-4.32.37-11.62-.73-15.15.79-2.62,1.13-1.58,6.38-6.7,6.42-4.66.04-5.83-4.22-8.25-4.92-2.78-.81-14.6,1.31-20.56-.15-.95-.23-1.06-2.12-2.36-2.83-1.92-1.05-4.75-.45-6.36-2.18,3.09.11,7.56,1,9.5,1h45c2.34,0,7.04-.92,10.5-1Z"/>
    <path class="cls-1" d="M161,114c-7.17-.87-13.53-6.13-20.74-7.76-3.66-.83-8.47-.62-12.49-1.51-2.8-.62-10.55-2.25-10.78-5.72,11.53,1.88,23.06,4.11,34.63,5.87,2.47.38,5.74-.39,7.74.26,2.67.87,1.46,6.32,1.64,8.86Z"/>
    <path class="cls-1" d="M449,111c-1.47,2.91-1.29,9.98,2.75,7.64.2-.12,2.1-4.24,3.22-.08,1.45,5.37-8.62,6.19-10.76-1.31-1.17-4.12,1.9-4.81-5.22-4.26,1.03,9.86-3.7,2.75-7.54,2.05-4.27-.78-13.01-1.73-17.46-2.04,1.04-1.66,3.8-1,5.49-1.02,9.91-.1,19.65-.37,29.51-.98Z"/>
    <path class="cls-1" d="M398,115c-2.47.51-8.67,3.12-8-1,2.5.02,6.34-.78,8,1Z"/>
    <path class="cls-1" d="M480,108c-.21.02-2.14.83-4,1l4-1Z"/>
    <path class="cls-1" d="M293,114c-2.15-.1-3.79-.99-4-1l4,1Z"/>
    <path class="cls-1" d="M404,113c-.16.02-1.49.73-3,1l3-1Z"/>
    <path class="cls-1" d="M452,110c-.11,0-.27.89-2,1l2-1Z"/>
    <path class="cls-1" d="M630.99,75c.51,2.67-.57,1.74-2,2.44-15.22,7.49-54.43,11.98-72.62,14.43-104.39,14.02-209.95,16.76-314.88,11.14-12.28-.66-29.35.15-40.97-2.03-1.68-.32-2.47-1.3-3.51-2.49,1.23-.95,3.93-.6,5.49-.48,120.13,9.09,240.58,7.35,359.88-9.14,22.81-3.15,46.84-6.66,68.62-13.87Z"/>
    <path class="cls-1" d="M195,105c-3.51-.53-21.52-.36-23.06-1.44-2.53-1.76-.58-18.18,1.64-21.62,2.9-.5,16.89,1.06,19.74,2.04.56.19,1.69,3.15,1.69,3.52v17.5Z"/>
    <path class="cls-1" d="M118.99,96.99l-4.98-13.44,2.59-4.46,4.89-5.09c.97.46,4.39,10.43,4.31,11.34-.3,3.28-6.82,7.72-6.81,11.65Z"/>
    <path class="cls-1" d="M90.99,69c.8.59,3.33,10.45,2.98,12.44-.38,2.13-5.48,10.24-7.96,8.56-.48-.33-3.03-10.07-2.83-11.29.24-1.52,5.93-11.09,7.81-9.7Z"/>
    <path class="cls-1" d="M74.28,68.31c.77-.74,2.34-1.7,3.22-.31.53.85,2.54,9.33,2.47,10.46-.14,2.02-5.67,9.97-7.45,9.54-1.49-.35-3.68-9.85-3.51-11.48.05-.49,4.74-7.68,5.28-8.21Z"/>
    <path class="cls-1" d="M104.02,72.01c2.72-1.93,6.15,8.11,6.06,10.47-.15,3.79-3.97,7.92-6.58,10.5-.89.01-4.49-10.29-4.43-11.51.03-.53,4.51-9.15,4.95-9.46Z"/>
    <path class="cls-1" d="M36,58.01c-2.03,7.28-4,13.15-3,20.99-2.25.3-6.1-1.37-6.8-3.69-1.7-5.64,1.34-20.32,9.8-17.3Z"/>
    <path class="cls-1" d="M133.01,96c-.71-.53-3.17-9.55-2.86-11.26.45-2.46,4.73-6.54,6.35-8.71,1.12-.01,3.66,9.53,3.35,11.24-.24,1.31-5.2,9.94-6.83,8.73Z"/>
    <path class="cls-1" d="M160.99,103c-1.09-.27-4.79-.67-5.05-1.61-1.66-5.92,3.79-18.66,3.06-25.39,2.26-.28,3.72.09,4.05,2.53l-2.06,24.47Z"/>
    <path class="cls-1" d="M61.99,65c2.75,7.95,5.32,12.92-2.49,18.98-.93,0-4.44-10.17-4.26-11.32.15-.97,5.25-8.78,6.74-7.66Z"/>
    <path class="cls-1" d="M45.01,80c-2.13-7.32-3.5-11.98,3.49-16.98,4.56,6.02,2.21,12.9-3.49,16.98Z"/>
    <path class="cls-1" d="M149.99,80c1.55,6.78,5.18,11.57-1.49,16.98-4.15-5.69-4.94-12.82,1.49-16.98Z"/>
    <path class="cls-1" d="M166.99,115.99c.12.12-.13,2.24.23,3.23.46,1.23,4.36,4.13,1.25,4.78-7.1,1.47-5.17-11.8-1.49-8.01Z"/>
    <path class="cls-1" d="M35.01,72c-.18-1.81-.53-7.6,2.48-6.99s1.31,7.72-2.48,6.99Z"/>
    <path class="cls-1" d="M42,58.02c.94,1.04-4.28,5.78-4.99,4.98l1-6c.22-.19,3.85.87,3.99,1.02Z"/>
    <circle class="cls-1" cx="633.02" cy="73.98" r="1.23"/>
    <path class="cls-1" d="M636.51,71.02c1.01.9-1.51,2.54-1.49,1.49l1.49-1.49Z"/>
  </g>
  <g>
    <path class="cls-1" d="M657,59c-37.85,7.16-75.38,12.56-114,17,4.12-9.97,10.1-5.8,18.06-7.44,3.44-.71,15.93-6.94,16.8-10.28.77-2.95-2.21-4.9.09-8.83,1.04-1.78,16.9-14.98,18.58-15.42,9.28-2.39-1.9,5.82-2.22,6.28-4.89,6.82,4.41,16.05-1.78,21.73-1.54,1.41-4.15,1.22-4.53,2.96,4.06-1.93,11.33,2.2,13.41,2.04,1.03-.08,17.25-4.54,19.82-5.3,9.32-2.74,5-9.36,5.99-15.99.75-5,6.56-11.61,11.52-12.54,5.69-1.07,13.64,4.49,15.26-5.2,2.74.99-.26,5.89-1.45,7.05-4.78,4.66-12.54-.22-11.64,8.47.29,2.75,2.37,5.04,4.8,6.23,5.26,2.58,16.76-3.14,11.27,9.24Z"/>
    <path class="cls-1" d="M237,84c.41-4.42-2.2-10.75,4.36-6.86,1.52.9,7.46,8.15,8.63,6.86-.36-2.41-.38-6.07-1.06-8.25-.4-1.29-3.89-.72-.35-6.66.82-1.38,13.02-11.93,14.86-13.13,1.23-.8,1.99-1.23,3.54-.95-1.45,7.38-2.19,21.77,6.26,25.23,8.01,3.28,8.78-2.96,12.45-4.04,2.43-.71,5.29.2,7.76-.24,2.27-.4,3.58-2.83,5.86-2.72,4.15.2,10.34,4.76,15.44,5.5,9.41,1.36,17.5-3.09,21.24,9.26-33.53.22-65.67-2.02-99-4Z"/>
    <path class="cls-1" d="M122,69c-27.28-3.28-55.77-7.25-81.32-13.02-.73-.16-.61-1.78-1.36-1.96-2.12-.5-5.03.27-7.32-.02,1.36-.78,3.52-.97,3.78-1.2.84-.74.79-5.26,1.32-5.71,1.47-1.25,11.98,2.31,10.34-4.99-.72-3.21,5.63,1.13,6.46,2.49,2.08,3.44.03,6.7,5.15,9.85,2.64,1.63,5.39,1.99,8.51,1.63,1.43-.17,2.69-3.78,4.43-2.08,1.03,1-2.78,9.27,5,8.01-.4-8.03,3.18-5.84,7.75-7.77,4.19-1.76,5.6-7.04,5.26-11.24,3.79-.15,4.41,5.81,7.71,6.8,3.62,1.09,7.47-.59,8.13-4.54.25-1.49-2.39-9.46.64-8.25,6.1,2.44,1.99,11.89,4,16,1.32,2.69,13.02,8.65,11.51,15.99Z"/>
    <path class="cls-1" d="M459,84c-3.67-4.34-1.04-10.68,2.5-4,1.73-1.83,3.93-6.94,6.95-5.98,1.17.37,1.29,2.61,1.68,2.84,1.65,1,9.28-3.86,11.63-4.61,7.21-2.29,16.2-2.94,23.31-4.69,3-.74,5.69-3.05,8.49-3.5,5.18-.83,12.08,1.13,17.99.97,4.64-.12,10.72-1.42,15.45-2.03-.09,4.42-4.36,5.9-6.22,10.27-.81,1.91-1.86,3.08,1.23,2.72-27.6,3.15-55.1,6.05-83,8Z"/>
    <path class="cls-1" d="M338,88c5.55-.05,19.04,1.08,23.3.02.5-.12,4.82-6.27,7.4-6.86,1.76-.4,4.37,1.21,7.55.64,5.54-1.01,11.02-8.88,20.25-8.88,7.68,0,7.87,8.01,13.47,9.68,3.11.93,9.86-1.32,14.48-.55,1.16.19,9.31,5.16,9.56,2.44.57-6.39-10.07-6.31-14-6.99,2.82-3.16,8.3-3.1,12.11-2.07.35.09,5.68,3.75,5.94,4,1.39,1.39,1.98,3.63,1.95,5.57-32.06,1.85-64.4,4.42-96.51,4.02-1.69-.02-4.45.64-5.49-1.02Z"/>
    <path class="cls-1" d="M168,60c.29-.59-.09-1.89.93-2.52,2.8-1.74,10.07.52,10.07,3.02v14.5c5.7.73,12.81,1.86,18.46,2.04s10.69-1.69,16.54-.05c1.87-5.5-4.48-6.6-5.98-10.51-1.33-3.48,3.34.22,3.71.3,6.45,1.28,12.94-1.15,17.13,5.86,1.07,1.79,1.19,4.02,2.16,5.64.75,1.26,4.23,2.76,3.99,5.72-8.13-.5-19.83.16-27.44-1.06-3.25-.52-4.21-2.87-7.13-3.87-4.59-1.57-21.94-.65-23.38-2.12-.59-.61.33-10.87-.06-12.95l-7.98,5.99c-.29-2.42.13-4.81.29-7.21.11-1.71,2.16-3.2-1.3-2.79Z"/>
    <path class="cls-1" d="M165,71c-.33,1.07.03,2.39-1.58,2.86-7.51-1.49-15.43-1.01-23-1.82-1.29-.14-2.22-1.02-2.42-1.04,4.67,1.47,5.13-3.44,7.23-4.33,7.41-3.17,12.84,3.91,19.77,4.33Z"/>
    <path class="cls-1" d="M279,62.01c.14.14.17,3.53-.17,3.88-.31.32-2.12-.21-2.65.29-.21.2-.54,5.38-3.17,2.83-2.4-2.33,3.37-9.64,5.99-6.99Z"/>
  </g>
</svg>