<?xml version="1.0" encoding="UTF-8"?>
<svg id="Layer_1" data-name="Layer 1" xmlns="http://www.w3.org/2000/svg" width="731" height="106" viewBox="0 0 731 106">
  <defs>
    <style>
      .cls-1 {
        fill: #c03c38;
      }

      .cls-2 {
        fill: #c5564b;
      }

      .cls-3 {
        fill: #352725;
      }

      .cls-4 {
        fill: #d8e4e7;
      }

      .cls-5 {
        fill: #e69791;
      }

      .cls-6 {
        fill: #3d110d;
      }

      .cls-7 {
        fill: #dfb24b;
      }

      .cls-8 {
        fill: #2d4161;
      }

      .cls-9 {
        fill: #909e9f;
      }

      .cls-10 {
        fill: #c1d2d3;
      }
    </style>
  </defs>
  <g>
    <g>
      <path d="M205.18,72.83c-.03-.28-.07-.56-.18-.83-1.19-2.94-.67-3.32-1-6-4.82,1.67,1.17,9.29-3,10-1.37.24-7.18-.98-10-1-.33,0-.67,0-1,0-.67,0-1.33,0-2,0v1c.58.11,1.34.87,2,1,.17.03,1.62-.18,3,0,4.04.51,8.35.66,12.75.68-.29-1.6-.47-3.22-.57-4.85Z"/>
      <path class="cls-7" d="M29,31c.02,1.33-.03,2.67,0,4,1.96-.13,4.06.2,6.01,0,0,2.09.36,4.03,1,6-3.11-.9-5.79.22-8-4-.29-1.68-.91-3.21-1-5l2-1Z"/>
      <path class="cls-1" d="M121,49c-1.75,3.13-5.24,4.87-7,8-.16-.08-.69-.02-1,0-4-8.66-4.2-12.37,3-19,2.72,3,4.06,7.16,5,11Z"/>
      <path class="cls-1" d="M132,42c3.22-.15,4.28,5.37,5,8-.2.32.12,1.88-.57,2.89-1.69,2.45-3.8,4.63-5.43,7.11-.66-.05-1.34.05-2,0,.48-3.05-3.13-7.93-2.75-10.33s4.97-5.49,5.75-7.67Z"/>
      <path class="cls-1" d="M69,28c-.65,3.12,3.49,7.9,2.86,10.28-.46,1.76-4.95,5.53-5.86,7.72-.07-.07-1.55-.07-2,0-.06-2.82-3.08-7.17-2.95-9.55.14-2.66,7.35-8.41,7.95-8.45Z"/>
      <path class="cls-1" d="M99,35c1.13,0,1.61,1.17,2,2,4.88,10.32,2.22,7.25-3,16-.25-.25-1.6-.31-2-1-.96-1.65-3.09-7.58-2.83-9.28.65-4.2,5.55-4.46,5.83-7.72Z"/>
      <path class="cls-1" d="M86,34c2.05,4.24,5.14,7.24-2,13-.31.39-.87,1.52-1,2-5.32-.03-6.95-8.41-4-12,1.34-1.63,5.02-5.01,7-3Z"/>
      <path class="cls-1" d="M167,55h1c-.03.33.03.67,0,1-2.58.67-4.56,8.59-7.03,6.53-5.56-4.66-1.82-11.25,3.01-14.52l3.01,7Z"/>
      <path class="cls-8" d="M84,47c.82-1.04,3.76-3.29,5.32-2.91,3.96.98,1.78,8.01,5.68,7.91,1.53,3.65-9.82.73-11.35.04-1.11-.51-.65-1.09-.65-2.04,0-.34-.07-.74,0-1,.13-.48.69-1.61,1-2Z"/>
      <path class="cls-8" d="M61,46c-3.49-.49-6.62-1.37-10-2,.17-.88-.25-2.33,0-3,.48-1.29,2.17-2.6,3-4,6.39-1.16,5.02,4.93,7,9Z"/>
      <path class="cls-8" d="M78,35c-.43-.3-1.72-.14-2.52-.94-1.62-1.65-2.89-4.26-4.48-6.06.15-.15-.4-1.93.57-2.04.58-.06,10.94,2.24,11.45,2.52,2.87,1.61-5.11,4.66-5.02,6.52Z"/>
      <path class="cls-8" d="M99,33l-8.49,6.01-3.51-6.01c.26-.83-.61-2.87.51-3.02,2.71.71,10.44.55,11.49,3.02Z"/>
      <path class="cls-8" d="M144,60c.13.27-.13.73,0,1,.46.97.87,1.92,1,3-2.61-.54-6.52-.71-8.8-1.68-1.65-.71-1.09-2.26-1.2-2.32l4.51-6c2.51-.54,2.35,3.64,3.04,4.98.42.82,1.41.93,1.45,1.01Z"/>
      <path class="cls-8" d="M103,34c2.39-2.15,8.77.75,12,1.01.35.43-1.06,1.53-1,1.99-7.69,6.54-5.98,4.09-11-3Z"/>
      <path class="cls-8" d="M117,59c.68-2.16,3.44-5.78,4.91-7.36,2.64-2.82,3.89,6.07,5.09,8.36-3.47-.34-6.4-.36-10-1Z"/>
      <path class="cls-8" d="M68,48c-.37-1.96,5.88-8.05,6.99-7l3.01,9c-3.36-.55-6.77-.85-10-2Z"/>
      <path class="cls-8" d="M100,55c6.74-9.9,6.61-8.69,10,2-3.52-.75-6.09-.35-10-2Z"/>
      <path class="cls-8" d="M58,23c3.27.79,6.61,1.8,10,2.01l-1,1.99s-2.66,1.68-3,2c-1.84,1.75-2.21,3.63-5,3.01l-1-9.01Z"/>
      <path class="cls-8" d="M163,43c.07,2.85-2.59,3.56-4,5-2.66-8.8-.01.33-5-1-.5-.87-2.57-2.48-3-4,.42-.1.93-1.07,2.41-1.05,1.95.02,7.38.73,9.59,1.05Z"/>
      <path d="M165,44c1.5.26,3.41-.2,5,0,.81.79-1.86,9.44-2,11h-1l-2-11Z"/>
      <g>
        <path class="cls-8" d="M149,65c2.69.59,6.47.47,9,1-2.37-10.56-4.74-9.63-9-1Z"/>
        <path class="cls-8" d="M131.35,37.97c-1.99-.94-9.21-1.44-11.35-.97-.87.19-1.43.85-1.97,1.49,1.58,2.9,3.57,2.81,3.97,6.51,1.23,1.05,4.83-1.84,6-3,.75-.75,2.98-1.27,4-2-.09-.9.54-1.47-.65-2.03Z"/>
      </g>
      <path class="cls-8" d="M144.81,40.55c-.33-.08-6.43-2.02-8.81-1.54.06,2.82,4.78,11.5,4.65,12.09.79-.13,2.24-.53,4.34-3.09.21-.31.69-.72,1-1,.39-.61.59-1.44,1-2,.36-.49,1.57-1.77,2-2,.74-3.37-3.61-2.32-4.19-2.45Z"/>
      <path class="cls-1" d="M204,49c.05,4.21-.13,8.04,0,12,.05,1.63-.19,3.46,0,5-4.82,1.67,1.17,9.29-3,10,.59-2.83-1.39-1.88-3.15-2.3-1.52-.36-8.46-1.46-8.75-1.8-.56-.66.1-8.76-.1-10.9-.09-.92-1.4-2.58-1-4,.38-.57,1.99-.77,2.06-1.67.12-1.46-1.28-3.24-1.12-4.7.07-.65,1.53-.65,1.71-.97.42-.78.29-1.6.35-1.66.33-.33.52-.67,1-1,3.41,2.39,8.05,2.02,12,2Z"/>
      <path class="cls-2" d="M189,61c.21,2.14-.46,10.24.1,10.9.29.34,7.23,1.45,8.75,1.8,1.76.41,3.74-.54,3.15,2.3-1.37.24-7.18-.98-10-1h-1c-.67,0-1.33,0-2,0,.54-4.42-1.24-10.18,1-14Z"/>
      <path class="cls-5" d="M199,47h2c.94-.07,2.27.2,3,0,0,.67,0,1.33,0,2-3.95.02-8.59.39-12-2,2.59-1.75,4.41.02,7,0Z"/>
      <path class="cls-3" d="M201,47h-2c.41,0,1.88,0,2,0Z"/>
      <path class="cls-1" d="M146,47c.65-.58,3.26-2.66,3.99-2-.58,2.99,3.05,6.21,2.99,8.53-.02.76-4.98,11.57-7.54,8.17-.13-.27-3.2-9.39-3.4-9.08s3.65-5.33,3.96-5.61Z"/>
      <path class="cls-8" d="M154,47c4.99,1.33,2.34-7.8,5,1-.54.55-2.72,3.19-3.49,2.99"/>
      <g>
        <path d="M116,38c-.12-.13-1.88-.17-2-1-7.69,6.54-5.98,4.09-11-3-.8.72-1.19,2.18-2,3,4.88,10.32,2.22,7.25-3,16,.76.76-1.28.61,2,2,6.74-9.9,6.61-8.69,10,2,2.87.61,1.44.12,3,0-4-8.66-4.2-12.37,3-19Z"/>
        <path d="M79,37c-.38-.49-.65-1.76-1-2-.43-.3-1.72-.14-2.52-.94-1.62-1.65-2.89-4.26-4.48-6.06-.13.13-1.42-.04-2,0-.65,3.12,3.49,7.9,2.86,10.28-.46,1.76-4.95,5.53-5.86,7.72.74.66-1.31.82,2,2-.37-1.96,5.88-8.05,6.99-7l3.01,9c1.2.2,2.75,2.14,5,0,0-.34-.07-.74,0-1-5.32-.03-6.95-8.41-4-12Z"/>
        <path d="M126.25,49.67c.38-2.42,4.97-5.49,5.75-7.67.12-.34.05-1.48,0-2-1.02.73-3.25,1.25-4,2-1.17,1.16-3.42,2.59-6,3,.03.31-.64,3.35-1,4-1.75,3.13-5.24,4.87-7,8,.47.23.35,1.53,3,2,.68-2.16,3.44-5.78,4.91-7.36,2.64-2.82,3.89,6.07,5.09,8.36,1.26.12,1.8-.02,2,0,.48-3.05-3.13-7.93-2.75-10.33Z"/>
        <path d="M93.17,42.72c.65-4.2,7.23-5.16,7.5-8.41.04-.52-1.55-1.01-1.67-1.3l-8.49,6.01-3.51-6.01c-.02.07-1.43.11-1,1,3.85,8,.18,10.18-4.31,14.81.59-.43.58,3.46,1.21,3.19s5.94-8.03,6.42-7.91c3.96.98,1.92,10.39,5.82,10.29l.86-2.38c-.96-1.65-3.09-7.58-2.83-9.28Z"/>
        <path d="M84,47c.67-.54,1.23-1.05,1.69-1.53-.75.54-1.38,1.12-1.69,1.53Z"/>
      </g>
      <g>
        <path class="cls-1" d="M188.94,28.62c-.53-1.81-5.03-2.22-5.85-1.52-.52.44-3.69,11.32-4.09,12.9-.48,1.93-.65,3.19-1,5-.59,3.03-.61,7.71-1,11-1.12,9.42-3.03,19.63-1.88,29.4.58,4.91,1.75,5.74,6.87,5.59-3.19-11.26-1.77-24.45,0-35.99.72-4.71,2.05-11.69,3.3-16.2.66-2.38,4.36-7.72,3.64-10.18Z"/>
        <path class="cls-1" d="M193.71,33.78c-.14-1.18-.27-5.48-2.2-4.79-1.26.45-4.03,16.42-4.51,19.01-.75,4.05-4.66,10.88,0,14-.27-2.39-.15-3.23,1.01-5,.38-.57,1.99-.77,2.06-1.67.12-1.46-1.28-3.24-1.12-4.7.07-.65,1.53-.65,1.71-.97.42-.78.29-1.6.35-1.66h-1c1.37-3.03,1.68-3.53,2.96-4.5,1.94-1.48,1.05-7.29.75-9.72Z"/>
        <path class="cls-1" d="M186,75c-.11-.01-2.34-7.84-.99-11.99,1.74-.24.94,2.27.99,3.48.11,2.83-.07,5.69,0,8.51Z"/>
        <path class="cls-1" d="M184,78c.06.84,3.08,3.5-1,3-.05-1.09-.24-2.52,1-3Z"/>
        <path class="cls-6" d="M191,75c-.33,0-.67,0-1,0h1Z"/>
      </g>
    </g>
    <g>
      <path class="cls-3" d="M205.27,57.2c-.04-3.94,0-7.86.26-11.75-.54.59-1.17,1.45-1.53,1.55,0,.67,0,1.33,0,2,.05,4.21-.13,8.04,0,12l1.25-.62c.02-1.06.03-2.12.02-3.17Z"/>
      <path class="cls-9" d="M205.25,60.38l-1.25.62c.05,1.63-.19,3.46,0,5,.33,2.68-.19,3.06,1,6h.14c-.18-3.86.04-7.76.11-11.62Z"/>
    </g>
  </g>
  <g>
    <path class="cls-4" d="M463.49,54.55c-105.63,7.16-241.94-5.84-259.49-7.55,0,9.73-1.5,19.58-1.04,29.29,278.67,22.04,411.14-8.29,450.82-25.6,34.25-14.95,34.93-29.95,34.93-29.95,0,0-115.98,26.41-225.22,33.81Z"/>
    <path d="M688.39,19.32c-1.16.26-117.13,26.47-225,33.78-105.13,7.13-240.87-6.52-257.83-8.17,0,.98,0,1.95,0,2.93,18.24,1.76,153.24,15.25,258.03,8.15,99.9-6.77,206.7-29.71,223.25-33.35-1.9,5.77-10.47,16.59-33.64,26.71-12.83,5.6-51.75,19.48-135.97,27.51-86.92,8.28-192.67,7.6-314.33-2.03.04.98.09,1.95.14,2.93,65.37,5.17,126.17,6.28,181.91,7.76,59.75,1.58,92.3-1.92,132.55-5.75,84.63-8.07,123.9-22.08,136.85-27.74,34.69-15.13,35.78-30.57,35.81-31.22l.09-1.91-1.86.42Z"/>
  </g>
  <path class="cls-10" d="M686.84,22.65c-118.14,82.1-474.1,42.12-484.28,41.02.07,3.91.19,7.83.37,11.74,15.27.96,185.68,10.87,247.49,7.35,234.96-13.39,236.43-60.11,236.43-60.11Z"/>
  <path d="M206.45,47.08c.18-1.92-2.82-1.91-3,0-.91,9.48-1.21,19-.9,28.51.06,1.93,3.06,1.93,3,0-.31-9.52,0-19.04.9-28.51Z"/>
  <path class="cls-1" d="M188,76c-.26-.05-.56-.24-.87-.44,0-.38,0-.75,0-1.13.02-2.09.05-4.18.08-6.28.06-4.39.11-8.78.17-13.18.02-1.29-1.98-1.29-2,0,0,.09,0,.17,0,.26-.11.08-.2.19-.27.35-1.51,3.2-1.52,6.72-1.53,10.19,0,3.91.14,7.83.42,11.73,0,.16,0,.33,0,.49.06.84,3.08,3.5-1,3,.13,3.01.79,6.09,1.5,8.99l5.5-12.99c-.66-.13-1.42-.89-2-1Z"/>
  <path d="M197.49,43.01c-1.89-3.22.75-12.76-3.96-17.04-2.42-2.2-9.9-3.19-12.05-1-1.64,1.67-5.05,16.9-6.11,17.12-1.8.37-13.26-2.15-16.33-2.61-28.05-4.21-57.1-9.84-85.22-15.78-8.71-1.84-31.31-9.19-38.33-8.78-5.77.34-9.13,10.04-9.29,14.94,0,.31.02.56.07.79-.21,3.21,1.79,10.02,2.1,10.13.11.1,5.83,1.89,6.19,1.97,40.1,11.38,81.32,19,122.25,26.94,3.82.74,9.11.61,12.19,1.31,6.41,1.47,3.43,9.34,4,14.5.74,6.7,4.61,9.85,11.5,8.51,3.4-.66,7.86-13.15,8.5-17.01-.81-.1-1.63-.07-2.21-.04.15-.5-.07-1.08-.66-1.25-.16-.05-.33-.09-.51-.14-1.09-4.71-.83-9.55-.47-14.34.36-4.77.74-9.65,2.66-14.09.06-.05.12-.1.19-.15,2.59-1.75,4.41.02,7,0,.41,0,1.88,0,2,0,.94-.07,2.27.2,3,0,.36-.1.99-.95,1.53-1.55.01-.17.03-.35.04-.52-2.3-.27-6.61.59-8.08-1.92ZM153.41,41.95c1.95.02,7.38.73,9.59,1.05.07,2.85-2.59,3.56-4,5-.54.55-2.96,3.19-3.49,2.99,0,0-1.18-3.42-1.51-3.99-.5-.87-2.57-2.48-3-4,.42-.1.93-1.07,2.41-1.05ZM142.56,40c.57.14,1.63.45,2.26.55,2.56.42,4.32,1.21,4.32,1.21l-8.3,8.33c-.38.07-3.84-7.67-4.84-11.09,2.87.15,6.22.92,6.55.99ZM68,25.01c-1.84,1.75-7.49,6.82-9,7l-1-9.01c3.27.79,6.61,1.8,10,2.01ZM38.2,18.04c-.95,1.58-2.19,5.71-2.2,6.08-.24,1.37-.35,2.77-.37,4.21-.29,2.16-.63,4.32-.63,6.67,0,1.67.24,3.23.65,4.79,0,.3,0,.6,0,.91,0,.08.03.14.04.2-.09-.01-.18-.03-.27-.05-.2-.04-.39-.08-.59-.11-1.61-.39-3.08-1.27-4.14-2.59-1.6-1.98-1.83-4.62-1.82-7.1l.11-.06c-.07-5.62,1.82-14.84,9.24-13.01-.01.02-.03.03-.05.05ZM43.99,19.04s0-.03,0-.04c0,0,0,0,.01,0v.04ZM50.66,41.08c-2.05.25-2.88-11.66-2.66-12.08.18-.33,5.22-4.72,5.99-4,.59,5.7,3.05,6.55.27,11.52l-1.95,2.47c-.47.6-.95,1.2-1.42,1.8-.08.1-.16.19-.23.29ZM52.19,44.24c1.89-2.2,3.72-4.47,5.46-6.8,2.24,1.5,1.9,5.56,3.36,8.55-3.08-.43-5.88-1.16-8.81-1.76ZM129,60c-.2-.02-.74.12-2,0-3.47-.34-6.4-.36-10-1-2.65-.47-2.53-1.77-3-2-.16-.08-.69-.02-1,0-1.56.12-.13.61-3,0-3.52-.75-6.09-.35-10-2-3.28-1.39-1.24-1.24-2-2-.25-.25-1.6-.31-2-1h-1c1.53,3.65-9.82.73-11.35.04-1.11-.51-.65-1.09-.65-2.04-2.25,2.14-3.8.2-5,0-3.36-.55-6.77-.85-10-2-3.31-1.18-1.26-1.34-2-2-.07-.07-1.55-.07-2,0-.06-2.82-3.08-7.17-2.95-9.55.11-2.16,6.26-5.44,8.05-8.45.61-.02,1.79.12,1.91,0,.15-.15-.4-1.93.57-2.04.58-.06,10.94,2.24,11.45,2.52,2.87,1.61-5.11,4.66-5.02,6.52.35.24.62,1.51,1,2,1.34-1.63,5.02-5.01,7-3,.03-.99.98-.93,1-1,.26-.83-.61-2.87.51-3.02,2.71.71,10.44.55,11.49,3.02.12.29.04,1.48,0,2,.85,1.03,1.61,1.17,2,2,.81-.82,1.2-2.28,2-3,2.39-2.15,8.77.75,12,1.01.35.43-1.06,1.53-1,1.99.12.83,1.88.87,2,1,2.72,3,4.06,7.16,5,11,.36-.65,1.03-3.69,1-4-.4-3.7-2.39-3.61-3.97-6.51.55-.65,1.1-1.3,1.97-1.49,2.14-.47,9.37.02,11.35.97,1.19.57.56,1.14.65,2.03.05.52.12,1.66,0,2,3.22-.15,4.28,5.37,5,8-.2.32.12,1.88-.57,2.89-1.69,2.45-3.8,4.63-5.43,7.11-.66-.05-1.34.05-2,0ZM136.2,62.32c-1.65-.71-1.09-2.26-1.2-2.32l4.51-6c.84-.18,1.38.17,1.76.77l2.56,9.02c-2.51-.39-5.67-.64-7.62-1.47ZM146.65,61.28l-2.89-7.93c.26-1.13,6.2-8.01,6.2-8.01-.27,2.89,3.08,5.96,3.03,8.19-.01.56-3.48,6.17-6.33,7.75ZM149,65c4.26-8.63,6.63-9.56,9,1-2.53-.53-6.31-.41-9-1ZM168,55c-.03.33.03.67,0,1-2.58.67-4.56,8.59-7.03,6.53-5.56-4.66-1.82-11.25,3.01-14.52l3.01,7-2-11c1.5.26,3.41-.2,5,0,.81.79-1.86,9.44-2,11ZM182,55c-1.77,11.54-3.2,24.73,0,35.99-5.12.15-6.3-.69-6.87-5.59-1.15-9.77.76-19.98,1.88-29.4.39-3.29.41-7.97,1-11,.35-1.81.52-3.07,1-5,.39-1.58,3.57-12.47,4.09-12.9.82-.7,3.38-.63,3.91,1.18.72,2.45-1.05,8.14-1.7,10.52-1.25,4.51-2.57,11.5-3.3,16.2ZM185.01,88.78c-.71-2.91-1.35-21.62,0-25.77,1.74-.24.94,2.27.99,3.48.1,2.5-.03,5.01,0,7.51,0,.05-.03.1-.03.16-.03,1.1.13,2.23.48,3.28.18.54.41,1.07.69,1.57.29.53.63,1.07,1.17,1.38.08.04.15.07.23.09l-3.52,8.31ZM192.96,43.5c-1.18.9-2.03.45-3.3,3.71-1.32,3.46-1.88,7.09-2.23,10.76-.61,1.19-.98,2.53-.76,4.43-3.47-3.67-.42-10.36.33-14.41.48-2.59,3.25-18.55,4.51-19.01,1.93-.7,2.05,3.61,2.2,4.79.3,2.43,1.19,8.24-.75,9.72Z"/>
  <path class="cls-7" d="M38.48,18.26c0-.13-.04-.22-.14-.25-7.5-1.92-9.51,7.4-9.44,13.05.02,1.33,0,2.29.38,3.93,1.64-.11,2.98.65,4.64.6.08.82.29,1.1.43,1.92.1.8.2,1.6.32,2.4.1.64.72,1.13,1.25.99.63-.03,1.24-.81,1.05-1.55-.2-.79-.36-1.59-.5-2.39-.22-1.85-.35-3.7-.4-5.56.09-4.14,1.02-8.25,2.79-12.11.2-.43-.02-.8-.37-1.03Z"/>
  <path class="cls-1" d="M54.13,25c-.18-.18-.61-.04-1.15.29-.22-.06-.46-.05-.65.11-1.13.92-2.25,1.84-3.38,2.76-.94.77-2.11,1.56-2.4,2.89-.15.68,0,1.31.25,1.94.28.71.56,1.43.83,2.14.05.12.1.25.15.37.29,2.09,1.73,6.28,3.61,5.5.44-1.29,1.98-2.6,2.75-4,2.94-5.41.55-6.11,0-12Z"/>
  <path class="cls-8" d="M51.07,20.84c-.68-.24-1.36-.47-2.04-.67-.46-.14-1-.32-1.5-.33-.36-.11-.72-.2-1.08-.3-.17-.05-.36-.03-.53.02-.04,0-.09-.02-.13-.02-.32-.03-.62.17-.81.45-.28.24-.41.62-.32,1.02.32,1.47.74,2.92,1.24,4.34.12.34.34.6.7.7.33.09.74,0,.97-.26.5-.57,1.05-1.09,1.63-1.58.28-.24.56-.47.85-.69.04-.03.09-.07.13-.1.05-.04.06-.05.06-.04,0,0,0,0,0,0,.04-.03.09-.07.13-.1.16-.12.31-.24.47-.36.04-.03.07-.07.11-.1.38-.06.73-.32.82-.71.13-.56-.17-1.05-.7-1.23Z"/>
  <path class="cls-8" d="M47.24,40.55c-.09-.37-.2-.74-.27-1.11-.01-.06-.02-.12-.03-.19,0-.02-.02-.17-.02-.21-.02-.19-.03-.38-.05-.57-.03-.42-.06-.84-.08-1.26-.03-.5-.36-.91-.87-.98-.51-.07-.93.24-1.1.72,0,.02-.02.07-.04.12-.03.08-.07.16-.11.24-.08.17-.17.34-.27.5-.18.31-.38.61-.57.91-.44.68-.84,1.35-1.14,2.1-.19.49.21,1.12.7,1.23.01,0,.02,0,.04,0,.14.07.29.12.46.13.08,0,.15.01.22.02.12.02.24.05.35.07.53.2,1.06.39,1.6.53.49.12,1.13-.16,1.23-.7.1-.53.06-1.03-.06-1.56Z"/>
  <path d="M53.72,24.19c-2.26,1.6-4.57,3.12-6.92,4.58-.55.34-.04,1.2.5.86,2.35-1.46,4.66-2.98,6.92-4.58.52-.37.02-1.24-.5-.86Z"/>
  <path class="cls-9" d="M206.02,60.38c76.34,7.92,153.21,11.79,229.98,10.93,57.53-1.04,115.37-4.35,171.76-16.38,18.75-4.08,37.35-9.19,55.15-16.48-17.72,7.48-36.28,12.79-55.01,17.08-56.35,12.66-114.25,16.61-171.85,18.27-57.69,1.37-115.42-.24-173.01-3.9-19.2-1.24-38.37-2.68-57.56-4.56,0,0,.54-4.97.54-4.97h0Z"/>
  <path d="M169.07,57.44c.01-.42-.02-.84-.11-1.24.07-1.87.15-3.75.2-5.62.02-.64-.98-.64-1,0-.03,1.28-.09,2.56-.13,3.84-.14-.15-.29-.29-.47-.41-.37-.26-.84.17-.73.56.31,1.13.61,2.27.92,3.4-1.75,2.92-3.54,5.84-5.73,8.46-.29.34-.09.82.35.85,1.81.16,3.62.39,5.41.71.33.06.61-.14.63-.48.18-2.87.33-5.75.45-8.63.1-.41.17-.82.2-1.24.02-.07.02-.14,0-.2Z"/>
  <path d="M170.13,48.25c.23-1.48.33-2.97.29-4.47-.02-.55-.83-.69-.98-.13-.93,3.48-.94,7.08-.85,10.65-.43-1.4-.87-2.79-1.37-4.16-.3-.83-.63-1.64-1.05-2.41-.44-1.46-.88-2.92-1.31-4.38-.18-.62-1.1-.36-.96.27.13.63.3,1.25.46,1.88-.33-.03-.68.25-.55.62.75,2.19,1.59,4.34,2.5,6.46.03.11.07.22.1.33.3,1.05.55,2.12.8,3.19.03.11.07.26.1.4-.27.26-.54.52-.8.78-.18.18-.18.39-.09.55-.33.19-.5.74-.65,1.06-.14.3-.02.56.19.67-.24.31-.5.62-.72.94-.15.21-.08.43.08.58-1.64,1.71-3.3,3.41-4.43,5.52-.3.57.56,1.07.86.5,1.56-2.92,4.13-5.06,6.29-7.52-.2,3.12-.22,6.26-.04,9.38.04.64.99.65,1,0v-.2c.25,0,.5-.16.5-.48,0-3.54.01-7.08.02-10.63.18-.26.36-.51.53-.78.25-.42-.23-.88-.62-.72-.06-.04-.12-.06-.18-.08.03-.08.03-.15.03-.23.2-.04.37-.19.36-.46-.07-2.26-.13-4.54.04-6.8.22.03.44-.06.48-.35Z"/>
  <path class="cls-1" d="M186.83,59.44c0-.34-.27-.49-.53-.48.01-.85.03-1.71.02-2.56,0-.16-.07-.28-.16-.36.01-.1.02-.2.03-.3.07-.64-.93-.63-1,0-.79,7.65-1.15,15.33-1.05,23.02,0,.64,1.01.64,1,0,0-.51,0-1.02,0-1.53.28.3.94.04.85-.49-.97-5.76.77-11.52.85-17.29Z"/>
</svg>