<?xml version="1.0" encoding="UTF-8"?>
<svg id="Layer_1" xmlns="http://www.w3.org/2000/svg" version="1.1" viewBox="0 0 584.12 477.04">
  <!-- Generator: Adobe Illustrator 29.8.1, SVG Export Plug-In . SVG Version: 2.1.1 Build 2)  -->
  <defs>
    <style>
      .st0 {
        fill: #e9283a;
      }

      .st1 {
        fill: #030001;
      }

      .st2 {
        fill: #222;
      }
    </style>
  </defs>
  <g>
    <path class="st1" d="M142.08,364.35c18.16.21,36.37-.27,54.54-.04,3.95.05,7.36,1.5,11.97,1.04,5.23-.52,10.8-3.9,16.09-4.9,25.15-4.76,75.13-3.18,101.89-2.09,19.24.79,36.71,6.19,54.97,7.03,16.95.78,34.07-2.26,51.09-.99,1.05-.02,2.35-.03,3.02-.98.42-.6,1.47-12.64,1.48-14.52.04-4.1-1.03-7.49-1.09-11.01-1.6-95.68-.9-191.41,1.08-287,.28-13.35-1.54-30.36-.06-43.06,1.05-9.06,10.43-8.01,17.56-7.52,6.24.43,11.65.37,12.48,7.52.55,4.73-2.3,30.28-1.03,31.53.54.53,5.73-1.1,7.52.98,2.91,3.41,2.74,24.25,2.48,29.5-1.3,25.97-7.5,52.8-9.03,78.97-.09,1.53-.3,9.21.04,9.55,1.84,1.8,8.86-5.04,10.04,9.46.52,6.32-.54,16.38-1.04,23.02-2.06,26.97-7.61,53.96-9.03,80.98-.45,8.61,1.11,4.6,6.33,6.75,3.99,1.64,3.72,12.38,4.8,16.29l-7.09,70.5c16.32-1.39,21.81,2.54,25.54,17.96,3.69,15.24,2.59,31.96,9.59,46.41,6.03,12.45,10.08,8.56,21.37,9.63,7.58.72,54.96,5.91,56.51,12.52,1.01,4.3-17.36,9.28-20.79,10.19-26.08,6.94-52.99,6.6-79.71,8.29-115.14,7.3-234.7,9.1-350,2.98-28.54-1.51-105.14-4.88-128.2-15.8-3.49-1.65-8.19-4.32-3.25-7.63,3.23-2.17,20.9-7.06,25.72-8.27,14.21-3.57,28.59-5.11,43.23-5.77,8.52-16.07,8.3-34.41,12.47-51.53,3.57-14.65,7.36-22.13,24.52-19.98-.79-15.86-4.2-31.67-4.99-47.51-.31-6.18-.9-34.56,1.9-38.08,3.04-3.83,7.45,2.08,7.13-4.92-1.55-33.84-11.72-67.37-10.08-101.03.23-4.65,1.86-9.51,1.04-14.46,1.59-.27,8.63.39,9.01.01,1.47-1.47-2.47-36.19-3.15-41.36-2.56-19.57-8.37-41.2-6.89-61.18.15-1.97,2.03-14.88,2.47-15.53,1.18-1.76,6.42-.68,8.57-.93V2.85c0-.11,1.39-1.5,1.5-1.5h25c.23,0,2.5,3.12,2.5,3.5v359.5ZM441.08,82.35c-.01.7-1.01,2.54-1.04,4.43-.22,11.49-.16,23.14.54,34.58,1.99,0,1.49-35.61,1.5-39.01,0-2-.03-4,0-6,4.36.69,1.11-4.27,1-6-.04-.66.03-1.34,0-2l3.99,2.99c2.12-4.79.69-27.52,2.45-30.06,1.43-2.05,8.06-.34,10.56-.94,1.42-.34,1.75-1.17,1.99-2.5.9-5-.19-13.45-.03-19.04.13-4.33,4.11-15.46-3.46-15.46h-16c-1.1,0-1.43,2.44-1.55,3.45-2.56,21.83.41,52.51.05,75.55ZM133.08,42.35c.77,13.26,2.56,26.96,2.01,40.49l1.99,16.51V4.35h-19.5c-1.1,0-1.43,2.44-1.55,3.45-1.14,9.71.95,21.6.05,31.56,1.32.08,2.68-.1,4,0,4.81.35,8.68-.02,13,3ZM132.08,160.35c.32,8.02-.5,16.05,1.01,24,1.46.18,1.79-2.61,1.9-3.58,3.81-35.23-6.37-71.08-7.95-105.87-.36-8.05,1.6-24.36.08-30.88-.6-2.57-16.14-1.8-19.11-1.23-3.46,2.5-1.46,32.35-.92,38.06,1.55,16.43,5.45,33.44,6.99,50.01.85,9.12,1.19,18.34,1,27.5,1,.04,2-.03,3,0,5.14.14,9.17-.47,14,2ZM460.08,157.35c.88-.24,2.75.65,3.05-.55,1.63-38.2,12.78-76.19,8.95-114.45h-18.5c-.56,0-1.53,1.68-1.5,2.5.05,9.97-.13,20.07-1.01,29.99-1.61,18.21-5.97,37.9-7.03,55.97-.7,11.97-1.74,42.27.08,53,.2,1.18.59,2.37,1.95,2.54.02-4.51,1.96-10.26,2.04-14.55.05-2.52-1.09-4.93-1.03-6.45,4.07.61.54-4.88,2.94-6.56.84-.59,7.14-.63,10.06-1.44ZM461.08,278.35c.99-.03,1.99.1,2.98,0,1.36-1.61,1.58-31.5,2.03-36.48,2.14-23.99,9.62-54.37,7.04-78.06-.58-5.35-2.82-2.47-6.51-2.4-2.72.05-11.09-.67-12.61.39-1.88,1.31-.68,17.41-.9,21.1-1.25,21.1-6.74,41.89-8.03,61.97-.86,13.26.28,27.6.03,41.03-.07,3.98-1.39,7.33-1.04,11.97.09,1.16.31,4.48,1.99,4.49-1.1-3.12,1.64-5.42,1.96-7.54.68-4.44-.05-10.69.05-15.45,4.23-1.56,8.64-.87,13-1ZM131.08,296.35c.03,4.69-1.47,12.92,1.99,16-.68-4.68.56-9.19.92-13.6,1.27-15.45,2.05-33.73,1.13-49.94-1.64-28.79-11.38-57.27-9.04-86.46h-20c-2.68,39.12,10.01,77.04,9,116.01,1,.04,2-.03,3,0,5.11.14,10.39-1.59,13,4-.02,2.66.06,5.34,0,8-1.61.95-1.64,4.99,0,6ZM473.03,281.4l-19.95-1.06c.75,10.74,1.66,21.68.99,32.49-1.2,19.42-7.31,38.54-7.03,58.05.37,26.52,6.03,53.46,8.03,79.97.29,3.8-.18,7.7,0,11.5l20-1.01c-1.61-6.73-1.37-14.36-2.12-21.37-2.45-22.86-7.07-50.37-6.92-73.16.08-11.82,4.8-30.4,6.05-43.94,1.26-13.76,3.63-27.68.94-41.46ZM126.08,281.35h-19c-.83,9.72-1.63,19.68-.99,29.49,1.17,17.84,7.39,37.42,7.03,55.05-.6,29.36-5.65,58.88-5.96,87.98-.03,2.65-.89,4.91-1.08,7.48h19c2.21-27.86,3.1-55.87,7.05-83.45.69-32.42-7.42-64.17-6.05-96.55ZM442.08,375.36c1.85-11.18-7.86-6.17-14.46-5.96-69.61,2.13-138.12-9.78-207.77-.77-3.9.5-8.14,2.35-12.29,2.71-21.18,1.89-46.3-2.39-67.03-.03-1.11.13-3.18.32-3.45,1.56-1.29,6.09,19.5,2.5,22.45,2.44,15.76-.31,33.73,1.37,49.08.08,9.07-.77,18.57-5.25,27.98-6.02,26.7-2.18,60.05-2.06,87.03-1.06,25.7.96,48.77,8.31,74,8.08,2.36-.02,4.56-1.07,6.92-1.08,12.51-.08,25.05.14,37.55.05ZM514.08,448.35c-1.69-6.42-8.48-9.32-11.49-15.01-8.17-15.42-5.59-37.75-11.1-53.88-1.35-3.95-4.76-9.9-9.18-10.94-3.12-.73-15.36.77-13.23,6.82,5.51.49,14.35-2.1,17.23,4.27,3.53,7.81,4.32,25.08,6.45,34.55,2.41,10.76,6.84,18.94,9.32,29.18h-26v5h38ZM68.08,448.35h36c-1.43-6.72-10.05-6.32-15.49-5.98-2.17.14-11.04,3.1-11.52.46-.17-.94,6.51-14.01,7.51-17.47,4.46-15.37,4.4-32.03,9.44-47.31,4.26-4.37,10.57-2.28,16.05-2.7v-5.01c-16.32-.9-18.9.85-22.69,15.82-3.26,12.87-4.15,39.25-10.88,49.12-3,4.41-9.78,6.7-8.44,13.06ZM314.08,386.35c-1.68-1.72-42.14,1.31-48,0-.62,2.23,2.79,6.12,4.44,7.06,2.25,1.28,5.36.75,5.56.94.29.28-.19,6.33.51,7.98-2.16-3.13-6.01-4.02-9.53-2.41l.02,6.43c1.59.27,8.63-.39,9.01-.01.46.46-.35,11,0,13,11.34-4,7.77-15.46,7.51-25.01,4.26,1.38,9.23,1.78,13.48.02-1.2,8.81-3.77,20.61,6.5,25.01,1.3.03-.03-12.48.5-13.02.61-.61,9.8.92,10.02-.57v-6.43c-2.28.26-5.33-.52-7.41.14-1.28.41-1.87,4.64-3.6,2.86-.28-.29,2.12-5.95,1-7.99,3.6,1.88,12.82-5.11,10-8ZM294.98,402.22c0-2.64-2.14-4.78-4.78-4.78s-4.78,2.14-4.78,4.78,2.14,4.78,4.78,4.78,4.78-2.14,4.78-4.78ZM442.08,447.35c.39-11.5-15.69-2.95-23.29-5.2-2.15-.64-8.62-8.79-12.01-10.99-4.44-2.88-18.04-7.88-23.2-7.88s-13.52,3.69-19.27,4.8c-18.06,3.5-43.32,9.54-60.85,11.15-2.22.2-5.67.56-7.7-.06-2.26-.7-2.55-3.66-3.66-4.37-2.34-1.5-7.82,6.17-11.5,5.39-29.67-5.03-59.09-13.09-89.02-15.81-6.7.6-19.62,5.87-24.54,10.45-2,1.86-4.01,6.56-6.67,7.33-4.35,1.26-22.3-1.81-23.3-.8v6.01h28.01c.4,0,.73-4.99,2.99-7.51,4.18-4.66,19.32-10.54,25.51-10.56l88.97,16.05c6.97-6.47,10.68-.02,15.9-.05,8.31-.05,29.29-4.67,38.65-6.41,20.62-3.83,59.28-18.51,74.41,2.54,1.21,1.68,2.25,5.94,2.57,5.94h28Z"/>
    <path class="st0" d="M442.08,447.35h-28c-.32,0-1.36-4.25-2.57-5.94-15.13-21.05-53.79-6.37-74.41-2.54-9.36,1.74-30.35,6.36-38.65,6.41-5.22.03-8.93-6.42-15.9.05l-88.97-16.05c-6.19.02-21.33,5.9-25.51,10.56-2.26,2.52-2.58,7.51-2.99,7.51h-28v-6.01c.99-1.01,18.95,2.06,23.29.8,2.66-.77,4.67-5.47,6.67-7.33,4.92-4.58,17.85-9.85,24.54-10.45,29.93,2.72,59.35,10.78,89.02,15.81,3.67.79,9.16-6.88,11.5-5.39,1.11.71,1.4,3.68,3.66,4.37,2.03.63,5.48.27,7.7.06,17.53-1.61,42.79-7.65,60.85-11.15,5.76-1.12,13.94-4.8,19.27-4.8s18.76,5,23.2,7.88c3.39,2.2,9.86,10.35,12.01,10.99,7.6,2.25,23.69-6.3,23.29,5.2Z"/>
    <path class="st0" d="M442.08,375.36c-12.5.09-25.03-.12-37.55-.05-2.36.01-4.55,1.06-6.92,1.08-25.23.23-48.3-7.12-74-8.08-26.97-1.01-60.33-1.12-87.03,1.06-9.41.77-18.91,5.25-27.98,6.02-15.35,1.3-33.32-.39-49.08-.08-2.95.06-23.75,3.65-22.45-2.44.26-1.24,2.33-1.44,3.45-1.56,20.73-2.35,45.85,1.92,67.03.03,4.14-.37,8.38-2.21,12.29-2.71,69.65-9.01,138.16,2.9,207.77.77,6.6-.2,16.31-5.22,14.46,5.96Z"/>
    <path class="st0" d="M314.08,386.35c2.82,2.89-6.4,9.88-10,8,1.12,2.04-1.28,7.7-1,7.99,1.73,1.78,2.33-2.45,3.6-2.86,2.08-.66,5.13.12,7.4-.14v6.43c-.21,1.49-9.4-.04-10.01.57-.54.54.79,13.05-.5,13.02-10.27-4.4-7.7-16.2-6.5-25.01-4.24,1.77-9.22,1.37-13.48-.02.26,9.55,3.83,21.01-7.51,25.01-.35-2,.46-12.54,0-13-.38-.38-7.42.28-9.01.01l-.02-6.43c3.52-1.61,7.37-.73,9.53,2.41-.7-1.65-.22-7.71-.51-7.98-.2-.2-3.32.34-5.56-.94-1.65-.94-5.06-4.83-4.44-7.06,5.86,1.31,46.32-1.72,48,0Z"/>
    <circle class="st0" cx="290.19" cy="402.22" r="4.78"/>
  </g>
  <g>
    <g>
      <path class="st0" d="M126.08,281.35c-1.37,32.38,6.74,64.13,6.05,96.55-3.95,27.58-4.84,55.6-7.05,83.45h-19c.2-2.57,1.06-4.83,1.08-7.48.31-29.1,5.35-58.62,5.96-87.98.36-17.63-5.86-37.21-7.03-55.05-.64-9.81.16-19.77.99-29.49h19ZM110.2,310.48c-1.67,2.55,6.8,46.21,5.01,53.23.78,2.38,13.65,3.15,13.89-.85l-6.17-52.87c-.45-3.52-12.28-.2-12.73.48ZM125.08,439.35h-15l-1.01,17.01c2.96-.54,11.07.95,13.07-.44,1.23-.86,1.2-13.51,2.94-16.56Z"/>
      <path class="st0" d="M118.08,278.35c-1-.03-2.01.04-3,0,1.02-38.97-11.68-76.89-9-116.01h20c-2.34,29.19,7.4,57.67,9.04,86.46.92,16.21.14,34.49-1.13,49.94-.36,4.41-1.6,8.92-.92,13.6-3.46-3.08-1.96-11.31-1.99-16-.01-2-.04-4.01,0-6,.06-2.66-.02-5.34,0-8,0-.18,1.06-1.55,1.07-3.38.22-28.35-4.68-55.76-9.12-83.57l-11.96-.06c-.08,27.82,8.74,55.03,7.01,83.01Z"/>
      <path class="st2" d="M132.08,160.35c-4.83-2.47-8.86-1.86-14-2l-8.05-88.44c17.1-4.31,12.85-1.54,14.06,10.93,2.66,27.37,6.85,51.29,7.99,79.51Z"/>
      <path class="st2" d="M118.08,278.35c1.73-27.97-7.08-55.19-7.01-83.01l11.96.06c4.45,27.81,9.34,55.21,9.12,83.57-.01,1.83-1.07,3.2-1.07,3.38-2.61-5.59-7.89-3.86-13-4Z"/>
      <path class="st0" d="M118.08,158.35c-1-.03-2.01.04-3,0,.19-9.16-.16-18.38-1-27.5-1.54-16.58-5.44-33.58-6.99-50.01-.54-5.71-2.54-35.56.92-38.06,2.97-.57,18.51-1.33,19.11,1.23,1.52,6.51-.45,22.83-.08,30.88,1.58,34.79,11.76,70.64,7.95,105.87-.1.97-.44,3.76-1.9,3.58-1.51-7.95-.69-15.97-1.01-24-1.13-28.23-5.33-52.15-7.99-79.51-1.21-12.47,3.04-15.24-14.06-10.93l8.05,88.44Z"/>
      <path class="st0" d="M68.08,448.35c-1.35-6.37,5.43-8.65,8.44-13.06,6.73-9.87,7.61-36.25,10.88-49.12,3.8-14.97,6.38-16.72,22.69-15.82v5.01c-5.49.42-11.79-1.67-16.05,2.7-5.04,15.28-4.98,31.94-9.44,47.31-1,3.46-7.68,16.53-7.51,17.47.48,2.65,9.35-.32,11.52-.46,5.43-.34,14.05-.74,15.49,5.98h-36Z"/>
      <path class="st0" d="M120.08,39.35c-1.32-.1-2.68.08-4,0,.91-9.96-1.19-21.85-.05-31.56.12-1.01.46-3.45,1.55-3.45h19.5v95l-1.99-16.51c.55-13.53-1.24-27.23-2.01-40.49-.64-10.98-1.55-21.93-.99-33.01h-12.01v30.01Z"/>
      <path class="st2" d="M120.08,39.35V9.35s12.01,0,12.01,0c-.55,11.07.35,22.02.99,33.01-4.32-3.02-8.19-2.65-13-3Z"/>
      <path class="st2" d="M131.08,296.35c-1.64-1.01-1.61-5.05,0-6-.04,1.99-.01,4,0,6Z"/>
      <path class="st2" d="M110.2,310.48c.45-.69,12.29-4.01,12.73-.48l6.17,52.87c-.25,4.01-13.11,3.23-13.89.85,1.78-7.02-6.68-50.68-5.01-53.23Z"/>
      <path class="st2" d="M125.08,439.35c-1.73,3.05-1.71,15.71-2.94,16.56-2,1.39-10.11-.1-13.07.44l1.01-17.01h15Z"/>
    </g>
    <g>
      <path class="st0" d="M473.03,281.4c2.69,13.77.32,27.7-.94,41.46-1.25,13.55-5.97,32.12-6.05,43.94-.15,22.79,4.47,50.3,6.92,73.16.75,7.01.5,14.64,2.12,21.37l-20,1.01c-.18-3.8.28-7.69,0-11.5-2.01-26.51-7.66-53.45-8.03-79.97-.27-19.51,5.83-38.63,7.03-58.05.67-10.82-.24-21.75-.99-32.49l19.95,1.06ZM469.08,309.35c-4.13.47-9.68-1.8-11.75,2.76-1.4,3.09-2.55,12.88-3.13,16.87-1.79,12.37-1.9,25.05-4.12,37.37,2.92-.57,12.86,1.52,13.85-1.64,1.32-18.6,6.64-36.58,5.15-55.36ZM472.08,457.35c-.33-3.25-1-17.19-2.94-18.56s-10.1.09-13.06-.44l2,19h14Z"/>
      <path class="st0" d="M447.08,165.35c-.05,1.52,1.08,3.93,1.03,6.45-.08,4.29-2.03,10.04-2.04,14.55-1.35-.17-1.75-1.36-1.95-2.54-1.82-10.73-.79-41.03-.08-53,1.06-18.07,5.42-37.76,7.03-55.97.88-9.92,1.06-20.02,1.01-29.99-.03-.82.94-2.5,1.5-2.5h18.5c3.84,38.26-7.31,76.26-8.95,114.45-.31,1.2-2.17.3-3.05.55l7-86c-2.1.29-6.5-.69-8.07.44-1.95,1.4-8.14,41.67-8.8,47.19-1.86,15.34-2.59,30.92-3.13,46.37Z"/>
      <path class="st0" d="M448.08,279.35c-.1,4.76.63,11.01-.05,15.45-.32,2.13-3.06,4.42-1.96,7.54-1.68,0-1.9-3.33-1.99-4.49-.35-4.64.97-7.99,1.04-11.97.25-13.43-.89-27.77-.03-41.03,1.3-20.08,6.78-40.87,8.03-61.97.22-3.7-.99-19.8.9-21.1,1.52-1.06,9.88-.34,12.61-.39,3.68-.07,5.92-2.95,6.51,2.4,2.58,23.68-4.89,54.06-7.04,78.06-.45,4.98-.67,34.87-2.03,36.48-.99.11-1.99-.02-2.98,0-1.14-27.93,5.87-55.26,8-83-4.4,0-8.77.4-13-1.01-2.72,18.98-6.9,38.32-8,57.51-.51,8.97.17,18.44,0,27.49Z"/>
      <path class="st2" d="M448.08,279.35c.18-9.05-.5-18.53,0-27.49,1.1-19.19,5.28-38.54,8-57.51,4.23,1.4,8.6,1.02,13,1.01-2.13,27.74-9.14,55.06-8,83-4.36.13-8.77-.56-13,1Z"/>
      <path class="st2" d="M447.08,165.35c.54-15.45,1.27-31.03,3.13-46.37.67-5.52,6.85-45.8,8.8-47.19,1.57-1.12,5.97-.14,8.07-.44l-7,86c-2.92.81-9.23.85-10.06,1.44-2.39,1.68,1.13,7.17-2.94,6.56Z"/>
      <path class="st2" d="M443.08,68.35c-.82-19.04,1.82-38.88,1.45-58.05,1.33-1.98,12.46,1.22,15.56.05v30.01c-2.51.6-9.14-1.12-10.57.94-1.76,2.53-.32,25.27-2.45,30.06l-3.99-2.99Z"/>
      <path class="st0" d="M514.08,448.35h-38v-5h26c-2.48-10.25-6.9-18.43-9.32-29.18-2.12-9.47-2.92-26.75-6.45-34.55-2.88-6.37-11.72-3.78-17.23-4.27-2.13-6.05,10.11-7.55,13.23-6.82,4.42,1.04,7.83,6.99,9.18,10.94,5.51,16.13,2.93,38.46,11.1,53.88,3.02,5.69,9.8,8.58,11.49,15.01Z"/>
      <path class="st0" d="M460.08,40.35V10.35c-3.09,1.18-14.22-2.03-15.55-.05.38,19.17-2.27,39.02-1.45,58.05.03.66-.04,1.34,0,2-1.68,1.09-.97,4.11-1,6-.03,2,0,4,0,6h-1c.36-23.04-2.61-53.72-.05-75.55.12-1.01.46-3.45,1.55-3.45h16c7.56,0,3.59,11.13,3.46,15.46-.16,5.59.93,14.03.03,19.04-.24,1.34-.57,2.16-1.99,2.5Z"/>
      <path class="st2" d="M442.08,82.35c-.01,3.4.49,39-1.5,39.01-.7-11.44-.77-23.09-.54-34.58.04-1.88,1.03-3.72,1.04-4.43h1Z"/>
      <path class="st2" d="M443.08,70.35c.11,1.73,3.36,6.69-1,6,.03-1.89-.68-4.91,1-6Z"/>
      <path class="st2" d="M469.08,309.35c1.49,18.78-3.83,36.76-5.15,55.36-.99,3.16-10.93,1.07-13.85,1.64,2.23-12.32,2.33-24.99,4.12-37.37.58-3.99,1.73-13.78,3.13-16.87,2.07-4.56,7.61-2.29,11.75-2.76Z"/>
      <path class="st2" d="M472.08,457.35h-14l-2-19c2.96.54,11.06-.96,13.06.44s2.61,15.31,2.94,18.56Z"/>
    </g>
  </g>
</svg>